<svg width="220" height="45" viewBox="0 0 220 45" fill="none" xmlns="http://www.w3.org/2000/svg">
<path d="M58.0133 30.5314C56.9041 31.0683 55.4557 31.3368 53.6682 31.3368C51.3368 31.3368 49.5034 30.6515 48.168 29.2809C46.8327 27.9102 46.1651 26.0839 46.1651 23.8019C46.1651 21.3715 46.914 19.4003 48.4118 17.8884C49.9167 16.3764 51.8666 15.6205 54.2617 15.6205C55.7454 15.6205 56.9959 15.8077 58.0133 16.1821V19.478C56.9959 18.8704 55.8372 18.5666 54.5372 18.5666C53.1101 18.5666 51.9585 19.0152 51.0824 19.9125C50.2063 20.8098 49.7683 22.025 49.7683 23.5581C49.7683 25.0277 50.1816 26.2005 51.0082 27.0765C51.8348 27.9456 52.9476 28.3801 54.3465 28.3801C55.6818 28.3801 56.9041 28.0551 58.0133 27.4051V30.5314ZM70.6457 31.0719H67.3074V29.4186H67.2545C66.4278 30.6974 65.3221 31.3368 63.9374 31.3368C61.4222 31.3368 60.1646 29.8143 60.1646 26.7692V20.2199H63.5029V26.4725C63.5029 28.0056 64.1105 28.7722 65.3257 28.7722C65.9262 28.7722 66.4066 28.5638 66.767 28.1469C67.1273 27.723 67.3074 27.1507 67.3074 26.4301V20.2199H70.6457V31.0719ZM72.7652 30.7857V28.0727C73.3163 28.4048 73.8639 28.6521 74.4079 28.8146C74.959 28.9771 75.4783 29.0583 75.9657 29.0583C76.5592 29.0583 77.0255 28.9771 77.3646 28.8146C77.7108 28.6521 77.8839 28.4048 77.8839 28.0727C77.8839 27.8608 77.8062 27.6841 77.6508 27.5428C77.4953 27.4015 77.294 27.2779 77.0467 27.1719C76.8065 27.0659 76.5416 26.9706 76.2519 26.8858C75.9622 26.801 75.6831 26.7056 75.4147 26.5997C74.9837 26.4372 74.6022 26.2641 74.2701 26.0804C73.9451 25.8896 73.6696 25.6706 73.4435 25.4233C73.2245 25.176 73.0549 24.8899 72.9348 24.5649C72.8218 24.2399 72.7652 23.8549 72.7652 23.4098C72.7652 22.8022 72.896 22.2793 73.1574 21.8413C73.4258 21.4033 73.7791 21.0465 74.2171 20.7709C74.6622 20.4883 75.1674 20.2834 75.7326 20.1563C76.3049 20.022 76.8983 19.9549 77.513 19.9549C77.9934 19.9549 78.4809 19.9938 78.9755 20.0715C79.47 20.1421 79.9575 20.2481 80.438 20.3894V22.9752C80.0141 22.728 79.5584 22.5443 79.0709 22.4242C78.5904 22.297 78.1171 22.2334 77.6508 22.2334C77.4318 22.2334 77.2233 22.2546 77.0255 22.297C76.8348 22.3323 76.6652 22.3888 76.5168 22.4666C76.3685 22.5372 76.2519 22.6326 76.1671 22.7527C76.0823 22.8657 76.0399 22.9964 76.0399 23.1448C76.0399 23.3426 76.1035 23.5122 76.2307 23.6535C76.3579 23.7948 76.5239 23.9184 76.7288 24.0244C76.9337 24.1233 77.1597 24.2152 77.407 24.3C77.6614 24.3777 77.9122 24.4589 78.1595 24.5437C78.6046 24.6991 79.0073 24.8687 79.3676 25.0524C79.7279 25.2361 80.0352 25.4516 80.2896 25.6988C80.551 25.9461 80.7488 26.2358 80.8831 26.5679C81.0244 26.8999 81.095 27.2956 81.095 27.7548C81.095 28.3977 80.9537 28.9488 80.6711 29.408C80.3956 29.8602 80.0247 30.2311 79.5584 30.5208C79.0991 30.8034 78.5657 31.0083 77.9581 31.1355C77.3576 31.2697 76.7323 31.3368 76.0823 31.3368C74.8883 31.3368 73.7826 31.1531 72.7652 30.7857ZM89.5944 30.9447C89.0998 31.2061 88.3544 31.3368 87.3582 31.3368C84.9985 31.3368 83.8186 30.111 83.8186 27.6594V22.6891H82.0594V20.2199H83.8186V17.8778L87.1569 16.924V20.2199H89.5944V22.6891H87.1569V27.0765C87.1569 28.207 87.6055 28.7722 88.5028 28.7722C88.856 28.7722 89.2199 28.6697 89.5944 28.4648V30.9447ZM96.5782 31.3368C94.7695 31.3368 93.3459 30.8317 92.3074 29.8213C91.2758 28.804 90.7601 27.4263 90.7601 25.6883C90.7601 23.8937 91.297 22.4913 92.3709 21.481C93.4448 20.4636 94.8967 19.9549 96.7266 19.9549C98.5282 19.9549 99.9412 20.4636 100.966 21.481C101.99 22.4913 102.502 23.8301 102.502 25.4975C102.502 27.2991 101.972 28.7227 100.913 29.7684C99.86 30.814 98.4151 31.3368 96.5782 31.3368ZM96.663 22.5195C95.8717 22.5195 95.257 22.7916 94.819 23.3356C94.381 23.8796 94.1619 24.6497 94.1619 25.6459C94.1619 27.7301 95.0027 28.7722 96.6842 28.7722C98.288 28.7722 99.0899 27.7018 99.0899 25.5611C99.0899 23.5334 98.2809 22.5195 96.663 22.5195ZM121.907 31.0719H118.568V24.8828C118.568 23.3073 117.989 22.5195 116.83 22.5195C116.279 22.5195 115.831 22.7562 115.484 23.2296C115.138 23.703 114.965 24.2929 114.965 24.9994V31.0719H111.616V24.8192C111.616 23.2861 111.048 22.5195 109.91 22.5195C109.338 22.5195 108.879 22.7456 108.532 23.1978C108.193 23.65 108.024 24.2646 108.024 25.0418V31.0719H104.675V20.2199H108.024V21.9155H108.066C108.412 21.3361 108.896 20.8663 109.518 20.506C110.147 20.1386 110.832 19.9549 111.574 19.9549C113.107 19.9549 114.156 20.6296 114.721 21.9791C115.548 20.6296 116.763 19.9549 118.367 19.9549C120.727 19.9549 121.907 21.4103 121.907 24.3212V31.0719ZM134.306 26.5997H127.227C127.34 28.1752 128.332 28.9629 130.205 28.9629C131.399 28.9629 132.448 28.6803 133.352 28.1151V30.5314C132.349 31.0683 131.045 31.3368 129.442 31.3368C127.689 31.3368 126.329 30.8529 125.361 29.8849C124.394 28.9099 123.91 27.5534 123.91 25.8154C123.91 24.0138 124.432 22.5867 125.478 21.534C126.524 20.4813 127.81 19.9549 129.336 19.9549C130.918 19.9549 132.14 20.4247 133.002 21.3644C133.871 22.3041 134.306 23.5793 134.306 25.1902V26.5997ZM131.201 24.5437C131.201 22.9894 130.572 22.2122 129.314 22.2122C128.777 22.2122 128.311 22.4348 127.916 22.8799C127.527 23.325 127.29 23.8796 127.205 24.5437H131.201ZM143.378 23.2402C142.975 23.0212 142.505 22.9117 141.968 22.9117C141.24 22.9117 140.672 23.1801 140.262 23.7171C139.852 24.247 139.647 24.9711 139.647 25.8896V31.0719H136.298V20.2199H139.647V22.2334H139.69C140.219 20.7639 141.173 20.0291 142.551 20.0291C142.904 20.0291 143.18 20.0715 143.378 20.1563V23.2402Z" fill="#333333"/>
<path d="M154.389 31.0719H145.275V15.8748H154.039V18.662H148.698V22.0427H153.668V24.8192H148.698V28.2953H154.389V31.0719ZM166.979 20.2199L163.397 25.4763L166.957 31.0719H163.1L161.531 28.1469C161.404 27.9138 161.252 27.5852 161.076 27.1613H161.033C160.927 27.4581 160.782 27.776 160.599 28.1151L159.02 31.0719H155.173L158.84 25.6671L155.395 20.2199H159.274L160.821 23.2614C161.026 23.6641 161.171 24.0032 161.256 24.2788H161.298C161.411 23.9467 161.563 23.6005 161.754 23.2402L163.333 20.2199H166.979ZM171.885 29.8107H171.843V36.0634H168.494V20.2199H171.843V21.8519H171.885C172.712 20.5872 173.874 19.9549 175.372 19.9549C176.778 19.9549 177.862 20.4389 178.625 21.4068C179.396 22.3676 179.781 23.6782 179.781 25.3385C179.781 27.1472 179.332 28.5991 178.435 29.6942C177.544 30.7893 176.358 31.3368 174.874 31.3368C173.567 31.3368 172.571 30.8281 171.885 29.8107ZM171.79 25.3597V26.2287C171.79 26.9776 171.988 27.5888 172.383 28.0621C172.779 28.5355 173.298 28.7722 173.941 28.7722C174.704 28.7722 175.294 28.479 175.711 27.8926C176.135 27.2991 176.347 26.4619 176.347 25.3809C176.347 23.4733 175.605 22.5195 174.121 22.5195C173.436 22.5195 172.874 22.781 172.436 23.3038C172.005 23.8195 171.79 24.5048 171.79 25.3597ZM189.032 23.2402C188.63 23.0212 188.16 22.9117 187.623 22.9117C186.895 22.9117 186.326 23.1801 185.917 23.7171C185.507 24.247 185.302 24.9711 185.302 25.8896V31.0719H181.953V20.2199H185.302V22.2334H185.344C185.874 20.7639 186.828 20.0291 188.206 20.0291C188.559 20.0291 188.834 20.0715 189.032 20.1563V23.2402ZM200.266 26.5997H193.187C193.3 28.1752 194.292 28.9629 196.165 28.9629C197.359 28.9629 198.408 28.6803 199.312 28.1151V30.5314C198.309 31.0683 197.005 31.3368 195.402 31.3368C193.649 31.3368 192.289 30.8529 191.321 29.8849C190.353 28.9099 189.87 27.5534 189.87 25.8154C189.87 24.0138 190.392 22.5867 191.438 21.534C192.484 20.4813 193.769 19.9549 195.296 19.9549C196.878 19.9549 198.1 20.4247 198.962 21.3644C199.831 22.3041 200.266 23.5793 200.266 25.1902V26.5997ZM197.161 24.5437C197.161 22.9894 196.532 22.2122 195.274 22.2122C194.737 22.2122 194.271 22.4348 193.875 22.8799C193.487 23.325 193.25 23.8796 193.165 24.5437H197.161ZM201.548 30.7857V28.0727C202.099 28.4048 202.647 28.6521 203.191 28.8146C203.742 28.9771 204.261 29.0583 204.749 29.0583C205.342 29.0583 205.808 28.9771 206.148 28.8146C206.494 28.6521 206.667 28.4048 206.667 28.0727C206.667 27.8608 206.589 27.6841 206.434 27.5428C206.278 27.4015 206.077 27.2779 205.83 27.1719C205.589 27.0659 205.324 26.9706 205.035 26.8858C204.745 26.801 204.466 26.7056 204.198 26.5997C203.767 26.4372 203.385 26.2641 203.053 26.0804C202.728 25.8896 202.453 25.6706 202.226 25.4233C202.007 25.176 201.838 24.8899 201.718 24.5649C201.605 24.2399 201.548 23.8549 201.548 23.4098C201.548 22.8022 201.679 22.2793 201.94 21.8413C202.209 21.4033 202.562 21.0465 203 20.7709C203.445 20.4883 203.95 20.2834 204.516 20.1563C205.088 20.022 205.681 19.9549 206.296 19.9549C206.776 19.9549 207.264 19.9938 207.758 20.0715C208.253 20.1421 208.74 20.2481 209.221 20.3894V22.9752C208.797 22.728 208.341 22.5443 207.854 22.4242C207.373 22.297 206.9 22.2334 206.434 22.2334C206.215 22.2334 206.006 22.2546 205.808 22.297C205.618 22.3323 205.448 22.3888 205.3 22.4666C205.151 22.5372 205.035 22.6326 204.95 22.7527C204.865 22.8657 204.823 22.9964 204.823 23.1448C204.823 23.3426 204.886 23.5122 205.014 23.6535C205.141 23.7948 205.307 23.9184 205.512 24.0244C205.717 24.1233 205.943 24.2152 206.19 24.3C206.444 24.3777 206.695 24.4589 206.942 24.5437C207.387 24.6991 207.79 24.8687 208.151 25.0524C208.511 25.2361 208.818 25.4516 209.073 25.6988C209.334 25.9461 209.532 26.2358 209.666 26.5679C209.807 26.8999 209.878 27.2956 209.878 27.7548C209.878 28.3977 209.737 28.9488 209.454 29.408C209.178 29.8602 208.808 30.2311 208.341 30.5208C207.882 30.8034 207.349 31.0083 206.741 31.1355C206.14 31.2697 205.515 31.3368 204.865 31.3368C203.671 31.3368 202.566 31.1531 201.548 30.7857ZM211.107 30.7857V28.0727C211.658 28.4048 212.206 28.6521 212.75 28.8146C213.301 28.9771 213.82 29.0583 214.308 29.0583C214.901 29.0583 215.368 28.9771 215.707 28.8146C216.053 28.6521 216.226 28.4048 216.226 28.0727C216.226 27.8608 216.148 27.6841 215.993 27.5428C215.837 27.4015 215.636 27.2779 215.389 27.1719C215.149 27.0659 214.884 26.9706 214.594 26.8858C214.304 26.801 214.025 26.7056 213.757 26.5997C213.326 26.4372 212.944 26.2641 212.612 26.0804C212.287 25.8896 212.012 25.6706 211.786 25.4233C211.567 25.176 211.397 24.8899 211.277 24.5649C211.164 24.2399 211.107 23.8549 211.107 23.4098C211.107 22.8022 211.238 22.2793 211.499 21.8413C211.768 21.4033 212.121 21.0465 212.559 20.7709C213.004 20.4883 213.509 20.2834 214.075 20.1563C214.647 20.022 215.24 19.9549 215.855 19.9549C216.335 19.9549 216.823 19.9938 217.318 20.0715C217.812 20.1421 218.3 20.2481 218.78 20.3894V22.9752C218.356 22.728 217.9 22.5443 217.413 22.4242C216.932 22.297 216.459 22.2334 215.993 22.2334C215.774 22.2334 215.565 22.2546 215.368 22.297C215.177 22.3323 215.007 22.3888 214.859 22.4666C214.71 22.5372 214.594 22.6326 214.509 22.7527C214.424 22.8657 214.382 22.9964 214.382 23.1448C214.382 23.3426 214.446 23.5122 214.573 23.6535C214.7 23.7948 214.866 23.9184 215.071 24.0244C215.276 24.1233 215.502 24.2152 215.749 24.3C216.003 24.3777 216.254 24.4589 216.501 24.5437C216.947 24.6991 217.349 24.8687 217.71 25.0524C218.07 25.2361 218.377 25.4516 218.632 25.6988C218.893 25.9461 219.091 26.2358 219.225 26.5679C219.366 26.8999 219.437 27.2956 219.437 27.7548C219.437 28.3977 219.296 28.9488 219.013 29.408C218.738 29.8602 218.367 30.2311 217.9 30.5208C217.441 30.8034 216.908 31.0083 216.3 31.1355C215.7 31.2697 215.074 31.3368 214.424 31.3368C213.23 31.3368 212.125 31.1531 211.107 30.7857Z" fill="#1EB7D1"/>
<path fill-rule="evenodd" clip-rule="evenodd" d="M28.3632 5.42834L21.4893 1.10755C20.4074 0.427504 19.0383 0.40058 17.9305 1.03757L1.73174 10.3519C0.660426 10.9679 0 12.1094 0 13.3452V31.3433C0 32.5562 0.636368 33.6801 1.6764 34.3041L17.908 44.0431C19.0259 44.7138 20.4262 44.6978 21.5284 44.0017L36.8663 34.3146C37.8679 33.6819 38.4753 32.5799 38.4753 31.3952V13.2881C38.4753 12.0831 37.8471 10.9652 36.8178 10.3387L32.8027 7.89471L20.5485 39.1083C20.1145 40.2137 18.8095 40.6881 17.767 40.1194L13.2309 37.6452L31.2532 7.8392C31.5618 7.32876 31.3894 6.66429 30.8715 6.36835C30.4205 6.11063 29.8492 6.21715 29.5214 6.62008L7.03165 34.2638L4.48119 32.8726C3.84731 32.5269 3.45291 31.8625 3.45291 31.1405V29.1055L28.3632 5.42834ZM23.1839 6.41489L2.95964 20.9665V14.4052C2.95964 13.7298 3.30503 13.1014 3.87514 12.7394L17.4429 4.12496C18.087 3.71603 18.9091 3.71505 19.5542 4.12245L23.1839 6.41489ZM26.6368 36.9978L33.0493 12.3342L34.3904 13.2282C34.9394 13.5942 35.2691 14.2102 35.2691 14.8699V30.9201C35.2691 31.6281 34.8897 32.2819 34.2749 32.6332L26.6368 36.9978Z" fill="url(#paint0_linear)"/>
<defs>
<linearGradient id="paint0_linear" x1="38.4753" y1="25.1593" x2="5.42601" y2="22.6929" gradientUnits="userSpaceOnUse">
<stop stop-color="#189EB1"/>
<stop offset="1" stop-color="#49559E"/>
</linearGradient>
</defs>
</svg>
