<svg width="310" height="62" viewBox="0 0 310 62" fill="none" xmlns="http://www.w3.org/2000/svg">
<path d="M81.7455 42.798C80.1826 43.5546 78.1417 43.9329 75.623 43.9329C72.3377 43.9329 69.7543 42.9672 67.8727 41.0359C65.9911 39.1045 65.0504 36.5311 65.0504 33.3155C65.0504 29.8908 66.1056 27.1133 68.2162 24.9828C70.3367 22.8524 73.0844 21.7871 76.4592 21.7871C78.5499 21.7871 80.312 22.051 81.7455 22.5786V27.2228C80.312 26.3666 78.6793 25.9385 76.8475 25.9385C74.8365 25.9385 73.2138 26.5707 71.9793 27.835C70.7448 29.0994 70.1276 30.8117 70.1276 32.972C70.1276 35.0427 70.71 36.6953 71.8748 37.9298C73.0396 39.1543 74.6075 39.7666 76.5787 39.7666C78.4603 39.7666 80.1826 39.3086 81.7455 38.3927V42.798ZM99.5458 43.5596H94.8419V41.23H94.7672C93.6024 43.0319 92.0444 43.9329 90.0931 43.9329C86.549 43.9329 84.777 41.7875 84.777 37.4967V28.2681H89.4809V37.0786C89.4809 39.2389 90.3371 40.3191 92.0494 40.3191C92.8956 40.3191 93.5726 40.0254 94.0803 39.438C94.588 38.8407 94.8419 38.0343 94.8419 37.0189V28.2681H99.5458V43.5596ZM102.532 43.1564V39.3335C103.309 39.8014 104.08 40.1498 104.847 40.3788C105.624 40.6078 106.355 40.7223 107.042 40.7223C107.878 40.7223 108.536 40.6078 109.013 40.3788C109.501 40.1498 109.745 39.8014 109.745 39.3335C109.745 39.0348 109.636 38.786 109.417 38.5869C109.198 38.3877 108.914 38.2135 108.565 38.0642C108.227 37.9149 107.854 37.7805 107.445 37.661C107.037 37.5415 106.644 37.4071 106.266 37.2578C105.658 37.0288 105.121 36.7849 104.653 36.5261C104.195 36.2573 103.807 35.9487 103.488 35.6002C103.18 35.2518 102.941 34.8486 102.771 34.3907C102.612 33.9327 102.532 33.3901 102.532 32.7629C102.532 31.9068 102.717 31.1701 103.085 30.5529C103.463 29.9356 103.961 29.4329 104.578 29.0446C105.205 28.6464 105.917 28.3577 106.714 28.1785C107.52 27.9893 108.356 27.8948 109.222 27.8948C109.899 27.8948 110.586 27.9495 111.283 28.059C111.98 28.1586 112.667 28.3079 113.344 28.507V32.1507C112.747 31.8023 112.105 31.5434 111.418 31.3742C110.741 31.195 110.074 31.1054 109.417 31.1054C109.108 31.1054 108.814 31.1352 108.536 31.195C108.267 31.2448 108.028 31.3244 107.819 31.4339C107.61 31.5335 107.445 31.6679 107.326 31.8371C107.206 31.9964 107.147 32.1806 107.147 32.3896C107.147 32.6684 107.236 32.9073 107.416 33.1064C107.595 33.3055 107.829 33.4797 108.117 33.6291C108.406 33.7684 108.725 33.8979 109.073 34.0173C109.431 34.1268 109.785 34.2413 110.133 34.3608C110.761 34.5798 111.328 34.8187 111.836 35.0776C112.343 35.3364 112.777 35.6401 113.135 35.9885C113.503 36.3369 113.782 36.7451 113.971 37.213C114.17 37.6809 114.27 38.2384 114.27 38.8855C114.27 39.7915 114.071 40.568 113.672 41.2151C113.284 41.8522 112.762 42.3749 112.105 42.783C111.457 43.1813 110.706 43.47 109.85 43.6492C109.003 43.8383 108.122 43.9329 107.206 43.9329C105.524 43.9329 103.966 43.6741 102.532 43.1564ZM126.246 43.3804C125.549 43.7487 124.499 43.9329 123.095 43.9329C119.77 43.9329 118.108 42.2056 118.108 38.7511V31.7475H115.629V28.2681H118.108V24.9679L122.812 23.6239V28.2681H126.246V31.7475H122.812V37.9298C122.812 39.5227 123.444 40.3191 124.708 40.3191C125.206 40.3191 125.719 40.1747 126.246 39.886V43.3804ZM136.087 43.9329C133.538 43.9329 131.532 43.2211 130.069 41.7975C128.616 40.3639 127.889 38.4226 127.889 35.9736C127.889 33.4449 128.645 31.4687 130.159 30.0451C131.672 28.6116 133.718 27.8948 136.296 27.8948C138.835 27.8948 140.826 28.6116 142.269 30.0451C143.713 31.4687 144.435 33.3553 144.435 35.7048C144.435 38.2434 143.688 40.2494 142.195 41.7228C140.711 43.1962 138.675 43.9329 136.087 43.9329ZM136.207 31.5086C135.092 31.5086 134.225 31.8919 133.608 32.6584C132.991 33.425 132.682 34.5101 132.682 35.9138C132.682 38.8507 133.867 40.3191 136.236 40.3191C138.496 40.3191 139.626 38.8108 139.626 35.7944C139.626 32.9372 138.486 31.5086 136.207 31.5086ZM171.777 43.5596H167.073V34.8386C167.073 32.6186 166.257 31.5086 164.624 31.5086C163.848 31.5086 163.215 31.8421 162.728 32.5091C162.24 33.1761 161.996 34.0074 161.996 35.0029V43.5596H157.277V34.7491C157.277 32.5887 156.476 31.5086 154.873 31.5086C154.066 31.5086 153.419 31.8271 152.932 32.4643C152.454 33.1014 152.215 33.9676 152.215 35.0626V43.5596H147.496V28.2681H152.215V30.6574H152.275C152.762 29.841 153.444 29.179 154.32 28.6713C155.206 28.1536 156.172 27.8948 157.217 27.8948C159.378 27.8948 160.856 28.8455 161.652 30.747C162.817 28.8455 164.53 27.8948 166.789 27.8948C170.115 27.8948 171.777 29.9456 171.777 34.0472V43.5596ZM189.249 37.2578H179.274C179.433 39.4779 180.832 40.5879 183.47 40.5879C185.152 40.5879 186.631 40.1897 187.905 39.3932V42.798C186.491 43.5546 184.654 43.9329 182.395 43.9329C179.926 43.9329 178.009 43.251 176.645 41.8871C175.281 40.5132 174.599 38.6018 174.599 36.1528C174.599 33.6141 175.336 31.6031 176.81 30.1198C178.283 28.6364 180.095 27.8948 182.245 27.8948C184.475 27.8948 186.198 28.5568 187.412 29.8809C188.637 31.2049 189.249 33.0019 189.249 35.2717V37.2578ZM184.873 34.3608C184.873 32.1706 183.987 31.0755 182.215 31.0755C181.459 31.0755 180.802 31.3891 180.244 32.0163C179.697 32.6435 179.363 33.425 179.244 34.3608H184.873ZM202.032 32.524C201.464 32.2154 200.802 32.0611 200.045 32.0611C199.02 32.0611 198.219 32.4394 197.641 33.196C197.064 33.9427 196.775 34.9631 196.775 36.2573V43.5596H192.056V28.2681H196.775V31.1054H196.835C197.581 29.0347 198.925 27.9993 200.867 27.9993C201.365 27.9993 201.753 28.059 202.032 28.1785V32.524Z" fill="#333333"/>
<path d="M217.547 43.5596H204.705V22.1455H217.054V26.0729H209.528V30.8366H216.532V34.7491H209.528V39.6471H217.547V43.5596ZM235.288 28.2681L230.24 35.6749L235.258 43.5596H229.822L227.612 39.438C227.433 39.1095 227.219 38.6466 226.97 38.0493H226.91C226.761 38.4674 226.557 38.9154 226.298 39.3932L224.073 43.5596H218.652L223.819 35.9437L218.966 28.2681H224.431L226.611 32.5539C226.9 33.1213 227.104 33.5992 227.224 33.9875H227.283C227.443 33.5196 227.657 33.0317 227.926 32.524L230.151 28.2681H235.288ZM242.202 41.7825H242.142V50.5931H237.423V28.2681H242.142V30.5678H242.202C243.366 28.7858 245.004 27.8948 247.115 27.8948C249.096 27.8948 250.624 28.5767 251.699 29.9406C252.784 31.2945 253.327 33.1413 253.327 35.4808C253.327 38.0294 252.695 40.0752 251.43 41.6183C250.176 43.1614 248.503 43.9329 246.413 43.9329C244.571 43.9329 243.167 43.2161 242.202 41.7825ZM242.067 35.5106V36.7352C242.067 37.7904 242.346 38.6516 242.903 39.3186C243.461 39.9856 244.193 40.3191 245.099 40.3191C246.174 40.3191 247.005 39.9059 247.592 39.0796C248.19 38.2434 248.488 37.0637 248.488 35.5405C248.488 32.8525 247.443 31.5086 245.352 31.5086C244.387 31.5086 243.595 31.8769 242.978 32.6136C242.371 33.3404 242.067 34.306 242.067 35.5106ZM266.363 32.524C265.796 32.2154 265.134 32.0611 264.377 32.0611C263.352 32.0611 262.55 32.4394 261.973 33.196C261.396 33.9427 261.107 34.9631 261.107 36.2573V43.5596H256.388V28.2681H261.107V31.1054H261.167C261.913 29.0347 263.257 27.9993 265.199 27.9993C265.696 27.9993 266.085 28.059 266.363 28.1785V32.524ZM282.192 37.2578H272.217C272.376 39.4779 273.775 40.5879 276.413 40.5879C278.096 40.5879 279.574 40.1897 280.848 39.3932V42.798C279.435 43.5546 277.598 43.9329 275.338 43.9329C272.869 43.9329 270.953 43.251 269.589 41.8871C268.225 40.5132 267.543 38.6018 267.543 36.1528C267.543 33.6141 268.28 31.6031 269.753 30.1198C271.226 28.6364 273.038 27.8948 275.189 27.8948C277.419 27.8948 279.141 28.5568 280.356 29.8809C281.58 31.2049 282.192 33.0019 282.192 35.2717V37.2578ZM277.817 34.3608C277.817 32.1706 276.931 31.0755 275.159 31.0755C274.402 31.0755 273.745 31.3891 273.188 32.0163C272.64 32.6435 272.307 33.425 272.187 34.3608H277.817ZM283.999 43.1564V39.3335C284.776 39.8014 285.547 40.1498 286.314 40.3788C287.09 40.6078 287.822 40.7223 288.509 40.7223C289.345 40.7223 290.002 40.6078 290.48 40.3788C290.968 40.1498 291.212 39.8014 291.212 39.3335C291.212 39.0348 291.102 38.786 290.883 38.5869C290.664 38.3877 290.381 38.2135 290.032 38.0642C289.694 37.9149 289.32 37.7805 288.912 37.661C288.504 37.5415 288.111 37.4071 287.733 37.2578C287.125 37.0288 286.588 36.7849 286.12 36.5261C285.662 36.2573 285.274 35.9487 284.955 35.6002C284.646 35.2518 284.407 34.8486 284.238 34.3907C284.079 33.9327 283.999 33.3901 283.999 32.7629C283.999 31.9068 284.183 31.1701 284.552 30.5529C284.93 29.9356 285.428 29.4329 286.045 29.0446C286.672 28.6464 287.384 28.3577 288.181 28.1785C288.987 27.9893 289.823 27.8948 290.689 27.8948C291.366 27.8948 292.053 27.9495 292.75 28.059C293.447 28.1586 294.134 28.3079 294.811 28.507V32.1507C294.213 31.8023 293.571 31.5434 292.884 31.3742C292.207 31.195 291.54 31.1054 290.883 31.1054C290.575 31.1054 290.281 31.1352 290.002 31.195C289.734 31.2448 289.495 31.3244 289.286 31.4339C289.077 31.5335 288.912 31.6679 288.793 31.8371C288.673 31.9964 288.614 32.1806 288.614 32.3896C288.614 32.6684 288.703 32.9073 288.882 33.1064C289.062 33.3055 289.296 33.4797 289.584 33.6291C289.873 33.7684 290.192 33.8979 290.54 34.0173C290.898 34.1268 291.252 34.2413 291.6 34.3608C292.227 34.5798 292.795 34.8187 293.303 35.0776C293.81 35.3364 294.243 35.6401 294.602 35.9885C294.97 36.3369 295.249 36.7451 295.438 37.213C295.637 37.6809 295.737 38.2384 295.737 38.8855C295.737 39.7915 295.538 40.568 295.139 41.2151C294.751 41.8522 294.228 42.3749 293.571 42.783C292.924 43.1813 292.173 43.47 291.316 43.6492C290.47 43.8383 289.589 43.9329 288.673 43.9329C286.991 43.9329 285.433 43.6741 283.999 43.1564ZM297.469 43.1564V39.3335C298.245 39.8014 299.017 40.1498 299.784 40.3788C300.56 40.6078 301.292 40.7223 301.979 40.7223C302.815 40.7223 303.472 40.6078 303.95 40.3788C304.438 40.1498 304.682 39.8014 304.682 39.3335C304.682 39.0348 304.572 38.786 304.353 38.5869C304.134 38.3877 303.85 38.2135 303.502 38.0642C303.163 37.9149 302.79 37.7805 302.382 37.661C301.974 37.5415 301.58 37.4071 301.202 37.2578C300.595 37.0288 300.057 36.7849 299.589 36.5261C299.131 36.2573 298.743 35.9487 298.425 35.6002C298.116 35.2518 297.877 34.8486 297.708 34.3907C297.549 33.9327 297.469 33.3901 297.469 32.7629C297.469 31.9068 297.653 31.1701 298.021 30.5529C298.4 29.9356 298.897 29.4329 299.515 29.0446C300.142 28.6464 300.854 28.3577 301.65 28.1785C302.457 27.9893 303.293 27.8948 304.159 27.8948C304.836 27.8948 305.523 27.9495 306.22 28.059C306.917 28.1586 307.603 28.3079 308.28 28.507V32.1507C307.683 31.8023 307.041 31.5434 306.354 31.3742C305.677 31.195 305.01 31.1054 304.353 31.1054C304.044 31.1054 303.751 31.1352 303.472 31.195C303.203 31.2448 302.964 31.3244 302.755 31.4339C302.546 31.5335 302.382 31.6679 302.262 31.8371C302.143 31.9964 302.083 32.1806 302.083 32.3896C302.083 32.6684 302.173 32.9073 302.352 33.1064C302.531 33.3055 302.765 33.4797 303.054 33.6291C303.343 33.7684 303.661 33.8979 304.01 34.0173C304.368 34.1268 304.721 34.2413 305.07 34.3608C305.697 34.5798 306.264 34.8187 306.772 35.0776C307.28 35.3364 307.713 35.6401 308.071 35.9885C308.44 36.3369 308.718 36.7451 308.908 37.213C309.107 37.6809 309.206 38.2384 309.206 38.8855C309.206 39.7915 309.007 40.568 308.609 41.2151C308.221 41.8522 307.698 42.3749 307.041 42.783C306.394 43.1813 305.642 43.47 304.786 43.6492C303.94 43.8383 303.059 43.9329 302.143 43.9329C300.46 43.9329 298.902 43.6741 297.469 43.1564Z" fill="#1EB7D1"/>
<path fill-rule="evenodd" clip-rule="evenodd" d="M39.9664 6.83456L30.2803 0.746186C28.7558 -0.212067 26.8267 -0.250005 25.2658 0.647565L2.44018 13.7723C0.930603 14.6403 0 16.2488 0 17.9902V43.3511C0 45.0601 0.8967 46.6439 2.36221 47.5232L25.234 61.2463C26.8092 62.1914 28.7823 62.1688 30.3354 61.1879L51.9479 47.5379C53.3594 46.6464 54.2152 45.0936 54.2152 43.4242V17.9097C54.2152 16.2117 53.33 14.6365 51.8796 13.7537L46.222 10.3099L28.9546 54.2927C28.3432 55.8503 26.5043 56.5187 25.0353 55.7175L18.6431 52.2308L44.0379 10.2315C44.4728 9.51226 44.2299 8.57597 43.5001 8.15895C42.8646 7.79582 42.0597 7.94591 41.5978 8.51367L9.9077 47.466L6.3144 45.5061C5.42121 45.0189 4.86547 44.0827 4.86547 43.0653V40.1978L39.9664 6.83456ZM32.6672 8.22465L4.16948 28.7291V19.4837C4.16948 18.5321 4.65616 17.6466 5.4595 17.1365L24.5778 4.99794C25.4853 4.42172 26.6437 4.42034 27.5527 4.9944L32.6672 8.22465ZM37.5336 51.3188L46.5694 16.5654L48.4592 17.8252C49.2327 18.3409 49.6972 19.209 49.6972 20.1385V42.7546C49.6972 43.7523 49.1626 44.6736 48.2964 45.1686L37.5336 51.3188Z" fill="url(#paint0_linear)"/>
<defs>
<linearGradient id="paint0_linear" x1="54.2152" y1="34.6373" x2="7.64574" y2="31.1619" gradientUnits="userSpaceOnUse">
<stop stop-color="#189EB1"/>
<stop offset="1" stop-color="#49559E"/>
</linearGradient>
</defs>
</svg>
