<svg width="266" height="454" viewBox="0 0 266 454" fill="none" xmlns="http://www.w3.org/2000/svg">
<path d="M151.308 418.164L97.8935 418.248C97.286 418.248 96.7949 418.739 96.7949 419.346L96.8168 435.829H96.8313C96.9514 437.458 98.1663 439.146 100.476 440.481L116.555 449.76C121.003 452.332 127.737 452.609 131.593 450.387L149.824 439.859C151.676 438.789 152.502 437.334 152.392 435.829H152.407V419.266C152.407 418.656 151.916 418.164 151.308 418.164Z" fill="#6398D7"/>
<path d="M98.4627 435.564L98.4772 435.709C98.5572 436.844 99.5867 438.066 101.304 439.055L117.378 448.338C121.3 450.597 127.433 450.889 130.768 448.96L149.004 438.43C149.848 437.942 150.834 437.117 150.75 435.949L150.623 434.181H150.761V419.815L98.4481 419.892L98.4627 435.564ZM125.046 453.54C121.813 453.54 118.43 452.744 115.73 451.187L99.6558 441.907C97.5605 440.699 96.1345 439.162 95.5198 437.476H95.1888L95.1706 435.83L95.1524 419.351C95.1487 418.616 95.4361 417.928 95.9526 417.408C96.4692 416.888 97.1604 416.6 97.8915 416.6L151.306 416.52H151.303C151.99 416.436 152.729 416.804 153.253 417.32C153.769 417.84 154.057 418.532 154.057 419.267V437.476H153.86C153.438 438.98 152.329 440.314 150.652 441.282L132.416 451.812C130.412 452.969 127.782 453.54 125.046 453.54Z" fill="#1A162C"/>
<path d="M151.308 418.216L126.725 418.252V451.838C128.547 451.663 130.246 451.209 131.592 450.434L149.824 439.906C151.675 438.838 152.501 437.383 152.392 435.876H152.406V419.314C152.406 418.707 151.915 418.216 151.308 418.216Z" fill="#1A162C"/>
<path d="M149.825 422.28L131.59 432.806C127.737 435.032 121.004 434.753 116.555 432.183L100.477 422.9C96.0281 420.333 95.5443 416.444 99.4002 414.218L117.632 403.691C121.488 401.468 128.221 401.744 132.67 404.316L148.748 413.596C153.197 416.164 153.681 420.053 149.825 422.28Z" fill="white"/>
<path d="M124.15 403.84C121.992 403.84 119.948 404.262 118.46 405.12L100.225 415.648C99.4138 416.112 98.4461 416.902 98.4461 417.99C98.4461 419.139 99.5156 420.442 101.305 421.475L117.38 430.758C121.301 433.017 127.434 433.304 130.77 431.38L149.005 420.848C149.817 420.384 150.784 419.594 150.784 418.507C150.784 417.357 149.715 416.054 147.925 415.021L131.85 405.742C129.679 404.487 126.827 403.84 124.15 403.84ZM125.048 435.96C121.814 435.96 118.431 435.163 115.732 433.606L99.6575 424.327C96.7946 422.676 95.1504 420.365 95.1504 417.99C95.1504 415.914 96.3691 414.069 98.5771 412.792L116.812 402.264C121.189 399.736 128.515 400.013 133.498 402.886L149.573 412.169C152.436 413.822 154.076 416.131 154.076 418.507C154.076 420.584 152.861 422.427 150.65 423.705H150.653L132.418 434.232C130.414 435.389 127.784 435.96 125.048 435.96Z" fill="#1A162C"/>
<path d="M119.923 450.536H116.627V433.034H119.923V450.536Z" fill="#1A162C"/>
<path d="M147.424 437.194H144.889V428.601H147.424V437.194Z" fill="#6398D7"/>
<path d="M206.061 260.892C206.061 260.884 206.057 260.881 206.05 260.881L189.026 256.919C189.022 256.912 189.019 256.909 189.015 256.905L189.033 238.04C189.026 238.037 189.022 238.033 189.019 238.029L154.829 237.003C154.825 236.996 154.821 236.996 154.818 236.989L154.934 223.73C154.927 223.726 154.927 223.722 154.92 223.719L129.893 231.263C129.893 231.267 129.889 231.267 129.889 231.267L99.4604 229.092H99.4567L89.3405 223.108C89.3295 223.111 89.3295 223.111 89.3186 223.119L89.315 235.603C89.3113 235.607 89.3078 235.61 89.3041 235.617L72.6511 240.394C72.6511 240.394 72.6474 240.394 72.6438 240.394L62.2147 238.655L55.034 237.916C55.0303 237.924 55.0268 237.927 55.0195 237.931L55.1141 252.271C55.1104 252.274 55.1068 252.278 55.1068 252.281L46.4201 255.755H46.4165L37.9626 260.877C37.9626 260.881 37.959 260.884 37.959 260.888L38.0645 297.064C37.9372 297.395 37.9263 297.749 38.0863 298.101L42.4878 307.585C43.0298 308.753 45.1106 309.446 47.1367 309.134L55.1977 307.886C55.3032 307.867 55.3978 307.934 55.3869 308.039C55.2705 309.592 54.4775 320.302 55.4414 320.858L68.4824 328.387C69.8174 329.159 72.0035 329.159 73.3385 328.387L80.0282 324.525C82.9892 325.736 86.0921 326.769 89.2641 327.697L89.3078 333.459L89.3005 333.477C88.7585 334.645 89.9589 335.844 91.985 336.161L108.409 338.701C110.431 339.013 112.512 338.318 113.054 337.15L115.411 332.076C119.878 332.313 124.371 332.313 128.838 332.076L131.191 337.15C131.733 338.318 133.814 339.013 135.84 338.701L152.264 336.159C154.094 335.877 155.24 334.867 155.043 333.811V327.678C158.193 326.755 161.275 325.729 164.214 324.525L170.907 328.387C172.246 329.159 174.432 329.159 175.767 328.387L188.804 320.858C189.724 320.331 189.117 307.897 189.117 307.897L197.112 309.134C199.135 309.446 201.216 308.753 201.761 307.585L206.159 298.101C206.33 297.737 206.061 260.892 206.061 260.892Z" fill="#6398D7"/>
<path d="M90.6977 334.132C90.8032 334.132 91.2325 334.499 92.2147 334.652L108.642 337.194C110.275 337.446 111.527 336.824 111.672 336.507L114.462 330.502L115.492 330.553C119.893 330.785 124.357 330.785 128.758 330.553L129.788 330.502L132.578 336.511C132.72 336.824 133.956 337.446 135.608 337.194L152.032 334.652C153.101 334.485 153.505 334.07 153.549 333.972L153.516 326.536L154.614 326.214C158.041 325.209 160.995 324.194 163.639 323.113L164.331 322.83L171.671 327.067C172.53 327.562 174.148 327.562 175 327.067L187.604 319.792C187.881 318.211 187.822 312.648 187.593 307.967L187.502 306.1L197.346 307.624C198.994 307.876 200.23 307.254 200.376 306.941L204.657 297.712C204.745 295.268 204.643 275.77 204.544 262.096L187.848 258.211L187.691 257.738L187.491 257.538L187.506 239.506L154.178 238.51L153.298 237.629L153.29 236.975L153.392 225.771L130.064 232.809L98.9952 230.59L90.8469 225.771L90.8396 236.065L90.2831 237.047L89.7265 237.084L72.5278 241.922L61.9641 240.165L56.5587 239.608L56.6423 252.773L56.0785 253.526L55.671 253.7L47.1045 257.127L39.4872 261.739L39.5927 297.344L39.4872 297.614L43.8706 306.941C44.0161 307.254 45.2565 307.876 46.9007 307.624L55.6929 306.263L56.3804 306.806C56.7551 307.156 56.9479 307.646 56.9115 308.156C56.4895 313.583 56.3767 318.37 56.6241 319.778L69.2467 327.067C70.116 327.569 71.7057 327.573 72.5788 327.067L79.9158 322.83L80.607 323.113C83.2551 324.197 86.2271 325.216 89.6937 326.231L90.7814 326.551L90.7923 327.686C90.7923 327.686 90.8178 331.341 90.8287 332.822L91.167 333.16L90.6723 334.142C90.6796 334.135 90.6868 334.132 90.6977 334.132ZM109.395 340.305C108.995 340.305 108.584 340.272 108.177 340.21L91.7527 337.668C89.9884 337.395 88.6207 336.572 87.995 335.413C87.5949 334.667 87.5367 333.844 87.8204 333.074C87.7804 332.288 87.7658 331.01 87.7477 328.839C84.9285 327.984 82.4258 327.123 80.1486 326.22L74.1029 329.709C72.2877 330.763 69.5377 330.761 67.7189 329.709L54.6779 322.178C53.8595 321.706 52.9319 321.17 53.7395 309.654L47.37 310.64C44.6418 311.069 41.9427 310.026 41.106 308.228L36.7045 298.741C36.4207 298.134 36.3662 297.476 36.5371 296.831L36.4316 260.532L36.7918 259.812L37.1737 259.575L45.8531 254.341L53.583 251.249L53.4921 237.196L53.9613 236.825L54.3834 236.316L62.3716 237.142L72.5606 238.833L87.7913 234.465L87.7985 222.355L89.2027 221.365L90.1158 221.795L99.9264 227.597L129.719 229.721L155.167 222.049L156.451 222.904L156.462 223.744L156.353 235.523L189.852 236.527L190.169 237L190.554 237.324L190.558 238.044L190.543 255.708L206.225 259.353H207.578L207.589 260.881C207.858 298.069 207.731 298.337 207.542 298.745L203.144 308.224C202.311 310.026 199.619 311.066 196.88 310.64L190.725 309.686C191.205 321.236 190.336 321.739 189.568 322.182L176.527 329.709C174.709 330.761 171.966 330.761 170.147 329.709L164.098 326.22C161.832 327.119 159.351 327.974 156.568 328.814V333.699C156.655 334.412 156.47 335.136 156.026 335.762C155.327 336.747 154.072 337.423 152.497 337.668L136.073 340.21C133.342 340.622 130.646 339.592 129.809 337.796L127.889 333.652C124.058 333.823 120.192 333.823 116.361 333.652L114.441 337.796C113.731 339.323 111.676 340.305 109.395 340.305Z" fill="#1A162C"/>
<path d="M78.5371 293.678L69.6504 301.212L70.618 306.431V328.933C71.5929 328.981 72.5932 328.816 73.3353 328.387L80.0249 324.525L79.9121 302.084L78.5371 293.678Z" fill="#1A162C"/>
<path d="M71.3113 301.804L72.1444 306.431V327.249C72.3044 327.198 72.45 327.137 72.5737 327.067L78.4957 323.648L78.3902 302.212L77.4699 296.584L71.3113 301.804ZM70.9439 330.469C70.813 330.469 70.6784 330.465 70.5439 330.458L69.0924 330.388V306.573L67.9902 300.622L79.6088 290.768L81.4385 302.077L81.5586 325.405L74.1015 329.709C73.2503 330.203 72.1407 330.469 70.9439 330.469Z" fill="#1A162C"/>
<path d="M47.0199 286.766L43.5605 307.89L47.1326 308.646C47.1363 308.9 47.3655 309.098 47.6165 309.058L55.0445 307.908C55.2482 307.878 55.4009 307.701 55.3973 307.489L55.0445 298.013C55.0408 297.824 55.1682 297.653 55.3537 297.607L70.097 293.624C70.3589 293.554 70.4862 293.249 70.348 293.012L62.036 278.483C61.9669 278.36 61.8396 278.283 61.7013 278.272L50.6466 277.468C50.4611 277.454 50.2865 277.567 50.2246 277.745L47.0453 286.624C47.0271 286.668 47.0199 286.715 47.0199 286.766Z" fill="#1A162C"/>
<path d="M45.2995 306.696L48.5079 307.377L53.8371 306.552L53.5206 298.071C53.5097 297.148 54.0989 296.366 54.9501 296.133L68.3148 292.525L61.0032 279.753L51.3781 279.051L48.5261 287.014L45.2995 306.696ZM47.5549 310.589C47.0929 310.589 46.6455 310.429 46.2927 310.124C46.2454 310.083 46.2017 310.043 46.158 310L41.8184 309.084L45.6051 286.119L48.788 277.232C49.079 276.41 49.9047 275.904 50.7596 275.948L61.8144 276.752C62.451 276.795 63.0293 277.156 63.3567 277.719L71.6723 292.252C71.9742 292.783 72.0142 293.405 71.7814 293.969C71.5486 294.524 71.0757 294.94 70.4901 295.096L56.6016 298.847L56.9218 307.436C56.9363 308.446 56.2197 309.28 55.263 309.418L47.8495 310.567C47.7513 310.581 47.6531 310.589 47.5549 310.589Z" fill="#1A162C"/>
<path d="M113.053 336.845L115.41 331.771C119.877 332.008 124.369 332.008 128.836 331.771L131.19 336.845C131.732 338.013 133.813 338.708 135.839 338.395L152.263 335.853C154.092 335.569 155.238 334.561 155.042 333.506V327.373C158.192 326.449 161.273 325.423 164.212 324.216L170.905 328.082C172.244 328.854 174.43 328.854 175.765 328.082L188.803 320.552C189.723 320.021 189.115 307.588 189.115 307.588L197.111 308.825C199.133 309.141 201.214 308.446 201.76 307.279L206.158 297.796C206.329 297.432 206.06 260.586 206.06 260.586C206.06 260.579 206.056 260.575 206.049 260.572L189.024 256.61C189.021 256.61 189.014 256.607 189.014 256.599L189.032 237.735C189.032 237.727 189.024 237.724 189.017 237.724L154.827 236.698C154.82 236.698 154.816 236.691 154.816 236.683L154.933 223.424C154.933 223.413 154.925 223.41 154.918 223.41L138.483 228.368L108.291 301.485V315.954L108.407 338.395C110.43 338.708 112.511 338.013 113.053 336.845Z" fill="#1A162C"/>
<path d="M129.784 330.192L132.575 336.201C132.716 336.513 133.946 337.136 135.605 336.886L152.029 334.346C153.098 334.182 153.502 333.761 153.545 333.666L153.513 326.23L154.608 325.908C158.049 324.898 161.003 323.881 163.636 322.804L164.327 322.52L171.668 326.762C172.527 327.253 174.145 327.253 175.004 326.759L187.601 319.486C187.877 317.903 187.819 312.342 187.59 307.664L187.499 305.794L197.343 307.319C198.994 307.573 200.223 306.948 200.373 306.635L204.654 297.406C204.741 294.958 204.64 275.457 204.541 261.783L188.339 257.974L187.495 257.552L187.488 256.599L187.503 239.204L154.029 238.2L153.12 236.949L153.291 236.432L153.389 225.465L139.617 229.619L109.818 301.79L109.923 336.918C110.898 336.812 111.567 336.427 111.669 336.201L114.459 330.192L115.489 330.247C119.89 330.479 124.354 330.479 128.755 330.247L129.784 330.192ZM134.844 339.995C132.567 339.995 130.519 339.017 129.806 337.485L127.886 333.346C124.055 333.512 120.188 333.512 116.362 333.346L114.437 337.485C113.601 339.29 110.916 340.323 108.17 339.901L106.886 339.705L106.766 301.182L106.882 300.902L137.347 227.116L154.349 221.987L154.993 221.667L156.452 222.562L156.459 223.424L156.354 235.217L190.544 236.243L190.555 237.734L190.54 255.399L207.575 259.36L207.586 260.586C207.855 297.763 207.728 298.031 207.539 298.439L203.141 307.918C202.308 309.716 199.623 310.749 196.877 310.334L190.722 309.38C191.202 320.93 190.336 321.429 189.565 321.872L176.528 329.403C174.709 330.45 171.959 330.45 170.144 329.403L164.095 325.91C161.832 326.806 159.355 327.664 156.565 328.511V333.389C156.652 334.102 156.466 334.83 156.023 335.452C155.324 336.438 154.073 337.117 152.494 337.362L136.07 339.901C135.659 339.966 135.248 339.995 134.844 339.995Z" fill="#1A162C"/>
<path d="M170.54 229.681L164.101 233.399C160.398 231.882 156.51 230.583 152.483 229.51L154.833 224.446C155.375 223.279 154.174 222.078 152.148 221.762L135.724 219.223C133.702 218.91 131.621 219.605 131.079 220.772L128.722 225.847C124.258 225.61 119.762 225.61 115.295 225.847L112.942 220.772C112.4 219.605 110.319 218.91 108.293 219.223L91.8689 221.762C89.8464 222.078 88.6424 223.279 89.188 224.446L91.5379 229.514C87.5074 230.583 83.6225 231.882 79.9194 233.399L73.4808 229.681C71.9966 228.826 69.5958 228.826 68.1117 229.681L56.0893 236.625C54.6088 237.48 54.6088 238.866 56.0893 239.721L62.5279 243.438C59.9015 245.577 57.6462 247.822 55.7946 250.146L47.0207 248.789C44.9982 248.477 42.9175 249.171 42.3755 250.339L37.9739 259.822C37.4319 260.99 38.6323 262.194 40.6549 262.507L49.447 263.867C49.0359 266.443 49.0359 269.04 49.447 271.616L40.6549 272.976C38.6323 273.289 37.4319 274.493 37.9739 275.661L42.3755 285.144C42.9175 286.312 44.9982 287.006 47.0207 286.693L55.7946 285.333C57.6462 287.661 59.8979 289.906 62.5242 292.044L56.0893 295.758C54.6088 296.616 54.6088 298.003 56.0893 298.857L68.1117 305.799C69.5958 306.657 71.9966 306.657 73.4772 305.799L79.9157 302.084C83.6188 303.602 87.5074 304.899 91.5379 305.969L89.1844 311.036C88.6424 312.204 89.8464 313.405 91.8689 313.717L108.293 316.259C110.319 316.574 112.4 315.879 112.942 314.711L115.295 309.636C119.762 309.872 124.255 309.872 128.722 309.636L131.079 314.711C131.621 315.879 133.702 316.574 135.724 316.259L152.148 313.717C154.174 313.405 155.375 312.204 154.833 311.036L152.483 305.969C156.51 304.899 160.398 303.598 164.101 302.08L170.54 305.799C172.02 306.657 174.425 306.657 175.905 305.799L187.928 298.857C189.412 298.003 189.412 296.616 187.928 295.758L181.489 292.041C184.116 289.906 186.371 287.661 188.222 285.333L196.996 286.69C199.022 287.006 201.103 286.312 201.645 285.144L206.047 275.661C206.589 274.493 205.388 273.289 203.362 272.976L194.57 271.616C194.981 269.04 194.981 266.443 194.57 263.864L203.362 262.507C205.388 262.19 206.589 260.99 206.047 259.822L201.645 250.339C201.103 249.171 199.022 248.477 196.996 248.789L188.226 250.146C186.371 247.822 184.119 245.577 181.489 243.438L187.928 239.721C189.412 238.866 189.412 237.48 187.928 236.625L175.905 229.681C174.425 228.826 172.02 228.826 170.54 229.681Z" fill="white"/>
<path d="M129.67 308.054L132.46 314.07C132.605 314.382 133.842 315.002 135.49 314.751L151.914 312.211C152.991 312.044 153.405 311.621 153.449 311.524L150.332 304.962L152.089 304.496C156.032 303.448 159.88 302.161 163.522 300.669L164.213 300.386L171.303 304.479C172.306 305.057 174.136 305.06 175.144 304.479L187.163 297.537C187.348 297.432 187.45 297.334 187.497 297.279H187.494C187.446 297.279 187.344 297.185 187.166 297.083L178.807 292.259L180.524 290.859C183.067 288.789 185.253 286.614 187.028 284.384L187.581 283.692L197.232 285.184C198.883 285.442 200.113 284.813 200.258 284.5L204.66 275.017C204.612 275.049 204.194 274.646 203.124 274.486L192.823 272.892L193.063 271.375C193.445 268.964 193.445 266.516 193.063 264.104L192.823 262.591L203.128 260.997C204.128 260.845 204.601 260.441 204.663 260.313L200.258 250.983C200.113 250.67 198.876 250.044 197.232 250.299L187.581 251.791L187.028 251.099C185.253 248.866 183.063 246.687 180.524 244.621L178.807 243.228L187.163 238.4C187.348 238.295 187.45 238.2 187.497 238.146H187.494C187.446 238.146 187.344 238.051 187.166 237.946L175.14 231.001C174.136 230.423 172.303 230.423 171.303 231.001L164.213 235.094L163.522 234.81C159.88 233.322 156.032 232.035 152.089 230.987L150.332 230.521L153.445 223.803C153.394 223.828 152.98 223.439 151.918 223.272L135.49 220.729C133.85 220.478 132.605 221.1 132.46 221.416L129.67 227.422L128.64 227.371C124.235 227.138 119.772 227.138 115.374 227.371L114.345 227.422L111.555 221.413C111.413 221.1 110.176 220.478 108.524 220.729L92.1041 223.272C91.1001 223.424 90.6273 223.828 90.5654 223.959L93.6864 230.521L91.9295 230.987C87.99 232.035 84.1413 233.319 80.4964 234.81L79.8017 235.094L72.7156 231.005C71.7116 230.427 69.8818 230.423 68.8778 231.005L56.8518 237.946C56.6663 238.051 56.5645 238.149 56.5172 238.204C56.6009 238.208 56.6663 238.295 56.8518 238.404L65.2075 243.224L63.4905 244.621C60.9514 246.691 58.7616 248.87 56.9865 251.099L56.4335 251.791L46.7866 250.299C45.1387 250.041 43.9019 250.67 43.7564 250.983L39.3549 260.466C39.3913 260.426 39.8096 260.834 40.8863 260.997L51.1954 262.594L50.9553 264.108C50.5697 266.519 50.5697 268.964 50.9553 271.375L51.1954 272.889L40.89 274.486C39.8096 274.653 39.3986 275.071 39.3549 275.17L43.7564 284.5C43.8982 284.813 45.1496 285.439 46.7866 285.184L56.4335 283.692L56.9865 284.384C58.7762 286.624 60.9623 288.807 63.4869 290.862L65.2039 292.259L56.8518 297.078C56.6663 297.188 56.5645 297.283 56.5172 297.341C56.6009 297.367 56.6663 297.432 56.8518 297.537L68.8742 304.479C69.8782 305.057 71.7079 305.06 72.7192 304.479L79.798 300.389L80.4892 300.673C84.1159 302.157 87.9609 303.444 91.9259 304.496L93.6828 304.966L90.5691 311.677C90.6163 311.629 91.031 312.044 92.1005 312.211L108.524 314.751C110.176 315.002 111.409 314.382 111.555 314.07L114.345 308.054L115.374 308.112C119.776 308.345 124.239 308.345 128.64 308.112L129.67 308.054ZM134.726 317.861C132.453 317.861 130.401 316.882 129.692 315.354L127.767 311.208C123.937 311.381 120.07 311.381 116.247 311.208L114.323 315.354C113.49 317.152 110.801 318.192 108.059 317.766L91.6312 315.227C89.867 314.951 88.4992 314.128 87.8772 312.969C87.437 312.146 87.4116 311.232 87.8008 310.393L89.3905 306.962C86.1675 306.046 83.0319 304.976 80.0309 303.779L74.2433 307.119C72.2754 308.257 69.3107 308.254 67.3501 307.123L55.324 300.179C54.1345 299.494 53.4507 298.447 53.4507 297.308C53.4507 296.173 54.1345 295.126 55.3277 294.438L59.8856 291.804C58.1287 290.251 56.5463 288.632 55.164 286.977L47.2522 288.2C44.5167 288.611 41.8212 287.581 40.9882 285.784L36.5903 276.301C36.1974 275.464 36.2265 274.547 36.663 273.729C37.2887 272.565 38.6565 271.743 40.4207 271.47L47.7433 270.339C47.5687 268.611 47.5687 266.876 47.7433 265.144L40.4207 264.013C38.6565 263.74 37.2887 262.918 36.663 261.754C36.2265 260.936 36.1974 260.019 36.5903 259.182L40.9882 249.699C41.8212 247.898 44.5167 246.858 47.2558 247.284L55.164 248.506C56.5427 246.858 58.125 245.239 59.8893 243.679L55.3277 241.045C54.1345 240.357 53.4507 239.31 53.4507 238.171C53.4507 237.036 54.1345 235.989 55.3277 235.301L67.3501 228.364C69.3144 227.226 72.279 227.226 74.2433 228.364L80.0381 231.704C83.05 230.503 86.1857 229.434 89.3941 228.521L87.8008 225.087C87.4116 224.25 87.437 223.337 87.8772 222.515C88.4992 221.351 89.8706 220.529 91.6385 220.256L108.059 217.713C110.791 217.306 113.49 218.332 114.326 220.129L116.247 224.272C120.07 224.101 123.937 224.101 127.767 224.272L129.692 220.129C130.528 218.332 133.238 217.302 135.956 217.713L152.383 220.256C154.144 220.529 155.515 221.351 156.137 222.515C156.577 223.333 156.603 224.25 156.214 225.087L154.62 228.521C157.832 229.437 160.972 230.503 163.98 231.704L169.775 228.361C171.743 227.226 174.7 227.226 176.668 228.361L188.69 235.305C189.88 235.989 190.564 237.036 190.564 238.171C190.564 239.31 189.884 240.357 188.69 241.045L184.125 243.679C185.893 245.239 187.472 246.854 188.854 248.506L196.762 247.284C199.505 246.854 202.193 247.898 203.026 249.699L207.428 259.182C207.817 260.019 207.792 260.932 207.351 261.754C206.729 262.918 205.362 263.74 203.594 264.013L196.271 265.144C196.446 266.872 196.446 268.611 196.271 270.335L203.594 271.466C205.362 271.743 206.729 272.565 207.351 273.729C207.792 274.551 207.817 275.464 207.428 276.304L203.026 285.784C202.19 287.585 199.48 288.607 196.766 288.2L188.854 286.977C187.472 288.625 185.893 290.244 184.125 291.804L188.69 294.438C189.88 295.126 190.564 296.169 190.564 297.308C190.564 298.442 189.884 299.491 188.69 300.179L176.668 307.119C174.7 308.257 171.735 308.257 169.775 307.119L163.984 303.775C160.972 304.98 157.832 306.046 154.624 306.962L156.214 310.393C156.603 311.232 156.577 312.146 156.137 312.969C155.515 314.128 154.147 314.951 152.383 315.227L135.956 317.766C135.545 317.831 135.134 317.861 134.726 317.861Z" fill="#1A162C"/>
<path d="M138.272 258.353C147.253 263.536 147.253 271.946 138.272 277.13C129.287 282.317 114.726 282.317 105.745 277.13C96.7596 271.946 96.7596 263.536 105.745 258.353C114.726 253.165 129.291 253.165 138.272 258.353Z" fill="#6398D7"/>
<path d="M122.007 255.97C116.391 255.97 110.778 257.207 106.503 259.673C102.651 261.899 100.53 264.762 100.53 267.742C100.53 270.721 102.651 273.587 106.503 275.81C115.055 280.746 128.966 280.742 137.507 275.81C141.359 273.587 143.484 270.721 143.484 267.742C143.484 264.762 141.359 261.899 137.507 259.673C133.233 257.207 127.62 255.97 122.007 255.97ZM122.003 282.518C115.838 282.518 109.672 281.164 104.979 278.451C100.141 275.661 97.4785 271.856 97.4785 267.742C97.4785 263.627 100.141 259.822 104.979 257.032C114.368 251.609 129.642 251.609 139.031 257.032C143.869 259.822 146.532 263.627 146.532 267.742C146.532 271.856 143.869 275.661 139.031 278.451C134.339 281.161 128.173 282.518 122.003 282.518Z" fill="#1A162C"/>
<path d="M122.008 254.479C116.119 254.479 110.233 255.777 105.745 258.371C96.7596 263.555 96.7596 271.965 105.745 277.152C109.884 279.542 115.21 280.815 120.63 281.001H122.008V254.479Z" fill="#1A162C"/>
<path d="M120.479 256.035C115.179 256.243 110.265 257.523 106.503 259.691C102.651 261.918 100.53 264.78 100.53 267.76C100.53 270.742 102.651 273.605 106.503 275.828C110.21 277.967 115.168 279.258 120.479 279.473V256.035ZM123.535 282.528H120.628C114.695 282.325 109.155 280.884 104.979 278.469C100.141 275.679 97.4785 271.874 97.4785 267.76C97.4785 263.645 100.141 259.84 104.979 257.05C109.552 254.409 115.601 252.954 122.007 252.954H123.535V282.528Z" fill="#1A162C"/>
<path d="M105.715 277.046C105.715 277.097 105.715 277.086 105.715 277.141C114.783 282.325 129.461 282.266 138.399 276.959C138.395 276.908 138.399 276.919 138.395 276.868C129.33 271.681 114.652 271.739 105.715 277.046Z" fill="#6398D7"/>
<path d="M109.024 277.068C116.794 280.335 127.42 280.284 135.095 276.937C127.314 273.667 116.7 273.721 109.024 277.068ZM121.901 282.492C115.783 282.492 109.661 281.153 104.964 278.465L104.193 278.025V276.271L104.939 275.737C114.284 270.182 129.635 270.095 139.158 275.544L139.926 275.984V277.737L139.18 278.272C134.444 281.084 128.173 282.492 121.901 282.492Z" fill="#1A162C"/>
<path d="M90.8352 333.463L87.7832 333.455L87.8451 312.447L90.897 312.456L90.8352 333.463Z" fill="#1A162C"/>
<path d="M134.556 337.01H131.504V318.41H134.556V337.01Z" fill="#6398D7"/>
<path d="M173.779 327.347H170.727V308.748H173.779V327.347Z" fill="#6398D7"/>
<path d="M200.251 307.606H197.199V289.007H200.251V307.606Z" fill="#6398D7"/>
<path d="M189.322 72.3173C184.601 75.1983 170.785 85.2636 170.305 104.732H193.058C193.058 104.732 196.121 89.1595 212.654 86.9369C212.654 86.9369 205.677 77.701 192.48 72.0845C191.454 71.648 190.272 71.7389 189.322 72.3173Z" fill="#6398D7"/>
<path d="M40.3004 155.2C39.0054 157.51 29.5221 174.694 22.818 194.934C22.396 196.204 23.2218 197.56 24.5459 197.782L29.413 198.597C30.4679 198.775 31.2427 199.692 31.2427 200.762C31.2427 202.238 32.676 203.293 34.0873 202.857L35.3642 202.457C36.5173 202.097 37.7468 202.74 38.1069 203.894L38.6089 205.487C39.0745 206.967 40.8861 207.509 42.0865 206.527L42.3702 206.298C43.3997 205.458 44.9347 205.72 45.6295 206.851L46.7753 208.728C47.2191 209.459 48.0558 209.863 48.907 209.761L60.3838 208.382C61.3514 208.27 62.1225 207.531 62.2862 206.574L70.2417 159.806C70.3981 158.885 69.9543 157.965 69.1358 157.514L55.6693 150.126C55.3965 149.977 55.0946 149.886 54.7818 149.864L47.2628 149.286C46.6335 149.235 46.0079 149.464 45.5568 149.908L40.6678 154.72C40.5223 154.866 40.4022 155.022 40.3004 155.2Z" fill="white"/>
<path d="M43.7554 204.276C43.9628 204.276 44.1738 204.294 44.3812 204.33C45.4397 204.512 46.3673 205.141 46.9275 206.058L48.0733 207.931C48.2079 208.153 48.448 208.262 48.7245 208.248L60.2012 206.869C60.4922 206.836 60.7322 206.607 60.7832 206.32L68.7387 159.551C68.786 159.267 68.6477 158.991 68.4003 158.853L54.9339 151.465C54.8503 151.421 54.7592 151.392 54.6647 151.384L47.1457 150.806C46.9456 150.799 46.7674 150.861 46.6292 150.995L41.7403 155.808L40.2997 155.2L41.6311 155.946C40.558 157.856 30.9692 175.175 24.2687 195.411C24.1851 195.658 24.2723 195.862 24.3305 195.956C24.3924 196.058 24.5306 196.233 24.7962 196.276L29.6669 197.095C31.4603 197.397 32.7662 198.936 32.7662 200.762C32.7662 201.053 32.9371 201.224 33.039 201.296C33.1408 201.376 33.3519 201.489 33.6356 201.398L34.9088 201.002C36.8585 200.387 38.9502 201.486 39.5613 203.439L40.0633 205.029C40.1542 205.323 40.3834 205.429 40.5107 205.469C40.6307 205.501 40.8817 205.541 41.1218 205.349L41.4019 205.116C42.0749 204.57 42.9042 204.276 43.7554 204.276ZM48.6517 211.303C47.364 211.303 46.1491 210.634 45.4725 209.525L44.3266 207.648C44.1883 207.426 43.9773 207.357 43.8682 207.338C43.7591 207.317 43.5408 207.309 43.3335 207.48L43.0534 207.709C42.0931 208.492 40.8163 208.743 39.6341 208.39C38.4518 208.037 37.5242 207.124 37.1532 205.945L36.6512 204.352C36.5421 203.999 36.1674 203.814 35.8182 203.912L34.5414 204.312C33.3992 204.668 32.1914 204.465 31.2275 203.755C30.2671 203.046 29.7142 201.955 29.7142 200.762C29.7142 200.434 29.4814 200.158 29.1613 200.103L24.2905 199.285C23.2174 199.106 22.2789 198.466 21.7187 197.531C21.1585 196.6 21.0312 195.48 21.3695 194.454C28.161 173.941 37.8843 156.386 38.9683 154.455L38.972 154.451C39.1429 154.145 39.3503 153.876 39.6013 153.629L44.4866 148.82C45.2505 148.067 46.2982 147.667 47.3786 147.765L54.8975 148.343C55.4213 148.383 55.9378 148.536 56.3998 148.787L69.8663 156.179C71.2559 156.939 72.0126 158.5 71.7434 160.064L63.7879 206.829C63.515 208.441 62.191 209.703 60.5686 209.899L49.0882 211.278C48.9391 211.293 48.7936 211.303 48.6517 211.303Z" fill="#1A162C"/>
<path d="M19.129 325.081L16.8555 335.867L17.9941 344.328L32.1081 342.877L34.5526 326.631L19.129 325.081Z" fill="white"/>
<path d="M18.4042 335.925L19.3063 342.658L30.7758 341.479L32.8056 327.99L20.3395 326.736L18.4042 335.925ZM16.6763 345.994L15.3086 335.809L17.9168 323.427L36.2977 325.278L33.4386 344.269L16.6763 345.994Z" fill="#1A162C"/>
<path d="M113.786 241.852L110.836 252.085L115.187 256.145L123.6 254.115L127.584 244.119L113.786 241.852Z" fill="white"/>
<path d="M112.563 251.608L115.626 254.471L122.472 252.82L125.462 245.319L114.877 243.58L112.563 251.608ZM114.746 257.822L109.111 252.562L112.694 240.128L129.704 242.922L124.724 255.413L114.746 257.822Z" fill="#1A162C"/>
<path d="M182.133 107.271V105.452C182.133 103.233 183.075 101.116 184.723 99.6322L185.701 98.7483L186.909 99.7523L186.916 99.7486C190.048 97.275 194.679 97.4133 197.342 100.385C198.226 101.375 198.968 102.619 199.371 104.176C200.979 110.407 194.948 115.94 189.121 116.893C184.221 117.693 182.62 110.771 182.235 108.541C182.162 108.119 182.133 107.697 182.133 107.271Z" fill="white"/>
<path d="M185.74 100.767C184.416 101.964 183.659 103.67 183.659 105.452V107.271C183.659 107.61 183.677 107.944 183.739 108.279C184.052 110.09 185.296 115.972 188.872 115.387C192.015 114.874 195.132 112.877 196.816 110.298C197.653 109.017 198.515 106.98 197.89 104.558C197.584 103.375 197.016 102.313 196.202 101.404C194.165 99.1303 190.429 98.9229 187.857 100.945L186.889 101.713L185.74 100.767ZM188.341 118.482C184.601 118.482 181.793 114.954 180.731 108.799C180.643 108.293 180.604 107.788 180.604 107.271V105.452C180.604 102.808 181.731 100.272 183.699 98.4973L185.663 96.7294L186.998 97.8462C190.792 95.5799 195.609 96.1656 198.479 99.3667C199.617 100.644 200.418 102.135 200.843 103.794C201.56 106.566 201.051 109.392 199.37 111.967C197.206 115.278 193.375 117.744 189.363 118.399C189.014 118.453 188.675 118.482 188.341 118.482Z" fill="#1A162C"/>
<path d="M32.5678 147.405L38.6463 155.022C39.3193 155.863 40.276 156.426 41.3382 156.608L44.7575 157.19C45.8269 157.372 46.922 157.15 47.8386 156.568C49.9048 155.255 53.4478 152.909 53.3569 152.279C53.3278 152.076 53.3132 151.777 53.3059 151.443C53.2695 149.762 52.2947 148.242 50.7705 147.536L47.0528 145.812C45.7688 145.215 44.8484 144.037 44.5902 142.643L44.4992 142.156H48.7771C50.2721 142.156 51.6654 142.92 52.4693 144.178L55.2557 143.295L52.8258 140.013C52.1019 139.038 51.0106 138.406 49.8066 138.267L43.146 137.503C42.9787 137.482 42.8114 137.474 42.6441 137.474H37.9369C36.5001 137.474 35.1505 138.18 34.3357 139.362L32.3859 142.181C31.2874 143.775 31.3601 145.895 32.5678 147.405Z" fill="white"/>
<path d="M37.9343 138.999C36.9994 138.999 36.1191 139.461 35.5844 140.232L33.6383 143.051C32.9181 144.095 32.9653 145.463 33.7583 146.452L39.8368 154.069C40.277 154.619 40.8953 154.986 41.5901 155.106L45.0095 155.684C45.708 155.797 46.4209 155.659 47.0175 155.281C49.9094 153.444 51.288 152.381 51.79 151.905C51.7864 151.77 51.7791 151.625 51.7755 151.472C51.7536 150.377 51.1061 149.377 50.124 148.918L46.4063 147.194C44.6785 146.394 43.4381 144.797 43.0889 142.924L42.656 140.628H48.7744C50.0149 140.628 51.1971 141.014 52.1756 141.701L51.5972 140.919C51.128 140.29 50.4114 139.875 49.6293 139.784L42.9688 139.017C42.856 139.006 42.7506 138.999 42.6414 138.999H37.9343ZM45.4896 158.776C45.1586 158.776 44.8276 158.747 44.5002 158.693L41.0809 158.111C39.6477 157.867 38.3563 157.11 37.4505 155.972L31.3721 148.358C29.7315 146.307 29.6369 143.477 31.1283 141.316L33.0745 138.497C34.1803 136.9 35.9954 135.947 37.9343 135.947H42.6414C42.867 135.947 43.0961 135.961 43.3216 135.987L49.9749 136.754C51.5936 136.94 53.0777 137.795 54.049 139.104L57.7485 144.102L51.8119 145.99L51.1826 145.001C50.6551 144.175 49.7566 143.68 48.7744 143.68H46.7119C46.9775 143.993 47.3121 144.251 47.6904 144.426L51.4081 146.15C53.4379 147.096 54.7802 149.158 54.8275 151.41C54.8348 151.676 54.842 151.909 54.8638 152.069C55.013 153.116 54.7948 153.957 48.6544 157.856C47.7014 158.46 46.6028 158.776 45.4896 158.776Z" fill="#1A162C"/>
<path d="M60.9821 163.276C60.9821 163.276 51.5425 204.159 48.6069 228.957C45.675 253.755 36.5082 248.622 28.4399 273.554C22.4851 291.968 19.9279 313.375 18.9966 323.317C18.702 326.442 20.95 329.214 24.0675 329.585L30.5024 330.355C33.4671 330.712 36.2062 328.763 36.8391 325.845C39.3345 314.321 46.0387 286.264 55.0527 271.354C66.5768 252.289 68.7776 254.853 75.0088 236.52C80.3343 220.856 86.5983 202.781 88.308 197.852C88.5044 197.288 89.1846 197.102 89.643 197.481C91.7273 199.209 99.7919 201.242 114.379 194.192C127.638 187.783 134.659 185.575 137.681 184.825C138.278 184.68 138.725 185.364 138.333 185.833C135.601 189.125 129.013 198.074 126.71 210.3C124.782 220.547 118.446 232.093 114.331 238.8C112.698 241.467 114.393 244.919 117.496 245.286L123.513 245.996C125.121 246.185 126.689 245.465 127.583 244.119C133.902 234.628 156.768 201.337 163.476 185.04C171.177 166.339 168.881 157.681 157.514 154.015C146.146 150.348 100.163 162.083 100.163 162.083L60.9821 163.276Z" fill="#1A162C"/>
<path d="M62.2081 164.764C60.6658 171.563 52.7393 207.015 50.1239 229.135C48.4688 243.129 44.8202 247.956 40.6006 253.544C37.254 257.974 33.46 262.994 29.8914 274.027C24.0749 292.004 21.5213 312.713 20.5136 323.459C20.299 325.773 21.9396 327.795 24.2495 328.072L30.6844 328.839C32.8743 329.091 34.8786 327.675 35.3479 325.525C37.836 314.037 44.6057 285.689 53.747 270.568C57.9812 263.558 60.9568 259.462 63.3503 256.17C67.4317 250.557 69.6762 247.462 73.5648 236.032C78.8903 220.361 85.1542 202.282 86.8675 197.35C87.1222 196.615 87.7188 196.051 88.4645 195.844C89.1993 195.636 90.0141 195.807 90.6143 196.306C92.1312 197.564 99.6356 199.623 113.713 192.817C127.107 186.346 134.248 184.105 137.318 183.345C138.224 183.116 139.177 183.505 139.679 184.298C140.17 185.084 140.101 186.095 139.508 186.808C136.856 189.998 130.45 198.699 128.213 210.58C126.299 220.736 120.316 231.965 115.63 239.601C115.136 240.412 115.088 241.369 115.503 242.227C115.925 243.093 116.718 243.657 117.675 243.769L123.695 244.479C124.735 244.602 125.736 244.141 126.314 243.275L128.846 239.499C137.009 227.346 156.128 198.885 162.068 184.462C166.437 173.847 167.521 166.437 165.375 161.814C164.033 158.918 161.308 156.845 157.048 155.47C146.212 151.985 100.992 163.447 100.541 163.56L100.207 163.607L62.2081 164.764ZM31.2119 331.924C30.9172 331.924 30.6226 331.908 30.3207 331.869L23.8857 331.101C19.9207 330.628 17.1051 327.147 17.4762 323.175C18.4947 312.306 21.0811 291.342 26.9886 273.085C30.7172 261.565 34.6749 256.327 38.1634 251.707C42.2812 246.258 45.5369 241.951 47.0938 228.779C50.0039 204.185 59.3998 163.342 59.498 162.931L59.7599 161.785L99.9485 160.562C103.444 159.678 146.565 148.878 157.983 152.563C163.101 154.215 166.423 156.823 168.143 160.53C170.7 166.044 169.664 174.018 164.887 185.622C158.834 200.329 139.591 228.972 131.378 241.201L128.853 244.966C127.638 246.792 125.521 247.764 123.335 247.509L117.318 246.8C115.332 246.567 113.63 245.352 112.757 243.555C111.891 241.769 111.993 239.695 113.033 238.004C116.754 231.933 123.291 220.227 125.212 210.016C127.183 199.547 132.203 191.424 135.448 187.044C131.694 188.219 125.245 190.635 115.045 195.564C101.258 202.231 92.8588 201.173 89.4539 199.198C87.406 205.105 81.5094 222.144 76.4531 237.011C72.4189 248.88 69.9344 252.3 65.8166 257.964C63.4595 261.208 60.5239 265.25 56.3552 272.143C47.4539 286.875 40.7825 314.834 38.3307 326.169C37.5923 329.578 34.6167 331.924 31.2119 331.924Z" fill="#1A162C"/>
<path d="M192.936 112.419C190.928 103.572 184.497 106.187 184.497 106.187C174.042 113.423 164.596 122.066 164.596 122.066C164.596 122.066 158.568 121.865 143.694 106.991C128.819 92.117 112.239 81.8661 112.239 81.8661L94.4912 71.5026C94.4912 71.5026 79.3732 65.5841 69.6207 62.3684C59.8683 59.1528 54.2482 57.9451 36.562 74.2271C24.8634 84.9945 20.4655 88.9631 14.5398 94.245C11.386 97.0568 2.7648 106.351 1.58984 110.407C6.21327 126.285 25.9074 143.171 25.9074 143.171C25.9074 143.171 28.923 145.659 32.5424 144.779C38.9374 143.218 39.3775 136.336 39.3775 136.336L21.2476 112.288C20.8365 111.709 20.9966 110.916 21.6114 110.56C34.9724 102.823 51.2908 92.8154 51.2908 92.8154C50.3814 111.6 52.8113 143.226 52.8113 143.233C52.1456 149.322 41.7092 175.702 41.7092 175.702L55.2557 183.243C75.2154 194.149 99.4129 192.163 120.435 183.48C123.159 182.356 131.049 175.313 132.403 171.446L118.769 132.316L116.757 117.413C116.903 116.696 117.765 116.405 118.314 116.893C129.412 126.776 160.711 143.004 164.395 141.963C171.121 140.068 194.948 121.262 192.936 112.419Z" fill="#6398D7"/>
<path d="M43.6151 175.018L55.9976 181.908C73.5746 191.512 96.8518 191.573 119.856 182.072C122.071 181.155 129.121 174.917 130.773 171.403L117.259 132.52L115.211 117.366L115.262 117.115C115.436 116.245 116.062 115.532 116.902 115.252C117.739 114.969 118.67 115.165 119.329 115.751C130.5 125.7 159.844 140.49 163.886 140.49C163.94 140.49 163.991 140.49 164.035 140.483C170.295 138.715 193.169 120.305 191.452 112.753C190.87 110.192 189.859 108.519 188.447 107.784C187.076 107.064 185.624 107.424 185.199 107.559C175.013 114.627 165.719 123.106 165.628 123.19L165.17 123.612L164.548 123.59C163.868 123.568 157.484 122.939 142.613 108.068C128.048 93.4993 111.599 83.263 111.435 83.1611L93.8216 72.8812C92.4321 72.3392 78.3108 66.8428 69.1439 63.8163C60.1081 60.8407 55.1391 59.2038 37.5948 75.3512C26.169 85.8675 21.7385 89.8689 15.5545 95.3836C12.4589 98.1445 4.66344 106.649 3.19021 110.436C7.87547 125.576 26.7111 141.847 26.9002 142.011C26.9039 142.011 29.3847 143.975 32.1821 143.295C36.4999 142.243 37.5475 138.224 37.7876 136.762L20.0287 113.204C19.5595 112.542 19.3958 111.757 19.5559 111.007C19.7159 110.265 20.1851 109.621 20.8435 109.239C34.0372 101.6 50.3301 91.6114 50.4938 91.5132L52.9565 90.0035L52.8183 92.8882C51.9307 111.142 54.2333 141.807 54.3315 143.102L54.3425 143.244L54.3279 143.397C53.7241 148.919 45.7177 169.642 43.6151 175.018ZM86.088 192.203C74.6077 192.203 63.8221 189.66 54.5243 184.582L39.7956 176.383L40.2904 175.139C43.8407 166.164 50.6576 148.06 51.2796 143.2C51.0905 140.687 49.1152 113.728 49.6572 95.5982C44.6519 98.6502 32.8259 105.824 22.706 111.687L40.9341 135.867L40.8978 136.431C40.7232 139.199 38.8244 144.815 32.9023 146.259C28.5917 147.307 25.085 144.466 24.9359 144.346C24.0992 143.626 4.8198 126.962 0.123622 110.833L0 110.407L0.123622 109.981C1.47318 105.336 10.7564 95.5727 13.5247 93.1064C19.6941 87.6027 24.1174 83.6086 35.5287 73.1067C53.5531 56.5155 59.7807 57.5159 70.097 60.9207C79.7804 64.1109 94.8947 70.022 95.0475 70.0803L95.2585 70.1858L113.006 80.5457C113.207 80.6694 129.943 91.0839 144.774 105.911C156.349 117.489 162.391 119.923 164.144 120.418C166.363 118.432 174.675 111.131 183.627 104.932L183.922 104.772C184.046 104.721 186.959 103.568 189.859 105.078C192.099 106.246 193.634 108.603 194.424 112.077C196.719 122.167 171.725 141.483 164.81 143.433C160.201 144.695 130.347 128.853 118.521 119.079L120.264 131.96L134.017 171.45L133.843 171.952C132.319 176.306 123.988 183.665 121.02 184.891C109.216 189.765 97.321 192.203 86.088 192.203Z" fill="#1A162C"/>
<path d="M103.703 74.216C103.594 70.1054 103.911 64.8127 104.242 63.1831C104.562 61.608 106.068 60.6148 107.661 60.8222C109.716 61.0914 113.125 61.0841 116.675 59.138C117.326 58.7852 117.788 58.1595 118.01 57.4538C119.127 53.8707 122.586 42.2958 123.088 34.7331C123.692 25.6864 113.434 19.6552 113.434 19.6552L88.1162 32.0195L85.1006 38.9528V51.9173C85.1006 51.9173 89.022 59.1525 76.6577 67.8974C64.297 76.6386 92.0339 85.0815 92.0339 85.0815L103.492 80.56L103.703 74.216Z" fill="white"/>
<path d="M86.629 51.5901C87.3566 53.3834 89.3645 60.7787 77.5386 69.1416C75.6871 70.4548 74.8431 71.7425 75.0432 72.972C75.687 76.9589 85.5559 81.4368 91.9727 83.4666L101.998 79.5052L102.18 74.2088C102.067 69.9528 102.391 64.6309 102.751 62.8776C103.228 60.5277 105.457 59.0036 107.862 59.3128C109.826 59.5674 112.82 59.5165 115.945 57.8031C116.221 57.6504 116.443 57.3594 116.552 56.9992C117.603 53.6308 121.07 42.0704 121.568 34.6278C122.016 27.8909 115.475 22.8637 113.329 21.405L89.2918 33.1437L86.629 39.2694V51.5901ZM92.1 86.6968L91.5907 86.5404C89.7137 85.9693 73.2062 80.7457 72.0313 73.4595C71.6312 70.9823 72.8933 68.6942 75.778 66.6498C86.7454 58.8944 83.879 52.8778 83.7481 52.6232L83.5879 52.2994L83.5771 51.9174V38.6365L86.9419 30.8956L113.5 17.9275L114.206 18.3422C114.657 18.6077 125.272 24.9626 124.613 34.8315C124.093 42.6088 120.543 54.4602 119.466 57.9086C119.117 59.029 118.389 59.9421 117.411 60.4768C113.569 62.583 109.884 62.6521 107.465 62.3356C106.661 62.2265 105.894 62.7212 105.738 63.4887C105.454 64.882 105.115 69.9819 105.228 74.1725L105.232 74.2197L104.984 81.6114L92.1 86.6968Z" fill="#1A162C"/>
<path d="M118.025 1.616C117.462 1.31044 116.807 1.82696 116.938 2.45263C117.382 4.59883 117.644 8.35285 114.752 10.4008C114.752 10.4008 106.134 5.16631 99.7137 5.51188C92.2383 5.91566 80.7507 7.30886 78.9064 21.321C77.2186 24.1402 74.8395 29.6475 76.1273 36.9591C78.0406 47.792 87.102 54.729 100.987 52.892C100.987 52.892 100.507 52.892 100.987 52.892C100.987 52.892 106.512 51.1932 109.062 44.82C111.609 38.4433 117.134 37.5957 117.134 37.5957C117.134 37.5957 123.275 34.8457 126.021 31.2226C128.924 27.3958 135.555 11.0775 118.025 1.616Z" fill="#1A162C"/>
<path d="M100.35 7.02189C100.161 7.02189 99.9793 7.02914 99.7938 7.03641C90.6561 7.53113 81.984 9.62643 80.4198 21.5215L80.3762 21.8343L80.2162 22.1035C78.7284 24.5916 76.4148 29.7898 77.6298 36.694C79.5104 47.3486 88.3171 52.9724 100.641 51.4009C101.373 51.139 105.57 49.4366 107.644 44.253C110.205 37.8508 115.461 36.3884 116.662 36.1338C117.593 35.6936 122.558 33.2674 124.806 30.2991C126.057 28.6512 129.288 22.3909 127.785 15.4757C126.756 10.7395 123.697 6.8 118.68 3.74803C119.022 7.2256 117.964 9.99382 115.632 11.6453L114.817 12.2237L113.959 11.7035C113.879 11.6562 106.167 7.02189 100.35 7.02189ZM96.7273 54.7075C85.0323 54.7075 76.5603 48.1634 74.6251 37.2251C73.2828 29.5897 75.7309 23.7586 77.437 20.8121C79.6886 5.06845 93.6462 4.31183 99.6301 3.99172C105.236 3.67525 112.038 7.13462 114.563 8.53147C116.007 6.86908 115.759 4.27545 115.443 2.7622C115.261 1.89645 115.607 0.987049 116.323 0.452316C117.036 -0.0751381 117.964 -0.147892 118.75 0.270435V0.274075C125.406 3.86805 129.451 8.7643 130.768 14.8282C132.518 22.9038 128.815 30.0662 127.236 32.1433C124.29 36.0356 118.026 38.8693 117.76 38.9894L117.367 39.1021C117.185 39.1348 112.653 39.9533 110.478 45.3879C107.687 52.3576 101.689 54.2746 101.434 54.351L101.085 54.4201C99.5901 54.6129 98.1351 54.7075 96.7273 54.7075Z" fill="#1A162C"/>
<path d="M111.725 51.51C110.096 51.51 109.037 50.8516 108.415 50.2587C106.498 48.4399 106.6 45.3915 106.618 45.0496L109.666 45.2024C109.645 45.7116 109.754 47.3304 110.521 48.0506C110.652 48.1743 111.071 48.5381 112.078 48.4399L112.395 51.4736C112.162 51.4991 111.94 51.51 111.725 51.51Z" fill="#1A162C"/>
<path d="M95.876 31.4956C92.2529 20.7573 82.5659 23.5765 82.1512 23.7038L81.2637 20.7865C81.391 20.7464 94.2028 17.0033 98.768 30.5207L95.876 31.4956Z" fill="#6398D7"/>
<path d="M82.8529 72.248C86.9234 75.671 93.9658 79.4759 103.613 76.9332L108.138 76.0348L114.486 83.3173C114.486 83.3173 111.03 94.4266 93.2419 91.8657C75.4539 89.3012 68.6698 79.2031 69.7247 72.4189C69.7356 72.3498 69.7465 72.2844 69.7574 72.2152C70.5395 67.6282 74.3735 64.1724 78.9824 63.5177L81.0304 63.2303C79.5426 66.3041 80.2374 70.0472 82.8529 72.248Z" fill="#6398D7"/>
<path d="M78.8497 65.0855C74.9866 65.7766 71.8909 68.7667 71.258 72.4698C70.8542 75.0816 71.7236 77.9481 73.6261 80.5162C75.7832 83.4336 81.2287 88.5918 93.4584 90.3524C107.154 92.3313 111.585 85.8817 112.712 83.6046L107.569 77.7044L103.909 78.4319C93.8003 81.091 86.3395 77.1733 81.8689 73.4156C79.4208 71.3567 78.3296 68.1738 78.8497 65.0855ZM98.3801 93.7791C96.7432 93.7791 94.9644 93.6554 93.0219 93.3753C83.1458 91.953 75.3867 88.028 71.1707 82.3278C68.7553 79.0649 67.704 75.46 68.2169 72.1861C69.1336 66.7733 73.3605 62.7755 78.766 62.008L83.6514 61.3169L82.4036 63.8959C81.1887 66.3986 81.7744 69.3524 83.8296 71.0803C87.751 74.3723 94.295 77.8062 103.225 75.46L108.707 74.3687L116.194 82.9571L115.943 83.7719C115.797 84.223 112.643 93.7791 98.3801 93.7791Z" fill="#1A162C"/>
<path d="M52.8176 92.8369L49.7656 92.7896C49.7729 92.4113 49.9694 83.5173 54.2727 79.8943L56.237 82.2296C53.5379 84.4995 52.854 90.658 52.8176 92.8369Z" fill="#1A162C"/>
<path d="M15.2148 335.867C15.2148 335.867 23.2285 336.478 25.7057 339.878C26.0586 340.363 26.4441 340.752 26.8479 341.058C29.0887 342.76 32.3626 341.177 32.7809 338.391L33.5193 333.488L33.9086 333.43C40.3399 332.451 46.8985 332.666 53.2571 334.055L56.2108 334.703C56.2108 334.703 61.4309 337.365 58.9173 340.265C56.4037 343.168 40.9328 346.452 30.2964 353.029C19.6599 359.603 10.9588 357.042 11.3444 346.452C11.7336 335.867 12.5047 334.703 15.2148 335.867Z" fill="#6398D7"/>
<path d="M13.8556 337.031C13.852 337.031 13.8484 337.031 13.8484 337.031C13.19 337.795 12.9499 344.353 12.8699 346.507C12.7753 349.133 13.2482 352.6 16.0346 354.223C19.0756 355.993 24.1101 355.063 29.4974 351.731C35.3613 348.104 42.5892 345.481 48.3985 343.375C52.56 341.865 56.8669 340.305 57.7654 339.265C58.1292 338.842 58.0856 338.605 58.0637 338.493C57.9109 337.696 56.605 336.667 55.6774 336.147L52.9311 335.546C46.9727 334.244 40.8941 334 34.8593 334.834L34.2919 338.621C34.0045 340.524 32.7095 342.161 30.9089 342.891C29.2101 343.583 27.3477 343.35 25.9254 342.273C25.3797 341.855 24.8923 341.352 24.4703 340.778C22.9752 338.722 17.9262 337.609 15.0961 337.387L14.6123 337.267C14.0885 337.042 13.892 337.031 13.8556 337.031ZM19.6904 358.157C17.7516 358.157 15.9946 357.728 14.4995 356.86C11.3057 355 9.64333 351.287 9.82157 346.398C10.1271 338.042 10.6728 335.466 12.3533 334.401C13.5538 333.648 14.8669 334.074 15.5835 334.368C17.2132 334.517 24.3065 335.368 26.9365 338.98C27.1839 339.319 27.464 339.61 27.7732 339.846C28.5698 340.447 29.4283 340.2 29.7593 340.065C30.5669 339.738 31.149 339.01 31.2763 338.166L32.1784 332.142L33.6843 331.92C40.323 330.909 47.0199 331.127 53.5858 332.567L56.9033 333.346C57.2744 333.531 60.5446 335.266 61.0575 337.908C61.2212 338.733 61.1775 339.985 60.0717 341.265C58.7185 342.826 55.3246 344.11 49.4389 346.244C43.7606 348.303 36.6964 350.865 31.1017 354.324C27.0021 356.86 23.0661 358.157 19.6904 358.157Z" fill="#1A162C"/>
<path d="M38.5466 348.82C21.0459 355.594 21.9335 348.678 18.9725 344.728C16.0114 340.785 11.4462 344.317 11.4353 344.325C11.4026 344.994 11.3735 345.692 11.3444 346.452C10.9588 357.042 19.6599 359.603 30.2963 353.029C32.85 351.451 35.6837 350.064 38.5502 348.823L38.5466 348.82Z" fill="white"/>
<path d="M12.9244 345.172C12.9062 345.601 12.8881 346.045 12.8699 346.51C12.7753 349.133 13.2482 352.6 16.0346 354.223C18.5664 355.695 22.4805 355.296 26.8311 353.2C22.2586 353.127 20.487 350.705 18.9301 347.675C18.5518 346.929 18.1917 346.23 17.7515 345.64C17.2059 344.917 16.5875 344.513 15.8563 344.411C14.8051 344.259 13.6483 344.761 12.9244 345.172ZM19.6904 358.157C17.7516 358.157 15.9946 357.728 14.4995 356.86C11.3057 355 9.64333 351.287 9.82157 346.398C9.85068 345.626 9.87978 344.921 9.91252 344.252L9.9452 343.611L10.4254 343.186C10.4472 343.164 13.0299 341.051 16.0601 341.363C17.6861 341.531 19.1157 342.375 20.1925 343.812C20.789 344.604 21.2255 345.456 21.6475 346.281C23.3535 349.613 24.8304 352.491 37.9986 347.398L39.1554 350.222C35.9615 351.607 33.3279 352.95 31.1017 354.328C27.0021 356.86 23.0661 358.157 19.6904 358.157Z" fill="#1A162C"/>
<path d="M111.969 248.16C111.969 248.16 117.403 248.451 118.382 251.794C119.357 255.141 123.602 254.115 123.602 254.115L125.643 249.001L126.992 245.61C126.992 245.61 140.862 243.922 147.243 245.61C153.623 247.298 154.638 249.91 152.317 252.231C149.996 254.552 124.98 264.85 121.732 265.865C120.19 266.345 110.405 270.506 108.084 264.122C105.763 257.742 109.823 249.001 109.823 249.001L111.969 248.16Z" fill="#6398D7"/>
<path d="M110.974 250.186C110.184 252.118 107.758 258.753 109.519 263.602C110.595 266.566 114.233 266.897 120.65 264.624C120.919 264.529 121.133 264.453 121.279 264.409C125.295 263.154 149.387 253.005 151.239 251.15C151.544 250.848 152.031 250.274 151.908 249.812C151.842 249.561 151.282 248.258 146.855 247.083C141.726 245.73 131.195 246.698 128.074 247.025L124.727 255.413L123.96 255.599C121.999 256.072 118.012 255.974 116.917 252.223C116.408 250.488 113.534 249.848 112.199 249.71L110.974 250.186ZM113.738 269.149C110.115 269.149 107.74 267.643 106.648 264.642C104.146 257.752 108.264 248.738 108.442 248.356L108.7 247.8L111.723 246.621L112.05 246.636C112.316 246.654 118.58 247.032 119.846 251.368C120.228 252.682 121.595 252.805 122.508 252.74L125.91 244.206L126.808 244.093C127.387 244.024 141.046 242.391 147.634 244.137C151.853 245.254 154.283 246.894 154.854 249.019C155.131 250.037 155.098 251.609 153.399 253.311C150.671 256.036 125.139 266.399 122.188 267.319L121.668 267.501C118.573 268.596 115.928 269.149 113.738 269.149Z" fill="#1A162C"/>
<path d="M131.991 261.812C127.076 263.889 114.465 264.559 113.883 259.048C113.304 253.544 107.811 255.505 107.793 255.512C107.266 258.237 107.091 261.394 108.081 264.122C110.401 270.506 120.187 266.349 121.733 265.865C122.929 265.49 127.098 263.849 131.991 261.812Z" fill="white"/>
<path d="M109.128 256.756C108.713 259.455 108.844 261.754 109.517 263.602C110.572 266.519 114.118 266.89 120.339 264.729C118.353 264.515 116.519 264.035 115.119 263.209C113.064 261.998 112.485 260.364 112.365 259.208C112.252 258.131 111.91 257.403 111.347 257.039C110.724 256.647 109.841 256.643 109.128 256.756ZM113.736 269.149C110.11 269.149 107.738 267.643 106.647 264.646C105.705 262.059 105.588 258.887 106.294 255.224L106.461 254.351L107.305 254.064C107.862 253.878 110.717 253.016 112.991 254.471C113.94 255.082 115.13 256.341 115.399 258.891C115.446 259.32 115.628 259.964 116.668 260.579C120.044 262.572 127.803 261.878 131.299 260.448C131.332 260.433 131.368 260.419 131.404 260.404L132.583 263.216C132.547 263.234 132.503 263.253 132.463 263.267C127.581 265.297 123.46 266.923 122.183 267.319L121.663 267.501C118.571 268.596 115.926 269.149 113.736 269.149Z" fill="#1A162C"/>
<path d="M23.8061 141.25C22.6239 141.25 21.8273 141.101 21.7363 141.083L22.3256 138.089C22.5256 138.129 27.3492 138.995 30.4484 135.368L32.7692 137.347C29.9355 140.668 26.1306 141.25 23.8061 141.25Z" fill="#1A162C"/>
<path d="M186.529 116.474C183.477 111.233 179.05 111.945 178.872 111.978L178.301 108.981C178.574 108.934 184.994 107.769 189.163 114.939L186.529 116.474Z" fill="#1A162C"/>
<path d="M117.327 118.053C114.792 115.903 113.242 113.011 112.715 109.454L115.73 109.006C116.149 111.807 117.349 114.07 119.303 115.729L117.327 118.053Z" fill="#1A162C"/>
<path d="M115.676 120.749C115.676 120.745 115.033 118.068 113.887 113.422L116.848 112.695C117.997 117.351 118.641 120.036 118.641 120.036L115.676 120.749Z" fill="#1A162C"/>
<path d="M106.782 92.3533L104.025 91.0401C104.083 90.9091 105.418 87.7772 101.613 83.7321L103.836 81.6405C109.143 87.2861 106.881 92.1459 106.782 92.3533Z" fill="#1A162C"/>
<path d="M71.9691 78.2065L69.0371 77.3626C69.1353 77.0243 71.5325 69.0579 80.8558 68.254L81.1177 71.2951C73.8607 71.9207 71.9872 78.1447 71.9691 78.2065Z" fill="#1A162C"/>
<path d="M94.5807 162.734C91.8889 162.734 88.5713 162.574 84.5117 162.141L84.8319 159.107C99.1168 160.628 103.591 158.623 103.635 158.605L104.999 161.333C104.635 161.519 101.965 162.734 94.5807 162.734Z" fill="#1A162C"/>
<path d="M79.2518 161.486C59.6377 158.689 50.6855 151.381 50.3145 151.072L52.2643 148.726C52.3516 148.795 61.0127 155.804 79.6846 158.463L79.2518 161.486Z" fill="#1A162C"/>
<path d="M124.642 19.6807L121.59 19.6297C121.67 14.9736 116.432 11.8052 116.377 11.7725L117.938 9.14975C118.218 9.31345 124.747 13.2748 124.642 19.6807Z" fill="#6398D7"/>
<path d="M86.0467 197.641C83.7659 195.258 81.6124 192.635 81.5215 192.526L83.8823 190.591C83.9041 190.617 86.054 193.232 88.2547 195.531L86.0467 197.641Z" fill="#6398D7"/>
<path d="M158.848 160.912C155.861 157.063 147.946 158.034 145.145 158.733L144.406 155.772C144.897 155.652 156.454 152.854 161.259 159.038L158.848 160.912Z" fill="#6398D7"/>
<path d="M138.627 187.332L138.049 184.334L144.491 183.098L145.066 186.095L138.627 187.332Z" fill="#6398D7"/>
<path d="M29.327 322.746C23.9797 322.746 19.6255 319.759 19.3672 319.581L21.1132 317.078C21.1859 317.126 28.4284 322.044 34.667 318.192L36.2712 320.79C33.9359 322.229 31.5459 322.746 29.327 322.746Z" fill="#6398D7"/>
<path d="M127.582 238.378C121.805 238.378 117.647 235.701 117.447 235.574L119.117 233.017C119.168 233.049 124.053 236.149 130.153 235.112L130.67 238.12C129.601 238.298 128.568 238.378 127.582 238.378Z" fill="#6398D7"/>
<path d="M57.4278 249.91C56.7657 249.775 56.1146 249.63 55.4817 249.477C50.2435 248.196 46.2494 246.319 46.082 246.236L47.388 243.478C47.428 243.497 51.2839 245.308 56.2019 246.508C56.7949 246.654 57.406 246.792 58.028 246.916L57.4278 249.91Z" fill="#6398D7"/>
<path d="M47.6349 139.162C46.9984 137.616 32.135 100.971 43.1242 75.0965C48.9153 61.4663 56.8308 58.0105 62.451 57.5122C69.6207 56.8829 76.2085 60.877 77.7254 63.2014L73.8113 65.7914C73.2111 64.9911 68.333 61.5136 62.4473 62.2302C56.3216 62.9759 51.2726 67.9231 47.4458 76.9335C37.2168 101.015 51.8255 137.013 51.9746 137.373L47.6349 139.162Z" fill="#1A162C"/>
<path d="M39.8188 113.011L39.375 109.992L45.2752 109.119L45.719 112.138L39.8188 113.011Z" fill="#6398D7"/>
<path d="M37.8597 185.138L35.0078 184.054L36.31 180.624L39.162 181.708L37.8597 185.138Z" fill="#1A162C"/>
<path d="M32.4493 199.398L29.5938 198.317L33.5333 187.936L36.3888 189.016L32.4493 199.398Z" fill="#1A162C"/>
<path d="M42.7572 192.006L39.8398 191.112L41.9715 184.149L44.8889 185.044L42.7572 192.006Z" fill="#1A162C"/>
<path d="M39.1947 203.643L36.2773 202.748L38.991 193.887L41.9084 194.782L39.1947 203.643Z" fill="#1A162C"/>
<path d="M45.7832 206.302L42.8477 205.473L46.2961 193.25L49.2317 194.083L45.7832 206.302Z" fill="#1A162C"/>
<path d="M118.785 135.426C118.785 137.798 116.861 139.722 114.485 139.722C112.11 139.722 110.186 137.798 110.186 135.426C110.186 133.051 112.11 131.127 114.485 131.127C116.861 131.127 118.785 133.051 118.785 135.426Z" fill="white"/>
<path d="M114.484 132.655C112.953 132.655 111.712 133.899 111.712 135.426C111.712 136.954 112.953 138.198 114.484 138.198C116.012 138.198 117.256 136.954 117.256 135.426C117.256 133.899 116.012 132.655 114.484 132.655ZM114.484 141.25C111.272 141.25 108.66 138.638 108.66 135.426C108.66 132.214 111.272 129.603 114.484 129.603C117.696 129.603 120.311 132.214 120.311 135.426C120.311 138.638 117.696 141.25 114.484 141.25Z" fill="#1A162C"/>
<path d="M124.865 151.661C124.865 154.033 122.941 155.957 120.566 155.957C118.194 155.957 116.27 154.033 116.27 151.661C116.27 149.286 118.194 147.361 120.566 147.361C122.941 147.361 124.865 149.286 124.865 151.661Z" fill="white"/>
<path d="M120.566 148.886C119.034 148.886 117.79 150.133 117.79 151.661C117.79 153.189 119.034 154.433 120.566 154.433C122.094 154.433 123.334 153.189 123.334 151.661C123.334 150.133 122.094 148.886 120.566 148.886ZM120.566 157.485C117.354 157.485 114.738 154.873 114.738 151.661C114.738 148.449 117.354 145.837 120.566 145.837C123.774 145.837 126.39 148.449 126.39 151.661C126.39 154.873 123.774 157.485 120.566 157.485Z" fill="#1A162C"/>
<path d="M46.3629 340.141L43.3291 339.81C43.7656 335.79 39.4768 334.386 39.2949 334.331L40.1935 331.414C42.5761 332.141 46.9304 334.902 46.3629 340.141Z" fill="#1A162C"/>
<path d="M139.773 251.54L136.725 251.47C136.827 247.033 133.357 246.651 132.658 246.618L132.76 243.569C135.252 243.646 139.915 245.41 139.773 251.54Z" fill="#1A162C"/>
<path d="M66.2433 61.5569L50.0049 71.0475C48.4298 71.9715 46.4073 71.4404 45.4869 69.8653L45.225 69.4215C44.3047 67.8464 44.8358 65.8239 46.4109 64.9036L62.6493 55.4094C64.2244 54.4891 66.2469 55.0201 67.1672 56.5952L67.4255 57.0354C68.3458 58.6105 67.8183 60.633 66.2433 61.5569Z" fill="white"/>
<path d="M64.3108 56.4825C64.0016 56.4825 63.6925 56.5661 63.4196 56.7262L47.1813 66.2204C46.7703 66.4605 46.4792 66.846 46.3592 67.3044C46.2392 67.7627 46.3046 68.2429 46.5411 68.6539L46.7993 69.0941C47.2977 69.938 48.389 70.2254 49.2329 69.7307L65.4713 60.2365C65.8824 60 66.1734 59.6144 66.2934 59.1525C66.4135 58.6941 66.348 58.214 66.1079 57.8066L65.8495 57.3664C65.6095 56.9517 65.2239 56.6607 64.7655 56.5407C64.6164 56.5007 64.4636 56.4825 64.3108 56.4825ZM48.3453 73.0264C46.6829 73.0264 45.0642 72.1679 44.1657 70.6328L43.9074 70.1926C43.26 69.0795 43.078 67.7809 43.4054 66.5296C43.7328 65.2819 44.5295 64.2379 45.6426 63.5867L61.8773 54.0925C62.9904 53.4414 64.2927 53.2632 65.5404 53.5906C66.7881 53.9179 67.8321 54.7109 68.4833 55.824L68.7415 56.2642C69.3927 57.381 69.5709 58.6796 69.2435 59.9273C68.9161 61.175 68.1231 62.2226 67.01 62.8701L50.7752 72.3643C50.0113 72.8118 49.1711 73.0264 48.3453 73.0264Z" fill="#1A162C"/>
<path d="M109.389 41.3027L121.731 43.6526L123.117 40.335L126.5 41.2117L124.376 49.2327L121.644 48.4943L121.731 44.2055L109.389 41.3027Z" fill="#1A162C"/>
<path d="M123.195 47.334L123.293 47.3595L124.635 42.3032L124.017 42.1431L123.257 44.2347L123.195 47.334ZM125.458 51.1062L120.096 49.6548L120.183 45.4097L109.041 42.7906L109.674 39.8041L120.801 41.9212L122.22 38.5309L128.371 40.1169L125.458 51.1062Z" fill="#1A162C"/>
<path d="M91.9416 154.833C83.5205 154.833 73.357 150.868 72.9277 150.697L74.0444 147.86C74.1463 147.9 84.2516 151.832 92.047 151.781L92.0616 154.833C92.0252 154.833 91.9816 154.833 91.9416 154.833Z" fill="#1A162C"/>
<path d="M43.2157 306.363L40.2656 305.577C40.3893 305.111 43.3212 294.096 46.2604 286.799L49.0905 287.941C46.2241 295.06 43.2448 306.249 43.2157 306.363Z" fill="#6398D7"/>
<path d="M209.951 202.348L209.962 202.493C210.045 203.632 211.075 204.85 212.788 205.84L228.866 215.123C232.784 217.382 238.921 217.677 242.256 215.745L260.488 205.218C261.332 204.73 262.322 203.905 262.234 202.733L262.107 200.965H262.249V186.6L209.932 186.681L209.951 202.348ZM236.531 220.325C233.301 220.325 229.914 219.532 227.218 217.975L211.14 208.692C209.045 207.484 207.623 205.949 207.008 204.261H206.673L206.655 202.617L206.637 186.135C206.637 185.404 206.921 184.713 207.441 184.192C207.957 183.676 208.645 183.388 209.38 183.385L262.791 183.305C263.475 183.221 264.217 183.589 264.737 184.109C265.257 184.629 265.545 185.316 265.545 186.051V204.261H265.344C264.926 205.764 263.817 207.102 262.136 208.07L243.904 218.597C241.896 219.757 239.27 220.325 236.531 220.325Z" fill="#1A162C"/>
<path d="M235.632 170.628C233.475 170.628 231.431 171.046 229.943 171.904L211.711 182.432C210.9 182.901 209.929 183.687 209.929 184.778C209.929 185.924 210.998 187.226 212.788 188.259L228.866 197.542C232.784 199.801 238.921 200.092 242.256 198.164L260.488 187.637C261.299 187.168 262.267 186.382 262.267 185.294C262.267 184.145 261.197 182.843 259.408 181.81L243.333 172.526C241.161 171.275 238.313 170.628 235.632 170.628ZM236.531 202.744C233.301 202.744 229.914 201.951 227.218 200.394L211.14 191.115C208.277 189.46 206.637 187.153 206.637 184.778C206.637 182.701 207.852 180.857 210.063 179.58L228.295 169.052C232.671 166.524 240.001 166.797 244.981 169.675L261.059 178.954C263.918 180.609 265.563 182.919 265.563 185.294C265.563 187.368 264.348 189.216 262.136 190.489L243.904 201.016C241.896 202.177 239.27 202.744 236.531 202.744Z" fill="#1A162C"/>
</svg>
