<svg width="336" height="352" viewBox="0 0 336 352" fill="none" xmlns="http://www.w3.org/2000/svg">
<path d="M220.655 125.444L219.163 59.9532C219.163 59.9348 219.174 59.9238 219.192 59.9238C240.427 59.3785 261.876 62.3663 280.694 68.8723C280.719 68.8841 280.727 68.9055 280.705 68.9243L220.706 125.468C220.688 125.484 220.658 125.47 220.655 125.444Z" fill="white"/>
<path d="M277.807 69.5315L222.122 122.008L220.737 61.434C240.845 61.1135 260.458 63.8691 277.807 69.5315ZM220.94 127.291L221.721 126.631L282.39 69.4579L282.051 67.7109L281.178 67.4058C262.488 60.9403 241.01 57.8015 219.149 58.3799L217.642 58.4167L217.613 59.953L219.109 126.443L220.94 127.291Z" fill="#1A162C"/>
<path d="M220.608 152.895L144.182 107.106C144.182 107.083 144.182 107.076 144.182 107.054C164.702 94.6089 191.732 88.041 219.127 87.3329C219.145 87.3329 219.16 87.3443 219.16 87.3616L220.652 152.869C220.656 152.89 220.63 152.905 220.608 152.895Z" fill="#6398D7"/>
<path d="M217.652 88.9202L219.052 150.158L147.165 107.09C166.098 96.2382 190.961 89.8243 217.652 88.9202ZM220.633 154.674L222.187 153.778L222.202 152.869L220.673 85.8149L219.13 85.7862C190.254 86.5329 163.368 93.6148 143.385 105.735L142.638 106.185V107.931L143.393 108.431L220.633 154.674Z" fill="#1A162C"/>
<path d="M220.652 152.883L220.575 205.135C220.575 205.159 220.549 205.171 220.531 205.159L144.179 162.329C144.168 162.325 144.164 162.315 144.164 162.303V107.116C144.164 107.094 144.19 107.08 144.208 107.09L220.641 152.857C220.649 152.865 220.652 152.876 220.652 152.883Z" fill="#1A162C"/>
<path d="M219.111 153.742L219.034 202.559L145.714 161.415V109.791L219.111 153.742ZM220.588 206.965L222.11 205.997L222.121 205.137L222.202 152.11L221.569 151.624L144.24 105.307L142.638 106.18L142.619 107.116V163.257L143.489 163.711L220.588 206.965Z" fill="#1A162C"/>
<path d="M113.552 231.431V180.728C113.552 180.712 113.567 180.698 113.582 180.698L220.349 182.669C220.364 182.669 220.379 182.684 220.379 182.698L220.519 248.061L220.272 248.054L197.191 307.552C197.176 307.559 197.169 307.562 197.158 307.569C178.355 304.876 160.535 299.291 145.839 290.804C125.304 278.948 114.661 264.403 113.714 248.874L113.626 248.061C113.626 248.061 113.471 232.768 113.552 231.431Z" fill="#6398D7"/>
<path d="M218.968 247.133L218.828 247.493L196.186 305.864C177.456 303.053 160.336 297.395 146.609 289.465C127.025 278.16 116.186 264.09 115.251 248.782L115.159 247.892C115.107 241.919 115.033 232.463 115.089 231.523L115.096 231.431V182.275L218.835 184.186L218.968 247.133ZM197.479 309.177L198.404 308.619L198.628 308.111L221.311 249.637L222.062 249.667L221.915 181.156L112.031 179.125L112.001 180.728V231.391C111.931 233.012 112.06 246.524 112.075 248.08L112.175 249.044C113.166 265.365 124.542 280.292 145.062 292.141C159.419 300.43 177.357 306.295 196.937 309.099L197.479 309.177Z" fill="#1A162C"/>
<path d="M113.771 248.874L113.679 248.061C113.679 248.061 113.528 232.768 113.609 231.431V180.728C113.609 180.712 113.62 180.698 113.639 180.698L136.509 181.121C136.517 181.121 136.52 181.121 136.528 181.125C154.174 194.598 190.945 223.064 191.122 223.201C191.129 223.204 191.125 223.204 191.125 223.213L197.245 242.443C197.245 242.443 197.245 242.446 197.245 242.45L197.399 307.157L197.245 307.552C197.241 307.562 197.223 307.569 197.2 307.569C178.401 304.872 160.588 299.287 145.893 290.804C125.361 278.948 114.714 264.403 113.771 248.874Z" fill="#1A162C"/>
<path d="M195.704 242.689L195.855 305.809C177.213 302.954 160.274 297.324 146.669 289.465C127.088 278.163 116.246 264.09 115.314 248.782L115.218 247.891C115.167 241.919 115.096 232.463 115.152 231.523L115.155 182.275L135.989 182.658C152.689 195.408 185.963 221.161 189.813 224.141L195.704 242.689ZM198.187 309.267L198.949 307.153L198.795 241.808L198.607 241.622L192.487 222.382L192.218 222.11C191.762 221.742 154.925 193.224 137.466 179.899L136.895 179.581L136.512 179.574L112.094 179.125L112.065 180.728V231.431C111.987 232.69 112.123 246.506 112.134 248.08L112.23 249.001C113.243 265.384 124.616 280.304 145.125 292.141C159.478 300.43 177.409 306.291 196.986 309.099L198.187 309.267Z" fill="#1A162C"/>
<path d="M220.431 182.684L197.247 242.446C197.243 242.457 197.228 242.465 197.217 242.465C178.41 239.768 160.594 234.183 145.895 225.698C103.502 201.222 102.869 161.788 143.935 136.843C143.942 136.839 143.957 136.839 143.964 136.843L220.42 182.646C220.423 182.662 220.427 182.669 220.431 182.684Z" fill="white"/>
<path d="M218.527 183.314L196.242 240.76C177.494 237.94 160.385 232.282 146.666 224.361C126.529 212.731 115.337 197.369 115.156 181.092C114.979 165.321 125.199 150.272 143.962 138.638L218.527 183.314ZM198.272 244.177L198.711 242.933L222.071 182.725L221.666 181.607L221.209 181.321L143.918 135.016L143.074 135.557C122.908 147.806 111.874 164.002 112.065 181.13C112.261 198.537 123.998 214.842 145.122 227.037C159.479 235.326 177.413 241.19 196.994 243.993L198.272 244.177Z" fill="#1A162C"/>
<path d="M197.406 282.824L216.055 259.695C216.055 259.695 216.059 259.692 216.059 259.688L220.564 248.076C220.568 248.071 220.572 248.064 220.575 248.061L293.534 205.941L293.579 203.156H298.346C298.353 203.156 298.357 203.156 298.361 203.152L301.975 201.067C301.982 201.067 301.993 201.067 302.004 201.067C303.187 201.749 304.321 202.448 305.441 203.156L334.269 220.644C334.276 220.651 334.284 220.658 334.284 220.67V245.91C334.357 262.262 323.596 278.627 301.989 291.106C273.633 307.476 233.68 313.062 197.399 307.878C197.381 307.875 197.37 307.864 197.373 307.852L197.399 307.783V282.842C197.399 282.835 197.403 282.831 197.406 282.824Z" fill="#6398D7"/>
<path d="M332.74 221.525V245.91C332.817 262.413 321.625 277.987 301.219 289.767C274.661 305.101 235.584 311.486 198.95 306.534V283.376L217.502 260.252L221.813 249.133L295.067 206.84L295.103 204.703H298.99L299.307 204.389L301.985 202.847C302.884 203.376 303.757 203.919 304.619 204.464L332.74 221.525ZM224.34 311.335C253.429 311.335 281.476 304.732 302.766 292.443C324.171 280.082 335.912 263.556 335.831 245.903V219.716L334.965 219.267L306.244 201.836C305.135 201.133 303.978 200.422 302.777 199.727L302.42 199.519H301.591L297.94 201.609H292.064L292.009 205.039L219.484 246.97L219.256 247.202L219.123 247.516L214.706 258.91L195.866 282.356L195.859 282.842V307.485L195.686 307.92L196.444 309.316L197.233 309.415C206.255 310.705 215.351 311.335 224.34 311.335Z" fill="#1A162C"/>
<path d="M260.464 305.731C242.803 309.099 223.962 309.828 205.789 307.904V273.845L217.839 258.903C217.839 258.903 217.839 258.899 217.843 258.896L220.776 251.337H260.464V305.731Z" fill="#1A162C"/>
<path d="M258.913 304.449C242.298 307.488 224.519 308.197 207.333 306.509V274.391L219.288 259.437L221.83 252.884H258.913V304.449ZM225.724 310.49C237.594 310.49 249.445 309.404 260.752 307.252L262.008 307.014V249.792H219.711L216.451 258.174L204.242 273.3V309.293L205.623 309.441C212.262 310.145 218.996 310.49 225.724 310.49Z" fill="#1A162C"/>
<path d="M294.933 294.322C288.696 297.354 282.016 299.922 275.024 302.028V247.877H294.933V294.322Z" fill="#1A162C"/>
<path d="M293.388 293.349C288.16 295.839 282.516 298.049 276.57 299.936V249.424H293.388V293.349ZM273.479 304.111L275.468 303.506C282.641 301.348 289.416 298.724 295.609 295.711L296.479 295.286V246.329H273.479V304.111Z" fill="#1A162C"/>
<path d="M197.381 282.791L220.565 223.031C220.568 223.024 220.572 223.019 220.576 223.017L301.971 176.019C301.982 176.015 301.993 176.015 302.004 176.022C345.056 200.886 345.053 241.197 301.99 266.057C273.633 282.429 233.684 288.017 197.403 282.831C197.381 282.831 197.374 282.812 197.381 282.791Z" fill="white"/>
<path d="M301.985 177.798C321.86 189.528 332.743 204.836 332.743 221.038C332.743 237.47 321.547 252.983 301.215 264.725C274.793 279.976 235.996 286.369 199.509 281.563L221.809 224.085L301.985 177.798ZM224.332 286.291C253.422 286.291 281.472 279.688 302.762 267.398C324.086 255.083 335.83 238.622 335.834 221.038C335.834 203.461 324.097 186.998 302.773 174.685L302.055 174.265L301.281 174.641L219.576 221.808L219.119 222.472L195.678 283.001L196.477 284.274L197.232 284.371C206.251 285.656 215.343 286.291 224.332 286.291Z" fill="#1A162C"/>
<path d="M280.669 50.5072C288.247 53.1339 295.405 56.3243 301.941 60.0931C301.966 60.1078 301.966 60.1299 301.941 60.1447L220.788 106.998C220.755 107.017 220.726 106.976 220.751 106.951L280.636 50.5146C280.643 50.5072 280.658 50.5035 280.669 50.5072Z" fill="#6398D7"/>
<path d="M298.864 60.1375L231.273 99.1623L281.026 52.272C287.425 54.534 293.408 57.1755 298.864 60.1375ZM220.36 109.047L221.598 108.313L303.487 61.0364L303.506 59.2017L302.681 58.7375C296.259 55.0314 289.024 51.771 281.21 49.0595L280.142 48.6359L279.49 49.4721L218.684 106.774L220.36 109.047Z" fill="#1A162C"/>
<path d="M301.96 60.1556V176.012C301.96 176.019 301.956 176.031 301.945 176.034L220.62 222.991C220.598 223.003 220.575 222.987 220.575 222.965L220.727 106.991C220.727 106.981 220.734 106.972 220.741 106.965L301.916 60.1298C301.938 60.1188 301.96 60.1298 301.96 60.1556Z" fill="#6398D7"/>
<path d="M300.415 175.139L222.121 220.339L222.269 107.857L300.415 62.7789V175.139ZM220.637 224.781L221.436 224.299L303.491 176.926L303.506 176.008V59.2716L301.966 58.3469L301.166 58.778L219.193 106.074L219.181 106.991L219.027 223.875L220.637 224.781Z" fill="#1A162C"/>
<path d="M169.626 150.198H172.721V124.951H169.626V150.198Z" fill="#6398D7"/>
<path d="M293.41 180.577H296.501L296.457 64.6947H293.366L293.41 180.577Z" fill="#1A162C"/>
<path d="M245.783 208.137H248.878L248.83 92.2588H245.739L245.783 208.137Z" fill="#1A162C"/>
<path d="M205.394 258.151H208.485V217.465H205.394V258.151Z" fill="#1A162C"/>
<path d="M186.199 302.028H189.294V242.46H186.199V302.028Z" fill="#6398D7"/>
<path d="M150.927 301.351C150.927 301.351 152.382 310.859 154.802 316.164C157.223 321.469 140.438 330.046 140.438 330.046L136.091 320.935C136.091 320.935 137.019 311.172 134.676 301.851C132.333 292.53 150.927 301.351 150.927 301.351Z" fill="white"/>
<path d="M149.531 302.409C149.947 304.876 151.311 312.233 153.392 316.805C154.405 319.027 148.083 324.151 141.135 327.928L137.661 320.647C137.816 318.607 138.298 309.938 136.173 301.476C135.996 300.777 135.878 299.874 136.305 299.52C137.812 298.297 144.189 299.988 149.531 302.409ZM139.724 332.146L141.139 331.423C145.383 329.25 159.018 321.693 156.207 315.523C153.9 310.469 152.464 301.211 152.453 301.119L152.327 300.309L151.583 299.958C149.398 298.919 138.287 293.905 134.345 297.129C133.417 297.891 132.463 299.395 133.174 302.227C135.425 311.187 134.559 320.692 134.548 320.788L134.508 321.212L139.724 332.146Z" fill="#1A162C"/>
<path d="M156.705 311.888C156.705 311.888 159.6 317.322 158.819 324.35C158.318 328.863 154.174 331.442 152.365 331.645C151.098 331.785 148.04 335.863 148.254 336.998C148.493 338.272 133.985 352.682 127.755 349.966C121.526 347.248 128.765 333.288 128.765 333.288L156.705 311.888Z" fill="#1A162C"/>
<path d="M146.7 336.772C145.3 339.112 132.969 350.566 128.372 348.547C127.727 348.263 127.303 347.796 127.049 347.078C125.863 343.736 128.633 336.998 129.982 334.301L156.057 314.325C156.787 316.352 157.748 319.981 157.281 324.18C156.861 327.975 153.272 329.987 152.193 330.112C150.819 330.263 149.367 331.869 148.391 333.189C147.315 334.644 146.751 335.848 146.7 336.772ZM129.503 351.844C133.382 351.844 138.149 348.771 141.76 345.895C142.625 345.205 150.215 339.083 149.769 336.715C149.927 336.106 151.942 333.475 152.698 333.144C155.026 332.904 159.767 329.773 160.353 324.524C161.178 317.104 158.194 311.401 158.065 311.161L157.211 309.552L127.55 332.271L127.392 332.577C126.861 333.601 122.241 342.763 124.135 348.109C124.677 349.626 125.712 350.762 127.138 351.38C127.871 351.701 128.666 351.844 129.503 351.844Z" fill="#1A162C"/>
<path d="M154.903 310.089C154.579 309.909 151.643 312.285 151.286 312.381C150.24 312.657 148.14 313.567 147.69 316.418C147.09 320.25 144.375 320.25 144.375 320.25V315.9C144.375 315.107 143.767 314.45 142.978 314.384L135.982 313.815C135.212 313.751 134.52 314.275 134.369 315.033L133.19 321.049C133.19 321.049 131.753 328.237 129.196 332.551C126.643 336.864 124.403 341.179 127.601 343.732C130.795 346.289 136.387 343.732 143.733 334.788C149.042 328.325 155.066 320.205 156.587 317.531C157.464 315.987 157.689 314.115 157.007 312.476C156.631 311.581 155.99 310.698 154.903 310.089Z" fill="#6398D7"/>
<path d="M154.751 311.872C155.105 312.193 155.377 312.587 155.576 313.073C156.048 314.193 155.919 315.574 155.241 316.769C153.87 319.181 148.145 326.985 142.538 333.808C136.36 341.33 131.136 344.593 128.565 342.527C126.575 340.94 127.721 338.073 130.525 333.34C133.184 328.851 134.643 321.658 134.706 321.351L135.885 315.331L142.851 315.924L142.826 321.797H144.369C145.769 321.797 148.576 320.722 149.217 316.654C149.505 314.819 150.713 314.131 151.678 313.877C152.076 313.77 152.375 313.563 153.45 312.79C153.797 312.54 154.335 312.148 154.751 311.872ZM130.3 346.204C133.439 346.204 138.173 343.994 144.926 335.768C150.234 329.309 156.309 321.141 157.93 318.294C159.076 316.275 159.264 313.881 158.428 311.883C157.857 310.509 156.924 309.448 155.657 308.74H155.653C154.596 308.151 153.73 308.773 151.645 310.282C151.262 310.553 150.923 310.804 150.717 310.936C149.416 311.319 146.734 312.54 146.16 316.179C146.101 316.562 146.016 316.887 145.917 317.163V315.9C145.917 314.315 144.682 312.977 143.106 312.845L136.106 312.273C134.584 312.145 133.151 313.203 132.853 314.736L131.674 320.755C131.659 320.817 130.256 327.732 127.865 331.766C125.599 335.591 122.173 341.37 126.634 344.94C127.463 345.607 128.668 346.204 130.3 346.204Z" fill="#1A162C"/>
<path d="M57.1367 249.42C57.1367 249.42 50.4761 254.891 47.492 259.183C44.5079 263.471 30.2248 254.457 30.2248 254.457L35.2608 246.938C35.2608 246.938 43.211 243.19 49.3229 237.123C55.4384 231.059 57.1367 249.42 57.1367 249.42Z" fill="white"/>
<path d="M55.5173 248.765C53.7415 250.272 48.7718 254.634 46.2262 258.299C45.0583 259.979 38.3017 257.456 32.4072 253.978L36.3123 248.147C38.0291 247.291 44.8887 243.707 50.4148 238.221C50.6948 237.945 51.4059 237.314 51.8148 237.465C53.3806 238.037 54.9389 243.61 55.5173 248.765ZM44.6678 261.87C46.403 261.87 47.8618 261.36 48.7608 260.063C51.5901 255.997 58.0519 250.669 58.1182 250.614L58.752 250.095L58.6782 249.28C58.3945 246.219 57.1383 236.114 52.8684 234.563C51.8185 234.176 50.157 234.121 48.2376 236.025C42.38 241.842 34.6802 245.504 34.6029 245.542L34.2161 245.722L28.0563 254.913L29.4011 255.761C32.1199 257.477 39.5801 261.87 44.6678 261.87Z" fill="#1A162C"/>
<path d="M47.5244 264.345C47.5244 264.345 45.1997 269.156 38.3769 271.009C33.9929 272.195 28.4668 269.805 27.6158 268.198C27.0189 267.07 22.1043 265.722 21.128 266.338C20.0302 267.03 1.30424 258.821 1.5437 252.029C1.78316 245.235 17.4292 246.848 17.4292 246.848L47.5244 264.345Z" fill="#1A162C"/>
<path d="M45.3468 264.864C44.2674 266.231 42.0054 268.423 37.9751 269.516C34.151 270.551 29.5312 268.371 28.9822 267.469C28.3375 266.253 26.315 265.494 24.7308 265.07C22.9809 264.602 21.651 264.517 20.7705 264.817C18.0811 264.366 2.91394 257.087 3.09077 252.083C3.11656 251.38 3.39651 250.817 3.97491 250.315C6.64954 247.979 13.9476 248.087 16.9465 248.355L45.3468 264.864ZM35.8641 272.865C36.8551 272.865 37.8461 272.752 38.7819 272.497C46.2052 270.485 48.8099 265.24 48.9168 265.018L49.543 263.726L17.9191 245.346L17.5876 245.313C16.4381 245.195 6.21859 244.262 1.94508 247.983C0.729343 249.041 0.0588417 250.423 0.00357819 251.977C-0.154835 256.479 5.6069 260.76 10.4625 263.56C11.424 264.113 19.9084 268.916 21.953 267.649C22.583 267.55 25.7624 268.478 26.3482 269.056C27.2544 270.806 31.609 272.865 35.8641 272.865Z" fill="#1A162C"/>
<path d="M48.9775 261.511C48.9775 258.535 45.3598 260.417 45.1388 260.12C44.4978 259.246 42.8804 257.624 40.0658 258.254C36.2786 259.106 35.2802 256.578 35.2802 256.578L39.329 254.979C40.0658 254.688 40.4563 253.885 40.2279 253.13L38.1905 246.411C37.9658 245.67 37.2253 245.216 36.4627 245.357L30.4357 246.47C30.4357 246.47 23.2186 247.769 18.2709 246.973C13.3195 246.182 8.48603 245.684 7.28134 249.594C6.07666 253.503 10.5049 257.765 21.524 261.319C29.4852 263.884 36.0722 265.018 39.1189 265.453C40.8762 265.705 46.255 265.582 47.526 264.344C48.2223 263.667 48.9775 262.756 48.9775 261.511Z" fill="#6398D7"/>
<path d="M47.4328 261.346C47.4328 261.386 47.4328 261.442 47.4328 261.511C47.4328 262.049 47.1417 262.564 46.4528 263.235C45.7012 263.858 41.3247 264.208 39.339 263.92C36.2039 263.475 29.7825 262.359 22.0018 259.846C12.7401 256.863 7.79244 253.2 8.76134 250.05C9.50921 247.615 12.6001 247.629 18.0267 248.499C23.1844 249.32 30.4087 248.042 30.7108 247.991L36.749 246.878L38.7495 253.58L33.2787 255.706L33.846 257.146C34.3581 258.443 36.399 260.656 40.4036 259.765C42.2235 259.352 43.303 260.233 43.8998 261.032C44.563 261.935 45.5577 261.695 46.2171 261.541C46.475 261.478 47.1233 261.353 47.4328 261.346ZM41.203 267.096C43.6823 267.096 47.245 266.779 48.6044 265.452C49.4296 264.649 50.5273 263.367 50.5273 261.511C50.5273 260.077 49.9196 259.3 49.4112 258.899C48.2617 257.997 46.7255 258.254 45.764 258.472C44.7067 257.392 42.7171 256.081 39.7294 256.747C39.3499 256.833 39.0147 256.873 38.72 256.884L39.899 256.417C41.3763 255.834 42.1646 254.192 41.7077 252.681L39.6741 245.96C39.221 244.472 37.7216 243.574 36.189 243.834L30.1546 244.947C30.092 244.958 23.1513 246.193 18.5167 245.449C14.1253 244.748 7.48666 243.68 5.80673 249.141C4.89308 252.107 5.65564 257.824 21.0513 262.79C29.0531 265.369 35.6696 266.522 38.9042 266.982C39.3279 267.041 40.1714 267.096 41.203 267.096Z" fill="#1A162C"/>
<path d="M220.562 166.106C220.562 166.106 225.598 173.871 219.785 186.824C207.701 213.744 169.033 197.364 169.033 197.364C169.033 197.364 157.256 207.705 142.821 216.556C141.702 217.244 141.377 218.717 142.147 219.782C144.619 223.201 147.876 231.892 147.876 249.502C147.876 267.973 150.153 289.58 151.254 298.956C151.567 301.615 149.729 304.036 147.084 304.464L140.305 305.55C137.752 305.96 135.31 304.361 134.676 301.852C130.697 286.074 117.42 233.115 116.576 226.045C115.589 217.727 116.576 216.537 116.576 216.537C116.576 216.537 108.456 227.037 90.0325 232.979C75.9963 237.506 60.3465 247.67 53.6931 252.254C51.8843 253.498 49.4122 252.986 48.2333 251.13L44.7039 245.556C43.665 243.912 43.9892 241.768 45.4776 240.519C56.2314 231.531 97.2976 197.151 108.457 187.02C121.332 175.335 121.133 173.157 131.633 169.391C142.132 165.626 168.282 156.615 168.282 156.615L220.562 166.106Z" fill="#1A162C"/>
<path d="M168.738 195.559L168.013 196.201C167.895 196.303 156.161 206.563 142.014 215.24C141.104 215.795 140.459 216.713 140.253 217.753C140.047 218.787 140.272 219.829 140.894 220.688C142.169 222.45 146.328 229.736 146.328 249.504C146.328 268.279 148.701 290.471 149.721 299.136C149.935 300.975 148.668 302.644 146.837 302.938L140.065 304.026C138.275 304.309 136.613 303.214 136.171 301.475C127.875 268.559 118.772 231.408 118.112 225.86C117.287 218.927 117.895 217.351 117.924 217.283L117.162 216.967L115.393 215.549C115.379 215.564 115.367 215.575 115.356 215.589C115.279 215.693 107.248 225.801 89.5569 231.512C75.1891 236.147 59.075 246.673 52.8158 250.982C52.2927 251.344 51.6591 251.476 51.0401 251.344C50.4175 251.218 49.8834 250.846 49.5408 250.305L46.0077 244.727C45.3851 243.742 45.584 242.446 46.4682 241.709C58.4892 231.656 98.5535 198.093 109.491 188.165C112.969 185.012 115.5 182.544 117.534 180.561C122.96 175.268 124.788 173.485 132.156 170.847C141.834 167.376 165.132 159.334 168.403 158.206L219.564 167.491C220.496 169.395 222.949 176.005 218.374 186.191C207.038 211.445 170.002 196.1 169.634 195.939L168.738 195.559ZM139.487 307.16C139.837 307.16 140.194 307.134 140.552 307.075L147.327 305.988C150.797 305.433 153.199 302.264 152.79 298.779C151.777 290.161 149.423 268.116 149.423 249.504C149.423 229.374 145.208 221.38 143.396 218.875C143.256 218.681 143.259 218.489 143.285 218.355C143.307 218.242 143.385 218.02 143.628 217.874C155.999 210.292 166.55 201.513 169.331 199.139C175.355 201.421 209.694 213.07 221.192 187.458C227.282 173.894 222.083 165.607 221.862 165.265L221.498 164.702L168.16 155.02L167.777 155.152C167.515 155.245 141.498 164.216 131.109 167.936C123.111 170.802 121.004 172.857 115.375 178.35C113.36 180.315 110.851 182.761 107.417 185.877C96.5197 195.765 56.4962 229.294 44.4862 239.337C42.4158 241.064 41.9479 244.094 43.3957 246.38L46.9287 251.958C47.7281 253.214 48.966 254.073 50.4212 254.371C51.869 254.669 53.3427 254.371 54.5695 253.528C60.7182 249.294 76.5264 238.96 90.5074 234.447C102.834 230.473 110.633 224.542 114.608 220.842C114.66 222.589 114.841 224.505 115.043 226.229C115.894 233.391 129.138 286.213 133.18 302.231C133.92 305.183 136.532 307.16 139.487 307.16Z" fill="#1A162C"/>
<path d="M194.178 160.329L215.096 168.139C215.855 168.422 215.785 169.52 214.993 169.697C208.343 171.175 191.275 174.777 187.941 173.695C157.603 163.858 142.288 157.809 139.713 156.773C139.639 156.744 139.676 156.638 139.757 156.645L194.178 160.329Z" fill="white"/>
<path d="M212.233 168.722C199.534 171.466 190.294 172.832 188.419 172.225C170.128 166.292 157.333 161.755 149.482 158.851L193.85 161.857L212.233 168.722ZM189.823 175.419C195.135 175.419 206.217 173.23 215.328 171.204C216.355 170.975 217.096 170.118 217.166 169.067C217.24 168.014 216.624 167.059 215.637 166.691L194.281 158.789L138.541 155.013L137.87 157.677L139.171 158.218C141.893 159.316 157.197 165.35 187.465 175.164C188.007 175.341 188.81 175.419 189.823 175.419Z" fill="#1A162C"/>
<path d="M161.13 99.8588C161.13 99.8588 150.634 113.093 141.133 118.265C131.636 123.432 136.193 102.041 136.193 102.041L149.168 85.2622C149.168 85.2622 153.821 80.3705 154.119 80.4111C154.418 80.4468 163.466 81.1578 163.466 81.1578L166.284 91.1423L161.13 99.8588Z" fill="white"/>
<path d="M159.852 98.9824C158.968 100.08 149.128 112.153 140.393 116.905C139.583 117.344 138.5 117.774 137.918 117.339C136.138 116.014 136.385 108.785 137.63 102.703L150.388 86.2061C151.884 84.6404 153.77 82.7324 154.569 81.9982C156.073 82.1234 159.812 82.4229 162.265 82.6141L164.612 90.9294L159.852 98.9824ZM138.514 120.607C139.432 120.607 140.541 120.345 141.871 119.62C151.534 114.359 161.901 101.373 162.339 100.82L162.457 100.647L167.946 91.3597L164.656 79.703L163.581 79.6179C163.581 79.6179 154.783 78.926 154.293 78.8741C153.438 78.7632 153.232 78.7459 148.045 84.1942L134.753 101.373L134.679 101.715C134.152 104.176 131.761 116.603 136.072 119.819C136.635 120.239 137.439 120.607 138.514 120.607Z" fill="#1A162C"/>
<path d="M207.133 61.7544C212.814 62.6496 218.164 64.9566 222.699 68.4921C227.51 72.2396 233.773 77.6246 238.901 83.7294C248.708 95.4001 253.162 117.984 253.162 117.984C253.162 117.984 251.246 128.682 233.931 129.276L229.186 121.55C229.186 121.55 224.342 130.167 224.935 141.757C225.528 153.344 227.458 156.645 227.458 156.645V162.627C227.458 165.14 225.487 167.213 222.975 167.314C212.464 167.73 185.567 166.717 165.209 147.999C165.209 147.999 166.137 138.154 165.209 122.74C164.454 110.136 165.253 102.043 166.727 96.8737C166.992 95.9498 165.846 95.2937 165.157 95.9616L161.127 99.8586C161.127 99.8586 163.426 84.1092 148.273 79.058C148.273 79.058 168.676 55.1894 189.973 59.0503L207.133 61.7544Z" fill="#6398D7"/>
<path d="M225.909 157.006V162.627C225.909 164.322 224.591 165.704 222.914 165.77C212.595 166.186 186.645 165.18 166.81 147.364C167.005 144.742 167.536 135.74 166.747 122.648C166.084 111.562 166.578 103.034 168.21 97.2984C168.523 96.2076 168.077 95.0836 167.108 94.5022C166.121 93.9165 164.905 94.0561 164.08 94.8474L162.724 96.163C162.404 91.1534 160.392 82.6311 150.946 78.439C155.957 73.2338 172.723 57.4697 189.695 60.5717L206.892 63.2795C212.308 64.1346 217.447 66.3594 221.746 69.7082C226.182 73.1679 232.552 78.5757 237.713 84.7207C246.536 95.2202 250.994 115.202 251.58 117.965C251.171 119.472 248.459 126.915 234.77 127.692L229.126 118.503L227.836 120.796C227.63 121.16 222.778 129.938 223.39 141.835C223.894 151.671 225.342 155.753 225.909 157.006ZM219.576 168.923C220.862 168.923 222.023 168.897 223.036 168.857C226.381 168.725 229 165.987 229 162.627V156.225L228.79 155.863C228.783 155.852 227.033 152.519 226.477 141.677C226.097 134.286 228.05 128.096 229.38 124.818L233.086 130.852L233.985 130.819C252.335 130.193 254.597 118.744 254.682 118.257L254.733 117.974L254.678 117.686C254.49 116.75 250.029 94.5755 240.082 82.7346C234.747 76.3796 228.197 70.8178 223.644 67.2734C218.932 63.6 213.306 61.1648 207.375 60.2291V60.2254L190.211 57.525C168.306 53.5904 147.951 77.0505 147.096 78.0562L145.604 79.7992L147.782 80.5242C161.494 85.0965 159.681 99.0483 159.596 99.6367L158.966 104.1L164.714 98.5359C163.409 104.489 163.052 112.646 163.667 122.832C164.57 137.929 163.678 147.756 163.667 147.855L163.597 148.613L164.161 149.133C182.961 166.426 207.169 168.923 219.576 168.923Z" fill="#1A162C"/>
<path d="M195.567 94.2219C197.354 94.2219 199.24 94.0348 201.211 93.6505C215.27 90.9251 225.128 71.1605 225.537 70.3231L222.767 68.9574C222.671 69.1486 213.173 88.1834 200.622 90.62C194.971 91.7135 190.189 91.0544 186.799 88.7102C184.184 86.9058 182.485 84.1096 181.888 80.6241L178.842 81.1509C179.582 85.4694 181.726 88.9651 185.042 91.2529C187.89 93.2232 191.467 94.2219 195.567 94.2219Z" fill="#1A162C"/>
<path d="M181.167 76.7039C181.303 67.5976 186.093 60.0637 186.141 59.99L183.543 58.3138C183.326 58.6491 178.227 66.6766 178.073 76.6608L181.167 76.7039Z" fill="#1A162C"/>
<path d="M227.799 122.228L230.577 120.872C230.555 120.829 228.374 116.312 227.243 110.837L224.215 111.463C225.431 117.332 227.7 122.033 227.799 122.228Z" fill="#1A162C"/>
<path d="M224.181 108.476L227.265 108.277C226.996 104.107 227.261 101.019 227.265 100.985L224.185 100.714C224.174 100.85 223.897 104.051 224.181 108.476Z" fill="#1A162C"/>
<path d="M164.492 98.7539C171.017 92.904 172.663 87.6542 172.733 87.4324L169.779 86.5302C169.764 86.5748 168.254 91.2303 162.433 96.4514L164.492 98.7539Z" fill="#1A162C"/>
<path d="M168.232 97.2324C168.795 94.8809 170.693 91.5291 170.715 91.4963L168.025 89.9664C167.941 90.1218 165.892 93.7396 165.226 96.5144L168.232 97.2324Z" fill="#1A162C"/>
<path d="M219.214 78.0522L220.644 75.3124L213.636 71.6615L212.207 74.4013L219.214 78.0522Z" fill="#1A162C"/>
<path d="M211.958 86.4666L213.885 84.0546L207.81 79.2023L205.883 81.6154L211.958 86.4666Z" fill="#1A162C"/>
<path d="M185.505 89.6169L190.615 83.252L188.202 81.3135L183.096 87.6828L185.505 89.6169Z" fill="#1A162C"/>
<path d="M232.417 31.3795C232.417 31.3795 234.439 41.2233 226.028 49.494C217.621 57.7684 209.115 41.378 209.115 41.378L225.082 29.6922L232.417 31.3795Z" fill="#1A162C"/>
<path d="M231.031 32.647C231.263 35.1743 231.237 42.2035 224.945 48.3927C223.431 49.8847 221.898 50.4889 220.27 50.2236C216.527 49.6305 212.858 44.6976 211.133 41.8167L225.424 31.3576L231.031 32.647ZM221.025 53.3735C223.191 53.3735 225.236 52.4415 227.115 50.5957C236.019 41.8351 234.019 31.505 233.93 31.0666L233.731 30.094L224.735 28.0272L207.133 40.914L207.74 42.093C207.958 42.5019 213.068 52.2094 219.784 53.2777C220.204 53.3404 220.616 53.3735 221.025 53.3735Z" fill="#1A162C"/>
<path d="M189.275 15.0479C189.275 15.0479 181.546 20.8798 181.952 32.6761C182.357 44.4762 197.955 35.5239 197.955 35.5239L191.125 19.5204L189.275 15.0479Z" fill="#1A162C"/>
<path d="M195.972 34.8205C193.176 36.1873 187.945 38.1804 185.321 36.7215C184.165 36.0768 183.568 34.7358 183.494 32.6248C183.229 24.8883 186.637 19.9627 188.703 17.7081L189.698 20.1138L195.972 34.8205ZM187.716 40.3208C192.524 40.3208 197.962 37.3036 198.72 36.8652L199.914 36.1836L189.938 12.613L188.342 13.814C188 14.0719 179.976 20.2722 180.407 32.7317C180.517 35.9736 181.667 38.2246 183.818 39.4219C184.979 40.0666 186.324 40.3208 187.716 40.3208Z" fill="#1A162C"/>
<path d="M215.132 51.9917C215.132 51.9917 212.958 56.8031 214.723 67.1999C214.97 68.6407 214.738 70.1169 213.982 71.3706C211.109 76.1035 203.199 87.366 194.232 84.9165C187.951 83.2027 186.636 78.5386 186.702 74.7363C186.746 72.2168 187.605 69.8078 188.817 67.5974C189.881 65.6515 191.145 61.9534 189.874 56.4752C187.892 47.9577 202.352 43.2053 202.352 43.2053L215.132 51.9917Z" fill="white"/>
<path d="M213.302 52.6033C212.713 54.7364 211.866 59.6031 213.203 67.4604C213.391 68.5774 213.199 69.6797 212.661 70.5661C210.488 74.1437 202.773 85.6375 194.639 83.4271C190.314 82.2456 188.166 79.3315 188.247 74.7666C188.288 72.7363 188.914 70.6368 190.174 68.3413C191.467 65.9724 192.731 61.9351 191.378 56.1253C189.982 50.1277 199.447 45.9794 202.14 44.9332L213.302 52.6033ZM196.79 86.8091C205.415 86.8091 212.477 76.829 215.303 72.1694C216.228 70.6482 216.563 68.7874 216.246 66.941C214.603 57.2563 216.526 52.6623 216.548 52.6144L217.053 51.4502L216.01 50.7171L202.597 41.4996L201.871 41.7391C201.226 41.9491 186.096 47.0441 188.369 56.829C189.5 61.6845 188.501 64.9637 187.462 66.8577C185.978 69.5644 185.204 72.2066 185.16 74.7106C185.049 80.6972 188.129 84.8506 193.825 86.4075C194.83 86.6809 195.822 86.8091 196.79 86.8091Z" fill="#1A162C"/>
<path d="M209.394 55.6244C211.486 54.5228 213.487 53.2408 215.381 51.8077L217.046 50.5514C217.296 50.3598 217.624 50.3488 217.911 50.4778C218.751 50.8498 220.785 51.1224 223.633 47.3242C226.51 43.4891 225.025 41.5218 224.141 40.7924C223.858 40.5639 223.776 40.1808 223.939 39.8529C224.952 37.7935 228.05 30.8638 226.525 25.9861C224.716 20.1985 218.571 11.6994 206.635 12.4251C194.706 13.1472 190.362 16.0392 187.47 23.8052C187.466 23.8126 187.47 23.8125 187.466 23.8199C187.415 24.0041 182.957 39.9782 185.779 55.0754C186.203 57.3632 188.008 59.1647 190.307 59.5184C191.659 59.7247 193.372 59.8647 195.424 59.8021C196.662 59.7615 198.043 59.5589 199.451 59.2605C200.607 59.0137 201.75 58.7116 202.873 58.3579L209.394 55.6244Z" fill="white"/>
<path d="M194.424 61.3606C194.77 61.3606 195.12 61.3569 195.47 61.3458C196.708 61.3053 198.152 61.1138 199.766 60.7711C200.967 60.5206 202.164 60.2001 203.339 59.8317L202.403 56.8845C201.331 57.2234 200.226 57.5144 199.128 57.7502C197.692 58.0523 196.428 58.2218 195.374 58.2586C193.676 58.3065 192.048 58.2218 190.533 57.9897C188.909 57.7392 187.605 56.4534 187.295 54.7956C184.587 40.3025 188.772 24.8847 188.953 24.2363C191.37 17.7671 194.52 14.7094 206.729 13.9652C220.533 13.1179 224.622 25.0837 225.049 26.4505C226.125 29.8914 224.464 35.2775 222.548 39.1715C222.073 40.1478 222.323 41.3046 223.159 41.9861C224.46 43.0545 223.462 44.9739 222.397 46.3996C220.573 48.8237 219.173 49.3542 218.532 49.0669C217.722 48.7058 216.793 48.8017 216.112 49.3211L214.447 50.5773C212.597 51.9736 210.656 53.2152 208.674 54.2577L210.11 56.9913C212.244 55.8677 214.329 54.5377 216.311 53.042L217.648 52.0326C219.114 52.5189 221.723 52.4452 224.865 48.249C228.159 43.8613 226.63 41.1609 225.569 40.0226C226.998 36.9906 229.555 30.4992 227.997 25.5258C226.184 19.716 219.571 10.0638 206.541 10.8816C194.221 11.6295 189.237 14.6394 186.02 23.2674C185.785 24.0927 181.423 40.1773 184.259 55.3593C184.808 58.3102 187.144 60.5943 190.066 61.0474C191.451 61.2574 192.913 61.3606 194.424 61.3606Z" fill="#1A162C"/>
<path d="M231.433 33.5531C234.915 26.8997 234.771 18.7764 230.954 12.3108C229.853 10.4467 228.398 8.63785 226.486 7.20844C218.937 1.56815 208.087 2.52602 208.087 2.52602C208.087 2.52602 203.748 -0.874374 193.801 5.14169C183.854 11.1578 182.59 23.2083 186.024 30.6575L191.023 25.1866C191.259 24.9288 191.642 24.8956 191.914 25.1129C193.348 26.2697 198.048 29.6407 205.14 30.569C205.494 30.6133 205.796 30.2743 205.704 29.9317L204.153 24.1625C204.101 23.9635 204.337 23.8162 204.477 23.9672C206.139 25.7208 211.561 30.1196 220.746 25.0835C220.746 25.0835 223.583 29.7659 221.339 35.362C220.576 37.2556 220.433 39.3444 220.691 41.3707C220.783 42.0707 221.542 42.4575 222.153 42.1075C224.47 40.7702 229.315 37.613 231.433 33.5531Z" fill="#1A162C"/>
<path d="M230.062 32.8423C228.312 36.1837 224.37 38.9468 222.138 40.3172C222.038 38.722 222.252 37.2226 222.768 35.9369C225.269 29.6961 222.193 24.5016 222.06 24.2805L221.294 23.0169L219.997 23.7279C211.896 28.1635 207.232 24.6305 205.596 22.9064L204.771 22.0333L203.497 22.5785C202.793 22.9727 202.45 23.7906 202.66 24.5679L203.791 28.7862C197.893 27.6515 193.995 24.8148 192.879 23.9085C191.973 23.179 190.658 23.2895 189.877 24.1479L186.59 27.7435C184.737 21.2928 185.957 11.6921 194.6 6.46075C203.316 1.18519 207.122 3.73826 207.162 3.76405L207.623 4.08825L208.216 4.06612C208.323 4.05507 218.579 3.24089 225.56 8.44646C227.119 9.61799 228.485 11.18 229.62 13.0994C233.142 19.0565 233.312 26.6236 230.062 32.8423ZM221.663 43.7839C222.097 43.7839 222.528 43.6697 222.915 43.4487C225.641 41.8793 230.538 38.5968 232.803 34.2717C236.543 27.1136 236.34 18.4008 232.28 11.5263C230.939 9.25695 229.3 7.38915 227.41 5.97079C220.355 0.706276 210.843 0.824169 208.477 0.95311C206.867 0.0652504 201.942 -1.59624 192.997 3.81932C182.693 10.0564 180.644 22.689 184.619 31.3024L185.592 33.4133L191.612 26.8336C193.767 28.4325 198.365 31.2397 204.937 32.1018C205.608 32.1939 206.289 31.9324 206.742 31.4166C207.199 30.9008 207.369 30.1971 207.195 29.5377L206.643 27.4931C209.516 28.9998 214.004 29.9834 220.005 27.1873C220.576 28.7603 221.18 31.5971 219.898 34.7875C219.099 36.7842 218.841 39.131 219.154 41.5661C219.264 42.4135 219.784 43.1429 220.543 43.5224C220.896 43.6955 221.28 43.7839 221.663 43.7839Z" fill="#1A162C"/>
<path d="M227.847 40.0298C230.908 37.8304 232.724 34.419 232.802 34.2753L230.068 32.8349C230.053 32.8606 228.499 35.7526 226.038 37.5247L227.847 40.0298Z" fill="#6398D7"/>
<path d="M218.519 22.28L221.603 22.0885C221.591 21.8748 221.223 16.8203 216.117 13.7257L214.514 16.3671C218.25 18.6328 218.515 22.2432 218.519 22.28Z" fill="#6398D7"/>
<path d="M184.352 28.0381L186.47 25.7871L185.413 26.9107L186.481 25.7945C186.456 25.7687 184.068 23.3999 183.468 18.4301L180.399 18.8021C181.14 24.9582 184.223 27.9128 184.352 28.0381Z" fill="#6398D7"/>
<path d="M193.301 49.4717C194.524 49.4717 196.02 49.3685 197.368 48.9817L196.521 46.0124C195.309 46.3587 193.795 46.4066 192.642 46.3734C193.22 42.391 195.744 38.7474 195.773 38.7032L193.242 36.9275C193.091 37.1449 189.503 42.3099 189.433 47.777L189.414 49.1475L190.774 49.328C190.851 49.3354 191.901 49.4717 193.301 49.4717Z" fill="#1A162C"/>
<path d="M200.459 38.5342C199.612 40.3873 199.943 42.3546 201.192 42.9256C202.445 43.4966 204.147 42.4577 204.99 40.6046C205.838 38.7516 205.51 36.7879 204.257 36.2132C203.005 35.6422 201.303 36.6811 200.459 38.5342Z" fill="#1A162C"/>
<path d="M187.114 34.3637C186.318 36.2389 186.701 38.1951 187.968 38.733C189.236 39.2709 190.908 38.184 191.7 36.3089C192.496 34.4337 192.113 32.4775 190.846 31.9433C189.578 31.4054 187.909 32.4885 187.114 34.3637Z" fill="#1A162C"/>
<path d="M217.215 51.8816L218.791 49.2217L218.003 50.5517L218.828 49.2438C218.791 49.218 217.911 48.6065 217.609 46.8676L214.562 47.4018C215.118 50.559 217.005 51.7563 217.215 51.8816Z" fill="#1A162C"/>
<path d="M148.275 107.555C146.374 111.662 144.683 114.905 143.519 116.352C138.615 122.443 128.068 117.093 130.297 106.398C132.087 97.811 144.882 74.2261 149.863 65.2503C151.141 62.9485 152.983 61.0143 155.227 59.6291L160.506 56.3614C161.644 55.6577 162.937 55.2414 164.275 55.153L170.261 55.8972L183.439 53.9925C185.583 53.8672 187.724 54.2614 189.68 55.1382C191.85 56.1145 193.721 57.6471 195.099 59.5849L202.257 69.6424C204.136 75.6433 196.945 73.0317 196.945 73.0317C196.945 73.0317 196.573 72.6703 195.946 72.096C195.946 72.096 193.323 73.2675 192.119 71.6314C190.914 69.9994 188.25 66.1355 188.247 66.1282C185.992 64.7496 179.575 67.0263 177.987 67.0263C174.365 67.0263 172.291 66.1455 168.769 65.7701C166.92 65.5715 166.095 66.4594 165.148 68.0623L162.897 71.8672C162.757 72.1078 162.639 72.3465 162.543 72.6014C161.876 74.3727 155.16 90.5424 151.69 99.1178L148.275 107.555Z" fill="white"/>
<path d="M138.31 120.468C140.753 120.468 143.063 119.38 144.721 117.32C145.881 115.877 147.502 112.897 149.676 108.202L146.872 106.903C144.33 112.385 142.993 114.54 142.311 115.383C140.388 117.778 137.695 117.679 135.82 116.791C133.252 115.575 130.662 112.207 131.808 106.712C133.584 98.1822 147.108 73.397 151.208 66.0027C152.358 63.9319 154.026 62.182 156.034 60.9404L161.314 57.6764C162.198 57.1311 163.207 56.7959 164.235 56.7075L170.277 57.4553L183.657 55.5212C185.426 55.4144 187.327 55.7791 189.043 56.5491C190.963 57.4111 192.621 58.7669 193.836 60.4799L200.847 70.3274C201.135 71.3519 201.006 71.7749 200.924 71.8526C200.541 72.217 198.965 72.0556 197.76 71.6802C197.583 71.5104 197.321 71.2628 196.986 70.9578L196.242 70.2755L195.314 70.6884C194.919 70.8583 193.707 71.1895 193.361 70.7142C192.307 69.2881 190.141 66.1611 189.625 65.4129L189.047 64.8083C187.098 63.6224 183.878 64.22 180.176 65.0559C179.34 65.2475 178.293 65.4792 177.984 65.4792C175.958 65.4792 174.488 65.1911 172.782 64.8559C171.614 64.6286 170.406 64.3924 168.932 64.2344C166.029 63.9135 164.78 65.6417 163.815 67.2737L161.564 71.0826C161.376 71.395 161.225 71.7159 161.092 72.0556C160.768 72.9206 158.897 77.4708 156.731 82.7349C154.535 88.0698 151.989 94.252 150.254 98.5362L153.12 99.696C154.852 95.4162 157.394 89.2414 159.589 83.9109C161.855 78.4036 163.646 74.0516 163.988 73.145C164.051 72.9722 164.132 72.8141 164.228 72.6513L166.475 68.8464C167.377 67.3183 167.764 67.2144 168.601 67.3065C169.945 67.4505 171.084 67.6749 172.189 67.8882C173.895 68.2235 175.659 68.5701 177.984 68.5701C178.61 68.5701 179.439 68.3889 180.857 68.0695C182.545 67.6867 185.927 66.9237 187.205 67.3426C188.023 68.5255 189.909 71.244 190.871 72.5493C192.09 74.2027 194.091 74.2259 195.564 73.8575C195.756 74.0328 195.863 74.1367 195.866 74.1408L196.102 74.3725L196.415 74.4834C197.17 74.7597 201.035 76.0189 203.058 74.0892C204.185 73.0098 204.413 71.359 203.728 69.1776L203.514 68.7429L196.353 58.6858C194.816 56.527 192.727 54.8139 190.311 53.7308C188.144 52.7545 185.739 52.3308 183.351 52.4487L170.244 54.3386L164.316 53.6018L164.169 53.6129C162.592 53.716 161.045 54.2133 159.689 55.0459L154.41 58.3137C151.952 59.8315 149.911 61.972 148.508 64.5033C143.181 74.0991 130.596 97.3721 128.78 106.081C127.365 112.871 130.636 117.755 134.501 119.583C135.757 120.176 137.05 120.468 138.31 120.468Z" fill="#1A162C"/>
<path d="M169.737 65.7624C169.737 65.7624 168.477 63.0108 169.368 59.8167C170.26 56.6263 172.489 53.9701 172.489 53.9701C172.489 53.9701 174.077 49.8219 169.048 50.5513C164.023 51.2771 160.902 50.4187 161.794 53.9701C162.685 57.5179 163.043 57.8126 166.281 57.5179C166.281 57.5179 162.597 59.9899 166.281 66.7755C166.281 66.7755 168.469 69.848 169.737 65.7624Z" fill="#1A162C"/>
<path d="M169.466 55.6869L166.135 55.978C163.943 56.1806 163.939 56.1806 163.291 53.5907C163.136 52.9828 163.195 52.7802 163.195 52.7802C163.442 52.6144 164.916 52.5002 165.988 52.4155C166.957 52.3418 168.058 52.2534 169.267 52.0802C170.534 51.8887 171.017 52.1244 171.098 52.2202C171.23 52.3897 171.186 52.887 171.101 53.226C170.781 53.6349 170.132 54.5191 169.466 55.6869ZM168.091 65.7812C168.007 65.9868 167.929 66.1309 167.87 66.2274C167.741 66.1209 167.601 65.9724 167.535 65.8803C164.735 60.7009 167.067 58.8552 167.17 58.7778L168.419 57.8384C168.213 58.3394 168.029 58.8626 167.878 59.4005C167.1 62.1782 167.712 64.6617 168.091 65.7812ZM167.963 69.4321C168.099 69.4321 168.242 69.4178 168.386 69.3946C169.672 69.189 170.622 68.121 171.212 66.22L171.385 65.656L171.142 65.1251C171.112 65.0588 170.14 62.7861 170.854 60.2331C171.643 57.4184 173.651 54.9832 173.673 54.9575L173.931 54.5191C174.03 54.2649 174.852 51.9697 173.511 50.2935C172.586 49.133 171.009 48.7056 168.825 49.0225C167.69 49.1846 166.655 49.2656 165.748 49.3356C163.453 49.5161 161.644 49.6561 160.661 51.0229C160.06 51.8592 159.939 52.9423 160.289 54.3423C161.011 57.2048 161.659 58.5679 163.464 58.9878C162.838 60.8004 162.783 63.5745 164.919 67.5168C165.236 67.9729 166.36 69.4321 167.963 69.4321Z" fill="#1A162C"/>
<path d="M165.206 57.4368C167.7 57.4368 169.682 56.8805 169.796 56.8473L168.945 53.878C168.912 53.8853 165.614 54.8027 162.608 54.0548L161.86 57.0536C162.999 57.3373 164.152 57.4368 165.206 57.4368Z" fill="#6398D7"/>
<path d="M193.439 159.29L214.357 167.1C215.116 167.383 215.05 168.479 214.258 168.654C207.608 170.132 190.529 173.745 187.202 172.656C183.046 171.292 161.126 156.614 161.126 156.614L193.439 159.29Z" fill="white"/>
<path d="M211.492 167.683C196.2 170.987 189.1 171.657 187.686 171.19C185.129 170.35 174.397 163.501 167.003 158.648L193.098 160.811L211.492 167.683ZM189.075 174.38C194.38 174.38 205.469 172.192 214.594 170.165C215.622 169.934 216.359 169.079 216.429 168.033C216.502 166.979 215.887 166.025 214.896 165.652L193.565 157.75L155.318 154.582L160.269 157.897C162.531 159.415 182.484 172.737 186.72 174.126C187.258 174.303 188.061 174.38 189.075 174.38Z" fill="#1A162C"/>
<path d="M182.228 151.365C188.281 147.6 190.691 146.852 190.691 146.852L190.425 146.153C188.697 145.489 186.774 145.581 185.117 146.407L182.663 147.626C181.941 147.983 181.315 146.499 181.281 145.697C181.204 143.728 182.309 141.905 184.089 141.061L186.229 140.052C187.559 139.425 189.062 139.259 190.499 139.58L204.13 142.648C204.13 142.648 224.731 144.627 237.213 150.175L239.467 150.503C239.467 150.503 236.981 140.667 233.927 129.276C245.152 127.437 250.033 122.788 251.986 120.066L252.292 120.272C252.292 120.272 255.438 131.556 258.805 147.799C261.144 159.087 260.234 167.314 259.457 171.282C259.103 173.101 257.589 174.487 255.736 174.539C252.859 174.619 247.841 173.816 240.182 169.591C229.59 163.74 218.538 159.529 214.504 158.071C213.469 157.694 212.397 157.462 211.299 157.375C209.196 157.2 207.085 157.562 205.158 158.428L200.192 160.657C198.991 161.194 197.738 161.611 196.452 161.898L192.986 162.668C189.523 163.437 185.909 163.243 182.549 162.101L178.721 160.804C177.001 160.222 176.19 158.237 177.048 156.63C177.899 155.039 179.439 153.098 182.228 151.365Z" fill="white"/>
<path d="M251.442 123.068C252.532 127.205 254.864 136.404 257.292 148.112C259.584 159.165 258.681 167.189 257.944 170.987C257.72 172.136 256.795 172.965 255.693 172.994C252.978 173.05 248.288 172.298 240.931 168.235C230.31 162.37 219.284 158.154 215.036 156.614C213.872 156.196 212.66 155.93 211.422 155.835C209.075 155.634 206.684 156.047 204.526 157.016L199.559 159.245C198.462 159.739 197.301 160.126 196.119 160.388L192.655 161.158C189.461 161.869 186.135 161.687 183.048 160.638L179.22 159.342C178.822 159.205 178.501 158.907 178.35 158.516C178.262 158.291 178.151 157.845 178.413 157.363C179.371 155.569 180.933 153.993 183.044 152.677H183.048C188.765 149.121 191.138 148.33 191.16 148.323L192.703 147.822L191.628 144.96L190.979 144.712C188.857 143.897 186.474 144.008 184.433 145.021L182.852 145.806C182.838 145.739 182.826 145.681 182.826 145.633C182.771 144.282 183.526 143.04 184.749 142.461L186.89 141.451C187.907 140.969 189.075 140.844 190.158 141.087L203.792 144.155C204.187 144.207 224.482 146.207 236.588 151.586L236.993 151.707L241.532 152.361L240.965 150.124C240.965 150.124 238.71 141.198 235.855 130.5C244.092 128.859 248.823 125.676 251.442 123.068ZM255.369 176.09C255.509 176.09 255.645 176.085 255.778 176.081C258.335 176.012 260.472 174.159 260.976 171.58C261.761 167.549 262.719 159.061 260.321 147.486C256.979 131.376 253.811 119.97 253.781 119.856L253.63 119.311L251.608 117.939L250.731 119.162C248.974 121.616 244.424 125.994 233.677 127.751L231.994 128.027L232.436 129.678C234.595 137.724 236.466 144.995 237.38 148.561C224.792 143.132 205.122 141.19 204.279 141.109L190.839 138.076C189.078 137.675 187.207 137.882 185.571 138.655L183.431 139.665C181.084 140.773 179.632 143.165 179.739 145.758C179.772 146.632 180.248 148.259 181.379 148.927C181.835 149.199 182.344 149.284 182.826 149.187C182.377 149.457 181.905 149.744 181.412 150.054C178.833 151.657 176.906 153.627 175.687 155.904C175.068 157.061 174.99 158.428 175.477 159.654C175.967 160.889 176.969 161.843 178.229 162.27L182.053 163.564C185.682 164.797 189.579 165.003 193.322 164.174L196.789 163.404C198.178 163.099 199.537 162.646 200.827 162.064L205.793 159.835C207.473 159.08 209.344 158.775 211.172 158.914C212.137 158.992 213.08 159.193 213.983 159.522C218.164 161.035 229.01 165.18 239.439 170.942C247.058 175.15 252.256 176.09 255.369 176.09Z" fill="#1A162C"/>
<path d="M242.643 154.17L245.266 152.536C245.203 152.43 243.582 149.855 239.813 148.996L239.128 152.009C241.578 152.566 242.602 154.106 242.643 154.17Z" fill="#1A162C"/>
<path d="M189.83 171.717L174.125 131.162C173.351 129.168 171.745 127.61 169.73 126.899L121.749 109.964C120.901 109.666 120.098 110.495 120.422 111.331L136.695 153.273C137.487 155.322 139.16 156.903 141.245 157.587L188.526 173.091C189.366 173.367 190.151 172.541 189.83 171.717Z" fill="white"/>
<path d="M122.258 111.777L169.218 128.358C170.814 128.918 172.077 130.148 172.685 131.721L188.014 171.296L141.728 156.118C140.077 155.575 138.766 154.335 138.14 152.713L122.258 111.777ZM188.865 174.692C189.565 174.692 190.236 174.409 190.741 173.882C191.437 173.145 191.639 172.103 191.275 171.156L175.57 130.606C174.634 128.188 172.696 126.306 170.25 125.441L122.269 108.505C121.289 108.169 120.25 108.413 119.539 109.149C118.828 109.886 118.614 110.936 118.986 111.891L135.259 153.834C136.224 156.321 138.228 158.222 140.763 159.054L188.048 174.56C188.317 174.649 188.593 174.692 188.865 174.692Z" fill="#1A162C"/>
<path d="M150.904 144.454C152.713 146.819 155.233 147.931 156.526 146.941C157.819 145.949 157.396 143.231 155.587 140.865C153.774 138.501 151.258 137.388 149.965 138.378C148.672 139.37 149.092 142.089 150.904 144.454Z" fill="#6398D7"/>
<path d="M151.133 139.554C151.697 139.554 153.064 140.111 154.364 141.805C155.901 143.812 155.875 145.496 155.587 145.718C155.304 145.931 153.664 145.519 152.135 143.515C150.599 141.51 150.621 139.826 150.909 139.606C150.953 139.573 151.03 139.554 151.133 139.554ZM155.374 148.852C156.147 148.852 156.866 148.632 157.466 148.171C159.504 146.609 159.22 143.066 156.818 139.927C154.405 136.784 151.056 135.594 149.026 137.152C146.993 138.711 147.276 142.254 149.682 145.394C151.377 147.604 153.535 148.852 155.374 148.852Z" fill="#1A162C"/>
<path d="M114.063 217.914L117.118 217.432C117.11 217.401 116.617 214.086 117.545 210.17L114.535 209.464C113.459 213.998 114.038 217.76 114.063 217.914Z" fill="#6398D7"/>
<path d="M119.846 204.707C122.2 201.125 129.06 192.962 141.744 194.498C151.017 195.615 165.701 198.031 165.849 198.057L166.35 195.006C166.202 194.98 151.455 192.557 142.116 191.429C127.667 189.697 119.931 198.948 117.267 203.012L119.846 204.707Z" fill="#6398D7"/>
<path d="M218.262 185.995C218.487 185.995 218.616 185.988 218.631 185.988L218.391 182.905C218.027 182.927 209.679 183.366 207.431 172.545L204.403 173.176C206.934 185.34 216.288 185.995 218.262 185.995Z" fill="#6398D7"/>
<path d="M171.539 174.604L172.549 171.683L149.722 163.807L148.713 166.729L171.539 174.604Z" fill="#6398D7"/>
<path d="M55.8063 250.364L58.374 248.643L51.8827 238.936L49.315 240.651L55.8063 250.364Z" fill="#6398D7"/>
<path d="M137.582 298.894L149.423 297.31L149.014 294.244L137.173 295.829L137.582 298.894Z" fill="#6398D7"/>
<path d="M58.0577 236.556L82.9805 216.353L81.0352 213.951L56.1126 234.157L58.0577 236.556Z" fill="#6398D7"/>
<path d="M125.557 271.676L128.566 270.979L118.082 225.698L115.072 226.395L125.557 271.676Z" fill="#6398D7"/>
<path d="M140.093 175.489L142.539 173.599C142.34 173.337 137.481 167.222 128.503 168.968L129.096 172C136.225 170.637 140.052 175.441 140.093 175.489Z" fill="#6398D7"/>
<path d="M132.515 335.501C136.895 335.501 140.531 332.591 142.749 327.165L139.89 325.993C137.731 331.272 134.475 333.317 130.198 332.053L129.328 335.019C130.426 335.34 131.491 335.501 132.515 335.501Z" fill="#1A162C"/>
<path d="M27.0835 257.271C28.9918 257.271 30.4101 256.988 30.5391 256.962L29.9091 253.933C29.8575 253.949 24.254 255.061 21.13 252.485C19.66 251.278 18.9564 249.438 18.9785 246.864L15.8876 246.834C15.8581 250.359 16.9634 253.071 19.1775 254.884C21.55 256.83 24.6999 257.271 27.0835 257.271Z" fill="#1A162C"/>
<path d="M178.707 104.379L179.816 101.498L177.145 100.475C175.9 100.003 174.515 100.298 173.583 101.196L175.727 103.418L176.593 101.915L176.04 103.354L178.707 104.379ZM185.504 106.988L186.842 104.207L186.657 104.124L182.122 102.383L181.017 105.267L185.504 106.988ZM174.931 109.555C174.968 108.045 175.126 106.462 175.399 104.861L172.356 104.343C172.054 106.089 171.884 107.817 171.844 109.482L174.931 109.555ZM187.674 112.937C188.19 111.268 188.551 109.551 188.75 107.827L185.681 107.475C185.504 109.006 185.184 110.538 184.723 112.028L187.674 112.937ZM172.846 117.318L175.79 116.371C175.355 115.034 175.086 113.523 174.975 111.891L171.892 112.094C172.017 113.979 172.338 115.738 172.846 117.318ZM184.23 120.218L184.351 120.051C185.003 119.061 185.943 117.469 186.797 115.395L183.935 114.219C183.18 116.064 182.347 117.476 181.783 118.331L184.23 120.218ZM180.35 121.337L181.341 118.409L176.655 116.827L175.668 119.757L180.35 121.337Z" fill="white"/>
<path d="M236.222 123.046C247.661 120.033 252.329 110.981 252.524 110.594L249.765 109.201C249.725 109.286 245.484 117.409 235.434 120.055L236.222 123.046Z" fill="#1A162C"/>
<path d="M134.292 224.401C138.374 223.761 141.476 221.55 141.608 221.454L139.803 218.946C139.777 218.965 137.143 220.825 133.809 221.352L134.292 224.401Z" fill="#6398D7"/>
<path d="M148.672 289.491L151.723 288.99C151.704 288.876 149.814 277.26 149.814 264.167C149.814 245.92 147.714 230.307 147.692 230.153L144.631 230.569C144.653 230.723 146.723 246.141 146.723 264.167C146.723 277.522 148.654 289.374 148.672 289.491Z" fill="#6398D7"/>
</svg>
