<svg width="356" height="41" viewBox="0 0 356 41" fill="none" xmlns="http://www.w3.org/2000/svg">
<path d="M155.119 30.1465C154.55 33.4804 150.651 35.0856 149.958 35.347C149.922 35.3598 149.922 35.4113 149.958 35.4241C150.653 35.6833 154.55 37.2814 155.119 40.6139C155.126 40.661 155.188 40.661 155.197 40.6139C155.766 37.2814 159.698 35.6833 160.398 35.4241C160.434 35.4113 160.434 35.3598 160.398 35.347C159.698 35.0856 155.766 33.4804 155.197 30.1465C155.188 30.0986 155.126 30.0986 155.119 30.1465Z" fill="white"/>
<path d="M170.112 30.1465C169.544 33.4804 165.645 35.0856 164.95 35.347C164.915 35.3598 164.915 35.4113 164.95 35.4241C165.645 35.6833 169.544 37.2814 170.112 40.6139C170.119 40.661 170.182 40.661 170.189 40.6139C170.759 37.2814 174.691 35.6833 175.391 35.4241C175.428 35.4113 175.428 35.3598 175.391 35.347C174.691 35.0856 170.759 33.4804 170.189 30.1465C170.182 30.0986 170.119 30.0986 170.112 30.1465Z" fill="white"/>
<path d="M185.104 30.1465C184.536 33.4804 180.637 35.0856 179.942 35.347C179.907 35.3598 179.907 35.4113 179.942 35.4241C180.637 35.6833 184.536 37.2814 185.104 40.6139C185.112 40.661 185.174 40.661 185.181 40.6139C185.751 37.2814 189.684 35.6833 190.384 35.4241C190.42 35.4113 190.42 35.3598 190.384 35.347C189.684 35.0856 185.751 33.4804 185.181 30.1465C185.174 30.0986 185.112 30.0986 185.104 30.1465Z" fill="white"/>
<path d="M200.098 30.1465C199.529 33.4804 195.63 35.0856 194.935 35.347C194.9 35.3598 194.9 35.4113 194.935 35.4241C195.63 35.6833 199.529 37.2814 200.098 40.6139C200.105 40.661 200.167 40.661 200.174 40.6139C200.745 37.2814 204.677 35.6833 205.377 35.4241C205.413 35.4113 205.413 35.3598 205.377 35.347C204.677 35.0856 200.745 33.4804 200.174 30.1465C200.167 30.0986 200.105 30.0986 200.098 30.1465Z" fill="white"/>
<path d="M215.089 30.1465C214.523 33.4804 210.623 35.0856 209.929 35.347C209.892 35.3598 209.892 35.4113 209.929 35.4241C210.623 35.6833 214.523 37.2814 215.089 40.6139C215.098 40.661 215.161 40.661 215.168 40.6139C215.738 37.2814 219.668 35.6833 220.37 35.4241C220.405 35.4113 220.405 35.3598 220.37 35.347C219.67 35.0856 215.738 33.4804 215.168 30.1465C215.161 30.0986 215.098 30.0986 215.089 30.1465Z" fill="white"/>
<path d="M230.082 30.1465C229.516 33.4804 225.617 35.0856 224.922 35.347C224.885 35.3598 224.885 35.4113 224.922 35.4241C225.617 35.6833 229.516 37.2814 230.082 40.6139C230.092 40.661 230.152 40.661 230.161 40.6139C230.73 37.2814 234.662 35.6833 235.364 35.4241C235.398 35.4113 235.398 35.3598 235.364 35.347C234.662 35.0856 230.73 33.4804 230.161 30.1465C230.152 30.0986 230.092 30.0986 230.082 30.1465Z" fill="white"/>
<path d="M245.078 30.1465C244.509 33.4804 240.612 35.0856 239.917 35.347C239.881 35.3598 239.881 35.4113 239.917 35.4241C240.612 35.6833 244.509 37.2814 245.078 40.6139C245.087 40.661 245.147 40.661 245.156 40.6139C245.725 37.2814 249.657 35.6833 250.359 35.4241C250.393 35.4113 250.393 35.3598 250.359 35.347C249.657 35.0856 245.725 33.4804 245.156 30.1465C245.147 30.0986 245.087 30.0986 245.078 30.1465Z" fill="white"/>
<path d="M260.068 30.1465C259.5 33.4804 255.601 35.0856 254.906 35.347C254.871 35.3598 254.871 35.4113 254.906 35.4241C255.601 35.6833 259.5 37.2814 260.068 40.6139C260.076 40.661 260.138 40.661 260.145 40.6139C260.715 37.2814 264.647 35.6833 265.347 35.4241C265.384 35.4113 265.384 35.3598 265.347 35.347C264.647 35.0856 260.715 33.4804 260.145 30.1465C260.138 30.0986 260.076 30.0986 260.068 30.1465Z" fill="white"/>
<path d="M275.063 30.1465C274.495 33.4804 270.596 35.0856 269.901 35.347C269.866 35.3598 269.866 35.4113 269.901 35.4241C270.596 35.6833 274.495 37.2814 275.063 40.6139C275.071 40.661 275.133 40.661 275.14 40.6139C275.71 37.2814 279.642 35.6833 280.343 35.4241C280.379 35.4113 280.379 35.3598 280.343 35.347C279.642 35.0856 275.71 33.4804 275.14 30.1465C275.133 30.0986 275.071 30.0986 275.063 30.1465Z" fill="white"/>
<path d="M290.056 30.1465C289.487 33.4804 285.588 35.0856 284.893 35.347C284.859 35.3598 284.859 35.4113 284.893 35.4241C285.588 35.6833 289.487 37.2814 290.056 40.6139C290.063 40.661 290.125 40.661 290.132 40.6139C290.703 37.2814 294.635 35.6833 295.335 35.4241C295.371 35.4113 295.371 35.3598 295.335 35.347C294.635 35.0856 290.703 33.4804 290.132 30.1465C290.125 30.0986 290.063 30.0986 290.056 30.1465Z" fill="white"/>
<path d="M5.18857 30.1465C4.62024 33.4804 0.721469 35.0856 0.0266441 35.347C-0.00900203 35.3598 -0.00900243 35.4113 0.0273749 35.4241C0.721468 35.6833 4.62024 37.2814 5.18857 40.6139C5.19643 40.661 5.25785 40.661 5.26571 40.6139C5.8355 37.2814 9.76717 35.6833 10.4684 35.4241C10.504 35.4113 10.504 35.3598 10.4684 35.347C9.7679 35.0856 5.8355 33.4804 5.26571 30.1465C5.25785 30.0986 5.19643 30.0986 5.18857 30.1465Z" fill="white"/>
<path d="M20.1803 30.1465C19.6125 33.4804 15.7137 35.0856 15.0189 35.347C14.9833 35.3598 14.9833 35.4113 15.0189 35.4241C15.7137 35.6833 19.6125 37.2814 20.1803 40.6139C20.1889 40.661 20.2503 40.661 20.2582 40.6139C20.828 37.2814 24.7596 35.6833 25.4607 35.4241C25.4965 35.4113 25.4965 35.3598 25.4607 35.347C24.7596 35.0856 20.828 33.4804 20.2582 30.1465C20.2503 30.0986 20.1889 30.0986 20.1803 30.1465Z" fill="white"/>
<path d="M35.1742 30.1465C34.6066 33.4804 30.7072 35.0856 30.0131 35.347C29.9774 35.3598 29.9774 35.4113 30.0131 35.4241C30.7079 35.6833 34.6066 37.2814 35.1742 40.6139C35.1821 40.661 35.2435 40.661 35.2521 40.6139C35.8219 37.2814 39.7536 35.6833 40.4541 35.4241C40.4904 35.4113 40.4904 35.3598 40.4548 35.347C39.7536 35.0856 35.8219 33.4804 35.2521 30.1465C35.2435 30.0986 35.1821 30.0986 35.1742 30.1465Z" fill="white"/>
<path d="M50.1679 30.1465C49.5994 33.4804 45.7006 35.0856 45.0065 35.347C44.9701 35.3598 44.9709 35.4113 45.0065 35.4241C45.7006 35.6833 49.5994 37.2814 50.1679 40.6139C50.1757 40.661 50.2372 40.661 50.2457 40.6139C50.8148 37.2814 54.7472 35.6833 55.4477 35.4241C55.4833 35.4113 55.4833 35.3598 55.4477 35.347C54.7472 35.0856 50.8148 33.4804 50.2457 30.1465C50.2372 30.0986 50.1757 30.0986 50.1679 30.1465Z" fill="white"/>
<path d="M65.1596 30.1465C64.592 33.4804 60.6932 35.0856 59.9984 35.347C59.9628 35.3598 59.9628 35.4113 59.9984 35.4241C60.6932 35.6833 64.592 37.2814 65.1596 40.6139C65.1682 40.661 65.2296 40.661 65.2375 40.6139C65.8073 37.2814 69.7389 35.6833 70.4402 35.4241C70.4758 35.4113 70.4758 35.3598 70.4402 35.347C69.7389 35.0856 65.8073 33.4804 65.2375 30.1465C65.2296 30.0986 65.1682 30.0986 65.1596 30.1465Z" fill="white"/>
<path d="M80.1529 30.1465C79.5853 33.4804 75.6864 35.0856 74.9917 35.347C74.9559 35.3598 74.9559 35.4113 74.9917 35.4241C75.6864 35.6833 79.5853 37.2814 80.1529 40.6139C80.1615 40.661 80.2229 40.661 80.2308 40.6139C80.8006 37.2814 84.7322 35.6833 85.4335 35.4241C85.4691 35.4113 85.4691 35.3598 85.4335 35.347C84.7322 35.0856 80.8006 33.4804 80.2308 30.1465C80.2229 30.0986 80.1615 30.0986 80.1529 30.1465Z" fill="white"/>
<path d="M95.1471 30.1465C94.5786 33.4804 90.6798 35.0856 89.9857 35.347C89.9501 35.3598 89.9501 35.4113 89.9857 35.4241C90.6805 35.6833 94.5786 37.2814 95.1471 40.6139C95.1548 40.661 95.2162 40.661 95.2248 40.6139C95.794 37.2814 99.7262 35.6833 100.427 35.4241C100.463 35.4113 100.463 35.3598 100.427 35.347C99.7262 35.0856 95.7946 33.4804 95.2248 30.1465C95.2162 30.0986 95.1548 30.0986 95.1471 30.1465Z" fill="white"/>
<path d="M110.14 30.1465C109.572 33.4804 105.673 35.0856 104.979 35.347C104.942 35.3598 104.942 35.4113 104.979 35.4241C105.673 35.6833 109.572 37.2814 110.14 40.6139C110.148 40.661 110.21 40.661 110.217 40.6139C110.787 37.2814 114.718 35.6833 115.42 35.4241C115.456 35.4113 115.456 35.3598 115.42 35.347C114.719 35.0856 110.787 33.4804 110.217 30.1465C110.21 30.0986 110.148 30.0986 110.14 30.1465Z" fill="white"/>
<path d="M125.13 30.1465C124.564 33.4804 120.664 35.0856 119.97 35.347C119.933 35.3598 119.933 35.4113 119.97 35.4241C120.664 35.6833 124.564 37.2814 125.13 40.6139C125.139 40.661 125.2 40.661 125.209 40.6139C125.777 37.2814 129.709 35.6833 130.411 35.4241C130.446 35.4113 130.446 35.3598 130.411 35.347C129.709 35.0856 125.777 33.4804 125.209 30.1465C125.2 30.0986 125.139 30.0986 125.13 30.1465Z" fill="white"/>
<path d="M140.126 30.1465C139.558 33.4804 135.661 35.0856 134.966 35.347C134.929 35.3598 134.929 35.4113 134.966 35.4241C135.661 35.6833 139.558 37.2814 140.126 40.6139C140.135 40.661 140.196 40.661 140.205 40.6139C140.773 37.2814 144.706 35.6833 145.407 35.4241C145.442 35.4113 145.442 35.3598 145.407 35.347C144.706 35.0856 140.773 33.4804 140.205 30.1465C140.196 30.0986 140.135 30.0986 140.126 30.1465Z" fill="white"/>
<path d="M155.119 15.0912C154.55 18.4251 150.651 20.0303 149.958 20.2917C149.922 20.3045 149.922 20.3559 149.958 20.3688C150.653 20.628 154.55 22.2254 155.119 25.5578C155.126 25.6057 155.188 25.6057 155.197 25.5578C155.766 22.2254 159.698 20.628 160.398 20.3688C160.434 20.3559 160.434 20.3045 160.398 20.2917C159.698 20.0303 155.766 18.4251 155.197 15.0912C155.188 15.0433 155.126 15.0433 155.119 15.0912Z" fill="white"/>
<path d="M170.112 15.0912C169.544 18.4251 165.645 20.0303 164.95 20.2917C164.915 20.3045 164.915 20.3559 164.95 20.3688C165.645 20.628 169.544 22.2254 170.112 25.5578C170.119 25.6057 170.182 25.6057 170.189 25.5578C170.759 22.2254 174.691 20.628 175.391 20.3688C175.428 20.3559 175.428 20.3045 175.391 20.2917C174.691 20.0303 170.759 18.4251 170.189 15.0912C170.182 15.0433 170.119 15.0433 170.112 15.0912Z" fill="white"/>
<path d="M185.104 15.0912C184.536 18.4251 180.637 20.0303 179.942 20.2917C179.907 20.3045 179.907 20.3559 179.942 20.3688C180.637 20.628 184.536 22.2254 185.104 25.5578C185.112 25.6057 185.174 25.6057 185.181 25.5578C185.751 22.2254 189.684 20.628 190.384 20.3688C190.42 20.3559 190.42 20.3045 190.384 20.2917C189.684 20.0303 185.751 18.4251 185.181 15.0912C185.174 15.0433 185.112 15.0433 185.104 15.0912Z" fill="white"/>
<path d="M200.098 15.0912C199.529 18.4251 195.63 20.0303 194.935 20.2917C194.9 20.3045 194.9 20.3559 194.935 20.3688C195.63 20.628 199.529 22.2254 200.098 25.5578C200.105 25.6057 200.167 25.6057 200.174 25.5578C200.745 22.2254 204.677 20.628 205.377 20.3688C205.413 20.3559 205.413 20.3045 205.377 20.2917C204.677 20.0303 200.745 18.4251 200.174 15.0912C200.167 15.0433 200.105 15.0433 200.098 15.0912Z" fill="white"/>
<path d="M215.089 15.0912C214.523 18.4251 210.623 20.0303 209.929 20.2917C209.892 20.3045 209.892 20.3559 209.929 20.3688C210.623 20.628 214.523 22.2254 215.089 25.5578C215.098 25.6057 215.161 25.6057 215.168 25.5578C215.738 22.2254 219.668 20.628 220.37 20.3688C220.405 20.3559 220.405 20.3045 220.37 20.2917C219.67 20.0303 215.738 18.4251 215.168 15.0912C215.161 15.0433 215.098 15.0433 215.089 15.0912Z" fill="white"/>
<path d="M230.082 15.0912C229.516 18.4251 225.617 20.0303 224.922 20.2917C224.885 20.3045 224.885 20.3559 224.922 20.3688C225.617 20.628 229.516 22.2254 230.082 25.5578C230.092 25.6057 230.152 25.6057 230.161 25.5578C230.73 22.2254 234.662 20.628 235.364 20.3688C235.398 20.3559 235.398 20.3045 235.364 20.2917C234.662 20.0303 230.73 18.4251 230.161 15.0912C230.152 15.0433 230.092 15.0433 230.082 15.0912Z" fill="white"/>
<path d="M245.078 15.0912C244.509 18.4251 240.612 20.0303 239.917 20.2917C239.881 20.3045 239.881 20.3559 239.917 20.3688C240.612 20.628 244.509 22.2254 245.078 25.5578C245.087 25.6057 245.147 25.6057 245.156 25.5578C245.725 22.2254 249.657 20.628 250.359 20.3688C250.393 20.3559 250.393 20.3045 250.359 20.2917C249.657 20.0303 245.725 18.4251 245.156 15.0912C245.147 15.0433 245.087 15.0433 245.078 15.0912Z" fill="white"/>
<path d="M260.068 15.0912C259.5 18.4251 255.601 20.0303 254.906 20.2917C254.871 20.3045 254.871 20.3559 254.906 20.3688C255.601 20.628 259.5 22.2254 260.068 25.5578C260.076 25.6057 260.138 25.6057 260.145 25.5578C260.715 22.2254 264.647 20.628 265.347 20.3688C265.384 20.3559 265.384 20.3045 265.347 20.2917C264.647 20.0303 260.715 18.4251 260.145 15.0912C260.138 15.0433 260.076 15.0433 260.068 15.0912Z" fill="white"/>
<path d="M275.063 15.0912C274.495 18.4251 270.596 20.0303 269.901 20.2917C269.866 20.3045 269.866 20.3559 269.901 20.3688C270.596 20.628 274.495 22.2254 275.063 25.5578C275.071 25.6057 275.133 25.6057 275.14 25.5578C275.71 22.2254 279.642 20.628 280.343 20.3688C280.379 20.3559 280.379 20.3045 280.343 20.2917C279.642 20.0303 275.71 18.4251 275.14 15.0912C275.133 15.0433 275.071 15.0433 275.063 15.0912Z" fill="white"/>
<path d="M290.056 15.0912C289.487 18.4251 285.588 20.0303 284.893 20.2917C284.859 20.3045 284.859 20.3559 284.893 20.3688C285.588 20.628 289.487 22.2254 290.056 25.5578C290.063 25.6057 290.125 25.6057 290.132 25.5578C290.703 22.2254 294.635 20.628 295.335 20.3688C295.371 20.3559 295.371 20.3045 295.335 20.2917C294.635 20.0303 290.703 18.4251 290.132 15.0912C290.125 15.0433 290.063 15.0433 290.056 15.0912Z" fill="white"/>
<path d="M5.18857 15.0912C4.62024 18.4251 0.721469 20.0303 0.0266441 20.2917C-0.00900203 20.3045 -0.00900243 20.3559 0.0273749 20.3688C0.721468 20.628 4.62024 22.2254 5.18857 25.5578C5.19643 25.6057 5.25785 25.6057 5.26571 25.5578C5.8355 22.2254 9.76717 20.628 10.4684 20.3688C10.504 20.3559 10.504 20.3045 10.4684 20.2917C9.7679 20.0303 5.8355 18.4251 5.26571 15.0912C5.25785 15.0433 5.19643 15.0433 5.18857 15.0912Z" fill="white"/>
<path d="M20.1803 15.0912C19.6125 18.4251 15.7137 20.0303 15.0189 20.2917C14.9833 20.3045 14.9833 20.3559 15.0189 20.3688C15.7137 20.628 19.6125 22.2254 20.1803 25.5578C20.1889 25.6057 20.2503 25.6057 20.2582 25.5578C20.828 22.2254 24.7596 20.628 25.4607 20.3688C25.4965 20.3559 25.4965 20.3045 25.4607 20.2917C24.7596 20.0303 20.828 18.4251 20.2582 15.0912C20.2503 15.0433 20.1889 15.0433 20.1803 15.0912Z" fill="white"/>
<path d="M35.1742 15.0912C34.6066 18.4251 30.7072 20.0303 30.0131 20.2917C29.9774 20.3045 29.9774 20.3559 30.0131 20.3688C30.7079 20.628 34.6066 22.2254 35.1742 25.5578C35.1821 25.6057 35.2435 25.6057 35.2521 25.5578C35.8219 22.2254 39.7536 20.628 40.4541 20.3688C40.4904 20.3559 40.4904 20.3045 40.4548 20.2917C39.7536 20.0303 35.8219 18.4251 35.2521 15.0912C35.2435 15.0433 35.1821 15.0433 35.1742 15.0912Z" fill="white"/>
<path d="M50.1679 15.0912C49.5994 18.4251 45.7006 20.0303 45.0065 20.2917C44.9701 20.3045 44.9709 20.3559 45.0065 20.3688C45.7006 20.628 49.5994 22.2254 50.1679 25.5578C50.1757 25.6057 50.2372 25.6057 50.2457 25.5578C50.8148 22.2254 54.7472 20.628 55.4477 20.3688C55.4833 20.3559 55.4833 20.3045 55.4477 20.2917C54.7472 20.0303 50.8148 18.4251 50.2457 15.0912C50.2372 15.0433 50.1757 15.0433 50.1679 15.0912Z" fill="white"/>
<path d="M65.1596 15.0912C64.592 18.4251 60.6932 20.0303 59.9984 20.2917C59.9628 20.3045 59.9628 20.3559 59.9984 20.3688C60.6932 20.628 64.592 22.2254 65.1596 25.5578C65.1682 25.6057 65.2296 25.6057 65.2375 25.5578C65.8073 22.2254 69.7389 20.628 70.4402 20.3688C70.4758 20.3559 70.4758 20.3045 70.4402 20.2917C69.7389 20.0303 65.8073 18.4251 65.2375 15.0912C65.2296 15.0433 65.1682 15.0433 65.1596 15.0912Z" fill="white"/>
<path d="M80.1529 15.0912C79.5853 18.4251 75.6864 20.0303 74.9917 20.2917C74.9559 20.3045 74.9559 20.3559 74.9917 20.3688C75.6864 20.628 79.5853 22.2254 80.1529 25.5578C80.1615 25.6057 80.2229 25.6057 80.2308 25.5578C80.8006 22.2254 84.7322 20.628 85.4335 20.3688C85.4691 20.3559 85.4691 20.3045 85.4335 20.2917C84.7322 20.0303 80.8006 18.4251 80.2308 15.0912C80.2229 15.0433 80.1615 15.0433 80.1529 15.0912Z" fill="white"/>
<path d="M95.1471 15.0912C94.5786 18.4251 90.6798 20.0303 89.9857 20.2917C89.9501 20.3045 89.9501 20.3559 89.9857 20.3688C90.6805 20.628 94.5786 22.2254 95.1471 25.5578C95.1548 25.6057 95.2162 25.6057 95.2248 25.5578C95.794 22.2254 99.7262 20.628 100.427 20.3688C100.463 20.3559 100.463 20.3045 100.427 20.2917C99.7262 20.0303 95.7946 18.4251 95.2248 15.0912C95.2162 15.0433 95.1548 15.0433 95.1471 15.0912Z" fill="white"/>
<path d="M110.14 15.0912C109.572 18.4251 105.673 20.0303 104.979 20.2917C104.942 20.3045 104.942 20.3559 104.979 20.3688C105.673 20.628 109.572 22.2254 110.14 25.5578C110.148 25.6057 110.21 25.6057 110.217 25.5578C110.787 22.2254 114.718 20.628 115.42 20.3688C115.456 20.3559 115.456 20.3045 115.42 20.2917C114.719 20.0303 110.787 18.4251 110.217 15.0912C110.21 15.0433 110.148 15.0433 110.14 15.0912Z" fill="white"/>
<path d="M125.13 15.0912C124.564 18.4251 120.664 20.0303 119.97 20.2917C119.933 20.3045 119.933 20.3559 119.97 20.3688C120.664 20.628 124.564 22.2254 125.13 25.5578C125.139 25.6057 125.2 25.6057 125.209 25.5578C125.777 22.2254 129.709 20.628 130.411 20.3688C130.446 20.3559 130.446 20.3045 130.411 20.2917C129.709 20.0303 125.777 18.4251 125.209 15.0912C125.2 15.0433 125.139 15.0433 125.13 15.0912Z" fill="white"/>
<path d="M140.126 15.0912C139.558 18.4251 135.661 20.0303 134.966 20.2917C134.929 20.3045 134.929 20.3559 134.966 20.3688C135.661 20.628 139.56 22.2254 140.126 25.5578C140.135 25.6057 140.196 25.6057 140.205 25.5578C140.773 22.2254 144.706 20.628 145.407 20.3688C145.442 20.3559 145.442 20.3045 145.407 20.2917C144.706 20.0303 140.773 18.4251 140.205 15.0912C140.196 15.0433 140.135 15.0433 140.126 15.0912Z" fill="white"/>
<path d="M155.119 0.0357885C154.55 3.36989 150.651 4.97506 149.958 5.23628C149.922 5.24926 149.922 5.29989 149.958 5.31269C150.653 5.57263 154.55 7.17012 155.119 10.5026C155.126 10.5505 155.188 10.5505 155.197 10.5026C155.766 7.17012 159.698 5.57263 160.398 5.31269C160.434 5.29989 160.434 5.24926 160.398 5.23628C159.698 4.97506 155.766 3.36989 155.197 0.0357885C155.188 -0.0119228 155.126 -0.0119228 155.119 0.0357885Z" fill="white"/>
<path d="M170.112 0.0357885C169.544 3.36989 165.645 4.97506 164.95 5.23628C164.915 5.24926 164.915 5.29989 164.95 5.31269C165.645 5.57263 169.544 7.17012 170.112 10.5026C170.119 10.5505 170.182 10.5505 170.189 10.5026C170.759 7.17012 174.691 5.57263 175.391 5.31269C175.428 5.29989 175.428 5.24926 175.391 5.23628C174.691 4.97506 170.759 3.36989 170.189 0.0357885C170.182 -0.0119228 170.119 -0.0119228 170.112 0.0357885Z" fill="white"/>
<path d="M185.104 0.0357885C184.536 3.36989 180.637 4.97506 179.942 5.23628C179.907 5.24926 179.907 5.29989 179.942 5.31269C180.637 5.57263 184.536 7.17012 185.104 10.5026C185.112 10.5505 185.174 10.5505 185.181 10.5026C185.751 7.17012 189.684 5.57263 190.384 5.31269C190.42 5.29989 190.42 5.24926 190.384 5.23628C189.684 4.97506 185.751 3.36989 185.181 0.0357885C185.174 -0.0119228 185.112 -0.0119228 185.104 0.0357885Z" fill="white"/>
<path d="M200.098 0.0357885C199.529 3.36989 195.63 4.97506 194.935 5.23628C194.9 5.24926 194.9 5.29989 194.935 5.31269C195.63 5.57263 199.529 7.17012 200.098 10.5026C200.105 10.5505 200.167 10.5505 200.174 10.5026C200.745 7.17012 204.677 5.57263 205.377 5.31269C205.413 5.29989 205.413 5.24926 205.377 5.23628C204.677 4.97506 200.745 3.36989 200.174 0.0357885C200.167 -0.0119228 200.105 -0.0119228 200.098 0.0357885Z" fill="white"/>
<path d="M215.089 0.0357885C214.523 3.36989 210.623 4.97506 209.929 5.23628C209.892 5.24926 209.892 5.29989 209.929 5.31269C210.623 5.57263 214.523 7.17012 215.089 10.5026C215.098 10.5505 215.161 10.5505 215.168 10.5026C215.738 7.17012 219.668 5.57263 220.37 5.31269C220.405 5.29989 220.405 5.24926 220.37 5.23628C219.67 4.97506 215.738 3.36989 215.168 0.0357885C215.161 -0.0119228 215.098 -0.0119228 215.089 0.0357885Z" fill="white"/>
<path d="M230.082 0.0357885C229.516 3.36989 225.617 4.97506 224.922 5.23628C224.885 5.24926 224.885 5.29989 224.922 5.31269C225.617 5.57263 229.516 7.17012 230.082 10.5026C230.092 10.5505 230.152 10.5505 230.161 10.5026C230.73 7.17012 234.662 5.57263 235.364 5.31269C235.398 5.29989 235.398 5.24926 235.364 5.23628C234.662 4.97506 230.73 3.36989 230.161 0.0357885C230.152 -0.0119228 230.092 -0.0119228 230.082 0.0357885Z" fill="white"/>
<path d="M245.078 0.0357885C244.509 3.36989 240.612 4.97506 239.917 5.23628C239.881 5.24926 239.881 5.29989 239.917 5.31269C240.612 5.57263 244.509 7.17012 245.078 10.5026C245.087 10.5505 245.147 10.5505 245.156 10.5026C245.725 7.17012 249.657 5.57263 250.359 5.31269C250.393 5.29989 250.393 5.24926 250.359 5.23628C249.657 4.97506 245.725 3.36989 245.156 0.0357885C245.147 -0.0119228 245.087 -0.0119228 245.078 0.0357885Z" fill="white"/>
<path d="M260.068 0.0357885C259.5 3.36989 255.601 4.97506 254.906 5.23628C254.871 5.24926 254.871 5.29989 254.906 5.31269C255.601 5.57263 259.5 7.17012 260.068 10.5026C260.076 10.5505 260.138 10.5505 260.145 10.5026C260.715 7.17012 264.647 5.57263 265.347 5.31269C265.384 5.29989 265.384 5.24926 265.347 5.23628C264.647 4.97506 260.715 3.36989 260.145 0.0357885C260.138 -0.0119228 260.076 -0.0119228 260.068 0.0357885Z" fill="white"/>
<path d="M275.063 0.0357885C274.495 3.36989 270.596 4.97506 269.901 5.23628C269.866 5.24926 269.866 5.29989 269.901 5.31269C270.596 5.57263 274.495 7.17012 275.063 10.5026C275.071 10.5505 275.133 10.5505 275.14 10.5026C275.71 7.17012 279.642 5.57263 280.343 5.31269C280.379 5.29989 280.379 5.24926 280.343 5.23628C279.642 4.97506 275.71 3.36989 275.14 0.0357885C275.133 -0.0119228 275.071 -0.0119228 275.063 0.0357885Z" fill="white"/>
<path d="M290.056 0.0357885C289.487 3.36989 285.588 4.97506 284.893 5.23628C284.859 5.24926 284.859 5.29989 284.893 5.31269C285.588 5.57263 289.487 7.17012 290.056 10.5026C290.063 10.5505 290.125 10.5505 290.132 10.5026C290.703 7.17012 294.635 5.57263 295.335 5.31269C295.371 5.29989 295.371 5.24926 295.335 5.23628C294.635 4.97506 290.703 3.36989 290.132 0.0357885C290.125 -0.0119228 290.063 -0.0119228 290.056 0.0357885Z" fill="white"/>
<path d="M305.05 30.1465C304.482 33.4804 300.582 35.0856 299.888 35.347C299.851 35.3598 299.851 35.4113 299.888 35.4241C300.582 35.6833 304.482 37.2814 305.05 40.6139C305.057 40.661 305.12 40.661 305.127 40.6139C305.697 37.2814 309.627 35.6833 310.329 35.4241C310.366 35.4113 310.366 35.3598 310.329 35.347C309.629 35.0856 305.697 33.4804 305.127 30.1465C305.12 30.0986 305.057 30.0986 305.05 30.1465Z" fill="white"/>
<path d="M320.04 30.1465C319.474 33.4804 315.575 35.0856 314.88 35.347C314.843 35.3598 314.843 35.4113 314.88 35.4241C315.575 35.6833 319.474 37.2814 320.04 40.6139C320.05 40.661 320.11 40.661 320.119 40.6139C320.688 37.2814 324.62 35.6833 325.322 35.4241C325.356 35.4113 325.356 35.3598 325.322 35.347C324.62 35.0856 320.688 33.4804 320.119 30.1465C320.11 30.0986 320.05 30.0986 320.04 30.1465Z" fill="white"/>
<path d="M335.034 30.1465C334.465 33.4804 330.568 35.0856 329.873 35.347C329.837 35.3598 329.837 35.4113 329.873 35.4241C330.568 35.6833 334.465 37.2814 335.034 40.6139C335.043 40.661 335.103 40.661 335.112 40.6139C335.681 37.2814 339.613 35.6833 340.315 35.4241C340.349 35.4113 340.349 35.3598 340.315 35.347C339.613 35.0856 335.681 33.4804 335.112 30.1465C335.103 30.0986 335.043 30.0986 335.034 30.1465Z" fill="white"/>
<path d="M350.029 30.1465C349.46 33.4804 345.561 35.0856 344.868 35.347C344.832 35.3598 344.832 35.4113 344.868 35.4241C345.563 35.6833 349.46 37.2814 350.029 40.6139C350.036 40.661 350.098 40.661 350.107 40.6139C350.676 37.2814 354.608 35.6833 355.308 35.4241C355.345 35.4113 355.345 35.3598 355.308 35.347C354.608 35.0856 350.676 33.4804 350.107 30.1465C350.098 30.0986 350.036 30.0986 350.029 30.1465Z" fill="white"/>
<path d="M305.05 15.0912C304.482 18.4251 300.582 20.0303 299.888 20.2917C299.851 20.3045 299.851 20.3559 299.888 20.3688C300.582 20.628 304.482 22.2254 305.05 25.5578C305.057 25.6057 305.12 25.6057 305.127 25.5578C305.697 22.2254 309.627 20.628 310.329 20.3688C310.366 20.3559 310.366 20.3045 310.329 20.2917C309.629 20.0303 305.697 18.4251 305.127 15.0912C305.12 15.0433 305.057 15.0433 305.05 15.0912Z" fill="white"/>
<path d="M320.04 15.0912C319.474 18.4251 315.575 20.0303 314.88 20.2917C314.843 20.3045 314.843 20.3559 314.88 20.3688C315.575 20.628 319.474 22.2254 320.04 25.5578C320.05 25.6057 320.11 25.6057 320.119 25.5578C320.688 22.2254 324.62 20.628 325.322 20.3688C325.356 20.3559 325.356 20.3045 325.322 20.2917C324.62 20.0303 320.688 18.4251 320.119 15.0912C320.11 15.0433 320.05 15.0433 320.04 15.0912Z" fill="white"/>
<path d="M335.034 15.0912C334.465 18.4251 330.568 20.0303 329.873 20.2917C329.837 20.3045 329.837 20.3559 329.873 20.3688C330.568 20.628 334.465 22.2254 335.034 25.5578C335.043 25.6057 335.103 25.6057 335.112 25.5578C335.681 22.2254 339.613 20.628 340.315 20.3688C340.349 20.3559 340.349 20.3045 340.315 20.2917C339.613 20.0303 335.681 18.4251 335.112 15.0912C335.103 15.0433 335.043 15.0433 335.034 15.0912Z" fill="white"/>
<path d="M350.029 15.0912C349.46 18.4251 345.561 20.0303 344.868 20.2917C344.832 20.3045 344.832 20.3559 344.868 20.3688C345.563 20.628 349.46 22.2254 350.029 25.5578C350.036 25.6057 350.098 25.6057 350.107 25.5578C350.676 22.2254 354.608 20.628 355.308 20.3688C355.345 20.3559 355.345 20.3045 355.308 20.2917C354.608 20.0303 350.676 18.4251 350.107 15.0912C350.098 15.0433 350.036 15.0433 350.029 15.0912Z" fill="white"/>
<path d="M305.05 0.0357885C304.482 3.36989 300.582 4.97506 299.888 5.23628C299.851 5.24926 299.851 5.29989 299.888 5.31269C300.582 5.57263 304.482 7.17012 305.05 10.5026C305.057 10.5505 305.12 10.5505 305.127 10.5026C305.697 7.17012 309.627 5.57263 310.329 5.31269C310.366 5.29989 310.366 5.24926 310.329 5.23628C309.629 4.97506 305.697 3.36989 305.127 0.0357885C305.12 -0.0119228 305.057 -0.0119228 305.05 0.0357885Z" fill="white"/>
<path d="M320.04 0.0357885C319.474 3.36989 315.575 4.97506 314.88 5.23628C314.843 5.24926 314.843 5.29989 314.88 5.31269C315.575 5.57263 319.474 7.17012 320.04 10.5026C320.05 10.5505 320.11 10.5505 320.119 10.5026C320.688 7.17012 324.62 5.57263 325.322 5.31269C325.356 5.29989 325.356 5.24926 325.322 5.23628C324.62 4.97506 320.688 3.36989 320.119 0.0357885C320.11 -0.0119228 320.05 -0.0119228 320.04 0.0357885Z" fill="white"/>
<path d="M5.18857 0.0357885C4.62024 3.36989 0.721469 4.97506 0.0266441 5.23628C-0.00900203 5.24926 -0.00900243 5.29989 0.0273749 5.31269C0.721468 5.57263 4.62024 7.17012 5.18857 10.5026C5.19643 10.5505 5.25785 10.5505 5.26571 10.5026C5.8355 7.17012 9.76717 5.57263 10.4684 5.31269C10.504 5.29989 10.504 5.24926 10.4684 5.23628C9.7679 4.97506 5.8355 3.36989 5.26571 0.0357885C5.25785 -0.0119228 5.19643 -0.0119228 5.18857 0.0357885Z" fill="white"/>
<path d="M20.1803 0.0357885C19.6125 3.36989 15.7137 4.97506 15.0189 5.23628C14.9833 5.24926 14.9833 5.29989 15.0189 5.31269C15.7137 5.57263 19.6125 7.17012 20.1803 10.5026C20.1889 10.5505 20.2503 10.5505 20.2582 10.5026C20.828 7.17012 24.7596 5.57263 25.4607 5.31269C25.4965 5.29989 25.4965 5.24926 25.4607 5.23628C24.7596 4.97506 20.828 3.36989 20.2582 0.0357885C20.2503 -0.0119228 20.1889 -0.0119228 20.1803 0.0357885Z" fill="white"/>
<path d="M35.1742 0.0357885C34.6066 3.36989 30.7072 4.97506 30.0131 5.23628C29.9774 5.24926 29.9774 5.29989 30.0131 5.31269C30.7079 5.57263 34.6066 7.17012 35.1742 10.5026C35.1821 10.5505 35.2435 10.5505 35.2521 10.5026C35.8219 7.17012 39.7536 5.57263 40.4541 5.31269C40.4904 5.29989 40.4904 5.24926 40.4548 5.23628C39.7536 4.97506 35.8219 3.36989 35.2521 0.0357885C35.2435 -0.0119228 35.1821 -0.0119228 35.1742 0.0357885Z" fill="white"/>
<path d="M50.1679 0.0357885C49.5994 3.36989 45.7006 4.97506 45.0065 5.23628C44.9701 5.24926 44.9709 5.29989 45.0065 5.31269C45.7006 5.57263 49.5994 7.17012 50.1679 10.5026C50.1757 10.5505 50.2372 10.5505 50.2457 10.5026C50.8148 7.17012 54.7472 5.57263 55.4477 5.31269C55.4833 5.29989 55.4833 5.24926 55.4477 5.23628C54.7472 4.97506 50.8148 3.36989 50.2457 0.0357885C50.2372 -0.0119228 50.1757 -0.0119228 50.1679 0.0357885Z" fill="white"/>
<path d="M65.1596 0.0357885C64.592 3.36989 60.6932 4.97506 59.9984 5.23628C59.9628 5.24926 59.9628 5.29989 59.9984 5.31269C60.6932 5.57263 64.592 7.17012 65.1596 10.5026C65.1682 10.5505 65.2296 10.5505 65.2375 10.5026C65.8073 7.17012 69.7389 5.57263 70.4402 5.31269C70.4758 5.29989 70.4758 5.24926 70.4402 5.23628C69.7389 4.97506 65.8073 3.36989 65.2375 0.0357885C65.2296 -0.0119228 65.1682 -0.0119228 65.1596 0.0357885Z" fill="white"/>
<path d="M80.1529 0.0357885C79.5853 3.36989 75.6864 4.97506 74.9917 5.23628C74.9559 5.24926 74.9559 5.29989 74.9917 5.31269C75.6864 5.57263 79.5853 7.17012 80.1529 10.5026C80.1615 10.5505 80.2229 10.5505 80.2308 10.5026C80.8006 7.17012 84.7322 5.57263 85.4335 5.31269C85.4691 5.29989 85.4691 5.24926 85.4335 5.23628C84.7322 4.97506 80.8006 3.36989 80.2308 0.0357885C80.2229 -0.0119228 80.1615 -0.0119228 80.1529 0.0357885Z" fill="white"/>
<path d="M95.1471 0.0357885C94.5786 3.36989 90.6798 4.97506 89.9857 5.23628C89.9501 5.24926 89.9501 5.29989 89.9857 5.31269C90.6805 5.57263 94.5786 7.17012 95.1471 10.5026C95.1548 10.5505 95.2162 10.5505 95.2248 10.5026C95.794 7.17012 99.7262 5.57263 100.427 5.31269C100.463 5.29989 100.463 5.24926 100.427 5.23628C99.7262 4.97506 95.7946 3.36989 95.2248 0.0357885C95.2162 -0.0119228 95.1548 -0.0119228 95.1471 0.0357885Z" fill="white"/>
<path d="M110.14 0.0357885C109.572 3.36989 105.673 4.97506 104.979 5.23628C104.942 5.24926 104.942 5.29989 104.979 5.31269C105.673 5.57263 109.572 7.17012 110.14 10.5026C110.148 10.5505 110.21 10.5505 110.217 10.5026C110.787 7.17012 114.718 5.57263 115.42 5.31269C115.456 5.29989 115.456 5.24926 115.42 5.23628C114.719 4.97506 110.787 3.36989 110.217 0.0357885C110.21 -0.0119228 110.148 -0.0119228 110.14 0.0357885Z" fill="white"/>
<path d="M125.13 0.0357885C124.564 3.36989 120.664 4.97506 119.97 5.23628C119.933 5.24926 119.933 5.29989 119.97 5.31269C120.664 5.57263 124.564 7.17012 125.13 10.5026C125.139 10.5505 125.2 10.5505 125.209 10.5026C125.777 7.17012 129.709 5.57263 130.411 5.31269C130.446 5.29989 130.446 5.24926 130.411 5.23628C129.709 4.97506 125.777 3.36989 125.209 0.0357885C125.2 -0.0119228 125.139 -0.0119228 125.13 0.0357885Z" fill="white"/>
<path d="M140.126 0.0357885C139.558 3.36989 135.661 4.97506 134.966 5.23628C134.929 5.24926 134.929 5.29989 134.966 5.31269C135.661 5.57263 139.558 7.17012 140.126 10.5026C140.135 10.5505 140.196 10.5505 140.205 10.5026C140.773 7.17012 144.706 5.57263 145.407 5.31269C145.442 5.29989 145.442 5.24926 145.407 5.23628C144.706 4.97506 140.773 3.36989 140.205 0.0357885C140.196 -0.0119228 140.135 -0.0119228 140.126 0.0357885Z" fill="white"/>
</svg>
