<svg width="254" height="67" viewBox="0 0 254 67" fill="none" xmlns="http://www.w3.org/2000/svg">
<g opacity="0.25">
<path fill-rule="evenodd" clip-rule="evenodd" d="M141.018 9.99619L178.95 0.513297C183.301 -0.574618 187.906 0.0815311 191.781 2.34169C197.821 5.86554 201.125 12.6979 200.136 19.6211L196.079 48.0255C194.727 57.4838 186.888 64.6736 177.348 65.2036L159.937 66.1709C151.39 66.6458 143.484 61.64 140.259 53.7106L130.725 30.2732C129.992 28.4719 129.615 26.5456 129.615 24.6009C129.615 17.693 134.317 11.6716 141.018 9.99619ZM155.288 19.9409C156.497 18.6655 158.137 17.9491 159.846 17.9491C161.556 17.9491 163.195 18.6655 164.404 19.9409C165.613 21.2162 166.292 22.9459 166.292 24.7495C166.292 26.5531 165.613 28.2828 164.404 29.5581C163.195 30.8335 161.556 31.5499 159.846 31.5499C158.137 31.5499 156.497 30.8335 155.288 29.5581C154.08 28.2828 153.4 26.5531 153.4 24.7495C153.4 22.9459 154.08 21.2162 155.288 19.9409ZM149.918 19.0991C149.03 20.8352 148.566 22.7769 148.566 24.7495C148.564 26.3743 148.878 27.9822 149.489 29.4737C150.1 30.9651 150.995 32.3083 152.118 33.4201C149.55 34.7339 147.321 36.6815 145.619 39.0976C143.917 41.5138 142.792 44.3273 142.34 47.2998C142.29 47.6306 142.302 47.9687 142.376 48.2945C142.45 48.6204 142.584 48.9277 142.77 49.1989C142.957 49.4701 143.192 49.6999 143.462 49.8752C143.733 50.0505 144.034 50.1679 144.347 50.2206C144.661 50.2732 144.981 50.2603 145.29 50.1823C145.599 50.1044 145.89 49.963 146.147 49.7663C146.405 49.5696 146.622 49.3214 146.789 49.0359C146.955 48.7503 147.066 48.4331 147.116 48.1022C147.604 44.9107 149.153 42.0066 151.485 39.9105C153.818 37.8144 156.782 36.6632 159.846 36.6632C162.91 36.6632 165.874 37.8144 168.207 39.9105C170.54 42.0066 172.089 44.9107 172.576 48.1022C172.626 48.4331 172.737 48.7504 172.903 49.036C173.069 49.3216 173.287 49.5699 173.544 49.7668C173.801 49.9637 174.092 50.1052 174.401 50.1834C174.709 50.2615 175.03 50.2747 175.343 50.2223C175.657 50.1698 175.958 50.0527 176.228 49.8776C176.499 49.7025 176.734 49.4729 176.921 49.2018C177.108 48.9307 177.242 48.6235 177.316 48.2978C177.39 47.972 177.402 47.634 177.353 47.3032C176.901 44.3295 175.777 41.5146 174.075 39.0972C172.372 36.6798 170.143 34.7311 167.575 33.4167C168.936 32.0652 169.959 30.3777 170.549 28.5061C171.139 26.6345 171.28 24.6374 170.957 22.6944C170.634 20.7514 169.859 18.9235 168.701 17.3751C167.542 15.8267 166.037 14.6064 164.321 13.8238C162.605 13.0413 160.731 12.7211 158.869 12.892C157.006 13.063 155.213 13.7197 153.65 14.8032C152.088 15.8867 150.805 17.3629 149.918 19.0991ZM175.863 20.3961C176.316 19.9178 176.931 19.6492 177.572 19.6492C179.445 19.6491 181.278 20.223 182.848 21.3012C184.417 22.3795 185.656 23.9156 186.414 25.7228C187.172 27.5301 187.416 29.5307 187.116 31.4814C186.817 33.4322 185.987 35.2492 184.727 36.7115C186.688 37.739 188.431 39.1768 189.85 40.9374C191.268 42.6981 192.332 44.7447 192.977 46.9529C193.072 47.2736 193.106 47.6108 193.076 47.9452C193.047 48.2796 192.956 48.6047 192.807 48.9017C192.659 49.1988 192.456 49.4619 192.211 49.6761C191.966 49.8903 191.683 50.0512 191.378 50.1498C191.074 50.2483 190.754 50.2824 190.438 50.2502C190.121 50.218 189.813 50.12 189.532 49.962C189.251 49.804 189.003 49.589 188.801 49.3293C188.599 49.0697 188.448 48.7705 188.356 48.449C187.195 44.464 184.095 41.3664 180.227 40.3837C179.7 40.2493 179.23 39.9313 178.895 39.481C178.559 39.0308 178.377 38.4744 178.378 37.9016V36.7047C178.377 36.2299 178.503 35.7645 178.739 35.3608C178.976 34.9571 179.315 34.6312 179.718 34.4197C180.695 33.9089 181.48 33.0645 181.945 32.0238C182.41 30.983 182.527 29.8071 182.279 28.6869C182.03 27.5667 181.43 26.5682 180.575 25.8534C179.721 25.1386 178.662 24.7496 177.572 24.7495C176.931 24.7495 176.316 24.4808 175.863 24.0026C175.409 23.5243 175.155 22.8757 175.155 22.1993C175.155 21.523 175.409 20.8743 175.863 20.3961Z" fill="white"/>
<path d="M19.0744 41.1748H15.4003L13.5844 36.0367H5.6449L3.89934 41.1748H0.23931L7.79869 20.9883H11.5713L19.0744 41.1748ZM12.6975 33.3057L9.89617 25.2537C9.81171 24.9909 9.72255 24.5686 9.6287 23.9867H9.5724C9.48793 24.5217 9.39409 24.944 9.29086 25.2537L6.51768 33.3057H12.6975ZM34.0665 41.1748H30.8006V38.8943H30.7443C29.7964 40.6399 28.323 41.5127 26.3241 41.5127C22.9174 41.5127 21.2141 39.4668 21.2141 35.3751V26.7599H24.48V35.0372C24.48 37.6274 25.4795 38.9225 27.4784 38.9225C28.445 38.9225 29.238 38.5659 29.8574 37.8526C30.4862 37.1394 30.8006 36.2056 30.8006 35.0513V26.7599H34.0665V41.1748ZM51.4376 41.1748H48.1717V38.7254H48.1154C47.0643 40.5836 45.4454 41.5127 43.2588 41.5127C41.4851 41.5127 40.0633 40.8698 38.9934 39.5841C37.933 38.289 37.4027 36.5294 37.4027 34.3052C37.4027 31.9215 37.9893 30.0117 39.1624 28.5758C40.3448 27.14 41.9168 26.4221 43.8782 26.4221C45.8208 26.4221 47.2332 27.201 48.1154 28.7588H48.1717V19.834H51.4376V41.1748ZM48.2139 34.5867V32.7004C48.2139 31.6775 47.8808 30.8094 47.2144 30.0962C46.5481 29.3829 45.6988 29.0263 44.6665 29.0263C43.4465 29.0263 42.4845 29.4815 41.7807 30.3918C41.0862 31.3021 40.739 32.5643 40.739 34.1785C40.739 35.6425 41.0721 36.8015 41.7385 37.6555C42.4142 38.5002 43.3198 38.9225 44.4553 38.9225C45.5721 38.9225 46.4777 38.5142 47.1722 37.6978C47.8667 36.8719 48.2139 35.8349 48.2139 34.5867ZM57.3499 23.7333C56.815 23.7333 56.3551 23.5597 55.9704 23.2125C55.595 22.8653 55.4073 22.4242 55.4073 21.8892C55.4073 21.3543 55.595 20.9085 55.9704 20.5519C56.3551 20.1953 56.815 20.017 57.3499 20.017C57.9036 20.017 58.3728 20.1953 58.7576 20.5519C59.1424 20.9085 59.3348 21.3543 59.3348 21.8892C59.3348 22.396 59.1424 22.8324 58.7576 23.1984C58.3728 23.555 57.9036 23.7333 57.3499 23.7333ZM58.9688 41.1748H55.7029V26.7599H58.9688V41.1748ZM75.453 34.8542H65.6272C65.6648 36.1868 66.073 37.2145 66.8519 37.9371C67.6402 38.6597 68.7195 39.021 70.0896 39.021C71.6287 39.021 73.0411 38.5612 74.3268 37.6415V40.2739C73.013 41.0997 71.2768 41.5127 69.1183 41.5127C66.9974 41.5127 65.3316 40.8604 64.121 39.5559C62.9197 38.2421 62.3191 36.398 62.3191 34.0237C62.3191 31.7807 62.9807 29.9554 64.304 28.5477C65.6366 27.1306 67.2883 26.4221 69.2591 26.4221C71.2299 26.4221 72.7549 27.0555 73.8341 28.3225C74.9134 29.5894 75.453 31.349 75.453 33.6013V34.8542ZM72.2997 32.5456C72.2904 31.3725 72.0135 30.4622 71.4692 29.8146C70.9249 29.1577 70.1741 28.8292 69.2169 28.8292C68.2784 28.8292 67.4807 29.1718 66.8238 29.8569C66.1762 30.5419 65.7774 31.4382 65.6272 32.5456H72.2997ZM91.4023 41.1748H88.1364V33.0523C88.1364 30.3589 87.1839 29.0122 85.2788 29.0122C84.284 29.0122 83.4628 29.3876 82.8153 30.1384C82.1678 30.8798 81.844 31.8183 81.844 32.9538V41.1748H78.564V26.7599H81.844V29.153H81.9003C82.9795 27.3324 84.5374 26.4221 86.5739 26.4221C88.1411 26.4221 89.3377 26.9335 90.1635 27.9565C90.9894 28.97 91.4023 30.4387 91.4023 32.3626V41.1748ZM105.719 40.5132C104.564 41.1795 103.199 41.5127 101.622 41.5127C99.4825 41.5127 97.7557 40.8463 96.4419 39.5137C95.128 38.1717 94.4711 36.4355 94.4711 34.3052C94.4711 31.9309 95.175 30.0258 96.5827 28.5899C97.9997 27.1447 99.8908 26.4221 102.256 26.4221C103.57 26.4221 104.729 26.652 105.733 27.1118V30.1525C104.729 29.4017 103.659 29.0263 102.523 29.0263C101.144 29.0263 100.013 29.4955 99.1306 30.434C98.2484 31.3631 97.8074 32.5831 97.8074 34.094C97.8074 35.5862 98.2203 36.764 99.0461 37.6274C99.8814 38.4908 100.998 38.9225 102.396 38.9225C103.57 38.9225 104.677 38.5049 105.719 37.6696V40.5132ZM121.175 34.8542H111.349C111.387 36.1868 111.795 37.2145 112.574 37.9371C113.363 38.6597 114.442 39.021 115.812 39.021C117.351 39.021 118.763 38.5612 120.049 37.6415V40.2739C118.735 41.0997 116.999 41.5127 114.841 41.5127C112.72 41.5127 111.054 40.8604 109.843 39.5559C108.642 38.2421 108.041 36.398 108.041 34.0237C108.041 31.7807 108.703 29.9554 110.026 28.5477C111.359 27.1306 113.011 26.4221 114.981 26.4221C116.952 26.4221 118.477 27.0555 119.556 28.3225C120.636 29.5894 121.175 31.349 121.175 33.6013V34.8542ZM118.022 32.5456C118.013 31.3725 117.736 30.4622 117.191 29.8146C116.647 29.1577 115.896 28.8292 114.939 28.8292C114.001 28.8292 113.203 29.1718 112.546 29.8569C111.898 30.5419 111.5 31.4382 111.349 32.5456H118.022Z" fill="white"/>
<path d="M204.755 40.5132V36.642C206.107 37.6274 207.683 38.1201 209.485 38.1201C210.621 38.1201 211.503 37.8761 212.132 37.3881C212.77 36.9001 213.089 36.2197 213.089 35.3469C213.089 34.446 212.695 33.7515 211.907 33.2635C211.128 32.7755 210.053 32.5315 208.683 32.5315H206.811V29.1248H208.542C211.17 29.1248 212.484 28.2521 212.484 26.5065C212.484 24.8642 211.475 24.043 209.457 24.043C208.106 24.043 206.792 24.4794 205.516 25.3522V21.7203C206.933 21.0071 208.584 20.6505 210.471 20.6505C212.535 20.6505 214.14 21.115 215.285 22.0441C216.439 22.9732 217.017 24.1791 217.017 25.6619C217.017 28.299 215.679 29.9507 213.005 30.617V30.6874C214.431 30.8657 215.557 31.3866 216.383 32.25C217.209 33.104 217.622 34.155 217.622 35.4032C217.622 37.2895 216.932 38.7817 215.553 39.8797C214.173 40.9777 212.268 41.5267 209.837 41.5267C207.754 41.5267 206.06 41.1889 204.755 40.5132ZM235.317 34.4601C235.317 35.4548 235.143 36.3839 234.796 37.2473C234.449 38.1107 233.965 38.8615 233.346 39.4996C232.727 40.1284 231.99 40.6258 231.136 40.9918C230.282 41.3484 229.348 41.5267 228.334 41.5267C227.199 41.5267 226.181 41.3156 225.28 40.8933C224.388 40.471 223.633 39.8609 223.013 39.0632C222.394 38.2562 221.92 37.2708 221.592 36.1071C221.263 34.9434 221.099 33.6248 221.099 32.1514C221.099 30.4152 221.31 28.8433 221.732 27.4356C222.164 26.0185 222.774 24.8079 223.562 23.8037C224.36 22.7996 225.322 22.0253 226.448 21.481C227.574 20.9273 228.841 20.6505 230.249 20.6505C231.807 20.6505 233.017 20.8335 233.881 21.1995V24.9158C232.858 24.334 231.741 24.043 230.53 24.043C229.78 24.043 229.099 24.1885 228.489 24.4794C227.879 24.7703 227.354 25.1833 226.913 25.7182C226.481 26.2531 226.138 26.9007 225.885 27.6608C225.641 28.4116 225.51 29.2515 225.491 30.1806H225.575C226.533 28.8574 227.945 28.1958 229.813 28.1958C230.648 28.1958 231.403 28.3459 232.079 28.6462C232.755 28.9465 233.332 29.3735 233.81 29.9272C234.289 30.4716 234.66 31.1285 234.923 31.898C235.185 32.6676 235.317 33.5216 235.317 34.4601ZM230.967 34.7416C230.967 32.5737 230.08 31.4898 228.306 31.4898C227.903 31.4898 227.537 31.5649 227.208 31.715C226.88 31.8652 226.598 32.0763 226.364 32.3485C226.129 32.6206 225.946 32.9444 225.815 33.3198C225.693 33.6858 225.632 34.094 225.632 34.5445C225.632 35.0419 225.697 35.5064 225.829 35.9381C225.96 36.3698 226.143 36.7499 226.378 37.0784C226.622 37.3975 226.908 37.6508 227.236 37.8385C227.565 38.0262 227.931 38.1201 228.334 38.1201C228.738 38.1201 229.099 38.0403 229.418 37.8808C229.747 37.7118 230.024 37.4819 230.249 37.191C230.484 36.8907 230.662 36.5341 230.784 36.1211C230.906 35.6988 230.967 35.239 230.967 34.7416ZM244.453 41.5267C239.648 41.5267 237.245 38.1529 237.245 31.4053C237.245 27.9048 237.893 25.2396 239.188 23.4096C240.492 21.5702 242.379 20.6505 244.847 20.6505C249.539 20.6505 251.885 24.0806 251.885 30.9408C251.885 34.3568 251.243 36.9752 249.957 38.7958C248.681 40.6164 246.846 41.5267 244.453 41.5267ZM244.65 24.043C242.726 24.043 241.764 26.4596 241.764 31.2927C241.764 35.8443 242.707 38.1201 244.593 38.1201C246.433 38.1201 247.353 35.7739 247.353 31.0816C247.353 26.3892 246.452 24.043 244.65 24.043Z" fill="white"/>
</g>
</svg>
