<svg width="60" height="28" viewBox="0 0 60 28" fill="none" xmlns="http://www.w3.org/2000/svg">
<path d="M37.498 16.0885C36.8919 19.6432 32.7351 21.3563 31.9946 21.633C31.9575 21.6486 31.9575 21.7012 31.9946 21.7148C32.7351 21.9916 36.8919 23.6948 37.498 27.2495C37.5058 27.2982 37.572 27.2982 37.5798 27.2495C38.1879 23.6948 42.3798 21.9916 43.1262 21.7168C43.1652 21.7012 43.1652 21.6486 43.1262 21.633C42.3798 21.3543 38.1879 19.6432 37.5798 16.0885C37.572 16.0398 37.5058 16.0398 37.498 16.0885Z" fill="white"/>
<path d="M53.4838 16.0885C52.8778 19.6432 48.721 21.3563 47.9804 21.633C47.9414 21.6486 47.9414 21.7012 47.9804 21.7148C48.721 21.9916 52.8778 23.6948 53.4838 27.2495C53.4916 27.2982 53.5579 27.2982 53.5657 27.2495C54.1737 23.6948 58.3637 21.9916 59.112 21.7168C59.151 21.7012 59.151 21.6486 59.112 21.633C58.3656 21.3543 54.1737 19.6432 53.5657 16.0885C53.5579 16.0398 53.4916 16.0398 53.4838 16.0885Z" fill="white"/>
<path d="M5.53099 0.0379934C4.92491 3.59265 0.768109 5.30372 0.0275543 5.5824C-0.00947344 5.59799 -0.00951912 5.65059 0.0294574 5.66423C0.770012 5.94097 4.92491 7.64427 5.53099 11.1989C5.53879 11.2477 5.60503 11.2477 5.61283 11.1989C6.22086 7.64427 10.4129 5.94097 11.1593 5.66423C11.1983 5.65059 11.1983 5.59799 11.1593 5.5824C10.4129 5.30372 6.22086 3.59265 5.61283 0.0379934C5.60503 -0.0126762 5.53879 -0.0126762 5.53099 0.0379934Z" fill="white"/>
<path d="M21.5146 0.0379934C20.9085 3.59265 16.7517 5.30372 16.0112 5.5824C15.9741 5.59799 15.9741 5.65059 16.0112 5.66423C16.7517 5.94097 20.9085 7.64427 21.5146 11.1989C21.5224 11.2477 21.5886 11.2477 21.5964 11.1989C22.2045 7.64427 26.3964 5.94097 27.1428 5.66423C27.1818 5.65059 27.1818 5.59799 27.1428 5.5824C26.3964 5.30372 22.2045 3.59265 21.5964 0.0379934C21.5886 -0.0126762 21.5224 -0.0126762 21.5146 0.0379934Z" fill="white"/>
<path d="M37.498 0.0379934C36.8919 3.59265 32.7351 5.30372 31.9946 5.5824C31.9575 5.59799 31.9575 5.65059 31.9946 5.66423C32.7351 5.94097 36.8919 7.64427 37.498 11.1989C37.5058 11.2477 37.572 11.2477 37.5798 11.1989C38.1879 7.64427 42.3798 5.94097 43.1262 5.66423C43.1652 5.65059 43.1652 5.59799 43.1262 5.5824C42.3798 5.30372 38.1879 3.59265 37.5798 0.0379934C37.572 -0.0126762 37.5058 -0.0126762 37.498 0.0379934Z" fill="white"/>
<path d="M53.4838 0.0379934C52.8778 3.59265 48.721 5.30372 47.9804 5.5824C47.9414 5.59799 47.9414 5.65059 47.9804 5.66423C48.721 5.94097 52.8778 7.64427 53.4838 11.1989C53.4916 11.2477 53.5579 11.2477 53.5657 11.1989C54.1737 7.64427 58.3637 5.94097 59.112 5.66423C59.151 5.65059 59.151 5.59799 59.112 5.5824C58.3656 5.30372 54.1737 3.59265 53.5657 0.0379934C53.5579 -0.0126762 53.4916 -0.0126762 53.4838 0.0379934Z" fill="white"/>
</svg>
