<svg width="135" height="36" viewBox="0 0 135 36" fill="none" xmlns="http://www.w3.org/2000/svg">
<path fill-rule="evenodd" clip-rule="evenodd" d="M74.9843 5.48611L95.1539 0.443714C97.4678 -0.134769 99.9162 0.214131 101.976 1.41594C105.189 3.28969 106.945 6.92269 106.419 10.604L104.262 25.7077C103.543 30.737 99.3748 34.5601 94.3022 34.8419L85.0439 35.3562C80.4991 35.6087 76.2955 32.947 74.5804 28.7306L69.5109 16.2681C69.1213 15.3103 68.9209 14.286 68.9209 13.2519C68.9209 9.57878 71.4208 6.37699 74.9843 5.48611ZM82.5722 10.7739C83.215 10.0958 84.0868 9.71479 84.9958 9.71479C85.9048 9.71479 86.7765 10.0958 87.4193 10.7739C88.0621 11.452 88.4232 12.3718 88.4232 13.3308C88.4232 14.2899 88.0621 15.2096 87.4193 15.8878C86.7765 16.5659 85.9048 16.9469 84.9958 16.9469C84.0868 16.9469 83.215 16.5659 82.5722 15.8878C81.9294 15.2096 81.5683 14.2899 81.5683 13.3308C81.5683 12.3718 81.9294 11.452 82.5722 10.7739ZM79.7166 10.3263C79.2447 11.2495 78.9977 12.2819 78.9978 13.3308C78.9966 14.1948 79.1637 15.0498 79.4885 15.8428C79.8134 16.6359 80.2891 17.3501 80.8863 17.9413C79.5211 18.6399 78.3358 19.6755 77.4307 20.9603C76.5255 22.245 75.9274 23.7411 75.6869 25.3216C75.6603 25.4976 75.6669 25.6773 75.7062 25.8506C75.7455 26.0238 75.8167 26.1872 75.9158 26.3315C76.015 26.4757 76.1401 26.5979 76.284 26.6911C76.4279 26.7843 76.5878 26.8467 76.7545 26.8747C76.9213 26.9027 77.0917 26.8958 77.2559 26.8544C77.4201 26.8129 77.575 26.7378 77.7117 26.6332C77.8484 26.5286 77.9642 26.3966 78.0526 26.2448C78.1409 26.0929 78.2001 25.9243 78.2266 25.7483C78.4859 24.0512 79.3096 22.5071 80.55 21.3925C81.7904 20.2779 83.3664 19.6658 84.9958 19.6658C86.6251 19.6658 88.2011 20.2779 89.4415 21.3925C90.6819 22.5071 91.5056 24.0512 91.7649 25.7483C91.7913 25.9243 91.8504 26.093 91.9386 26.2448C92.0269 26.3967 92.1426 26.5288 92.2792 26.6334C92.4158 26.7381 92.5707 26.8134 92.7348 26.8549C92.899 26.8965 93.0694 26.9035 93.2361 26.8756C93.4029 26.8477 93.5628 26.7854 93.7068 26.6923C93.8507 26.5992 93.9759 26.4771 94.0751 26.333C94.1743 26.1889 94.2456 26.0255 94.285 25.8523C94.3244 25.6791 94.3311 25.4994 94.3046 25.3234C94.0646 23.7422 93.4667 22.2454 92.5616 20.96C91.6565 19.6746 90.4708 18.6384 89.1052 17.9395C89.8294 17.2208 90.3729 16.3236 90.6868 15.3284C91.0008 14.3331 91.0753 13.2712 90.9038 12.2381C90.7322 11.2049 90.3199 10.233 89.704 9.40961C89.0881 8.58627 88.2878 7.93736 87.3753 7.52125C86.4627 7.10515 85.4664 6.93489 84.4759 7.02579C83.4855 7.1167 82.532 7.46591 81.7012 8.04203C80.8705 8.61815 80.1885 9.40311 79.7166 10.3263ZM93.5123 11.016C93.7534 10.7617 94.0803 10.6188 94.4212 10.6188C95.4172 10.6187 96.3918 10.9239 97.2265 11.4973C98.0612 12.0706 98.72 12.8874 99.123 13.8484C99.526 14.8094 99.6557 15.8732 99.4964 16.9105C99.337 17.9478 98.8956 18.9139 98.2256 19.6914C99.2687 20.2378 100.196 21.0023 100.95 21.9385C101.704 22.8747 102.27 23.963 102.613 25.1372C102.663 25.3077 102.681 25.487 102.666 25.6648C102.65 25.8427 102.601 26.0155 102.522 26.1735C102.443 26.3314 102.336 26.4713 102.205 26.5852C102.075 26.6991 101.924 26.7847 101.763 26.8371C101.601 26.8894 101.431 26.9076 101.262 26.8905C101.094 26.8733 100.93 26.8213 100.781 26.7372C100.631 26.6532 100.499 26.5389 100.392 26.4008C100.285 26.2628 100.204 26.1037 100.155 25.9327C99.5383 23.8137 97.8897 22.1666 95.8333 21.6441C95.5526 21.5726 95.303 21.4036 95.1245 21.1641C94.9461 20.9247 94.8492 20.6288 94.8496 20.3243V19.6878C94.8494 19.4354 94.9161 19.1879 95.042 18.9732C95.168 18.7586 95.3482 18.5853 95.5625 18.4728C96.082 18.2012 96.4992 17.7522 96.7464 17.1988C96.9935 16.6454 97.0561 16.0201 96.9239 15.4245C96.7917 14.8289 96.4725 14.2979 96.0181 13.9178C95.5638 13.5377 95.001 13.3309 94.4212 13.3308C94.0803 13.3308 93.7534 13.188 93.5123 12.9337C93.2713 12.6794 93.1359 12.3345 93.1359 11.9748C93.1359 11.6152 93.2713 11.2703 93.5123 11.016Z" fill="white"/>
<path d="M10.1426 21.5809H8.18889L7.22329 18.8488H3.0016L2.07342 21.5809H0.12725L4.14684 10.847H6.1529L10.1426 21.5809ZM6.75172 17.3967L5.26215 13.1151C5.21724 12.9754 5.16983 12.7508 5.11993 12.4414H5.08999C5.04508 12.7258 4.99517 12.9504 4.94028 13.1151L3.46568 17.3967H6.75172ZM18.1144 21.5809H16.3778V20.3683H16.3478C15.8438 21.2965 15.0604 21.7606 13.9975 21.7606C12.186 21.7606 11.2803 20.6727 11.2803 18.497V13.916H13.0169V18.3174C13.0169 19.6946 13.5484 20.3833 14.6113 20.3833C15.1252 20.3833 15.5469 20.1937 15.8763 19.8144C16.2106 19.4352 16.3778 18.9386 16.3778 18.3248V13.916H18.1144V21.5809ZM27.3512 21.5809H25.6146V20.2785H25.5847C25.0258 21.2666 24.165 21.7606 23.0023 21.7606C22.0591 21.7606 21.3031 21.4188 20.7342 20.7351C20.1703 20.0465 19.8884 19.1108 19.8884 17.9281C19.8884 16.6606 20.2003 15.6451 20.824 14.8816C21.4528 14.1181 22.2887 13.7364 23.3316 13.7364C24.3646 13.7364 25.1156 14.1505 25.5847 14.9789H25.6146V10.2333H27.3512V21.5809ZM25.6371 18.0778V17.0748C25.6371 16.5309 25.4599 16.0693 25.1056 15.69C24.7513 15.3108 24.2997 15.1211 23.7508 15.1211C23.1021 15.1211 22.5906 15.3632 22.2163 15.8472C21.847 16.3313 21.6624 17.0024 21.6624 17.8607C21.6624 18.6392 21.8395 19.2555 22.1938 19.7096C22.5531 20.1587 23.0347 20.3833 23.6385 20.3833C24.2323 20.3833 24.7139 20.1662 25.0832 19.7321C25.4524 19.2929 25.6371 18.7415 25.6371 18.0778ZM30.495 12.3067C30.2106 12.3067 29.9661 12.2144 29.7615 12.0297C29.5619 11.8451 29.4621 11.6105 29.4621 11.3261C29.4621 11.0417 29.5619 10.8046 29.7615 10.615C29.9661 10.4254 30.2106 10.3306 30.495 10.3306C30.7894 10.3306 31.0389 10.4254 31.2435 10.615C31.4481 10.8046 31.5504 11.0417 31.5504 11.3261C31.5504 11.5956 31.4481 11.8276 31.2435 12.0222C31.0389 12.2119 30.7894 12.3067 30.495 12.3067ZM31.3558 21.5809H29.6192V13.916H31.3558V21.5809ZM40.1211 18.22H34.8964C34.9163 18.9286 35.1334 19.4751 35.5476 19.8593C35.9668 20.2436 36.5406 20.4357 37.2692 20.4357C38.0876 20.4357 38.8386 20.1912 39.5223 19.7021V21.1019C38.8236 21.541 37.9005 21.7606 36.7527 21.7606C35.6249 21.7606 34.7392 21.4138 34.0954 20.7201C33.4567 20.0215 33.1373 19.0409 33.1373 17.7784C33.1373 16.5858 33.4891 15.6152 34.1927 14.8666C34.9014 14.1131 35.7796 13.7364 36.8276 13.7364C37.8755 13.7364 38.6864 14.0732 39.2603 14.7469C39.8341 15.4205 40.1211 16.3562 40.1211 17.5539V18.22ZM38.4444 16.9925C38.4394 16.3687 38.2922 15.8846 38.0028 15.5403C37.7133 15.191 37.3141 15.0163 36.8051 15.0163C36.3061 15.0163 35.8819 15.1985 35.5326 15.5628C35.1883 15.9271 34.9762 16.4036 34.8964 16.9925H38.4444ZM48.6019 21.5809H46.8653V17.2619C46.8653 15.8297 46.3588 15.1137 45.3458 15.1137C44.8168 15.1137 44.3802 15.3133 44.0359 15.7125C43.6916 16.1067 43.5194 16.6057 43.5194 17.2095V21.5809H41.7753V13.916H43.5194V15.1885H43.5493C44.1232 14.2204 44.9516 13.7364 46.0345 13.7364C46.8678 13.7364 47.5041 14.0083 47.9432 14.5523C48.3823 15.0912 48.6019 15.8722 48.6019 16.8951V21.5809ZM56.2144 21.2291C55.6006 21.5834 54.8746 21.7606 54.0362 21.7606C52.8985 21.7606 51.9803 21.4063 51.2816 20.6977C50.583 19.9841 50.2337 19.0609 50.2337 17.9281C50.2337 16.6656 50.608 15.6526 51.3565 14.8891C52.11 14.1206 53.1155 13.7364 54.3731 13.7364C55.0717 13.7364 55.688 13.8586 56.2219 14.1031V15.72C55.688 15.3207 55.1191 15.1211 54.5153 15.1211C53.7817 15.1211 53.1804 15.3706 52.7113 15.8697C52.2422 16.3637 52.0077 17.0124 52.0077 17.8158C52.0077 18.6093 52.2273 19.2355 52.6664 19.6946C53.1105 20.1537 53.7044 20.3833 54.4479 20.3833C55.0717 20.3833 55.6605 20.1612 56.2144 19.7171V21.2291ZM64.4333 18.22H59.2085C59.2285 18.9286 59.4456 19.4751 59.8598 19.8593C60.2789 20.2436 60.8528 20.4357 61.5814 20.4357C62.3998 20.4357 63.1508 20.1912 63.8344 19.7021V21.1019C63.1358 21.541 62.2126 21.7606 61.0649 21.7606C59.9371 21.7606 59.0513 21.4138 58.4076 20.7201C57.7689 20.0215 57.4495 19.0409 57.4495 17.7784C57.4495 16.5858 57.8013 15.6152 58.5049 14.8666C59.2135 14.1131 60.0918 13.7364 61.1397 13.7364C62.1877 13.7364 62.9986 14.0732 63.5725 14.7469C64.1463 15.4205 64.4333 16.3562 64.4333 17.5539V18.22ZM62.7566 16.9925C62.7516 16.3687 62.6044 15.8846 62.3149 15.5403C62.0255 15.191 61.6263 15.0163 61.1173 15.0163C60.6183 15.0163 60.1941 15.1985 59.8448 15.5628C59.5005 15.9271 59.2884 16.4036 59.2085 16.9925H62.7566Z" fill="white"/>
<path d="M108.876 21.2291V19.1707C109.594 19.6946 110.433 19.9566 111.391 19.9566C111.995 19.9566 112.464 19.8269 112.798 19.5674C113.137 19.3079 113.307 18.9461 113.307 18.482C113.307 18.003 113.097 17.6337 112.678 17.3742C112.264 17.1147 111.693 16.985 110.964 16.985H109.969V15.1735H110.889C112.287 15.1735 112.985 14.7094 112.985 13.7813C112.985 12.908 112.449 12.4714 111.376 12.4714C110.657 12.4714 109.959 12.7034 109.28 13.1675V11.2363C110.034 10.857 110.912 10.6674 111.915 10.6674C113.013 10.6674 113.866 10.9144 114.475 11.4084C115.089 11.9025 115.395 12.5437 115.395 13.3322C115.395 14.7344 114.684 15.6127 113.262 15.967V16.0044C114.021 16.0992 114.619 16.3762 115.059 16.8353C115.498 17.2894 115.717 17.8483 115.717 18.512C115.717 19.515 115.351 20.3084 114.617 20.8923C113.883 21.4761 112.87 21.7681 111.578 21.7681C110.47 21.7681 109.569 21.5884 108.876 21.2291ZM125.126 18.0105C125.126 18.5394 125.034 19.0334 124.849 19.4925C124.665 19.9516 124.408 20.3509 124.078 20.6902C123.749 21.0245 123.357 21.289 122.903 21.4836C122.449 21.6733 121.953 21.7681 121.414 21.7681C120.81 21.7681 120.268 21.6558 119.789 21.4312C119.315 21.2067 118.914 20.8823 118.584 20.4581C118.255 20.029 118.003 19.505 117.828 18.8862C117.654 18.2674 117.566 17.5663 117.566 16.7829C117.566 15.8597 117.678 15.0238 117.903 14.2753C118.133 13.5218 118.457 12.8781 118.876 12.3441C119.3 11.8102 119.812 11.3985 120.411 11.109C121.009 10.8146 121.683 10.6674 122.432 10.6674C123.26 10.6674 123.904 10.7647 124.363 10.9593V12.9354C123.819 12.626 123.225 12.4714 122.581 12.4714C122.182 12.4714 121.82 12.5487 121.496 12.7034C121.172 12.8581 120.892 13.0777 120.658 13.3621C120.428 13.6465 120.246 13.9909 120.111 14.3951C119.981 14.7943 119.912 15.2409 119.902 15.7349H119.947C120.456 15.0313 121.207 14.6795 122.2 14.6795C122.644 14.6795 123.045 14.7594 123.405 14.919C123.764 15.0787 124.071 15.3058 124.325 15.6002C124.58 15.8896 124.777 16.2389 124.917 16.6481C125.056 17.0573 125.126 17.5114 125.126 18.0105ZM122.813 18.1602C122.813 17.0074 122.342 16.4311 121.399 16.4311C121.184 16.4311 120.989 16.471 120.815 16.5508C120.64 16.6307 120.49 16.7429 120.366 16.8877C120.241 17.0324 120.144 17.2045 120.074 17.4041C120.009 17.5988 119.976 17.8158 119.976 18.0554C119.976 18.3198 120.011 18.5669 120.081 18.7964C120.151 19.026 120.248 19.2281 120.373 19.4027C120.503 19.5724 120.655 19.7071 120.83 19.8069C121.004 19.9067 121.199 19.9566 121.414 19.9566C121.628 19.9566 121.82 19.9142 121.99 19.8294C122.165 19.7396 122.312 19.6173 122.432 19.4626C122.556 19.3029 122.651 19.1133 122.716 18.8937C122.781 18.6692 122.813 18.4246 122.813 18.1602ZM129.984 21.7681C127.429 21.7681 126.152 19.9741 126.152 16.3862C126.152 14.5248 126.496 13.1076 127.185 12.1345C127.878 11.1564 128.881 10.6674 130.194 10.6674C132.689 10.6674 133.936 12.4913 133.936 16.1391C133.936 17.9556 133.595 19.3478 132.911 20.3159C132.232 21.284 131.257 21.7681 129.984 21.7681ZM130.089 12.4714C129.066 12.4714 128.555 13.7563 128.555 16.3263C128.555 18.7465 129.056 19.9566 130.059 19.9566C131.037 19.9566 131.526 18.7091 131.526 16.214C131.526 13.7189 131.047 12.4714 130.089 12.4714Z" fill="white"/>
</svg>
