<svg width="756" height="862" viewBox="0 0 756 862" fill="none" xmlns="http://www.w3.org/2000/svg">
<mask id="mask0" mask-type="alpha" maskUnits="userSpaceOnUse" x="222" y="135" width="552" height="458">
<path d="M695.176 441.163C758.065 415.73 776.901 349.403 769.828 319.178C733.02 161.904 548.994 209.254 414.077 151.772C292.329 99.9003 233.061 195.17 225.956 296.419C218.851 397.667 326.01 357.173 326.92 473.057C327.831 588.94 472.079 592.699 532.637 587.503C600.944 581.642 616.566 472.955 695.176 441.163Z" fill="#0072E2"/>
</mask>
<g mask="url(#mask0)">
<rect x="1150.53" y="491.78" width="4" height="899" transform="rotate(135.738 1150.53 491.78)" fill="#005BB6"/>
<rect x="1141.94" y="500.155" width="4" height="899" transform="rotate(135.738 1141.94 500.155)" fill="#005BB6"/>
<rect x="1133.34" y="508.53" width="4" height="899" transform="rotate(135.738 1133.34 508.53)" fill="#005BB6"/>
<rect x="1124.75" y="516.906" width="4" height="899" transform="rotate(135.738 1124.75 516.906)" fill="#005BB6"/>
<rect x="1116.15" y="525.281" width="4" height="899" transform="rotate(135.738 1116.15 525.281)" fill="#005BB6"/>
<rect x="1107.56" y="533.656" width="4" height="899" transform="rotate(135.738 1107.56 533.656)" fill="#005BB6"/>
<rect x="1098.97" y="542.031" width="4" height="899" transform="rotate(135.738 1098.97 542.031)" fill="#005BB6"/>
<rect x="1090.37" y="550.407" width="4" height="899" transform="rotate(135.738 1090.37 550.407)" fill="#005BB6"/>
<rect x="1081.78" y="558.782" width="4" height="899" transform="rotate(135.738 1081.78 558.782)" fill="#005BB6"/>
<rect x="1073.18" y="567.157" width="4" height="899" transform="rotate(135.738 1073.18 567.157)" fill="#005BB6"/>
<rect x="1064.59" y="575.532" width="4" height="899" transform="rotate(135.738 1064.59 575.532)" fill="#005BB6"/>
<rect x="1056" y="583.908" width="4" height="899" transform="rotate(135.738 1056 583.908)" fill="#005BB6"/>
<rect x="1047.4" y="592.283" width="4" height="899" transform="rotate(135.738 1047.4 592.283)" fill="#005BB6"/>
<rect x="1038.81" y="600.658" width="4" height="899" transform="rotate(135.738 1038.81 600.658)" fill="#005BB6"/>
<rect x="1030.21" y="609.033" width="4" height="899" transform="rotate(135.738 1030.21 609.033)" fill="#005BB6"/>
<rect x="1021.62" y="617.409" width="4" height="899" transform="rotate(135.738 1021.62 617.409)" fill="#005BB6"/>
<rect x="1013.03" y="625.784" width="4" height="899" transform="rotate(135.738 1013.03 625.784)" fill="#005BB6"/>
<rect x="1004.43" y="634.159" width="4" height="899" transform="rotate(135.738 1004.43 634.159)" fill="#005BB6"/>
<rect x="995.839" y="642.534" width="4" height="899" transform="rotate(135.738 995.839 642.534)" fill="#005BB6"/>
<rect x="987.245" y="650.91" width="4" height="899" transform="rotate(135.738 987.245 650.91)" fill="#005BB6"/>
<rect x="978.651" y="659.285" width="4" height="899" transform="rotate(135.738 978.651 659.285)" fill="#005BB6"/>
<rect x="970.057" y="667.66" width="4" height="899" transform="rotate(135.738 970.057 667.66)" fill="#005BB6"/>
<rect x="961.463" y="676.035" width="4" height="899" transform="rotate(135.738 961.463 676.035)" fill="#005BB6"/>
<rect x="952.869" y="684.411" width="4" height="899" transform="rotate(135.738 952.869 684.411)" fill="#005BB6"/>
<rect x="944.276" y="692.786" width="4" height="899" transform="rotate(135.738 944.276 692.786)" fill="#005BB6"/>
<rect x="935.682" y="701.161" width="4" height="899" transform="rotate(135.738 935.682 701.161)" fill="#005BB6"/>
<rect x="927.088" y="709.536" width="4" height="899" transform="rotate(135.738 927.088 709.536)" fill="#005BB6"/>
<rect x="918.494" y="717.912" width="4" height="899" transform="rotate(135.738 918.494 717.912)" fill="#005BB6"/>
<rect x="909.9" y="726.287" width="4" height="899" transform="rotate(135.738 909.9 726.287)" fill="#005BB6"/>
<rect x="901.306" y="734.662" width="4" height="899" transform="rotate(135.738 901.306 734.662)" fill="#005BB6"/>
<rect x="892.712" y="743.037" width="4" height="899" transform="rotate(135.738 892.712 743.037)" fill="#005BB6"/>
<rect x="884.118" y="751.413" width="4" height="899" transform="rotate(135.738 884.118 751.413)" fill="#005BB6"/>
<rect x="875.524" y="759.788" width="4" height="899" transform="rotate(135.738 875.524 759.788)" fill="#005BB6"/>
<rect x="866.93" y="768.163" width="4" height="899" transform="rotate(135.738 866.93 768.163)" fill="#005BB6"/>
<rect x="858.336" y="776.538" width="4" height="899" transform="rotate(135.738 858.336 776.538)" fill="#005BB6"/>
<rect x="849.743" y="784.914" width="4" height="899" transform="rotate(135.738 849.743 784.914)" fill="#005BB6"/>
<rect x="841.149" y="793.289" width="4" height="899" transform="rotate(135.738 841.149 793.289)" fill="#005BB6"/>
<rect x="832.555" y="801.664" width="4" height="899" transform="rotate(135.738 832.555 801.664)" fill="#005BB6"/>
<rect x="823.961" y="810.04" width="4" height="899" transform="rotate(135.738 823.961 810.04)" fill="#005BB6"/>
<rect x="815.367" y="818.415" width="4" height="899" transform="rotate(135.738 815.367 818.415)" fill="#005BB6"/>
<rect x="806.773" y="826.79" width="4" height="899" transform="rotate(135.738 806.773 826.79)" fill="#005BB6"/>
<rect x="798.179" y="835.165" width="4" height="899" transform="rotate(135.738 798.179 835.165)" fill="#005BB6"/>
<rect x="789.585" y="843.541" width="4" height="899" transform="rotate(135.738 789.585 843.541)" fill="#005BB6"/>
<rect x="780.991" y="851.916" width="4" height="899" transform="rotate(135.738 780.991 851.916)" fill="#005BB6"/>
<rect x="772.397" y="860.291" width="4" height="899" transform="rotate(135.738 772.397 860.291)" fill="#005BB6"/>
<rect x="763.804" y="868.666" width="4" height="899" transform="rotate(135.738 763.804 868.666)" fill="#005BB6"/>
<rect x="755.21" y="877.042" width="4" height="899" transform="rotate(135.738 755.21 877.042)" fill="#005BB6"/>
<rect x="746.616" y="885.417" width="4" height="899" transform="rotate(135.738 746.616 885.417)" fill="#005BB6"/>
<rect x="738.022" y="893.792" width="4" height="899" transform="rotate(135.738 738.022 893.792)" fill="#005BB6"/>
<rect x="729.428" y="902.167" width="4" height="899" transform="rotate(135.738 729.428 902.167)" fill="#005BB6"/>
<rect x="720.834" y="910.542" width="4" height="899" transform="rotate(135.738 720.834 910.542)" fill="#005BB6"/>
<rect x="712.24" y="918.917" width="4" height="899" transform="rotate(135.738 712.24 918.917)" fill="#005BB6"/>
<rect x="703.646" y="927.293" width="4" height="899" transform="rotate(135.738 703.646 927.293)" fill="#005BB6"/>
<rect x="695.052" y="935.668" width="4" height="899" transform="rotate(135.738 695.052 935.668)" fill="#005BB6"/>
<rect x="686.458" y="944.043" width="4" height="899" transform="rotate(135.738 686.458 944.043)" fill="#005BB6"/>
<rect x="677.864" y="952.418" width="4" height="899" transform="rotate(135.738 677.864 952.418)" fill="#005BB6"/>
<rect x="669.271" y="960.794" width="4" height="899" transform="rotate(135.738 669.271 960.794)" fill="#005BB6"/>
<rect x="660.677" y="969.169" width="4" height="899" transform="rotate(135.738 660.677 969.169)" fill="#005BB6"/>
<rect x="652.083" y="977.544" width="4" height="899" transform="rotate(135.738 652.083 977.544)" fill="#005BB6"/>
<rect x="643.489" y="985.919" width="4" height="899" transform="rotate(135.738 643.489 985.919)" fill="#005BB6"/>
<rect x="634.895" y="994.295" width="4" height="899" transform="rotate(135.738 634.895 994.295)" fill="#005BB6"/>
</g>
<path opacity="0.1" d="M317.5 187C544 -49 724.042 269 731.5 295.5C787.5 494.5 632 602.5 552.5 536C473 469.5 451.5 552 329.5 550C207.5 548 90.9997 423 317.5 187Z" fill="#49C8FF"/>
<path d="M508.006 192.101C501.757 183 489.376 180.45 480.041 186.468C478.775 187.287 477.636 188.223 476.615 189.249C460.404 178.666 438.83 177.904 421.504 189.07C404.178 200.237 395.962 220.202 398.908 239.335C397.553 239.843 396.226 240.488 394.96 241.306C385.619 247.325 382.834 259.653 388.537 269.102L375.342 277.605L511.14 488.286L656.997 394.274L521.2 183.598L508.006 192.101ZM450.212 233.613C444.495 237.297 436.872 235.65 433.183 229.933C429.498 224.216 431.145 216.593 436.863 212.904C442.58 209.215 450.203 210.866 453.892 216.584C457.581 222.306 455.934 229.928 450.212 233.613Z" fill="#07A6FF"/>
<path d="M446.694 225.854C443.207 228.772 437.795 229.252 432.492 228.668C432.088 227.887 431.805 227.078 431.593 226.254C435.391 226.532 439.16 226.325 441.913 224.937C448.82 221.459 445.131 215.577 440.854 211.234C438.798 209.145 436.619 207.404 435.41 206.467C428.944 201.4 421.453 197.917 413.656 195.32C409.313 193.88 404.88 192.718 400.485 191.697C388.246 188.888 376.045 186.587 363.674 190.022C351.425 193.442 337.661 198.444 327.399 206.067C316.43 214.213 309.151 229.016 318.039 241.505C326.378 253.24 342.433 254.007 354.23 247.434C364.86 241.505 372.685 231.67 383.95 226.697C388.825 224.546 393.935 223.29 399.102 222.852C398.824 224.377 398.626 225.901 398.509 227.44C386.877 229.049 377.15 235.519 367.203 243.599C357.467 251.49 346.494 257.904 333.488 255.758C312.609 252.309 303.542 229.421 315.442 212.363C322.063 202.882 332.594 197.555 343.068 193.311C354.648 188.624 366.695 183.617 379.437 184.351C391.309 185.024 404.8 187.499 417.072 192.29C427.25 196.261 436.61 201.8 443.503 209.234C444.021 209.775 444.543 210.378 445.07 211.036C448.58 215.366 451.804 221.6 446.694 225.854Z" fill="#0083CC"/>
<path d="M390.795 289.612L263.999 459.633L393.284 555.649L520.079 385.629C517.171 365.941 515.543 354.902 512.635 335.214L441.21 282.168C421.522 285.076 410.482 286.704 390.795 289.612Z" fill="#49C8FF"/>
<path d="M449.439 323.731C447.114 326.86 446.389 330.676 447.109 334.21C447.453 335.928 448.145 337.575 449.156 339.047C449.956 340.214 450.963 341.268 452.159 342.158C457.998 346.496 466.247 345.278 470.585 339.438C472.524 336.826 473.352 333.735 473.155 330.733C473.079 329.613 472.868 328.502 472.51 327.429C471.686 324.95 470.12 322.686 467.861 321.011C462.026 316.673 453.772 317.891 449.439 323.731Z" fill="#07A6FF"/>
<path d="M443.339 323.873C443.33 323.882 443.33 323.882 443.33 323.882C441.532 331.5 443.382 337.618 449.151 339.053C449.908 339.241 450.736 339.349 451.631 339.368C455.691 339.453 469.657 333.072 473.149 330.733C473.074 329.614 472.862 328.503 472.504 327.43C467.093 331.228 452.365 338.705 447.866 334.954C447.598 334.728 447.339 334.484 447.099 334.216C445.245 332.126 444.407 328.592 446.873 322.621C447.965 319.986 449.913 316.631 453.127 312.222C457.785 305.794 463.973 300.66 471.248 297.079C497.575 284.036 538.34 291.263 573.918 330.809C605.365 365.743 582.896 386.494 559.322 376.325C544.941 370.128 534.749 355.362 512.953 337.956L514.398 347.749C523.31 355.423 532.147 363.169 540.984 370.999C570.775 397.336 597.752 382.16 595.474 359.004C592.806 331.642 546.108 287.188 500.676 286.097C487.426 285.786 476.292 289.113 467.436 294.247C453.88 302.1 445.65 314.193 443.339 323.873Z" fill="#0083CC"/>
</svg>
