<svg width="166" height="80" viewBox="0 0 166 80" fill="none" xmlns="http://www.w3.org/2000/svg">
    <path d="M21.5381 43.4416C21.6116 43.3219 21.6049 43.1825 21.6317 43.0519C21.8267 42.1053 22.3863 41.4198 23.1622 40.8822C23.8604 40.3985 24.6413 40.1126 25.4559 39.9042C26.3201 39.6832 27.2004 39.5724 28.0892 39.51C29.0539 39.4424 30.0195 39.4037 31.0037 39.3974C31.0254 38.9857 31.0067 38.5854 30.9115 38.1897C30.6645 37.1618 29.9625 36.5903 28.9863 36.3337C27.7436 36.0068 26.5362 36.154 25.3772 36.7004C24.8295 36.9586 24.3298 37.2895 23.898 37.7177C23.8797 37.7357 23.8572 37.7494 23.8261 37.7733C23.3223 37.169 22.8202 36.5667 22.3133 35.9587C22.6407 35.6325 22.9987 35.3598 23.3822 35.1208C24.4356 34.4643 25.5826 34.0754 26.8143 33.9279C27.8757 33.8008 28.9311 33.817 29.9677 34.0949C31.402 34.4795 32.5172 35.2792 33.1709 36.6475C33.5551 37.4514 33.7214 38.3053 33.7222 39.1925C33.7241 41.2937 33.715 43.3949 33.7273 45.4962C33.7314 46.2078 33.752 46.9214 33.872 47.6268C33.8903 47.7346 33.9304 47.8397 33.9237 47.9662C33.0729 47.9662 32.2258 47.9662 31.3709 47.9662C31.2134 47.3562 31.1468 46.7343 31.1229 46.0941C31.0482 46.1166 31.027 46.1825 30.9913 46.2287C30.2149 47.2329 29.2231 47.9114 27.9731 48.1672C26.447 48.4794 24.9596 48.3544 23.5773 47.5985C22.4729 46.9947 21.7798 46.0633 21.5815 44.7969C21.5757 44.7608 21.588 44.7158 21.5386 44.698C21.5381 44.2797 21.5381 43.8607 21.5381 43.4416ZM31.0011 41.4871C30.4266 41.4799 29.8716 41.4835 29.3166 41.5093C28.4862 41.548 27.6588 41.6062 26.8458 41.7941C26.1897 41.9457 25.5788 42.185 25.0418 42.611C24.284 43.2121 24.2757 44.4312 24.707 45.0554C25.0149 45.5009 25.4433 45.7749 25.9563 45.9152C26.6423 46.1028 27.3397 46.1109 28.0378 45.991C29.0588 45.8156 29.8591 45.304 30.4099 44.415C30.9661 43.5172 31.0559 42.5278 31.0011 41.4871Z" fill="#404040"/>
    <path d="M143.125 40.102C143.086 40.1971 143.053 40.2948 143.008 40.3866C142.763 40.8862 142.364 41.1622 141.806 41.2026C141.735 41.2078 141.662 41.2076 141.59 41.2076C133.571 41.2078 125.551 41.2075 117.532 41.2092C117.225 41.2092 116.933 41.174 116.666 41.0095C116.112 40.6681 115.858 40.0329 116.033 39.4167C116.207 38.81 116.746 38.407 117.396 38.4068C121.756 38.406 126.116 38.4064 130.476 38.4064C134.188 38.4064 137.9 38.416 141.612 38.3987C142.401 38.395 142.971 38.8961 143.1 39.4832C143.102 39.4942 143.116 39.5027 143.125 39.5123C143.125 39.7092 143.125 39.9056 143.125 40.102Z" fill="#45AD3D"/>
    <path d="M84.1188 26.667C84.1167 26.7519 84.1129 26.8368 84.1129 26.9217C84.1126 33.9655 84.1126 41.0092 84.1126 48.0528C84.1126 48.1305 84.1126 48.2083 84.1126 48.2992C83.17 48.2992 82.2383 48.2992 81.3039 48.2992C81.2665 48.2549 81.2847 48.2005 81.2847 48.1508C81.2838 41.0352 81.2838 33.9195 81.2841 26.8038C81.2841 26.7581 81.2882 26.7124 81.2903 26.6667C82.2331 26.667 83.176 26.667 84.1188 26.667Z" fill="#404040"/>
    <path d="M123.443 26.6667C123.693 26.745 123.934 26.831 124.136 27.011C124.575 27.4025 124.73 28.0044 124.522 28.5644C124.309 29.1418 123.725 29.4654 123.219 29.465C118.219 29.4591 113.218 29.4579 108.217 29.4658C107.567 29.4667 106.927 28.9855 106.828 28.295C106.72 27.5436 107.146 26.8986 107.858 26.7074C107.896 26.6973 107.937 26.7011 107.965 26.667C113.125 26.6667 118.283 26.6667 123.443 26.6667Z" fill="#6556C3"/>
    <path d="M108.004 52.948C107.833 52.8889 107.655 52.8497 107.495 52.7535C106.971 52.4368 106.703 51.8271 106.837 51.2366C106.973 50.635 107.476 50.2021 108.098 50.1514C108.163 50.1462 108.228 50.1425 108.293 50.1425C113.237 50.142 118.179 50.1431 123.122 50.1406C123.71 50.1403 124.166 50.3661 124.448 50.8872C124.88 51.6824 124.447 52.6606 123.568 52.9037C123.525 52.9154 123.475 52.9051 123.443 52.9478C118.296 52.948 113.151 52.948 108.004 52.948Z" fill="#F64E0A"/>
    <path d="M67.1907 41.9641C67.2351 42.7648 67.4749 43.4613 67.9149 44.0829C68.6801 45.1644 69.7335 45.7812 71.0452 45.9157C72.8873 46.1048 74.3532 45.4219 75.443 43.9269C75.4581 43.9061 75.4773 43.8881 75.5051 43.8571C76.1687 44.3901 76.8298 44.9212 77.4967 45.4569C76.6497 46.5879 75.6133 47.4435 74.2803 47.892C72.2751 48.5666 70.2788 48.5403 68.3313 47.6861C66.2924 46.7919 65.0476 45.2003 64.5276 43.063C64.0954 41.2865 64.2181 39.5272 64.9872 37.8496C65.9191 35.8166 67.5194 34.5793 69.6738 34.057C71.0231 33.7299 72.3761 33.7763 73.7033 34.1894C75.6192 34.7859 76.8691 36.0811 77.5536 37.9447C77.8743 38.8178 78.0169 39.7253 78.0364 40.6535C78.0434 40.9866 78.0672 41.3198 78.0359 41.6529C78.0269 41.7494 78.0406 41.849 77.9952 41.9641C74.4043 41.9641 70.8078 41.9641 67.1907 41.9641ZM75.1563 39.8163C75.1299 39.4599 75.0868 39.1186 75.0006 38.7831C74.7759 37.9081 74.3273 37.1868 73.5574 36.6886C72.9888 36.3205 72.3581 36.1479 71.6863 36.1197C70.2778 36.0605 69.0767 36.5138 68.1459 37.5942C67.5998 38.2286 67.2766 38.9669 67.1944 39.8163C69.8496 39.8163 72.4969 39.8163 75.1563 39.8163Z" fill="#404040"/>
    <path d="M87.3714 41.17C87.3576 39.4383 87.814 37.9652 88.7923 36.6669C89.8316 35.288 91.2264 34.4437 92.895 34.066C94.7094 33.6553 96.4879 33.7977 98.1752 34.6115C100.288 35.6305 101.591 37.3044 102.034 39.6113C102.337 41.1914 102.192 42.7409 101.512 44.2123C100.646 46.0825 99.2141 47.3425 97.2546 47.9552C95.015 48.6556 92.83 48.4867 90.7834 47.2949C89.0264 46.2717 87.9865 44.7045 87.5356 42.736C87.4096 42.1855 87.3572 41.6258 87.3714 41.17ZM99.2226 41.1028C99.2292 40.8006 99.2064 40.5007 99.1619 40.2027C99.126 39.9634 99.0741 39.7269 99.0053 39.4949C98.6172 38.1857 97.8501 37.1898 96.5874 36.6215C95.8373 36.284 95.0437 36.1985 94.2285 36.2837C92.6753 36.4463 91.525 37.2194 90.8303 38.6102C90.0794 40.1131 90.0541 41.6683 90.6693 43.2246C91.1093 44.3375 91.8732 45.1598 92.9889 45.6252C93.7162 45.9285 94.4791 45.9969 95.2594 45.9223C96.432 45.81 97.4005 45.3065 98.1344 44.3869C98.8976 43.43 99.2157 42.3152 99.2226 41.1028Z" fill="#404040"/>
    <path d="M47.4475 44.4307C48.0796 45.0028 48.7082 45.5715 49.3482 46.1504C49.0882 46.4659 48.8075 46.7365 48.4984 46.9763C47.5504 47.7112 46.4722 48.1282 45.2862 48.2767C43.9955 48.4383 42.723 48.3557 41.4946 47.9173C39.0083 47.0296 37.4685 45.2887 36.9408 42.6985C36.6162 41.1053 36.738 39.5316 37.3888 38.0277C38.1951 36.1639 39.5855 34.9109 41.5062 34.2764C43.6228 33.5773 45.6921 33.721 47.6783 34.7609C48.3238 35.099 48.8673 35.5667 49.3195 36.1736C48.6399 36.7239 47.9613 37.2734 47.2916 37.8157C47.2454 37.8227 47.2342 37.7967 47.2193 37.7761C46.5845 36.8948 45.7013 36.4279 44.6457 36.2935C42.4109 36.0089 40.6337 37.3848 40.0284 39.3532C39.5817 40.8059 39.6519 42.238 40.3397 43.6044C40.9912 44.899 42.0467 45.6897 43.4884 45.8998C44.7398 46.0822 45.8941 45.8198 46.89 45.0003C46.9908 44.9174 47.0829 44.8236 47.1743 44.73C47.2653 44.6368 47.3504 44.5378 47.4475 44.4307Z" fill="#404040"/>
    <path d="M63.0786 36.1741C62.3868 36.7334 61.7115 37.2796 61.0263 37.8337C60.8428 37.5831 60.6568 37.3484 60.4204 37.1593C59.5692 36.478 58.6023 36.1953 57.5146 36.2678C55.7869 36.3826 54.2428 37.6142 53.7206 39.5688C53.3623 40.9105 53.4401 42.2329 54.0406 43.4925C54.6874 44.8485 55.7597 45.6849 57.2587 45.9015C58.4732 46.0769 59.601 45.8306 60.5821 45.0534C60.6945 44.9644 60.7984 44.8633 60.9 44.7619C61.0017 44.6604 61.0957 44.5512 61.2056 44.4316C61.8347 44.9999 62.4641 45.5685 63.1074 46.1498C62.8802 46.4261 62.6309 46.6723 62.3585 46.8944C61.499 47.5958 60.5149 48.0315 59.4263 48.219C57.9486 48.4736 56.4879 48.3926 55.0805 47.8559C52.6247 46.9195 51.1458 45.1342 50.6698 42.5583C50.3763 40.9701 50.5196 39.4031 51.1966 37.915C52.0188 36.1076 53.3919 34.8955 55.2687 34.2746C57.3157 33.5975 59.3255 33.7173 61.2693 34.6714C61.9838 35.0222 62.5877 35.5154 63.0786 36.1741Z" fill="#404040"/>
    <path d="M122.757 44.2721C126.083 44.2721 129.41 44.2719 132.736 44.2722C133.383 44.2722 133.921 44.6695 134.103 45.2785C134.281 45.8778 134.051 46.5016 133.517 46.8551C133.27 47.0194 132.992 47.0812 132.698 47.0812C131.919 47.0811 131.14 47.0812 130.36 47.0812C124.508 47.0812 118.654 47.0814 112.801 47.0811C112.099 47.0811 111.541 46.6618 111.38 46.0157C111.158 45.1267 111.823 44.2727 112.74 44.2726C116.079 44.2716 119.418 44.2721 122.757 44.2721Z" fill="#FEA217"/>
    <path d="M122.744 35.3433C119.432 35.3433 116.118 35.3435 112.805 35.3432C112.234 35.3432 111.787 35.1046 111.509 34.6058C110.996 33.6884 111.654 32.5647 112.717 32.5255C112.75 32.5244 112.782 32.5252 112.815 32.5252C119.435 32.5252 126.054 32.525 132.674 32.5254C133.241 32.5254 133.692 32.7465 133.978 33.2476C134.503 34.1688 133.844 35.3172 132.781 35.343C132.729 35.3444 132.677 35.3432 132.624 35.3432C129.331 35.3433 126.038 35.3433 122.744 35.3433Z" fill="#2E96CB"/>
    </svg>
