<svg width="166" height="80" viewBox="0 0 166 80" fill="none" xmlns="http://www.w3.org/2000/svg">
    <path d="M111.655 40.393V42.3469C111.655 42.4445 111.606 42.5422 111.606 42.6399C111.509 43.4702 111.459 44.3495 111.313 45.1799C110.874 47.9153 109.848 50.4553 108.383 52.8487C106.135 56.4143 103.156 59.1497 99.346 61.0058C97.1479 62.0805 94.8522 62.7643 92.4099 63.0574C91.8727 63.1062 91.3353 63.1551 90.798 63.2528H69.941C69.8432 63.2528 69.7456 63.204 69.6478 63.204C67.5475 63.0574 65.5448 62.5689 63.591 61.7385C59.3903 59.8824 56.2641 56.9029 54.2126 52.8487C53.2845 51.0413 52.7472 49.0876 52.503 47.0849C52.4542 46.5964 52.4053 46.108 52.3076 45.6195C52.3076 44.9845 52.3076 44.3495 52.3076 43.7145C52.3076 43.6168 52.3564 43.5192 52.3564 43.4214C52.4542 41.6141 52.845 39.8069 53.4799 38.1461C55.2384 33.5547 58.3156 30.1843 62.7117 27.9862C65.0075 26.8139 67.4498 26.2278 69.9898 26.0812C71.2109 26.0324 72.4809 26.0812 73.702 26.2278C73.7997 26.2278 73.9951 26.179 74.0439 26.13C75.8024 24.3228 77.8539 22.8574 80.1009 21.7339C82.2989 20.6594 84.6434 19.9755 87.0858 19.6824C87.6719 19.6336 88.258 19.5847 88.7953 19.4871H90.5538C90.6515 19.4871 90.798 19.5359 90.8957 19.5359C91.7749 19.6336 92.6542 19.6824 93.5334 19.829C96.2688 20.2686 98.8087 21.2455 101.153 22.7109C104.768 24.9577 107.504 27.9373 109.359 31.7474C110.434 33.9454 111.118 36.2899 111.411 38.6834C111.558 39.2695 111.606 39.8557 111.655 40.393ZM78.4889 27.7419C78.5378 27.7909 78.5378 27.7909 78.5378 27.8397C79.7589 28.4258 80.9312 29.1585 82.0058 29.94C82.0546 29.9889 82.25 29.9889 82.3477 29.94C85.3761 28.0351 88.6488 27.3512 92.1657 27.9862C95.6338 28.6212 98.418 30.3308 100.567 33.0661C103.009 36.1923 103.937 39.7092 103.253 43.6168C102.814 46.2544 101.739 48.5991 99.981 50.5529C96.7083 54.1675 92.6542 55.6328 87.8184 54.9978C84.8388 54.656 82.2989 53.3371 80.1497 51.2367C77.4143 48.5014 74.6789 45.766 71.9924 43.0307C71.6505 42.6887 71.2109 42.3957 70.7224 42.298C69.7944 42.2003 68.964 42.6399 68.5733 43.4702C68.2313 44.203 68.2801 45.0333 69.0128 45.766C72.0413 48.7456 75.0697 51.774 78.0981 54.7536C78.6354 55.2421 79.1728 55.7305 79.7589 56.1701C81.957 57.782 84.448 58.6613 87.1834 59.0032C89.2838 59.2963 91.433 59.2475 93.4846 58.759C97.4899 57.8798 100.763 55.8282 103.352 52.7021C105.5 50.1133 106.819 47.1337 107.259 43.7634C107.504 41.8583 107.454 39.9046 107.113 38.0484C106.526 34.9712 105.207 32.187 103.108 29.8423C99.1018 25.2997 94.0707 23.297 88.1115 23.7855C85.8157 23.9809 83.6177 24.6159 81.5662 25.6904C80.4916 26.2766 79.417 26.9605 78.4889 27.7419ZM77.0235 59.1009C76.9259 59.0032 76.8281 58.9543 76.7793 58.8567C75.5582 57.6844 74.2881 56.5121 73.067 55.3398C72.8228 55.0956 72.6274 54.9978 72.2855 54.9978C71.0643 55.0468 69.7944 55.0467 68.5733 54.7536C62.4675 53.3859 58.9018 46.7918 61.1486 40.9792C62.9071 36.3877 67.7917 33.6035 72.6274 34.4338C74.7766 34.8246 76.6816 35.7527 78.2446 37.3646C80.1497 39.3184 82.1035 41.2234 84.0084 43.1772C84.448 43.6168 84.9365 43.8122 85.5715 43.7145C86.3531 43.6168 86.988 43.226 87.2812 42.4445C87.5742 41.7119 87.4276 40.9792 86.8415 40.393C84.8388 38.3415 82.8361 36.2411 80.7358 34.2873C76.6816 30.4773 71.8459 29.3539 66.5706 30.9658C59.4879 33.1639 55.2872 40.5396 56.8991 47.8175C58.3644 54.4606 64.1772 59.1009 70.9667 59.1009C72.8716 59.1009 74.7767 59.1009 76.6328 59.1009C76.7793 59.1009 76.877 59.1009 77.0235 59.1009Z" fill="#DA1F26"/>
    </svg>
