<svg width="166" height="80" viewBox="0 0 166 80" fill="none" xmlns="http://www.w3.org/2000/svg">
    <path d="M68.6238 37.9804C68.6238 38.7377 68.7058 39.3518 68.8489 39.802C69.0127 40.2523 69.2174 40.7435 69.5039 41.2757C69.6063 41.4394 69.6472 41.6031 69.6472 41.7463C69.6472 41.9511 69.5244 42.1557 69.2583 42.3604L67.9689 43.22C67.7847 43.3428 67.6005 43.4042 67.4367 43.4042C67.2321 43.4042 67.0274 43.3018 66.8228 43.1176C66.5362 42.8107 66.2906 42.4832 66.086 42.1557C65.8812 41.8078 65.6766 41.4189 65.4515 40.9482C63.855 42.8312 61.8492 43.7726 59.4342 43.7726C57.7149 43.7726 56.3436 43.2814 55.3407 42.299C54.3379 41.3166 53.8262 40.0067 53.8262 38.3693C53.8262 36.6296 54.4402 35.2174 55.6886 34.1531C56.9371 33.0888 58.595 32.5567 60.7031 32.5567C61.399 32.5567 62.1153 32.618 62.8726 32.7204C63.6299 32.8228 64.4076 32.9865 65.2263 33.1707V31.6766C65.2263 30.1211 64.8989 29.0364 64.2643 28.4018C63.6095 27.7674 62.5042 27.4604 60.9282 27.4604C60.2119 27.4604 59.4751 27.5422 58.7178 27.7265C57.9605 27.9107 57.2237 28.1358 56.5074 28.4224C56.1799 28.5656 55.9343 28.6475 55.791 28.6884C55.6477 28.7293 55.5455 28.7498 55.4635 28.7498C55.177 28.7498 55.0338 28.5451 55.0338 28.1154V27.1125C55.0338 26.785 55.0747 26.5394 55.177 26.3961C55.2793 26.2528 55.4635 26.1095 55.7501 25.9664C56.4665 25.5979 57.3261 25.2909 58.3289 25.0453C59.3318 24.7792 60.3961 24.6564 61.5218 24.6564C63.9573 24.6564 65.738 25.209 66.8841 26.3142C68.0099 27.4195 68.5829 29.0977 68.5829 31.3491V37.9804H68.6238ZM60.3143 41.0915C60.9897 41.0915 61.6856 40.9686 62.4224 40.7231C63.1592 40.4774 63.8141 40.0272 64.3667 39.4131C64.6942 39.0243 64.9398 38.5945 65.0626 38.1033C65.1853 37.612 65.2673 37.0185 65.2673 36.3227V35.463C64.6737 35.3197 64.0392 35.1969 63.3843 35.1151C62.7293 35.0332 62.0949 34.9923 61.4604 34.9923C60.0891 34.9923 59.0862 35.2583 58.4108 35.811C57.7354 36.3636 57.4079 37.1413 57.4079 38.1646C57.4079 39.1266 57.6536 39.843 58.1651 40.3341C58.6564 40.8458 59.3727 41.0915 60.3143 41.0915ZM76.7493 43.3018C76.3808 43.3018 76.1352 43.2405 75.9715 43.0972C75.8078 42.9743 75.6645 42.6879 75.5417 42.299L70.7319 26.4779C70.6091 26.0686 70.5477 25.8026 70.5477 25.6593C70.5477 25.3318 70.7115 25.1476 71.039 25.1476H73.0447C73.4336 25.1476 73.6997 25.209 73.8429 25.3523C74.0067 25.4751 74.1295 25.7616 74.2523 26.1506L77.6907 39.6997L80.8836 26.1506C80.986 25.7411 81.1087 25.4751 81.2724 25.3523C81.4362 25.2295 81.7228 25.1476 82.0911 25.1476H83.7285C84.1173 25.1476 84.3834 25.209 84.5472 25.3523C84.7109 25.4751 84.8542 25.7616 84.936 26.1506L88.1699 39.8634L91.7107 26.1506C91.8335 25.7411 91.9767 25.4751 92.12 25.3523C92.2837 25.2295 92.5498 25.1476 92.9182 25.1476H94.8217C95.1491 25.1476 95.3334 25.3114 95.3334 25.6593C95.3334 25.7616 95.3128 25.864 95.2923 25.9868C95.2719 26.1095 95.231 26.2733 95.1491 26.4985L90.2165 42.3195C90.0938 42.7288 89.9505 42.9949 89.7868 43.1176C89.623 43.2405 89.3569 43.3223 89.009 43.3223H87.2488C86.8599 43.3223 86.5939 43.2609 86.4302 43.1176C86.2664 42.9743 86.1232 42.7083 86.0412 42.299L82.8689 29.0977L79.7169 42.2786C79.6147 42.6879 79.4918 42.9539 79.3281 43.0972C79.1643 43.2405 78.8779 43.3018 78.5094 43.3018H76.7493ZM103.049 43.8544C101.985 43.8544 100.921 43.7317 99.8974 43.486C98.8741 43.2405 98.0759 42.9745 97.5437 42.6674C97.2163 42.4832 96.9911 42.2786 96.9092 42.0943C96.8274 41.9101 96.7865 41.7054 96.7865 41.5212V40.4774C96.7865 40.0476 96.9502 39.843 97.2572 39.843C97.38 39.843 97.5028 39.8634 97.6257 39.9043C97.7484 39.9453 97.9326 40.0272 98.1372 40.109C98.8331 40.416 99.5905 40.6616 100.389 40.8253C101.207 40.9891 102.006 41.071 102.824 41.071C104.114 41.071 105.117 40.8458 105.812 40.3956C106.509 39.9453 106.877 39.2903 106.877 38.4512C106.877 37.8781 106.692 37.4074 106.324 37.0184C105.956 36.6296 105.26 36.2817 104.257 35.9542L101.289 35.0332C99.7951 34.5625 98.6899 33.8666 98.0145 32.9455C97.3391 32.045 96.9911 31.0421 96.9911 29.9778C96.9911 29.1182 97.1753 28.3609 97.5437 27.706C97.9121 27.0511 98.4034 26.4779 99.0173 26.0277C99.6314 25.5569 100.327 25.209 101.146 24.9634C101.965 24.7178 102.824 24.6155 103.725 24.6155C104.175 24.6155 104.646 24.636 105.096 24.6973C105.567 24.7588 105.997 24.8406 106.426 24.9225C106.836 25.0248 107.224 25.1272 107.593 25.2499C107.962 25.3727 108.248 25.4956 108.453 25.6184C108.739 25.7821 108.943 25.9458 109.066 26.13C109.19 26.2937 109.251 26.5189 109.251 26.8054V27.7674C109.251 28.1972 109.087 28.4224 108.78 28.4224C108.616 28.4224 108.351 28.3405 108.003 28.1767C106.836 27.6446 105.526 27.3786 104.073 27.3786C102.906 27.3786 101.985 27.5628 101.351 27.9516C100.716 28.3405 100.389 28.934 100.389 29.7731C100.389 30.3462 100.593 30.8374 101.003 31.2263C101.412 31.6152 102.169 32.0041 103.254 32.352L106.161 33.273C107.634 33.7438 108.698 34.3988 109.333 35.2378C109.967 36.077 110.275 37.039 110.275 38.1033C110.275 38.9834 110.09 39.7815 109.742 40.4774C109.374 41.1733 108.883 41.7873 108.248 42.2786C107.613 42.7902 106.856 43.1586 105.976 43.4247C105.055 43.7112 104.093 43.8544 103.049 43.8544Z" fill="#252F3E"/>
    <path fill-rule="evenodd" clip-rule="evenodd" d="M106.918 53.8023C100.184 58.7757 90.4013 61.416 81.9893 61.416C70.2003 61.416 59.5779 57.0565 51.5548 49.8112C50.9204 49.2381 51.4934 48.4603 52.2507 48.9106C60.9288 53.9456 71.633 56.9951 82.7056 56.9951C90.1762 56.9951 98.3835 55.4396 105.936 52.2468C107.062 51.7351 108.024 52.9836 106.918 53.8023Z" fill="#FF9900"/>
    <path fill-rule="evenodd" clip-rule="evenodd" d="M109.722 50.6093C108.863 49.504 104.032 50.0772 101.842 50.3432C101.187 50.4251 101.085 49.852 101.679 49.4222C105.526 46.7206 111.851 47.4983 112.588 48.3988C113.324 49.3198 112.383 55.6441 108.781 58.6733C108.228 59.144 107.696 58.8984 107.942 58.2845C108.76 56.2582 110.582 51.694 109.722 50.6093Z" fill="#FF9900"/>
    </svg>
