<svg width="166" height="80" viewBox="0 0 166 80" fill="none" xmlns="http://www.w3.org/2000/svg">
    <path d="M69.3437 54.1308L55.496 29.9365L50.0933 40.8168L59.6048 51.8399L41.9521 53.8444L69.3437 54.1308Z" fill="#035BDA"/>
    <path d="M42.0272 36.02L32.8203 51.5535L40.6576 50.7658L54.4289 25.6411L42.0272 36.02Z" fill="#035BDA"/>
    <path d="M69.2939 54.3484L55.376 30.0168L69.2939 54.3484Z" fill="#2074BC"/>
    <path d="M79.7075 36.741L73.748 51.3622H75.7715L77.3262 47.2658H83.915L85.5684 51.3622H87.5795L81.5953 36.741H79.7075ZM80.596 38.5178H80.6453C80.7193 38.962 80.8057 39.2951 80.8797 39.4926L83.3227 45.7234H77.9308L80.3492 39.4926C80.4478 39.2581 80.5219 38.9373 80.596 38.5178ZM126.717 40.677C125.262 40.677 124.04 41.1952 123.066 42.2193C122.09 43.2434 121.597 44.5636 121.597 46.1924C121.597 47.9074 122.041 49.2524 122.942 50.2024C123.842 51.1525 125.076 51.6213 126.643 51.6213C128.247 51.6213 129.543 51.2881 130.518 50.6219V49.0549C129.469 49.8322 128.321 50.2147 127.075 50.2147C125.965 50.2147 125.088 49.8939 124.447 49.2647C123.805 48.6353 123.473 47.7347 123.447 46.5748H131.283V45.6865C131.283 44.1194 130.888 42.8856 130.086 42.0096C129.296 41.1212 128.173 40.677 126.717 40.677ZM118.771 40.7387C118.129 40.7387 117.55 40.9485 117.02 41.3556C116.502 41.7628 116.107 42.3304 115.86 43.0707H115.81V40.9237H114.034V51.3622H115.81V46.0319C115.81 44.8721 116.069 43.9467 116.575 43.2805C117.093 42.6018 117.723 42.2687 118.487 42.2687C119.068 42.2687 119.524 42.3797 119.833 42.6018V40.8621C119.586 40.788 119.228 40.7387 118.771 40.7387ZM89.3933 40.9237V42.355H95.3529L88.7764 50.8564V51.3745H97.8946V49.9432H91.3922L97.9686 41.405V40.9237H89.3933ZM100.634 40.9237V47.1671C100.634 50.1284 101.954 51.609 104.607 51.609C106.149 51.609 107.296 50.9797 108.037 49.7089H108.086V51.3622H109.863V40.9237H108.086V46.945C108.086 47.9197 107.802 48.7094 107.235 49.314C106.68 49.9062 105.964 50.2147 105.101 50.2147C103.311 50.2147 102.411 49.1166 102.411 46.9079V40.9361L100.634 40.9237ZM126.68 42.0836C127.544 42.0836 128.223 42.355 128.704 42.8856C129.197 43.4286 129.444 44.1689 129.456 45.1435H123.46C123.596 44.2305 123.954 43.4902 124.546 42.9349C125.139 42.3674 125.841 42.0836 126.68 42.0836Z" fill="#035BDA"/>
    </svg>
