<svg width="68" height="47" viewBox="0 0 68 47" fill="none" xmlns="http://www.w3.org/2000/svg">
<path fill-rule="evenodd" clip-rule="evenodd" d="M18.7255 5.9535C22.9733 2.29057 28.391 0.267589 34 0.25C45.4325 0.25 54.9228 8.75 55.9555 19.7108C62.7215 20.667 68 26.3323 68 33.2853C68 40.9183 61.6335 47 53.9198 47H16.0693C7.259 47 0 40.0555 0 31.3515C0 23.8588 5.3805 17.6538 12.5035 16.0813C13.1112 12.4135 15.47 8.7585 18.7255 5.9535ZM21.5007 9.17075C18.2835 11.946 16.6005 15.2908 16.6005 17.9088V19.8128L14.7092 20.021C8.772 20.6713 4.25 25.546 4.25 31.3515C4.25 37.5863 9.4775 42.75 16.0693 42.75H53.9198C59.415 42.75 63.75 38.449 63.75 33.2853C63.75 28.1173 59.415 23.8163 53.9198 23.8163H51.7948V21.6913C51.799 12.2563 43.894 4.5 34 4.5C29.4095 4.51834 24.9766 6.17634 21.5007 9.175V9.17075Z" fill="#89899B"/>
</svg>
