<svg width="59" height="54" viewBox="0 0 59 54" fill="none" xmlns="http://www.w3.org/2000/svg">
<path d="M15.5814 26.5811C11.0329 26.5811 7.33203 22.8802 7.33203 18.3317C7.33203 13.7833 11.0329 10.0825 15.5814 10.0825C20.1297 10.0825 23.8306 13.7833 23.8306 18.3317C23.8306 22.8802 20.1297 26.5811 15.5814 26.5811ZM15.5814 10.999C11.5382 10.999 8.24867 14.2886 8.24867 18.3317C8.24867 22.3749 11.5382 25.6644 15.5814 25.6644C19.6246 25.6644 22.914 22.3749 22.914 18.3317C22.914 14.2886 19.6246 10.999 15.5814 10.999Z" fill="#8B8B8B"/>
<path d="M15.5814 28.414C11.0329 28.414 7.33203 24.7131 7.33203 20.1646C7.33203 19.9114 7.53702 19.7064 7.79035 19.7064C8.04369 19.7064 8.24867 19.9114 8.24867 20.1646C8.24867 24.2078 11.5382 27.4974 15.5814 27.4974C19.6246 27.4974 22.914 24.2078 22.914 20.1646C22.914 19.9114 23.119 19.7064 23.3724 19.7064C23.6256 19.7064 23.8306 19.9114 23.8306 20.1646C23.8306 24.7131 20.1297 28.414 15.5814 28.414Z" fill="#8B8B8B"/>
<path d="M7.79035 20.623C7.53702 20.623 7.33203 20.418 7.33203 20.1647V18.3315C7.33203 18.0783 7.53702 17.8733 7.79035 17.8733C8.04369 17.8733 8.24867 18.0783 8.24867 18.3315V20.1647C8.24867 20.418 8.04369 20.623 7.79035 20.623Z" fill="#8B8B8B"/>
<path d="M23.3724 20.623C23.119 20.623 22.9141 20.418 22.9141 20.1647V18.3315C22.9141 18.0783 23.119 17.8733 23.3724 17.8733C23.6256 17.8733 23.8306 18.0783 23.8306 18.3315V20.1647C23.8306 20.418 23.6256 20.623 23.3724 20.623Z" fill="#8B8B8B"/>
<path d="M15.5843 21.998C13.5627 21.998 11.918 20.3533 11.918 18.3316C11.918 16.31 13.5627 14.6653 15.5843 14.6653C17.606 14.6653 19.2507 16.31 19.2507 18.3316C19.2507 20.3533 17.6058 21.998 15.5843 21.998ZM15.5843 15.5819C14.0681 15.5819 12.8345 16.8154 12.8345 18.3316C12.8345 19.848 14.0681 21.0814 15.5843 21.0814C17.1006 21.0814 18.334 19.848 18.334 18.3316C18.334 16.8154 17.1006 15.5819 15.5843 15.5819Z" fill="#8B8B8B"/>
<path d="M18.6566 19.7067C18.4587 19.7067 18.2767 19.5782 18.2171 19.3791C17.8735 18.2225 16.7894 17.4152 15.5811 17.4152C14.3727 17.4152 13.2887 18.2225 12.9449 19.3791C12.8724 19.6217 12.6204 19.7595 12.3748 19.6879C12.1322 19.6153 11.9939 19.3603 12.066 19.1176C12.5247 17.5758 13.9698 16.4985 15.5811 16.4985C17.1923 16.4985 18.6374 17.5758 19.0962 19.1176C19.1682 19.3602 19.0299 19.6153 18.7874 19.6879C18.7434 19.7004 18.6996 19.7067 18.6566 19.7067Z" fill="#8B8B8B"/>
<path d="M13.284 16.4939C13.1668 16.4939 13.0495 16.4491 12.96 16.3597L9.74751 13.1472C9.56854 12.9682 9.56854 12.6781 9.74751 12.4992C9.92649 12.3202 10.2166 12.3202 10.3956 12.4992L13.6081 15.7117C13.787 15.8907 13.787 16.1808 13.6081 16.3597C13.5186 16.4491 13.4012 16.4939 13.284 16.4939Z" fill="#8B8B8B"/>
<path d="M15.5833 26.5809C15.33 26.5809 15.125 26.3759 15.125 26.1226V21.5397C15.125 21.2864 15.33 21.0814 15.5833 21.0814C15.8367 21.0814 16.0416 21.2864 16.0416 21.5397V26.1226C16.0416 26.3759 15.8367 26.5809 15.5833 26.5809Z" fill="#8B8B8B"/>
<path d="M30.2485 2.74969H28.4154C28.162 2.74969 27.957 2.54471 27.957 2.29137V0.458199C27.957 0.204862 28.162 -0.00012207 28.4154 -0.00012207H30.2485C30.5019 -0.00012207 30.7068 0.204862 30.7068 0.458199V2.29137C30.7068 2.54471 30.5019 2.74969 30.2485 2.74969ZM28.8737 1.83305H29.7902V0.916521H28.8737V1.83305Z" fill="#8B8B8B"/>
<path d="M56.3699 41.2464H2.29133C2.03799 41.2464 1.83301 41.0414 1.83301 40.7881V5.95783C1.83301 5.7045 2.03799 5.49951 2.29133 5.49951H56.37C56.6234 5.49951 56.8284 5.7045 56.8284 5.95783V40.7881C56.8282 41.0414 56.6233 41.2464 56.3699 41.2464ZM2.74965 40.3298H55.9117V6.41615H2.74965V40.3298Z" fill="#8B8B8B"/>
<path d="M58.2033 6.41611H0.458321C0.204984 6.41611 0 6.21113 0 5.95779V2.29145C0 2.03811 0.204984 1.83313 0.458321 1.83313H58.2034C58.4566 1.83313 58.6616 2.03811 58.6616 2.29145V5.95779C58.6615 6.21113 58.4565 6.41611 58.2033 6.41611ZM0.916643 5.49947H57.745V2.74977H0.916643V5.49947Z" fill="#8B8B8B"/>
<path d="M41.7054 53.162C41.6356 53.162 41.5657 53.1458 41.5004 53.1137L29.1264 46.9267C28.9 46.8139 28.8084 46.5381 28.9216 46.3117C29.0348 46.0853 29.3104 45.9949 29.5364 46.1067L41.9104 52.2937C42.1369 52.4065 42.2281 52.6823 42.1154 52.9087C42.0348 53.069 41.8737 53.162 41.7054 53.162Z" fill="#8B8B8B"/>
<path d="M45.3708 53.1618C45.301 53.1618 45.2311 53.1457 45.1658 53.1135L29.1255 45.0933C28.899 44.9806 28.8074 44.7048 28.9206 44.4784C29.0338 44.252 29.3095 44.1606 29.5354 44.2734L45.5757 52.2935C45.8023 52.4063 45.8935 52.6821 45.7807 52.9085C45.7002 53.0688 45.5391 53.1618 45.3708 53.1618Z" fill="#8B8B8B"/>
<path d="M45.3727 53.162H41.7064C41.453 53.162 41.248 52.957 41.248 52.7037C41.248 52.4503 41.453 52.2454 41.7064 52.2454H45.3727C45.626 52.2454 45.831 52.4503 45.831 52.7037C45.831 52.957 45.626 53.162 45.3727 53.162Z" fill="#8B8B8B"/>
<path d="M16.955 53.162C16.7867 53.162 16.6252 53.069 16.5446 52.9087C16.4314 52.6822 16.5231 52.4065 16.7496 52.2937L29.1235 46.1067C29.3503 45.9949 29.6247 46.0852 29.7384 46.3117C29.8516 46.5383 29.76 46.8139 29.5334 46.9267L17.1596 53.1137C17.0938 53.146 17.0239 53.162 16.955 53.162Z" fill="#8B8B8B"/>
<path d="M13.288 53.1619C13.1197 53.1619 12.9582 53.0688 12.8776 52.9085C12.7644 52.682 12.8561 52.4063 13.0826 52.2936L29.1228 44.2734C29.3497 44.1607 29.6241 44.2519 29.7378 44.4784C29.851 44.7049 29.7593 44.9806 29.5328 45.0933L13.4926 53.1135C13.4268 53.1458 13.3569 53.1619 13.288 53.1619Z" fill="#8B8B8B"/>
<path d="M16.9538 53.162H13.2874C13.0341 53.162 12.8291 52.957 12.8291 52.7037C12.8291 52.4503 13.0341 52.2454 13.2874 52.2454H16.9538C17.2071 52.2454 17.4121 52.4503 17.4121 52.7037C17.4121 52.957 17.2071 53.162 16.9538 53.162Z" fill="#8B8B8B"/>
<path d="M28.4154 45.6002C28.162 45.6002 27.957 45.3952 27.957 45.1419V40.788C27.957 40.5347 28.162 40.3297 28.4154 40.3297C28.6687 40.3297 28.8737 40.5347 28.8737 40.788V45.1419C28.8737 45.3952 28.6687 45.6002 28.4154 45.6002Z" fill="#8B8B8B"/>
<path d="M30.2484 45.6002C29.995 45.6002 29.79 45.3952 29.79 45.1419V40.788C29.79 40.5347 29.995 40.3297 30.2484 40.3297C30.5017 40.3297 30.7067 40.5347 30.7067 40.788V45.1419C30.7067 45.3952 30.5017 45.6002 30.2484 45.6002Z" fill="#8B8B8B"/>
<path d="M30.2484 53.162C29.995 53.162 29.79 52.9571 29.79 52.7037V46.975C29.79 46.7217 29.995 46.5167 30.2484 46.5167C30.5017 46.5167 30.7067 46.7217 30.7067 46.975V52.7037C30.7067 52.9571 30.5017 53.162 30.2484 53.162Z" fill="#8B8B8B"/>
<path d="M30.2485 53.162H28.4154C28.162 53.162 27.957 52.957 27.957 52.7037C27.957 52.4503 28.162 52.2454 28.4154 52.2454H30.2485C30.5019 52.2454 30.7068 52.4503 30.7068 52.7037C30.7068 52.957 30.5019 53.162 30.2485 53.162Z" fill="#8B8B8B"/>
<path d="M28.4154 53.162C28.162 53.162 27.957 52.9571 27.957 52.7037V46.975C27.957 46.7217 28.162 46.5167 28.4154 46.5167C28.6687 46.5167 28.8737 46.7217 28.8737 46.975V52.7037C28.8737 52.9571 28.6687 53.162 28.4154 53.162Z" fill="#8B8B8B"/>
<path d="M29.3303 38.4968C29.0771 38.4968 28.8721 38.2918 28.8721 38.0384V8.70771C28.8721 8.45437 29.0771 8.24939 29.3303 8.24939C29.5836 8.24939 29.7886 8.45437 29.7886 8.70771V38.0384C29.7886 38.2918 29.5836 38.4968 29.3303 38.4968Z" fill="#8B8B8B"/>
<path d="M34.3724 27.4976C34.119 27.4976 33.9141 27.2926 33.9141 27.0392V11.4572C33.9141 11.2039 34.119 10.9989 34.3724 10.9989C34.6257 10.9989 34.8307 11.2039 34.8307 11.4572V27.0392C34.8307 27.2926 34.6257 27.4976 34.3724 27.4976Z" fill="#8B8B8B"/>
<path d="M51.7875 27.4976H34.3724C34.119 27.4976 33.9141 27.2926 33.9141 27.0393C33.9141 26.7859 34.119 26.5809 34.3724 26.5809H51.7875C52.0408 26.5809 52.2458 26.7859 52.2458 27.0393C52.2458 27.2926 52.0408 27.4976 51.7875 27.4976Z" fill="#8B8B8B"/>
<path d="M44.6384 31.8283H34.1891C34.0371 31.8283 33.9141 31.6797 33.9141 31.496C33.9141 31.3124 34.0371 31.1638 34.1891 31.1638H44.6384C44.7905 31.1638 44.9134 31.3124 44.9134 31.496C44.9134 31.6797 44.7905 31.8283 44.6384 31.8283Z" fill="#8B8B8B"/>
<path d="M44.0836 33.6616H34.2421C34.0608 33.6616 33.9141 33.513 33.9141 33.3293C33.9141 33.1457 34.0608 32.9971 34.2421 32.9971H44.0836C44.2649 32.9971 44.4116 33.1457 44.4116 33.3293C44.4116 33.513 44.2649 33.6616 44.0836 33.6616Z" fill="#8B8B8B"/>
<path d="M42.6216 35.4946H34.3723C34.119 35.4946 33.9141 35.346 33.9141 35.1623C33.9141 34.9787 34.119 34.8301 34.3723 34.8301H42.6216C42.8748 34.8301 43.0798 34.9787 43.0798 35.1623C43.0798 35.346 42.8748 35.4946 42.6216 35.4946Z" fill="#8B8B8B"/>
<path d="M24.3363 31.8283H8.66249C8.43449 31.8283 8.25 31.6797 8.25 31.496C8.25 31.3124 8.43449 31.1638 8.66249 31.1638H24.3363C24.5643 31.1638 24.7487 31.3124 24.7487 31.496C24.7487 31.6797 24.5643 31.8283 24.3363 31.8283Z" fill="#8B8B8B"/>
<path d="M22.457 33.6616H8.70832C8.45498 33.6616 8.25 33.513 8.25 33.3293C8.25 33.1457 8.45498 32.9971 8.70832 32.9971H22.457C22.7104 32.9971 22.9154 33.1457 22.9154 33.3293C22.9154 33.513 22.7104 33.6616 22.457 33.6616Z" fill="#8B8B8B"/>
<path d="M16.9576 35.4946H8.70832C8.45498 35.4946 8.25 35.346 8.25 35.1623C8.25 34.9787 8.45498 34.8301 8.70832 34.8301H16.9576C17.2109 34.8301 17.4159 34.9787 17.4159 35.1623C17.4159 35.346 17.2109 35.4946 16.9576 35.4946Z" fill="#8B8B8B"/>
<path d="M36.2083 23.8313C36.091 23.8313 35.9737 23.7865 35.8842 23.697C35.7053 23.518 35.7053 23.228 35.8842 23.049L41.3837 17.5495C41.5627 17.3705 41.8528 17.3705 42.0318 17.5495C42.2108 17.7285 42.2108 18.0186 42.0318 18.1975L36.5322 23.697C36.4427 23.7865 36.3256 23.8313 36.2083 23.8313Z" fill="#8B8B8B"/>
<path d="M44.455 21.0814C44.3378 21.0814 44.2205 21.0366 44.131 20.9472L41.3813 18.1973C41.2023 18.0184 41.2023 17.7284 41.3813 17.5494C41.5603 17.3704 41.8504 17.3704 42.0294 17.5494L44.7791 20.2991C44.958 20.4781 44.958 20.7682 44.7791 20.9472C44.6896 21.0366 44.5724 21.0814 44.455 21.0814Z" fill="#8B8B8B"/>
<path d="M44.4524 21.0815C44.3352 21.0815 44.2179 21.0367 44.1284 20.9473C43.9494 20.7683 43.9494 20.4782 44.1284 20.2992L51.4611 12.9665C51.64 12.7875 51.9301 12.7875 52.1091 12.9665C52.2881 13.1455 52.2881 13.4356 52.1091 13.6146L44.7764 20.9473C44.687 21.0367 44.5697 21.0815 44.4524 21.0815Z" fill="#8B8B8B"/>
<path d="M51.7894 15.582C51.536 15.582 51.3311 15.377 51.3311 15.1236V13.2905C51.3311 13.0371 51.536 12.8322 51.7894 12.8322C52.0427 12.8322 52.2477 13.0371 52.2477 13.2905V15.1236C52.2477 15.377 52.0427 15.582 51.7894 15.582Z" fill="#8B8B8B"/>
<path d="M51.7875 13.7488H49.9543C49.7011 13.7488 49.4961 13.5438 49.4961 13.2905C49.4961 13.0371 49.7011 12.8322 49.9543 12.8322H51.7875C52.0408 12.8322 52.2458 13.0371 52.2458 13.2905C52.2458 13.5438 52.0408 13.7488 51.7875 13.7488Z" fill="#8B8B8B"/>
</svg>
