<svg width="166" height="80" viewBox="0 0 166 80" fill="none" xmlns="http://www.w3.org/2000/svg">
    <path d="M52.7569 46.5959C51.874 47.1845 50.4443 47.4368 48.9726 47.4368C44.2843 47.4368 41.6143 44.6196 41.6143 40.0995C41.6143 35.7475 44.2633 32.699 48.9306 32.699C50.3182 32.699 51.7057 32.9513 52.7359 33.6872V35.5793C51.7057 34.9276 50.5915 34.5912 48.9306 34.5912C45.5878 34.5912 43.5695 36.8197 43.5695 40.0995C43.5695 43.3792 45.6298 45.5656 49.0357 45.5656C50.3182 45.5867 51.6006 45.2714 52.7359 44.7037L52.7569 46.5959Z" fill="#253858"/>
    <path d="M54.124 41.7813C54.124 38.5227 56.0372 36.147 59.2958 36.147C62.5546 36.147 64.4257 38.5227 64.4257 41.7813C64.4257 45.0401 62.5336 47.4578 59.2958 47.4578C56.0582 47.4578 54.124 45.0401 54.124 41.7813ZM55.953 41.7813C55.953 43.8417 56.9832 45.7128 59.2958 45.7128C61.6085 45.7128 62.5966 43.8417 62.5966 41.7813C62.5966 39.721 61.6085 37.8919 59.2958 37.8919C56.9832 37.8919 55.953 39.721 55.953 41.7813Z" fill="#253858"/>
    <path d="M75.8629 47.2475H73.9917V40.688C73.9917 38.7328 73.2138 37.8708 71.4268 37.8708C69.7028 37.8708 68.4834 39.0271 68.4834 41.2136V47.2475H66.6123V36.3781H68.4834V38.1651C69.1562 36.9037 70.4807 36.1258 71.9104 36.1679C74.4122 36.1679 75.8419 37.8918 75.8419 40.8982L75.8629 47.2475Z" fill="#253858"/>
    <path d="M81.055 36.3571H83.8512V38.0811H81.055V47.2475H79.2259V38.1021H77.46V36.3781H79.2259V35.1797C79.2259 33.1615 80.3613 31.7949 82.6949 31.7949C83.1153 31.7949 83.5358 31.858 83.9564 31.9631V33.6871C83.5779 33.603 83.1784 33.582 82.779 33.582C81.6227 33.582 81.055 34.2547 81.055 35.2428V36.3571Z" fill="#253858"/>
    <path d="M88.7925 47.3106C87.0054 47.3106 85.8701 46.4697 85.8701 44.4513V31.8159H87.7412V44.241C87.7412 45.2292 88.393 45.5656 89.1919 45.5656C89.3811 45.5656 89.5493 45.5656 89.7385 45.5445V47.2265C89.4442 47.2896 89.1078 47.3106 88.7925 47.3106Z" fill="#253858"/>
    <path d="M91.3359 36.357H93.2071V42.9165C93.2071 44.8717 93.985 45.7337 95.772 45.7337C97.496 45.7337 98.7154 44.5774 98.7154 42.3909V36.3359H100.586V47.2474H98.7154V45.4603C98.0426 46.7218 96.7181 47.4997 95.2885 47.4577C92.7866 47.4577 91.357 45.7337 91.357 42.7482L91.3359 36.357Z" fill="#253858"/>
    <path d="M108.597 47.4578C104.518 47.4578 102.752 45.1032 102.752 41.7813C102.752 38.5016 104.582 36.147 107.882 36.147C111.225 36.147 112.57 38.4806 112.57 41.7813V42.6224H104.644C104.897 44.4724 106.096 45.6708 108.66 45.6708C109.795 45.6708 110.91 45.4605 111.961 45.0822V46.8061C111.078 47.2896 109.711 47.4578 108.597 47.4578ZM104.624 41.0245H110.7C110.594 39.0062 109.669 37.8498 107.798 37.8498C105.822 37.8498 104.812 39.1323 104.624 41.0245Z" fill="#253858"/>
    <path d="M124.049 47.2475H122.178V40.688C122.178 38.7328 121.4 37.8708 119.613 37.8708C117.889 37.8708 116.67 39.0271 116.67 41.2136V47.2475H114.799V36.3781H116.67V38.1651C117.342 36.9037 118.667 36.1258 120.096 36.1679C122.599 36.1679 124.028 37.8918 124.028 40.8982V47.2475H124.049Z" fill="#253858"/>
    <path d="M134.33 46.953C133.678 47.3105 132.669 47.4576 131.681 47.4576C127.812 47.4576 126.004 45.103 126.004 41.7811C126.004 38.5014 127.812 36.1468 131.681 36.1468C132.564 36.1257 133.467 36.2938 134.266 36.6723V38.3963C133.489 38.0389 132.648 37.8496 131.807 37.8707C128.99 37.8707 127.834 39.6577 127.834 41.7601C127.834 43.8626 129.011 45.6706 131.849 45.6706C132.69 45.6916 133.531 45.5654 134.33 45.2711V46.953Z" fill="#253858"/>
    <path d="M141.667 47.4578C137.588 47.4578 135.822 45.1032 135.822 41.7813C135.822 38.5016 137.652 36.147 140.953 36.147C144.295 36.147 145.641 38.4806 145.641 41.7813V42.6224H137.694C137.946 44.4724 139.144 45.6708 141.709 45.6708C142.845 45.6708 143.959 45.4605 145.01 45.0822V46.8061C144.148 47.2896 142.781 47.4578 141.667 47.4578ZM137.694 41.0245H143.77C143.664 39.0062 142.739 37.8498 140.868 37.8498C138.892 37.8498 137.883 39.1323 137.694 41.0245Z" fill="#253858"/>
    <path d="M20.065 44.0098C19.8969 44.262 19.7287 44.5774 19.5605 44.8087C19.4133 45.04 19.4974 45.3343 19.7287 45.4814L22.9453 47.4577C23.1766 47.6049 23.492 47.5208 23.6182 47.2895C23.7443 47.0793 23.9124 46.7849 24.1017 46.4906C25.3841 44.3882 26.6456 44.6405 28.9582 45.7548L32.1539 47.2685C32.4062 47.3946 32.7005 47.2895 32.8056 47.0372C32.8056 47.0372 32.8056 47.0372 32.8056 47.0162L34.3403 43.5473C34.4455 43.295 34.3403 43.0216 34.088 42.8955C33.4153 42.5802 32.0698 41.9494 30.8714 41.3608C26.5615 39.3004 22.8823 39.4265 20.065 44.0098Z" fill="url(#paint0_linear)"/>
    <path d="M34.4667 36.1679C34.6348 35.9156 34.803 35.6002 34.9712 35.3689C35.1184 35.1376 35.0342 34.8433 34.803 34.6962L31.5864 32.7199C31.3551 32.5727 31.0607 32.6358 30.8925 32.846L30.8715 32.867C30.7453 33.0773 30.5772 33.3717 30.388 33.666C29.1055 35.7684 27.8441 35.5161 25.5315 34.4018L22.3568 32.8881C22.1045 32.7619 21.8101 32.867 21.7051 33.1193C21.7051 33.1193 21.7051 33.1193 21.7051 33.1404L20.1704 36.6093C20.0652 36.8616 20.1704 37.1349 20.4227 37.2611C21.0954 37.5765 22.4409 38.2071 23.6393 38.7959C27.9702 40.8772 31.6494 40.73 34.4667 36.1679Z" fill="url(#paint1_linear)"/>
    <defs>
    <linearGradient id="paint0_linear" x1="34.2652" y1="48.4966" x2="24.5441" y2="42.9107" gradientUnits="userSpaceOnUse">
    <stop offset="0.18" stop-color="#0052CC"/>
    <stop offset="1" stop-color="#2684FF"/>
    </linearGradient>
    <linearGradient id="paint1_linear" x1="20.2742" y1="31.6825" x2="29.9977" y2="37.2709" gradientUnits="userSpaceOnUse">
    <stop offset="0.18" stop-color="#0052CC"/>
    <stop offset="1" stop-color="#2684FF"/>
    </linearGradient>
    </defs>
    </svg>
