<svg width="40" height="53" viewBox="0 0 40 53" fill="none" xmlns="http://www.w3.org/2000/svg">
<rect x="0.474357" y="0.766837" width="38.7066" height="51.2337" rx="2.29452" stroke="#8C8C8C" stroke-width="0.948714"/>
<path d="M12.1516 22.5018C16.3481 22.5018 19.7505 19.0994 19.7505 14.9029H12.1516V7.30488C7.95511 7.30488 4.55273 10.7073 4.55273 14.9037C4.55273 19.1002 7.95511 22.5018 12.1516 22.5018ZM10.9887 8.57329V14.9037V16.0667H12.1516H18.482C17.933 19.062 15.3031 21.3397 12.1516 21.3397C8.60303 21.3397 5.71566 18.4523 5.71566 14.9037C5.71649 11.7522 7.99332 9.12236 10.9887 8.57329Z" fill="#8B8B8B"/>
<path d="M12.9619 6.49359V14.0925H20.5608C20.5608 9.89597 17.1584 6.49359 12.9619 6.49359ZM14.1248 7.762C16.7431 8.24212 18.8122 10.3113 19.2924 12.9295H14.1248V7.762Z" fill="#8B8B8B"/>
<path d="M23.7693 30.4918H7.58146C7.26033 30.4918 7 30.7521 7 31.0733C7 31.3944 7.26033 31.6547 7.58146 31.6547H23.7693C24.0905 31.6547 24.3508 31.3944 24.3508 31.0733C24.3508 30.7521 24.0905 30.4918 23.7693 30.4918Z" fill="#8B8B8B"/>
<path d="M23.7693 33.4061H7.58146C7.26033 33.4061 7 33.6665 7 33.9876C7 34.3087 7.26033 34.5691 7.58146 34.5691H23.7693C24.0905 34.5691 24.3508 34.3087 24.3508 33.9876C24.3508 33.6665 24.0905 33.4061 23.7693 33.4061Z" fill="#8B8B8B"/>
<path d="M23.7693 39.3878H7.58146C7.26033 39.3878 7 39.6481 7 39.9693C7 40.2904 7.26033 40.5507 7.58146 40.5507H23.7693C24.0905 40.5507 24.3508 40.2904 24.3508 39.9693C24.3508 39.6481 24.0905 39.3878 23.7693 39.3878Z" fill="#8B8B8B"/>
<path d="M24.4188 20.614V19.1047C24.4188 18.7835 24.1585 18.5232 23.8373 18.5232C23.5162 18.5232 23.2559 18.7835 23.2559 19.1047V20.614C23.2559 20.9351 23.5162 21.1954 23.8373 21.1954C24.1585 21.1954 24.4188 20.9351 24.4188 20.614Z" fill="#8B8B8B"/>
<path d="M26.7625 20.6139V12.8979C26.7625 12.5767 26.5022 12.3164 26.1811 12.3164C25.8599 12.3164 25.5996 12.5767 25.5996 12.8979V20.6139C25.5996 20.935 25.8599 21.1953 26.1811 21.1953C26.5022 21.1953 26.7625 20.935 26.7625 20.6139Z" fill="#8B8B8B"/>
<path d="M29.1082 20.6148V8.38664C29.1082 8.06551 28.8479 7.80518 28.5268 7.80518C28.2056 7.80518 27.9453 8.06551 27.9453 8.38664V20.6148C27.9453 20.9359 28.2056 21.1962 28.5268 21.1962C28.8479 21.1962 29.1082 20.9359 29.1082 20.6148Z" fill="#8B8B8B"/>
<path d="M31.4549 20.6146V12.6154C31.4549 12.2943 31.1946 12.0339 30.8735 12.0339C30.5523 12.0339 30.292 12.2943 30.292 12.6154V20.6146C30.292 20.9358 30.5523 21.1961 30.8735 21.1961C31.1946 21.1961 31.4549 20.9358 31.4549 20.6146Z" fill="#8B8B8B"/>
<path d="M33.7977 20.6138V16.9273C33.7977 16.6062 33.5374 16.3459 33.2162 16.3459C32.8951 16.3459 32.6348 16.6062 32.6348 16.9273V20.6138C32.6348 20.9349 32.8951 21.1953 33.2162 21.1953C33.5374 21.1953 33.7977 20.9349 33.7977 20.6138Z" fill="#8B8B8B"/>
</svg>
