<svg width="166" height="80" viewBox="0 0 166 80" fill="none" xmlns="http://www.w3.org/2000/svg">
    <path d="M37.132 36.058L30.3609 40.3211L37.132 44.5842L30.3609 48.8473L23.5898 44.5612L30.3609 40.2981L23.5898 36.058L30.3609 31.7949L37.132 36.058ZM30.3259 50.2184L37.097 45.9553L43.8681 50.2184L37.097 54.4815L30.3259 50.2184ZM37.132 44.5612L43.9032 40.2981L37.132 36.058L43.8681 31.7949L50.6392 36.058L43.8681 40.3211L50.6392 44.5842L43.8681 48.8473L37.132 44.5612Z" fill="#0061FF"/>
    <path d="M55.874 35.5882H61.3659C64.8671 35.5882 67.7595 37.6635 67.7595 42.4018V43.3974C67.7595 48.1718 65.0545 50.319 61.4714 50.319H55.874V35.5882ZM58.942 38.2633V47.632H61.2957C63.2863 47.632 64.6213 46.3004 64.6213 43.3375V42.5577C64.6213 39.5949 63.2161 38.2633 61.1903 38.2633H58.942ZM69.3871 38.4073H71.8462L72.2444 41.1782C72.7127 39.295 73.9071 38.2873 76.0734 38.2873H76.8345V41.4661H75.5699C73.0758 41.4661 72.4668 42.3538 72.4668 44.8729V50.355H69.434V38.4073H69.3871ZM77.4435 44.621V44.2851C77.4435 40.2905 79.9377 38.1074 83.3335 38.1074C86.7997 38.1074 89.2236 40.2905 89.2236 44.2851V44.621C89.2236 48.5437 86.8699 50.6549 83.3335 50.6549C79.5746 50.6189 77.4435 48.5557 77.4435 44.621ZM86.1205 44.585V44.2851C86.1205 42.0659 85.0315 40.7344 83.2984 40.7344C81.6005 40.7344 80.4763 41.9579 80.4763 44.2851V44.585C80.4763 46.7323 81.5653 47.9559 83.2984 47.9559C85.0315 47.9199 86.1205 46.7323 86.1205 44.585ZM90.8161 38.4073H93.3454L93.6381 40.6624C94.247 39.151 95.5468 38.1074 97.4672 38.1074C100.43 38.1074 102.385 40.2905 102.385 44.3331V44.669C102.385 48.5916 100.219 50.6669 97.4672 50.6669C95.6288 50.6669 94.3642 49.8152 93.7436 48.4477V54.4815H90.7809L90.8161 38.4073ZM99.3056 44.585V44.3211C99.3056 41.9459 98.1112 40.7703 96.5187 40.7703C94.8208 40.7703 93.6967 42.1019 93.6967 44.3211V44.549C93.6967 46.6603 94.7857 47.9919 96.4836 47.9919C98.2284 47.9559 99.3056 46.8163 99.3056 44.585ZM106.87 48.1478L106.613 50.331H104.013V34.4126H106.976V40.5184C107.631 38.9591 108.931 38.1074 110.77 38.1074C113.557 38.1434 115.617 40.1106 115.617 44.0692V44.4411C115.617 48.3997 113.662 50.6669 110.699 50.6669C108.743 50.6189 107.479 49.6953 106.87 48.1478ZM112.502 44.4411V44.1412C112.502 41.9579 111.343 40.7344 109.716 40.7344C108.053 40.7344 106.894 42.1019 106.894 44.1772V44.4411C106.894 46.6603 108.018 47.9559 109.681 47.9559C111.46 47.9559 112.502 46.8163 112.502 44.4411ZM116.918 44.621V44.2851C116.918 40.2905 119.411 38.1074 122.807 38.1074C126.273 38.1074 128.697 40.2905 128.697 44.2851V44.621C128.697 48.5437 126.308 50.6549 122.807 50.6549C119.048 50.6189 116.918 48.5557 116.918 44.621ZM125.617 44.585V44.2851C125.617 42.0659 124.529 40.7344 122.796 40.7344C121.097 40.7344 119.973 41.9579 119.973 44.2851V44.585C119.973 46.7323 121.062 47.9559 122.796 47.9559C124.54 47.9199 125.617 46.7323 125.617 44.585ZM132.667 44.1412L128.58 38.4073H132.082L134.435 41.9939L136.824 38.4073H140.29L136.144 44.1052L140.512 50.331H137.082L134.412 46.3724L131.812 50.331H128.228L132.667 44.1412Z" fill="black"/>
    </svg>
