<svg width="20" height="19" viewBox="0 0 20 19" fill="none" xmlns="http://www.w3.org/2000/svg">
<path opacity="0.4" d="M18.0821 0.149414H1.92127C1.65476 0.151396 1.39972 0.258148 1.21126 0.446609C1.0228 0.635069 0.916044 0.890107 0.914062 1.15662V17.3174C0.916044 17.5839 1.0228 17.839 1.21126 18.0274C1.39972 18.2159 1.65476 18.3226 1.92127 18.3246H10.6226V11.2969H8.25987V8.54787H10.6226V6.52588C10.6226 4.17825 12.0539 2.89841 14.1592 2.89841C14.8635 2.89841 15.5678 2.89841 16.2721 3.00444V5.45051H14.8257C13.6821 5.45051 13.4625 5.99577 13.4625 6.79094V8.5403H16.1888L15.8329 11.2893H13.4625V18.3246H18.0821C18.3486 18.3226 18.6036 18.2159 18.7921 18.0274C18.9805 17.839 19.0873 17.5839 19.0893 17.3174V1.15662C19.0873 0.890107 18.9805 0.635069 18.7921 0.446609C18.6036 0.258148 18.3486 0.151396 18.0821 0.149414Z" fill="white"/>
</svg>
