<svg width="185" height="41" viewBox="0 0 185 41" fill="none" xmlns="http://www.w3.org/2000/svg">
<g opacity="0.5">
<path fill-rule="evenodd" clip-rule="evenodd" d="M11.9246 0.813965H1.18245C0.553588 0.813965 0.0390625 1.36191 0.0390625 2.03674V11.9632C0.0390625 12.638 0.553588 13.1859 1.18245 13.1859H11.9246C12.5535 13.1859 13.068 12.638 13.068 11.9632V2.03674C13.068 1.36191 12.5592 0.813965 11.9246 0.813965Z" fill="white"/>
<path fill-rule="evenodd" clip-rule="evenodd" d="M26.9061 0.813477H16.1639C15.535 0.813477 15.0205 1.36142 15.0205 2.03625V11.9627C15.0205 12.6375 15.535 13.1854 16.1639 13.1854H26.9061C27.5349 13.1854 28.0494 12.6375 28.0494 11.9627V2.03625C28.0494 1.36142 27.5406 0.813477 26.9061 0.813477Z" fill="white"/>
<path fill-rule="evenodd" clip-rule="evenodd" d="M31.2338 0.813477H42.1189C42.7363 0.813477 43.2394 1.32104 43.2394 1.94397V12.055C43.2394 12.6779 42.7363 13.1854 42.1189 13.1854H31.2338C30.6164 13.1854 30.1133 12.6779 30.1133 12.055V1.94397C30.1133 1.32104 30.6164 0.813477 31.2338 0.813477ZM32.457 3.10872H40.901V10.8837H32.457V3.10872Z" fill="white"/>
<path fill-rule="evenodd" clip-rule="evenodd" d="M11.9822 14.5989H1.24007C0.611206 14.5989 0.0966797 15.1468 0.0966797 15.8274V25.8C0.0966797 26.4806 0.611206 27.0285 1.24007 27.0285H11.9822C12.6111 27.0285 13.1256 26.4806 13.1256 25.8V15.8274C13.1256 15.1468 12.6168 14.5989 11.9822 14.5989Z" fill="white"/>
<path fill-rule="evenodd" clip-rule="evenodd" d="M26.9598 14.5986H16.2176C15.5887 14.5986 15.0742 15.1466 15.0742 15.8272V25.7997C15.0742 26.4803 15.5887 27.0283 16.2176 27.0283H26.9598C27.5886 27.0283 28.1032 26.4803 28.1032 25.7997V15.8272C28.1032 15.1466 27.5944 14.5986 26.9598 14.5986Z" fill="white"/>
<path fill-rule="evenodd" clip-rule="evenodd" d="M41.9988 14.5988H31.2567C30.6278 14.5988 30.1133 15.1467 30.1133 15.8273V25.7999C30.1133 26.4805 30.6278 27.0284 31.2567 27.0284H41.9988C42.6277 27.0284 43.1422 26.4805 43.1422 25.7999V15.8273C43.1422 15.1467 42.6334 14.5988 41.9988 14.5988Z" fill="white"/>
<path fill-rule="evenodd" clip-rule="evenodd" d="M11.9822 28.3837H1.24007C0.611206 28.3837 0.0966797 28.9316 0.0966797 29.6122V39.5848C0.0966797 40.2654 0.611206 40.8133 1.24007 40.8133H11.9822C12.6111 40.8133 13.1256 40.2654 13.1256 39.5848V29.6122C13.1256 28.9316 12.6168 28.3837 11.9822 28.3837Z" fill="white"/>
<path fill-rule="evenodd" clip-rule="evenodd" d="M26.9598 28.3837H16.2176C15.5887 28.3837 15.0742 28.9316 15.0742 29.6122V39.5848C15.0742 40.2654 15.5887 40.8133 16.2176 40.8133H26.9598C27.5886 40.8133 28.1032 40.2654 28.1032 39.5848V29.6122C28.1032 28.9316 27.5944 28.3837 26.9598 28.3837Z" fill="white"/>
<path fill-rule="evenodd" clip-rule="evenodd" d="M42.0555 28.384H31.3133C30.6844 28.384 30.1699 28.932 30.1699 29.6126V39.5851C30.1699 40.2657 30.6844 40.8137 31.3133 40.8137H42.0555C42.6843 40.8137 43.1989 40.2657 43.1989 39.5851V29.6126C43.1989 28.932 42.6901 28.384 42.0555 28.384Z" fill="white"/>
<path d="M137.85 12.9783C136.747 12.5053 135.163 12.2688 133.105 12.2688H124.541V29.5492H133.105C134.66 29.5492 135.941 29.4108 136.935 29.1339C137.93 28.8571 138.805 28.3841 139.559 27.7266C141.32 26.1577 142.195 23.8852 142.195 20.909C142.195 19.2018 141.903 17.7137 141.315 16.4505C140.56 14.847 139.405 13.6877 137.85 12.9783ZM136.266 26.077C135.478 26.498 134.317 26.7115 132.773 26.7115H127.874V15.1066H132.773C133.928 15.1066 134.866 15.2277 135.586 15.4642C136.306 15.7007 136.918 16.0871 137.421 16.6293C138.325 17.6271 138.776 19.0518 138.776 20.9148C138.776 23.4757 137.942 25.2003 136.266 26.077ZM161.535 14.3972C159.826 12.7764 157.499 11.9631 154.555 11.9631C150.639 12.015 147.866 13.4051 146.243 16.1448C145.374 17.581 144.939 19.1671 144.939 20.909C144.939 22.0914 145.151 23.2162 145.568 24.2774C146.054 25.4944 146.746 26.5442 147.655 27.4209C149.364 29.0417 151.674 29.8549 154.589 29.8549C158.471 29.8549 161.261 28.4533 162.953 25.6502C163.822 24.214 164.257 22.6682 164.257 21.0128C164.245 18.3077 163.342 16.1044 161.535 14.3972ZM160.352 23.3142C159.997 24.1563 159.489 24.8715 158.82 25.4425C157.699 26.4231 156.293 26.9133 154.601 26.9133C152.891 26.9133 151.479 26.4231 150.353 25.4425C149.015 24.2947 148.346 22.7836 148.346 20.909C148.346 19.0345 149.015 17.5118 150.353 16.3467C151.474 15.3661 152.88 14.8759 154.572 14.8759C156.264 14.8932 157.676 15.3835 158.82 16.3467C160.158 17.4772 160.826 19.023 160.826 20.984C160.832 21.78 160.672 22.5586 160.352 23.3142ZM177.4 20.5572L183.98 12.2688H180.19L175.616 17.9444L171.146 12.2688H167.229L173.507 20.7302L166.749 29.5492H170.54L175.285 23.3431L180.081 29.5492H184.203L177.4 20.5572Z" fill="white"/>
<path d="M65.9126 20.5055C67.6849 19.7614 68.5767 18.5444 68.5767 16.8545C68.5767 15.3318 68.0908 14.1782 67.1189 13.3822C66.633 12.9785 66.0613 12.6901 65.4095 12.5228C64.7578 12.3556 63.8774 12.269 62.774 12.269H52.1748V29.5494H62.8998C63.986 29.5494 64.895 29.4514 65.6154 29.2553C66.3357 29.0592 66.9703 28.7362 67.5248 28.2805C68.5939 27.3865 69.1313 26.1522 69.1313 24.5833C69.1256 22.5934 68.0565 21.2322 65.9126 20.5055ZM55.5135 15.1068H62.2938C63.3343 15.1068 64.0832 15.2625 64.5406 15.574C65.0036 15.8855 65.2323 16.4046 65.2323 17.1313C65.2323 17.8408 64.9922 18.3656 64.5063 18.7002C64.0718 18.9886 63.3343 19.1328 62.2938 19.1328H55.5135V15.1068ZM64.7292 26.2041C64.1747 26.5444 63.2886 26.7117 62.0651 26.7117H55.5135V21.9994H62.0708C63.2943 21.9994 64.1804 22.1609 64.7349 22.4781C65.3867 22.8645 65.7125 23.4932 65.7125 24.3526C65.7125 25.2178 65.3867 25.835 64.7292 26.2041ZM72.8759 29.5494H76.2146V12.269H72.8759V29.5494ZM95.6236 23.8508L84.3441 12.269H81.3313V29.5494H84.3727V17.7139L95.9495 29.5494H98.6651V12.269H95.6236V23.8508ZM113.049 12.269H110.088L102.152 29.5494H105.217L107.401 25.1428H115.439L117.622 29.5494H121.19L113.049 12.269ZM108.35 22.7838L111.465 16.6237L114.53 22.7838H108.35Z" fill="white"/>
</g>
</svg>