<svg width="166" height="80" viewBox="0 0 166 80" fill="none" xmlns="http://www.w3.org/2000/svg">
    <path d="M57.3874 33.3704C56.8845 33.3311 56.379 33.4006 55.9057 33.5743C55.4323 33.7481 55.0025 34.022 54.6458 34.3771C54.2891 34.7322 54.014 35.16 53.8394 35.6312C53.6647 36.1022 53.5949 36.6054 53.6345 37.106V38.2046H53.0823C52.8768 38.2046 52.6798 38.2858 52.5345 38.4304C52.3893 38.5751 52.3076 38.7712 52.3076 38.9757C52.3076 39.1802 52.3893 39.3763 52.5345 39.5209C52.6798 39.6655 52.8768 39.7468 53.0823 39.7468H53.6345V47.3277C53.6325 47.4364 53.6526 47.5444 53.6935 47.6452C53.7344 47.746 53.7953 47.8376 53.8725 47.9144C53.9498 47.9914 54.0418 48.052 54.143 48.0927C54.2443 48.1333 54.3528 48.1533 54.4621 48.1514C54.5724 48.1579 54.683 48.1412 54.7864 48.1021C54.8898 48.0631 54.9837 48.0026 55.0619 47.9248C55.1401 47.847 55.2008 47.7535 55.2401 47.6505C55.2793 47.5476 55.2961 47.4375 55.2896 47.3277V39.6878H57.0557C57.2612 39.6878 57.4582 39.6065 57.6035 39.4619C57.7487 39.3173 57.8304 39.1212 57.8304 38.9167C57.8304 38.7122 57.7487 38.5161 57.6035 38.3715C57.4582 38.2269 57.2612 38.1456 57.0557 38.1456H55.2905V37.0508C55.2532 36.758 55.2827 36.4608 55.3768 36.1811C55.471 35.9014 55.6273 35.6464 55.8343 35.4353C56.0412 35.2241 56.2933 35.0621 56.5718 34.9614C56.8504 34.8607 57.1482 34.8239 57.443 34.8536C57.541 34.8575 57.6386 34.8421 57.7305 34.8083C57.8224 34.7744 57.9067 34.723 57.9785 34.6566C58.0504 34.5902 58.1082 34.5104 58.1491 34.4217C58.1898 34.333 58.2124 34.2372 58.2158 34.1397C58.1995 33.9318 58.1055 33.7374 57.9522 33.5951C57.7991 33.4527 57.5979 33.3726 57.3883 33.3704H57.3874ZM63.6757 37.9297C63.1418 37.9031 62.6097 38.0096 62.1277 38.2398C61.6458 38.47 61.2293 38.8165 60.9161 39.2478V38.8079C60.9161 38.5893 60.8289 38.3797 60.6737 38.2251C60.5184 38.0705 60.3078 37.9837 60.0882 37.9837C59.8686 37.9837 59.6581 38.0705 59.5028 38.2251C59.3475 38.3797 59.2602 38.5893 59.2602 38.8079V47.2678C59.2583 47.3765 59.2783 47.4845 59.3192 47.5853C59.3601 47.6861 59.421 47.7777 59.4982 47.8546C59.5754 47.9315 59.6675 47.9921 59.7687 48.0328C59.8701 48.0735 59.9786 48.0934 60.0877 48.0915C60.1982 48.0981 60.3087 48.0813 60.4121 48.0422C60.5155 48.0033 60.6095 47.9428 60.6876 47.8649C60.7659 47.7871 60.8266 47.6936 60.8658 47.5906C60.9051 47.4878 60.9219 47.3777 60.9152 47.2678V42.5997C60.9152 40.6221 61.9642 39.4683 63.6748 39.4683C63.777 39.4708 63.8786 39.4525 63.9735 39.4148C64.0683 39.377 64.1546 39.3204 64.2268 39.2485C64.2991 39.1765 64.3559 39.0908 64.3939 38.9963C64.4318 38.9018 64.4501 38.8007 64.4476 38.699C64.4435 38.497 64.3614 38.3045 64.2183 38.1612C64.0752 38.0179 63.8822 37.9351 63.6793 37.9297H63.6757ZM73.4444 42.1025C73.4432 41.1684 73.1751 40.2538 72.6716 39.4655C72.2891 38.9441 71.779 38.5287 71.1898 38.2588C70.6005 37.9889 69.9517 37.8734 69.3051 37.9234C66.49 37.9234 64.8897 39.7912 64.8897 43.0324C64.8897 46.3834 66.49 48.1967 69.5257 48.1967C70.7625 48.2418 71.9688 47.8088 72.8921 46.9884C72.9781 46.9247 73.0476 46.8417 73.0951 46.7462C73.1426 46.6506 73.1668 46.5453 73.1656 46.4386C73.1625 46.2502 73.086 46.0704 72.9521 45.9372C72.8183 45.804 72.6376 45.7278 72.4483 45.7248C72.2853 45.7206 72.1271 45.7799 72.0072 45.8898C71.3232 46.4521 70.4656 46.7625 69.5785 46.7689C69.166 46.7853 68.7546 46.7146 68.3714 46.5615C67.9882 46.4085 67.6419 46.1765 67.3552 45.8807C67.0685 45.585 66.8479 45.2322 66.7079 44.8456C66.5679 44.459 66.5116 44.0473 66.5428 43.6374H72.503C73.4417 43.5277 73.4417 42.6487 73.4417 42.0953L73.4444 42.1025ZM69.3643 39.3584C71.0202 39.3584 71.8477 40.2928 71.9033 42.1053H66.5492C66.715 40.3499 67.712 39.3584 69.3643 39.3584ZM78.8568 42.2151C77.643 41.776 76.6496 41.4458 76.6496 40.5668C76.6496 39.578 77.7533 39.4683 78.3602 39.4683C78.7655 39.4446 79.1712 39.5057 79.5514 39.6476C79.9315 39.7894 80.2777 40.0089 80.5675 40.2919C80.7097 40.4245 80.8972 40.4981 81.0919 40.4981C81.2867 40.4981 81.4742 40.4245 81.6164 40.2919C81.6911 40.2217 81.7497 40.1362 81.7879 40.0413C81.8261 39.9463 81.8432 39.8443 81.8379 39.7422C81.8337 39.5646 81.7758 39.3923 81.672 39.2478C81.2741 38.7823 80.7725 38.4159 80.2072 38.1774C79.642 37.939 79.0285 37.8352 78.4158 37.8744C76.3735 37.8744 75.1039 38.9185 75.1039 40.5115C75.1039 42.489 76.8702 43.0931 78.4158 43.6429C79.575 44.0275 80.6231 44.3568 80.6231 45.2358C80.6231 46.3897 79.2989 46.6092 78.527 46.6092C78.0579 46.6294 77.5898 46.5519 77.1525 46.3816C76.7154 46.2114 76.3187 45.9521 75.9879 45.6204C75.8353 45.4769 75.643 45.3821 75.4357 45.3483C75.2464 45.3514 75.0658 45.4276 74.9319 45.5608C74.7981 45.694 74.7215 45.8738 74.7185 46.0622C74.7227 46.2399 74.7805 46.4121 74.8843 46.5566C75.3333 47.0807 75.8925 47.5001 76.5226 47.7849C77.1525 48.0697 77.8378 48.2131 78.5297 48.2049C80.8472 48.2049 82.227 47.1063 82.227 45.3483C82.1167 43.3154 80.4043 42.7665 78.8605 42.2169L78.8568 42.2151ZM88.4051 37.8744C87.9045 37.8536 87.4058 37.9468 86.9469 38.1468C86.488 38.3467 86.081 38.6482 85.7566 39.0283V33.6444C85.7586 33.5357 85.7386 33.4276 85.6976 33.3267C85.6566 33.2258 85.5957 33.1341 85.5184 33.0573C85.4411 32.9804 85.349 32.9198 85.2475 32.8792C85.1461 32.8385 85.0376 32.8186 84.9282 32.8207C84.8219 32.82 84.7164 32.8411 84.6186 32.883C84.5208 32.9248 84.4328 32.9863 84.3602 33.0638C84.2876 33.1412 84.2319 33.2328 84.1966 33.3327C84.1614 33.4327 84.1473 33.5389 84.1554 33.6444V47.2687C84.1485 47.4799 84.226 47.6851 84.3709 47.8395C84.5157 47.9938 84.7161 48.0848 84.9282 48.0924C85.0375 48.0943 85.146 48.0744 85.2472 48.0337C85.3485 47.993 85.4405 47.9324 85.5178 47.8556C85.595 47.7786 85.6559 47.6871 85.6967 47.5862C85.7377 47.4854 85.7577 47.3774 85.7557 47.2687V42.1643C85.7557 40.2962 86.6388 39.3621 88.4051 39.3621C90.1712 39.3621 90.7745 40.1314 90.7745 41.9992V47.2732C90.7725 47.3819 90.7925 47.4899 90.8335 47.5908C90.8744 47.6916 90.9352 47.7832 91.0124 47.8601C91.0897 47.9369 91.1818 47.9975 91.283 48.0382C91.3843 48.079 91.4928 48.0989 91.602 48.0969C91.7084 48.0977 91.8139 48.0766 91.9116 48.0348C92.0094 47.9929 92.0974 47.9313 92.17 47.8539C92.2427 47.7765 92.2984 47.6849 92.3336 47.5849C92.3689 47.485 92.3829 47.3789 92.3748 47.2732V41.7207C92.3748 39.1934 91.0507 37.8753 88.4014 37.8753L88.4051 37.8744ZM98.2293 42.2141C97.0154 41.7751 96.022 41.4449 96.022 40.5658C96.022 39.5771 97.1257 39.4674 97.7326 39.4674C98.1379 39.4437 98.5437 39.5048 98.9238 39.6466C99.304 39.7885 99.6501 40.008 99.9399 40.2911C100.01 40.3652 100.096 40.4233 100.192 40.4612C100.287 40.4991 100.39 40.516 100.492 40.5105C100.681 40.5075 100.862 40.4313 100.996 40.298C101.13 40.1648 101.206 39.985 101.209 39.7966C101.205 39.619 101.147 39.4468 101.044 39.3022C100.645 38.8368 100.144 38.4703 99.5782 38.2321C99.0127 37.9938 98.3992 37.8902 97.7864 37.9297C95.744 37.9297 94.4746 38.9738 94.4746 40.5668C94.4746 42.5444 96.2407 43.1485 97.7864 43.6982C98.9457 44.0829 99.9937 44.4122 99.9937 45.2912C99.9937 46.445 98.6695 46.6646 97.8976 46.6646C97.4285 46.6848 96.9604 46.6073 96.5232 46.437C96.086 46.2668 95.6893 46.0075 95.3586 45.6758C95.2059 45.5322 95.0136 45.4374 94.8063 45.4037C94.6171 45.4067 94.4363 45.4829 94.3025 45.6161C94.1686 45.7493 94.0921 45.9291 94.0891 46.1175C94.0934 46.2952 94.1511 46.4675 94.2549 46.612C94.7165 47.1274 95.2882 47.5333 95.9279 47.8002C96.5677 48.0671 97.2594 48.188 97.9522 48.154C100.27 48.154 101.65 47.0556 101.65 45.2975C101.484 43.32 99.7176 42.7702 98.2275 42.2214L98.2293 42.2141ZM111.42 42.1044C111.418 41.1702 111.151 40.2557 110.647 39.4674C110.265 38.9459 109.755 38.5305 109.165 38.2606C108.576 37.9907 107.927 37.8753 107.281 37.9252C104.466 37.9252 102.866 39.793 102.866 43.0342C102.866 46.3851 104.466 48.1985 107.501 48.1985C108.738 48.2436 109.945 47.8106 110.868 46.9902C110.954 46.9265 111.024 46.8436 111.071 46.748C111.118 46.6525 111.142 46.5471 111.141 46.4405C111.138 46.2521 111.061 46.0723 110.928 45.9391C110.794 45.8058 110.613 45.7296 110.424 45.7265C110.261 45.7224 110.102 45.7816 109.982 45.8917C109.299 46.4539 108.441 46.7644 107.554 46.7706C107.141 46.7871 106.73 46.7164 106.347 46.5634C105.964 46.4103 105.617 46.1782 105.331 45.8825C105.044 45.5868 104.824 45.234 104.684 44.8474C104.544 44.4608 104.487 44.049 104.519 43.6393H110.479C111.417 43.5295 111.417 42.6504 111.417 42.0971L111.42 42.1044ZM107.28 39.3584C108.935 39.3584 109.763 40.2928 109.818 42.1053H104.466C104.631 40.3499 105.624 39.3584 107.28 39.3584ZM117.601 37.9297C117.067 37.9031 116.534 38.0096 116.053 38.2398C115.571 38.47 115.155 38.8165 114.841 39.2478V38.8079C114.834 38.5967 114.742 38.3972 114.588 38.253C114.432 38.1088 114.226 38.0318 114.013 38.0385C113.912 38.0361 113.81 38.0543 113.715 38.0921C113.62 38.1298 113.534 38.1864 113.461 38.2583C113.39 38.3303 113.332 38.4161 113.294 38.5105C113.256 38.605 113.239 38.7061 113.241 38.8079V47.2678C113.248 47.479 113.34 47.6784 113.495 47.8226C113.65 47.9668 113.856 48.0439 114.069 48.037C114.17 48.0396 114.272 48.0213 114.367 47.9836C114.462 47.9458 114.549 47.8892 114.62 47.8173C114.692 47.7453 114.75 47.6596 114.788 47.5651C114.826 47.4706 114.844 47.3695 114.841 47.2678V42.5997C114.841 40.6221 115.89 39.4683 117.601 39.4683C117.806 39.4683 118.003 39.387 118.149 39.2424C118.294 39.0978 118.375 38.9017 118.375 38.6972C118.375 38.4927 118.294 38.2966 118.149 38.152C118.003 38.0074 117.806 37.9261 117.601 37.9261V37.9297ZM127.369 38.0395C127.207 38.0414 127.048 38.0888 126.912 38.1763C126.775 38.2637 126.666 38.3876 126.597 38.5339L123.781 45.4009L120.967 38.5357C120.924 38.3723 120.82 38.231 120.677 38.1395C120.534 38.048 120.362 38.013 120.195 38.0413C120.092 38.0389 119.991 38.057 119.896 38.0949C119.801 38.1326 119.715 38.1891 119.642 38.2611C119.57 38.333 119.514 38.4189 119.476 38.5133C119.438 38.6078 119.419 38.7089 119.421 38.8105C119.413 38.9232 119.432 39.0362 119.477 39.1399V39.1952L123.009 47.6007C123.096 47.792 123.253 47.9434 123.448 48.0248C123.642 48.1062 123.86 48.1116 124.058 48.0398C124.279 47.9844 124.39 47.8203 124.499 47.6007L128.032 39.1952V39.138C128.077 39.0343 128.096 38.9214 128.088 38.8088C128.101 38.7093 128.092 38.6082 128.061 38.5125C128.032 38.4168 127.98 38.3291 127.912 38.2556C127.843 38.182 127.759 38.1245 127.666 38.0872C127.572 38.0497 127.471 38.0335 127.37 38.0395H127.369ZM130.35 34.469C130.131 34.445 129.912 34.5053 129.737 34.6375C129.563 34.7696 129.445 34.9636 129.41 35.1793V35.3989C129.388 35.6394 129.462 35.8789 129.618 36.0645C129.773 36.25 129.997 36.3666 130.239 36.3885C130.48 36.4104 130.721 36.3359 130.908 36.1812C131.093 36.0265 131.21 35.8045 131.233 35.5639V35.4024C131.249 35.2939 131.244 35.1832 131.216 35.0769C131.19 34.9705 131.14 34.8708 131.074 34.7835C131.007 34.6963 130.923 34.6234 130.827 34.5692C130.731 34.5151 130.625 34.4806 130.516 34.4681H130.35V34.469ZM130.35 38.0395C130.247 38.037 130.146 38.0552 130.051 38.093C129.956 38.1308 129.87 38.1874 129.798 38.2593C129.725 38.3312 129.669 38.417 129.631 38.5115C129.593 38.6059 129.574 38.7071 129.576 38.8088V47.2687C129.569 47.3754 129.584 47.4824 129.619 47.5834C129.654 47.6844 129.71 47.7774 129.781 47.8567C129.853 47.9361 129.94 48.0003 130.038 48.0453C130.135 48.0904 130.241 48.1157 130.349 48.1194C130.455 48.1231 130.563 48.1052 130.662 48.067C130.763 48.0287 130.854 47.9708 130.932 47.8965C131.009 47.8223 131.071 47.7334 131.113 47.6351C131.155 47.5367 131.177 47.431 131.177 47.3241V38.8079C131.169 38.5969 131.078 38.3976 130.923 38.2536C130.768 38.1096 130.562 38.0326 130.35 38.0395ZM140.229 45.6758C140.05 45.68 139.877 45.7375 139.732 45.8409C139.085 46.3922 138.266 46.703 137.414 46.7199C135.538 46.7199 134.599 45.5116 134.599 43.0397C134.599 40.5677 135.537 39.3594 137.414 39.3594C137.822 39.3254 138.234 39.3931 138.609 39.5562C138.985 39.7193 139.314 39.9727 139.567 40.2937C139.726 40.4596 139.944 40.5572 140.174 40.5658C140.363 40.5629 140.544 40.4867 140.678 40.3534C140.811 40.2202 140.888 40.0404 140.891 39.852V39.7975C140.887 39.6199 140.829 39.4477 140.725 39.3032C140.326 38.818 139.819 38.4316 139.244 38.1742C138.67 37.9169 138.043 37.7957 137.413 37.82C134.488 37.82 132.998 39.578 132.998 42.929C132.998 46.2799 134.548 48.0933 137.413 48.0933C138.602 48.1056 139.756 47.6966 140.67 46.9395C140.769 46.8718 140.85 46.7817 140.908 46.6768C140.965 46.5718 140.997 46.4548 141.001 46.3353C140.981 46.1476 140.89 45.9744 140.747 45.8517C140.603 45.729 140.417 45.6659 140.228 45.6758H140.229ZM149.721 45.6758C149.558 45.6717 149.4 45.7309 149.28 45.8409C148.596 46.4032 147.738 46.7135 146.851 46.7199C146.439 46.7363 146.028 46.6656 145.644 46.5126C145.261 46.3595 144.915 46.1275 144.628 45.8318C144.341 45.536 144.121 45.1833 143.98 44.7966C143.841 44.41 143.785 43.9982 143.815 43.5885H149.775C150.769 43.5885 150.769 42.7094 150.769 42.1053C150.768 41.1712 150.499 40.2566 149.997 39.4683C149.614 38.9469 149.104 38.5315 148.515 38.2615C147.925 37.9916 147.277 37.8762 146.63 37.9261C143.814 37.9261 142.214 39.7939 142.214 43.0351C142.214 46.386 143.814 48.1995 146.85 48.1995C148.087 48.2445 149.293 47.8116 150.217 46.9912C150.302 46.9275 150.372 46.8445 150.419 46.7489C150.468 46.6534 150.491 46.548 150.49 46.4414C150.493 46.3397 150.475 46.2385 150.437 46.1441C150.399 46.0496 150.341 45.9639 150.27 45.8919C150.197 45.82 150.111 45.7634 150.016 45.7256C149.921 45.6879 149.819 45.6696 149.718 45.6722L149.721 45.6758ZM146.635 39.3584C148.29 39.3584 149.118 40.2928 149.173 42.1053H143.82C143.986 40.3473 144.979 39.3584 146.635 39.3584Z" fill="#4D4D4D"/>
    <path d="M29.7225 23.5899H42.0266C42.5695 23.5867 43.1076 23.6914 43.6096 23.8976C44.1118 24.1039 44.568 24.4077 44.9518 24.7916C45.3357 25.1754 45.6395 25.6316 45.8457 26.1337C46.052 26.6358 46.1566 27.1738 46.1534 27.7167V40.0208C46.1564 42.1685 45.7355 44.2957 44.915 46.2804C44.0944 48.2652 42.8903 50.0686 41.3717 51.5872C39.853 53.1059 38.0496 54.31 36.0648 55.1305C34.08 55.9511 31.9528 56.372 29.8051 56.3691H29.7225C25.3758 56.3691 21.2071 54.6423 18.1334 51.5687C15.0598 48.495 13.333 44.3262 13.333 39.9795C13.333 35.6327 15.0598 31.464 18.1334 28.3903C21.2071 25.3167 25.3758 23.5899 29.7225 23.5899Z" fill="#08C7FB"/>
    <path d="M29.5233 48.1012C29.5735 48.1396 29.6311 48.1676 29.6923 48.1835C29.7537 48.1995 29.8174 48.2031 29.8801 48.1941C29.9428 48.1851 30.003 48.1636 30.0572 48.131C30.1116 48.0985 30.1588 48.0554 30.1962 48.0043L35.3865 40.7952L36.5403 39.1604C36.6215 39.0256 36.656 38.8678 36.6386 38.7114C36.621 38.5551 36.5525 38.4089 36.4435 38.2953C36.3467 38.1985 36.2515 38.1985 36.0594 38.1985H28.2742L30.1979 32.4338C30.227 32.383 30.2453 32.3268 30.252 32.2687C30.2587 32.2105 30.2533 32.1515 30.2364 32.0955C30.2195 32.0394 30.1913 31.9875 30.1535 31.9427C30.1158 31.898 30.0693 31.8614 30.017 31.8352C29.9646 31.809 29.9075 31.7938 29.849 31.7905C29.7906 31.7871 29.7321 31.7958 29.6771 31.8158C29.6222 31.8359 29.5718 31.867 29.5292 31.9072C29.4867 31.9474 29.4528 31.9959 29.4297 32.0497L24.2394 39.2588L22.9903 40.7968C22.9091 40.9316 22.8747 41.0894 22.8921 41.2457C22.9097 41.4021 22.9782 41.5483 23.0871 41.6619C23.1839 41.7587 23.2792 41.7587 23.4712 41.7587H31.2565L29.3344 47.5266C29.2915 47.6291 29.287 47.7435 29.3218 47.8491C29.3564 47.9546 29.428 48.0441 29.5233 48.1012Z" fill="white"/>
    </svg>
