<svg width="166" height="80" viewBox="0 0 166 80" fill="none" xmlns="http://www.w3.org/2000/svg">
    <path d="M60.4629 54.5313H26.0526C24.7183 54.5313 23.5947 53.4428 23.5947 52.0735V27.2137C23.5947 25.8794 24.6832 24.7559 26.0526 24.7559H60.4629C61.7972 24.7559 62.9209 25.8444 62.9209 27.2137V52.0735C62.9209 53.4428 61.8324 54.5313 60.4629 54.5313Z" fill="#E3E3E3"/>
    <path opacity="0.1" d="M28.5113 54.5315L43.2235 42.6985L43.3288 42.0665L28.1601 31.1465L28.125 54.0047L28.5113 54.5315Z" fill="#231F20"/>
    <path d="M26.0526 54.5314C24.6832 54.5314 23.5947 53.4429 23.5947 52.0735V27.1787C23.5947 25.8093 24.6832 25.5635 26.0526 25.5635C27.422 25.5635 28.5105 25.8444 28.5105 27.1787V54.5314H26.0526Z" fill="#D54B3D"/>
    <path d="M26.0526 25.9147C27.8083 25.9147 28.1593 26.4413 28.1593 27.1787V54.1803H26.0526C24.8939 54.1803 23.9458 53.2322 23.9458 52.0735V27.1787C23.9458 26.4062 24.297 25.9147 26.0526 25.9147ZM26.0526 25.5635C24.6832 25.5635 23.5947 25.8444 23.5947 27.1787V52.0735C23.5947 53.4429 24.6832 54.5314 26.0526 54.5314H28.5105V27.1787C28.5105 25.8093 27.422 25.5635 26.0526 25.5635Z" fill="#D72B27"/>
    <path d="M60.4637 54.5314H58.0059V27.1084C58.0059 25.7391 59.0944 25.5635 60.4637 25.5635C61.8331 25.5635 62.9216 25.7391 62.9216 27.1084V52.1086C62.9216 53.4429 61.8331 54.5314 60.4637 54.5314Z" fill="#D54B3D"/>
    <path d="M60.4637 25.9147C62.0438 25.9147 62.5705 26.2307 62.5705 27.1084V52.1086C62.5705 53.2674 61.6225 54.2154 60.4637 54.2154H58.3569V27.1084C58.3569 26.1955 58.8836 25.9147 60.4637 25.9147ZM60.4637 25.5635C59.0944 25.5635 58.0059 25.7391 58.0059 27.1084V54.5666H60.4637C61.8331 54.5666 62.9216 53.478 62.9216 52.1086V27.1084C62.9216 25.7391 61.8331 25.5635 60.4637 25.5635Z" fill="#D72B27"/>
    <path d="M49.9295 54.5313L23.8008 28.1996L25.1751 28.7587L43.3634 41.8557L62.9212 27.5144V52.1086C62.9212 53.4429 61.8327 54.5313 60.4632 54.5313H49.9295Z" fill="url(#paint0_linear)"/>
    <path d="M43.2233 42.699L24.6487 29.2158C23.5602 28.4082 23.2442 26.8632 24.0518 25.7747C24.8594 24.6863 26.4395 24.4404 27.5631 25.248L43.2584 36.6596L59.0591 25.1076C60.1476 24.3 61.6925 24.5457 62.5001 25.6693C63.3077 26.7578 63.062 28.3028 61.9383 29.1104L43.2233 42.699Z" fill="#D54B3D"/>
    <path d="M60.4633 24.9666C61.1303 24.9666 61.7623 25.2827 62.1838 25.8444C62.8509 26.7925 62.6402 28.0916 61.7273 28.7938L43.223 42.2771L24.8591 28.9343C23.911 28.2321 23.6652 26.8978 24.3323 25.9849C24.7185 25.4581 25.3857 25.1071 26.088 25.1071C26.5444 25.1071 27.0009 25.2475 27.352 25.5284L43.0123 36.9049L43.223 37.0453L43.4336 36.9049L59.1992 25.3528C59.5854 25.1071 60.0067 24.9666 60.4633 24.9666ZM60.4633 24.6155C59.9717 24.6155 59.4449 24.7559 59.0236 25.072L43.223 36.624L27.5276 25.2124C27.1062 24.8964 26.5796 24.7559 26.0529 24.7559C25.2804 24.7559 24.5079 25.1071 24.0163 25.7741C23.2439 26.8627 23.5599 28.4077 24.6484 29.2153L43.223 42.7336L61.9029 29.1099C62.9914 28.3023 63.2371 26.7925 62.4646 25.6688C61.973 24.9666 61.2357 24.6155 60.4633 24.6155Z" fill="#D72B27"/>
    <path d="M96.2386 39.9716C96.2936 41.0957 96.1217 42.2195 95.7336 43.2743C95.3456 44.3291 94.7493 45.2928 93.9813 46.1068C93.1235 47.0131 92.0853 47.7244 90.9352 48.1936C89.7852 48.6627 88.5497 48.8789 87.3107 48.828C86.0644 48.8389 84.8284 48.5977 83.6755 48.1184C82.5226 47.6392 81.4759 46.9316 80.5971 46.0372C79.7181 45.1428 79.0245 44.0796 78.5573 42.9102C78.09 41.7408 77.8584 40.4886 77.8759 39.2272C77.8584 37.9659 78.0901 36.7137 78.5574 35.5443C79.0246 34.3749 79.7182 33.3117 80.5972 32.4174C81.476 31.523 82.5227 30.8154 83.6756 30.3363C84.8285 29.8571 86.0644 29.6158 87.3107 29.6268C88.6043 29.6189 89.8874 29.8628 91.09 30.3455C92.207 30.7782 93.2066 31.4733 94.0064 32.3734L92.3327 34.0677C91.7483 33.3636 91.0042 32.8131 90.164 32.4631C89.262 32.0752 88.2908 31.8787 87.3107 31.8858C86.3778 31.8667 85.4508 32.0414 84.5872 32.399C83.7235 32.7567 82.9414 33.2896 82.2891 33.965C80.9842 35.3992 80.2599 37.2777 80.2599 39.2273C80.2599 41.1771 80.9842 43.0555 82.2891 44.4898C82.9414 45.1652 83.7235 45.6981 84.5872 46.0556C85.4509 46.4133 86.3778 46.588 87.3107 46.569C88.9505 46.6276 90.5554 46.0802 91.8255 45.0287C92.4316 44.497 92.9275 43.8489 93.2845 43.1219C93.6415 42.3948 93.8524 41.6034 93.9052 40.7933H87.3107V38.5856H96.1116C96.1942 39.0429 96.2366 39.5067 96.2386 39.9716Z" fill="#787879"/>
    <path d="M101.025 47.9999H98.7539V35.876H100.926V37.5585H101.025C101.41 36.9269 101.96 36.4133 102.617 36.0738C103.299 35.6801 104.072 35.4751 104.86 35.4794C105.647 35.4838 106.418 35.6975 107.096 36.0986C107.757 36.4962 108.275 37.094 108.577 37.8059C109.003 37.0816 109.614 36.4842 110.347 36.0754C111.08 35.6666 111.909 35.4611 112.748 35.4801C113.348 35.4432 113.949 35.5393 114.507 35.7617C115.066 35.984 115.57 36.3272 115.981 36.7668C116.797 37.8048 117.202 39.1091 117.116 40.4284V47.9999H114.846V40.7749C114.92 39.9082 114.703 39.0414 114.228 38.313C113.962 38.0391 113.636 37.8289 113.277 37.6983C112.919 37.5677 112.535 37.5198 112.155 37.5584C111.728 37.5571 111.305 37.6573 110.924 37.8509C110.542 38.0443 110.212 38.3257 109.958 38.6717C109.366 39.4151 109.052 40.3431 109.07 41.2946V47.9998H106.799V40.7749C106.874 39.9082 106.657 39.0415 106.183 38.3129C105.916 38.039 105.591 37.8289 105.232 37.6983C104.873 37.5676 104.49 37.5198 104.109 37.5584C103.682 37.557 103.26 37.6572 102.878 37.8507C102.496 38.0442 102.166 38.3256 101.913 38.6717C101.32 39.415 101.006 40.343 101.024 41.2946L101.025 47.9999Z" fill="#787879"/>
    <path d="M124.15 35.4822C125.616 35.399 127.059 35.8982 128.174 36.8758C128.674 37.3678 129.064 37.9639 129.318 38.6236C129.572 39.2833 129.685 39.9912 129.649 40.6995V48.4235H127.449V46.6844H127.35C126.953 47.3489 126.394 47.8964 125.727 48.2731C125.062 48.6498 124.311 48.8426 123.55 48.8327C122.311 48.873 121.102 48.4349 120.163 47.6051C119.727 47.2295 119.379 46.759 119.143 46.228C118.908 45.6969 118.791 45.1189 118.801 44.5358C118.781 43.9399 118.901 43.3479 119.151 42.8095C119.401 42.2709 119.774 41.8017 120.238 41.4411C121.353 40.6244 122.706 40.2187 124.075 40.2904C125.246 40.244 126.408 40.5083 127.449 41.0577V40.5204C127.452 40.1226 127.368 39.7291 127.204 39.3686C127.04 39.008 126.799 38.6896 126.5 38.4361C125.89 37.8741 125.095 37.568 124.275 37.5791C123.67 37.5649 123.072 37.7106 122.537 38.0018C122.003 38.2929 121.552 38.72 121.226 39.2418L119.201 37.9372C119.753 37.1302 120.497 36.4809 121.363 36.0513C122.23 35.6216 123.189 35.4257 124.15 35.4822ZM121.175 44.5872C121.173 44.8866 121.242 45.1821 121.374 45.4489C121.508 45.7159 121.701 45.9465 121.937 46.1216C122.446 46.5312 123.078 46.7481 123.725 46.7354C124.695 46.7339 125.626 46.3384 126.312 45.6356C126.67 45.3122 126.956 44.9147 127.153 44.4692C127.349 44.0239 127.45 43.5409 127.449 43.0525C126.574 42.4238 125.517 42.1173 124.45 42.1831C123.619 42.1522 122.8 42.3941 122.113 42.8735C121.829 43.0561 121.594 43.3087 121.431 43.6081C121.267 43.9075 121.18 44.2441 121.175 44.5872Z" fill="#787879"/>
    <path d="M135.501 31.2759C135.5 31.6568 135.366 32.0256 135.121 32.3195C134.875 32.6136 134.534 32.8146 134.155 32.8884C133.776 32.9622 133.382 32.9043 133.042 32.7244C132.702 32.5445 132.435 32.2539 132.288 31.9019C132.14 31.55 132.121 31.1585 132.234 30.7941C132.345 30.4298 132.582 30.1151 132.903 29.9036C133.225 29.6921 133.611 29.5971 133.995 29.6344C134.379 29.6717 134.739 29.8393 135.012 30.1086C135.17 30.2599 135.295 30.4416 135.379 30.6423C135.463 30.8431 135.505 31.0587 135.501 31.2759ZM135.012 35.565V48H132.644V35.565H135.012Z" fill="#787879"/>
    <path d="M140.512 30.4614V47.9999H138.007V30.4614H140.512Z" fill="#787879"/>
    <defs>
    <linearGradient id="paint0_linear" x1="23.8023" y1="41.0223" x2="62.9338" y2="41.0223" gradientUnits="userSpaceOnUse">
    <stop stop-opacity="0.1"/>
    <stop offset="1" stop-opacity="0.2"/>
    </linearGradient>
    </defs>
    </svg>
