<svg width="54" height="55" viewBox="0 0 54 55" fill="none" xmlns="http://www.w3.org/2000/svg">
<path d="M44.9564 35.7307C44.9564 35.4385 44.8745 35.2069 44.7106 35.0359C44.5502 34.8612 44.2758 34.7009 43.8874 34.5548C43.499 34.4087 43.1641 34.2644 42.8826 34.1218C42.6011 33.9757 42.3587 33.8101 42.1556 33.6248C41.9561 33.4359 41.7993 33.215 41.6853 32.962C41.5748 32.709 41.5196 32.4079 41.5196 32.0586C41.5196 31.4564 41.712 30.9629 42.0968 30.5781C42.4817 30.1932 42.993 29.9687 43.6309 29.9046V28.7607H44.4861V29.9206C45.1168 30.0097 45.6103 30.2734 45.9667 30.7117C46.323 31.1464 46.5012 31.7112 46.5012 32.4061H44.9564C44.9564 31.9785 44.8674 31.6596 44.6892 31.4493C44.5146 31.2355 44.2794 31.1286 43.9836 31.1286C43.6914 31.1286 43.4652 31.2123 43.3048 31.3798C43.1445 31.5437 43.0643 31.7718 43.0643 32.064C43.0643 32.3348 43.1427 32.5522 43.2995 32.7161C43.4563 32.88 43.7467 33.0475 44.1707 33.2185C44.5983 33.3896 44.9493 33.5517 45.2237 33.7049C45.4981 33.8546 45.7297 34.0256 45.9186 34.2181C46.1074 34.4069 46.2517 34.6243 46.3515 34.8702C46.4513 35.1125 46.5012 35.3958 46.5012 35.72C46.5012 36.3258 46.3123 36.8175 45.9346 37.1953C45.5569 37.573 45.0366 37.7957 44.3738 37.8634V38.9271H43.524V37.8687C42.7935 37.7903 42.2269 37.532 41.8242 37.0937C41.4251 36.6518 41.2256 36.0657 41.2256 35.3352H42.7703C42.7703 35.7592 42.8701 36.0853 43.0696 36.3133C43.2727 36.5378 43.5632 36.6501 43.9409 36.6501C44.2545 36.6501 44.5021 36.5681 44.6838 36.4042C44.8656 36.2367 44.9564 36.0122 44.9564 35.7307Z" fill="#8B8B8B"/>
<circle cx="44.0542" cy="33.4" r="8.69422" stroke="#8B8B8B" stroke-width="1.66132"/>
<circle cx="10.6933" cy="9.82962" r="2.10433" stroke="#8B8B8B" stroke-width="1.10755"/>
<circle cx="22.7147" cy="11.9811" r="2.10433" stroke="#8B8B8B" stroke-width="1.10755"/>
<circle cx="20.9755" cy="51.6222" r="2.10433" stroke="#8B8B8B" stroke-width="1.10755"/>
<circle cx="17.8719" cy="3.5858" r="3.03202" stroke="#8B8B8B" stroke-width="1.10755"/>
<path d="M21.7689 44.3293L13.6345 48.9641V32.506L2 16.4261H34.6326L21.7689 32.506V44.3293Z" stroke="#8B8B8B" stroke-width="1.10755"/>
</svg>
