<svg width="19" height="19" viewBox="0 0 19 19" fill="none" xmlns="http://www.w3.org/2000/svg">
<path opacity="0.4" d="M15.8189 15.6387H13.1307V11.4203C13.1307 10.4144 13.1097 9.12171 11.725 9.12171C10.3232 9.12171 10.1097 10.2128 10.1097 11.3459V15.6381H7.41802V6.96455H10.0034V8.14764H10.0381C10.3993 7.46436 11.278 6.74588 12.5889 6.74588C15.3157 6.74588 15.8218 8.54124 15.8218 10.8756V15.6381L15.8189 15.6387ZM4.37708 5.77918C4.17163 5.77926 3.96818 5.7388 3.77839 5.66013C3.5886 5.58145 3.4162 5.46611 3.27105 5.3207C3.12591 5.17529 3.01088 5.00268 2.93255 4.81275C2.85422 4.62281 2.81413 4.41929 2.81458 4.21384C2.81492 3.90461 2.90694 3.60242 3.07901 3.34548C3.25108 3.08854 3.49547 2.88839 3.78128 2.77034C4.06709 2.65229 4.38149 2.62163 4.68473 2.68225C4.98796 2.74287 5.26641 2.89204 5.48488 3.11089C5.70334 3.32975 5.852 3.60848 5.91207 3.91182C5.97213 4.21516 5.94091 4.52951 5.82234 4.8151C5.70376 5.1007 5.50317 5.34473 5.24592 5.51633C4.98867 5.68793 4.68631 5.77941 4.37708 5.77918ZM5.72545 15.6387H3.02814V6.96511H5.72545V15.6387ZM17.1684 0.149414H1.67636C0.936287 0.149414 0.335938 0.734996 0.335938 1.45973V17.0149C0.335938 17.7396 0.936287 18.3252 1.67636 18.3252H17.1656C17.9045 18.3252 18.5111 17.7396 18.5111 17.0149V1.45973C18.5111 0.734996 17.9045 0.149414 17.1656 0.149414H17.1684Z" fill="white"/>
</svg>
