<svg width="166" height="80" viewBox="0 0 166 80" fill="none" xmlns="http://www.w3.org/2000/svg">
    <path d="M33.9746 50.9314C34.0157 50.6655 34.0263 31.4282 33.9872 31.0084C30.8101 31.7871 27.6377 32.5649 24.4522 33.3456V46.9063C22.8122 47.5658 21.1782 48.2225 19.5448 48.8785C19.5342 48.8726 19.5251 48.8692 19.5167 48.863C19.5095 48.8575 19.5003 48.8494 19.4997 48.842C19.4945 48.7913 19.4879 48.7404 19.4879 48.689C19.4873 43.2095 19.4873 37.7295 19.4873 32.2636C19.5604 32.1709 19.6549 32.1593 19.7371 32.1282C24.406 30.3294 29.0764 28.5323 33.7458 26.7335C33.9075 26.6712 34.0543 26.6406 34.2336 26.6948C36.7957 27.4599 39.3603 28.2161 41.9242 28.9752C41.9614 28.9867 41.9986 29.0003 42.0514 29.0178V52.1128C41.3152 52.3234 40.5856 52.5341 39.8552 52.7412C37.9961 53.2687 36.1358 53.792 34.278 54.3234C34.096 54.3756 33.9369 54.3716 33.7581 54.3039C29.1656 52.5577 24.5709 50.8171 19.9778 49.0757C19.8871 49.0412 19.7983 49.0025 19.7221 48.9193C24.4731 49.5902 29.2242 50.2605 33.9746 50.9314Z" fill="#DC3E15"/>
    <path d="M69.7913 38.6274H67.6924V36.9617H69.7049C69.8233 36.8546 69.7899 36.7529 69.7899 36.6626C69.7932 36.0687 69.7913 35.4739 69.792 34.8793C69.7927 34.169 69.9119 33.4819 70.2497 32.8487C70.9387 31.559 72.0259 30.8664 73.5021 30.783C73.9867 30.7558 74.4702 30.7753 74.9427 30.9056C75.0241 30.928 75.1032 30.9596 75.1929 30.9904V32.7143C75.0977 32.7611 75.0317 32.6855 74.9581 32.6567C74.4233 32.4473 73.8752 32.3884 73.3123 32.5074C72.7773 32.6216 72.3764 32.9152 72.1198 33.3985C71.9579 33.7046 71.8627 34.0324 71.8326 34.3708C71.7561 35.2169 71.8094 36.0651 71.7968 36.9323H76.6034C76.6714 36.8462 76.6455 36.758 76.6455 36.6766C76.6482 36.0393 76.6384 35.4018 76.6489 34.765C76.6678 33.638 77.0226 32.6414 77.8504 31.835C78.4981 31.2055 79.2824 30.8678 80.1804 30.792C80.6955 30.7488 81.2129 30.7606 81.7197 30.8859C81.8333 30.9133 81.9532 30.9273 82.0514 31.0155V32.7492C81.7247 32.626 81.417 32.5103 81.0853 32.4697C80.7489 32.4291 80.4182 32.4444 80.0928 32.5243C79.5475 32.6587 79.1591 32.9887 78.9256 33.4925C78.7631 33.8441 78.6727 34.2181 78.6636 34.6018C78.6473 35.3445 78.6536 36.0882 78.6516 36.8315C78.6516 36.8609 78.6663 36.8903 78.6826 36.9505H81.5494V38.6189H78.6509V49.2308H76.6538C76.6391 48.7351 76.6489 48.2306 76.6468 47.7269C76.6455 47.2282 76.6468 46.7289 76.6468 46.2302V38.638H71.7988V49.2301H69.7991C69.7828 48.8541 69.7939 48.4666 69.792 48.08C69.7899 47.6878 69.7913 47.2947 69.7913 46.9019V38.6274Z" fill="#DC3E15"/>
    <path d="M51.2822 40.7167C51.2999 39.0847 51.5388 37.5388 52.2156 36.0898C53.2611 33.8504 54.9828 32.5067 57.3192 32.0028C58.7142 31.7015 60.1126 31.709 61.4822 32.1493C63.7198 32.8687 65.2201 34.4118 66.0568 36.6585C66.5969 38.1072 66.7333 39.618 66.6394 41.157C66.5767 42.1756 66.4109 43.1752 66.0693 44.137C65.0784 46.9308 63.1718 48.6134 60.3334 49.0994C58.7548 49.3698 57.1925 49.2378 55.7065 48.5636C53.819 47.7071 52.5807 46.2256 51.8646 44.248C51.4487 43.097 51.2927 41.9004 51.2822 40.7167ZM64.6669 40.4395C64.6552 40.2047 64.6473 39.8624 64.6205 39.5214C64.5395 38.5016 64.337 37.5109 63.8956 36.5875C63.3084 35.3592 62.4299 34.4452 61.1739 33.9572C60.5587 33.7184 59.9185 33.6136 59.2622 33.5992C57.067 33.5512 55.391 34.4823 54.2703 36.4449C53.7158 37.4156 53.4263 38.4829 53.3337 39.5995C53.2142 41.0303 53.3303 42.438 53.8503 43.7879C54.412 45.2481 55.3381 46.3585 56.7516 46.9877C57.6457 47.3853 58.5835 47.4826 59.5483 47.395C61.654 47.2039 63.145 46.1155 64.0183 44.128C64.5172 42.9924 64.6499 41.7793 64.6669 40.4395Z" fill="#DC3E15"/>
    <path d="M133.338 32.2767V34.0327C133.263 34.0875 133.205 34.0312 133.145 34.0024C132.49 33.6862 131.803 33.499 131.082 33.4469C129.809 33.3555 128.715 33.7562 127.835 34.7406C127.206 35.4436 126.788 36.2771 126.505 37.1861C126.149 38.322 126.03 39.4963 126.019 40.7036C126.152 40.6776 126.161 40.5569 126.204 40.4773C126.616 39.7284 127.161 39.1294 127.923 38.7665C128.362 38.5579 128.821 38.4413 129.3 38.4085C129.979 38.3617 130.651 38.4016 131.301 38.6273C132.636 39.0917 133.533 40.0458 133.995 41.4158C134.506 42.9304 134.478 44.4634 133.915 45.9597C133.104 48.1121 131.263 49.3209 129.016 49.2256C127.524 49.1623 126.355 48.4839 125.492 47.2184C124.898 46.3492 124.556 45.369 124.353 44.3305C124.074 42.8925 124.054 41.4418 124.168 39.9847C124.275 38.6198 124.548 37.2951 125.066 36.0316C125.546 34.8578 126.211 33.8247 127.182 33.0291C128.178 32.2128 129.313 31.8128 130.575 31.7958C131.303 31.7868 132.023 31.8423 132.728 32.0434C132.928 32.101 133.127 32.1683 133.338 32.2767ZM126.134 43.7322C126.145 44.6151 126.435 45.6577 127.169 46.5393C128.114 47.6745 129.508 47.8138 130.587 47.3205C131.472 46.9158 132.001 46.1647 132.265 45.2139C132.544 44.2008 132.518 43.1787 132.207 42.1764C131.928 41.273 131.394 40.5857 130.524 40.2441C129.867 39.9868 129.185 39.954 128.505 40.1357C127.083 40.515 126.126 41.8663 126.134 43.7322Z" fill="#DC3E15"/>
    <path d="M136.724 40.3248C136.908 37.5034 137.093 34.6589 137.28 31.7949H144.86V33.5057C144.859 33.5076 144.855 33.5168 144.847 33.5231C144.839 33.5301 144.83 33.5365 144.821 33.5391C144.802 33.5454 144.783 33.5524 144.762 33.5524C142.829 33.5524 140.896 33.5524 138.922 33.5524C138.799 35.2215 138.693 36.8801 138.593 38.5331C138.719 38.6013 138.82 38.565 138.918 38.5624C139.706 38.5386 140.495 38.4827 141.282 38.6001C142.292 38.7514 143.226 39.09 144.028 39.7693C144.852 40.4651 145.341 41.3725 145.525 42.4503C145.712 43.5371 145.691 44.6247 145.333 45.676C144.8 47.2439 143.734 48.2608 142.257 48.8305C141.329 49.1884 140.364 49.2535 139.386 49.2248C138.655 49.2039 137.933 49.1265 137.232 48.898C136.999 48.8221 136.776 48.7243 136.56 48.6071C136.475 48.5611 136.41 48.5128 136.41 48.3941C136.414 47.7617 136.413 47.1286 136.413 46.4787C136.521 46.4704 136.58 46.5339 136.643 46.573C137.471 47.0887 138.355 47.4329 139.319 47.5251C140.138 47.6039 140.941 47.5343 141.696 47.1719C142.867 46.6107 143.534 45.6586 143.674 44.3108C143.729 43.7893 143.708 43.2733 143.577 42.7687C143.311 41.7355 142.672 41.0426 141.739 40.6355C141.182 40.3926 140.595 40.2773 139.996 40.2557C138.973 40.2202 137.951 40.2432 136.933 40.3618C136.876 40.3688 136.815 40.394 136.724 40.3248Z" fill="#DC3E15"/>
    <path d="M107.685 43.5646H99.4164C99.3806 43.98 99.4528 44.3654 99.5309 44.7482C99.6478 45.3188 99.8636 45.8497 100.225 46.3137C100.798 47.0478 101.566 47.4392 102.479 47.5613C103.976 47.7613 105.336 47.4019 106.571 46.5484C106.646 46.4971 106.723 46.4498 106.8 46.4018C106.806 46.3972 106.818 46.4011 106.83 46.4011C106.886 46.4825 106.859 46.5759 106.86 46.6638C106.863 47.0478 106.848 47.4325 106.866 47.8152C106.877 48.0374 106.794 48.1626 106.608 48.2755C106.005 48.6449 105.358 48.8982 104.666 49.0382C103.622 49.2496 102.569 49.3075 101.521 49.1077C99.7723 48.7728 98.6073 47.726 97.9405 46.1037C97.6812 45.4723 97.5423 44.8102 97.482 44.134C97.3789 42.9778 97.4292 41.8329 97.8214 40.7234C98.3263 39.2965 99.1736 38.147 100.564 37.4682C101.939 36.7966 103.366 36.7582 104.789 37.2835C106.028 37.7409 106.804 38.6731 107.265 39.882C107.531 40.578 107.649 41.3056 107.681 42.0444C107.703 42.5363 107.685 43.0299 107.685 43.5646ZM105.751 41.9542C105.743 41.1095 105.596 40.328 105.117 39.6365C104.851 39.2538 104.508 38.9492 104.07 38.7871C103.016 38.3976 101.99 38.4457 101.052 39.1018C100.072 39.7887 99.6127 40.7874 99.4229 41.9542C101.533 41.9542 103.62 41.9542 105.751 41.9542Z" fill="#DC3E15"/>
    <path d="M114.42 41.0063V39.4426C114.538 39.3844 114.645 39.4103 114.752 39.4098C115.36 39.4035 115.969 39.4247 116.576 39.355C117.086 39.2961 117.584 39.1912 118.055 38.9685C119.002 38.5189 119.502 37.7352 119.576 36.6428C119.605 36.2166 119.596 35.7905 119.497 35.374C119.256 34.3448 118.608 33.7651 117.65 33.5567C116.286 33.2607 115.02 33.5382 113.854 34.3358C113.788 34.3805 113.723 34.4283 113.659 34.475C113.603 34.5153 113.546 34.5551 113.446 34.6284C113.443 34.2851 113.441 33.9822 113.44 33.6794C113.438 33.3793 113.44 33.0785 113.44 32.7716C113.978 32.4193 114.549 32.1828 115.155 32.035C116.288 31.758 117.429 31.6881 118.564 31.9999C119.699 32.3117 120.592 32.9778 121.122 34.1152C121.474 34.8675 121.511 35.6727 121.431 36.4887C121.386 36.9663 121.273 37.4275 121.078 37.864C120.696 38.7184 120.067 39.3076 119.276 39.7119C119.038 39.8325 118.786 39.9222 118.539 40.0258C118.478 40.0512 118.401 40.0436 118.358 40.1409C118.732 40.2101 119.104 40.2773 119.457 40.4157C120.669 40.8891 121.591 41.7101 121.899 43.0681C122.307 44.8647 121.904 46.4674 120.59 47.7475C119.825 48.4922 118.905 48.9158 117.886 49.0932C116.592 49.3186 115.307 49.2774 114.039 48.893C113.67 48.7813 113.321 48.6191 112.986 48.4183C112.886 48.3579 112.819 48.2942 112.82 48.1551C112.828 47.5534 112.825 46.9512 112.828 46.3482C112.828 46.3316 112.847 46.3154 112.867 46.2809C112.953 46.3428 113.039 46.405 113.126 46.4674C114.588 47.5144 116.18 47.8172 117.897 47.3891C118.359 47.2734 118.777 47.043 119.148 46.7244C119.761 46.1974 120.088 45.5109 120.153 44.686C120.189 44.2501 120.167 43.8165 120.06 43.3888C119.88 42.681 119.494 42.1437 118.906 41.7628C118.387 41.4264 117.813 41.2598 117.218 41.1564C116.41 41.0159 115.595 41.0412 114.781 41.0378C114.666 41.0378 114.547 41.0639 114.42 41.0063Z" fill="#DC3E15"/>
    <path d="M95.3848 37.5272V39.3963C95.2662 39.3963 95.1946 39.3061 95.1099 39.2522C94.3239 38.7446 93.4801 38.4911 92.5586 38.5451C91.2025 38.6252 90.2252 39.345 89.5621 40.593C89.2647 41.154 89.1047 41.7663 89.0424 42.4046C88.9567 43.2763 88.9885 44.1415 89.2419 44.9832C89.7249 46.5861 90.9783 47.5727 92.5451 47.6033C93.4772 47.622 94.3233 47.3457 95.0989 46.7989C95.1761 46.7448 95.2416 46.6681 95.3585 46.6442V48.3783C95.3237 48.4405 95.2422 48.4737 95.1683 48.5131C93.4746 49.3969 91.7524 49.491 90.0293 48.6471C88.7925 48.0415 87.98 46.9803 87.5562 45.6083C86.9723 43.7147 87.0572 41.829 87.8833 40.0386C88.7239 38.2175 90.1419 37.2251 92.0143 36.9817C92.9976 36.8542 93.9645 36.925 94.9024 37.2906C95.0611 37.3525 95.2191 37.4166 95.3848 37.5272Z" fill="#DC3E15"/>
    <path d="M85.0932 49.2308H83.1498C83.0767 48.9906 83.0482 37.613 83.1143 36.9761C83.3485 36.9194 84.6399 36.9034 85.0925 36.9518C85.1373 37.1984 85.1431 48.8897 85.0932 49.2308Z" fill="#DC3E15"/>
    <path d="M83.0774 32.7946C83.0883 32.2157 83.5441 31.7812 84.1262 31.7953C84.7078 31.8093 85.1438 32.2661 85.128 32.844C85.1122 33.4155 84.646 33.8577 84.072 33.846C83.4877 33.8337 83.0663 33.3886 83.0774 32.7946Z" fill="#DC3E15"/>
</svg>
