<svg width="46" height="53" viewBox="0 0 46 53" fill="none" xmlns="http://www.w3.org/2000/svg">
<path d="M23.7958 9.12545C23.7958 8.83325 23.7139 8.60163 23.55 8.43059C23.3896 8.25598 23.1152 8.09563 22.7268 7.94953C22.3384 7.80343 22.0035 7.65912 21.722 7.51658C21.4405 7.37048 21.1981 7.20478 20.995 7.01949C20.7955 6.83063 20.6387 6.6097 20.5247 6.3567C20.4142 6.1037 20.359 5.8026 20.359 5.45338C20.359 4.85117 20.5514 4.35765 20.9362 3.9728C21.3211 3.58796 21.8324 3.36346 22.4703 3.29932V2.15548H23.3255V3.31536C23.9562 3.40444 24.4497 3.66813 24.8061 4.10643C25.1624 4.54116 25.3406 5.10595 25.3406 5.80081H23.7958C23.7958 5.37321 23.7068 5.05429 23.5286 4.84405C23.354 4.63024 23.1188 4.52334 22.823 4.52334C22.5308 4.52334 22.3046 4.60708 22.1442 4.77456C21.9839 4.93848 21.9037 5.16653 21.9037 5.45873C21.9037 5.72955 21.9821 5.94691 22.1389 6.11083C22.2957 6.27474 22.5861 6.44222 23.0101 6.61326C23.4377 6.78431 23.7887 6.94644 24.0631 7.09967C24.3375 7.24933 24.5691 7.42037 24.758 7.61279C24.9468 7.80165 25.0911 8.01902 25.1909 8.26489C25.2907 8.5072 25.3406 8.79049 25.3406 9.11476C25.3406 9.72053 25.1517 10.2123 24.774 10.59C24.3963 10.9677 23.876 11.1904 23.2132 11.2581V12.3218H22.3634V11.2635C21.6329 11.1851 21.0663 10.9267 20.6636 10.4884C20.2645 10.0466 20.065 9.4604 20.065 8.72991H21.6097C21.6097 9.15395 21.7095 9.48 21.909 9.70806C22.1121 9.93255 22.4026 10.0448 22.7803 10.0448C23.0939 10.0448 23.3415 9.96284 23.5232 9.79892C23.705 9.63145 23.7958 9.40695 23.7958 9.12545Z" fill="#8B8B8B"/>
<circle cx="22.895" cy="9.52488" r="8.97111" stroke="#8B8B8B" stroke-width="1.10755"/>
<path d="M5.39941 25.6951H40.397" stroke="#8B8B8B" stroke-width="1.10755"/>
<path d="M22.8965 18.8282V25.695" stroke="#8B8B8B" stroke-width="1.10755"/>
<path d="M5.44631 37.1621C5.66258 37.3784 6.01321 37.3784 6.22947 37.1621L9.75367 33.6379C9.96993 33.4216 9.96993 33.071 9.75367 32.8547C9.53741 32.6385 9.18678 32.6385 8.97051 32.8547L5.83789 35.9874L2.70527 32.8547C2.48901 32.6385 2.13837 32.6385 1.92211 32.8547C1.70585 33.071 1.70585 33.4216 1.92211 33.6379L5.44631 37.1621ZM5.28412 25.6951L5.28412 36.7705H6.39167L6.39167 25.6951H5.28412Z" fill="#8B8B8B"/>
<path d="M22.5049 37.1621C22.7212 37.3784 23.0718 37.3784 23.2881 37.1621L26.8123 33.6379C27.0285 33.4216 27.0285 33.071 26.8123 32.8547C26.596 32.6385 26.2454 32.6385 26.0291 32.8547L22.8965 35.9874L19.7639 32.8547C19.5476 32.6385 19.197 32.6385 18.9807 32.8547C18.7644 33.071 18.7644 33.4216 18.9807 33.6379L22.5049 37.1621ZM22.3427 25.6951V36.7705H23.4503V25.6951H22.3427Z" fill="#8B8B8B"/>
<path d="M39.5606 37.1621C39.7768 37.3784 40.1275 37.3784 40.3437 37.1621L43.8679 33.6379C44.0842 33.4216 44.0842 33.071 43.8679 32.8547C43.6517 32.6385 43.301 32.6385 43.0848 32.8547L39.9521 35.9874L36.8195 32.8547C36.6033 32.6385 36.2526 32.6385 36.0364 32.8547C35.8201 33.071 35.8201 33.4216 36.0364 33.6379L39.5606 37.1621ZM39.3984 25.6951V36.7705H40.5059V25.6951H39.3984Z" fill="#8B8B8B"/>
<rect x="0.553775" y="41.4521" width="10.3474" height="10.3474" stroke="#8B8B8B" stroke-width="1.10755"/>
<rect x="17.9434" y="41.4521" width="10.3474" height="10.3474" stroke="#8B8B8B" stroke-width="1.10755"/>
<rect x="35.002" y="41.4521" width="10.3474" height="10.3474" stroke="#8B8B8B" stroke-width="1.10755"/>
</svg>
