<svg width="23" height="19" viewBox="0 0 23 19" fill="none" xmlns="http://www.w3.org/2000/svg">
<path opacity="0.4" d="M22.7081 2.3084C21.8854 2.6633 20.99 2.91872 20.0678 3.0182C21.0253 2.44938 21.7423 1.55074 22.0843 0.490882C21.1859 1.02535 20.2016 1.40014 19.1752 1.5986C18.7462 1.13999 18.2274 0.774641 17.651 0.525317C17.0747 0.275993 16.4531 0.148038 15.8252 0.149425C13.2844 0.149425 11.2411 2.20892 11.2411 4.73624C11.2411 5.09114 11.2841 5.44604 11.354 5.7875C7.54955 5.58854 4.15649 3.77102 1.90072 0.98828C1.4897 1.69032 1.27431 2.48969 1.27696 3.3032C1.27696 4.89487 2.08624 6.29834 3.32032 7.12375C2.59306 7.09511 1.88283 6.89521 1.24739 6.54032V6.59678C1.24739 8.82566 2.82293 10.6728 4.92275 11.0976C4.52849 11.2 4.1229 11.2524 3.71555 11.2535C3.41712 11.2535 3.13481 11.2239 2.84981 11.1836C3.43056 13.0011 5.12171 14.3212 7.1355 14.3643C5.55996 15.5983 3.5865 16.3243 1.44366 16.3243C1.05918 16.3243 0.704281 16.3108 0.335938 16.2678C2.36855 17.5718 4.78026 18.3246 7.37748 18.3246C15.809 18.3246 20.4227 11.3395 20.4227 5.27666C20.4227 5.0777 20.4227 4.87874 20.4093 4.67978C21.3019 4.02644 22.0843 3.21716 22.7081 2.3084Z" fill="white"/>
</svg>
