<svg width="46" height="19" viewBox="0 0 46 19" fill="none" xmlns="http://www.w3.org/2000/svg">
<g opacity="0.4">
<path d="M6.42282 3.15714L6.42964 3.12533L6.44781 2.99128L5.60715 2.98673C4.84829 2.98219 4.6154 2.98673 4.59495 3.00604C4.58473 3.01513 4.32231 4.01143 3.8554 5.81544C3.63274 6.67655 3.44529 7.36384 3.43848 7.34339C3.43166 7.32294 3.16583 6.34028 2.84547 5.15995C2.65367 4.43828 2.45523 3.71839 2.25019 3.00036C2.23883 2.989 1.22095 2.98446 0.396199 2.99128C0.276916 2.99241 0.209891 2.75839 1.46179 6.73903C1.63447 7.29 1.89462 8.07045 2.03776 8.4726C2.20362 8.9361 2.32176 9.29509 2.40242 9.59386C2.54556 10.163 2.55011 10.5197 2.51943 10.9366C2.48308 11.4172 2.47854 14.8139 2.51375 14.8707C2.54102 14.9139 4.13259 14.9343 4.28368 14.8934C4.30754 14.8866 4.32344 14.8639 4.3348 14.7355C4.37229 14.6253 4.3757 14.1857 4.3757 12.3612V10.0312L4.47794 9.70974C4.54497 9.49957 4.71196 8.94633 4.85056 8.48056L5.22204 7.24229C5.823 5.28378 6.39556 3.35821 6.41146 3.24802L6.42396 3.15827L6.42282 3.15714Z" fill="white"/>
<path d="M15.3349 5.98357V6.10513H15.3156L15.3054 9.45981L15.2951 12.7123L15.035 12.977C14.743 13.2735 14.5102 13.3871 14.2989 13.3337C14.0682 13.2757 14.0751 13.3655 14.0557 9.52116L14.0376 5.98244H12.3631V6.10399H12.3438V9.94376C12.3438 14.0573 12.3438 14.055 12.5528 14.4674C12.7186 14.7969 12.9617 14.957 13.3764 15.0116C13.9228 15.0843 14.5124 14.8366 15.0589 14.305L15.2963 14.0744V14.4731C15.2963 14.8173 15.3065 14.8741 15.369 14.8912C15.4712 14.9196 16.739 14.9218 16.8754 14.8934L16.989 14.8696V14.7514L17.0083 14.748V5.95972L15.336 5.98244L15.3349 5.98357Z" fill="white"/>
<path d="M11.0903 7.71729C10.9313 7.03681 10.6348 6.57899 10.1451 6.26318C9.37718 5.76673 8.49903 5.71334 7.68564 6.11549C7.09263 6.40859 6.70979 6.89481 6.51326 7.60823C6.48803 7.69403 6.47016 7.78182 6.45987 7.87065C6.40988 8.12285 6.4042 8.49774 6.39057 10.2484C6.37012 12.9453 6.40193 13.2656 6.73933 13.878C7.07105 14.4789 7.75834 14.9197 8.50699 15.0106C8.73192 15.0378 9.1886 14.9958 9.45216 14.922C10.0486 14.7561 10.6211 14.2847 10.8745 13.7496C10.986 13.5353 11.0587 13.303 11.0892 13.0634C11.163 12.6624 11.1687 12.0126 11.1687 10.3586C11.1687 8.24895 11.1619 8.01834 11.0914 7.71615L11.0903 7.71729ZM9.18065 13.2145C9.00797 13.3274 8.79766 13.3674 8.5956 13.3259C8.44223 13.2929 8.23434 13.0521 8.17072 12.8328C8.0912 12.559 8.08552 8.74994 8.15368 8.00357C8.26728 7.62982 8.5831 7.43442 8.92845 7.52757C9.19769 7.60028 9.33515 7.76841 9.41353 8.12172C9.47147 8.38414 9.47829 8.71018 9.46579 10.6289C9.45784 11.9013 9.4533 12.5238 9.41126 12.8578C9.36923 13.068 9.2988 13.1248 9.18065 13.2157V13.2145Z" fill="white"/>
<path d="M41.149 9.63133H41.9578L41.9453 8.8986C41.9328 8.22607 41.9226 8.14996 41.8329 7.96706C41.6909 7.67964 41.4818 7.55127 41.1501 7.55127C40.7514 7.55127 40.4992 7.74439 40.3799 8.13973C40.3288 8.30786 40.2754 9.46547 40.314 9.56544C40.3356 9.62111 40.4515 9.63133 41.149 9.63133Z" fill="white"/>
<path d="M35.7418 7.96491C35.6937 7.86391 35.6162 7.77976 35.5195 7.72342C35.4229 7.66709 35.3115 7.64119 35.1999 7.6491C34.9885 7.66525 34.7871 7.74572 34.6228 7.87971L34.4785 7.98991V13.2543L34.6228 13.3644C34.95 13.6144 35.309 13.6666 35.5566 13.5008C35.6592 13.4284 35.7338 13.3229 35.7679 13.202C35.8327 13.0157 35.8383 12.776 35.8304 10.5607C35.8213 8.25233 35.8168 8.11601 35.7418 7.96491Z" fill="white"/>
<path d="M45.7722 5.59291C45.6109 3.66053 45.4826 3.03345 45.085 2.228C44.5567 1.16127 43.7944 0.598941 42.7084 0.475115C41.8689 0.379688 38.7084 0.244501 35.7854 0.179748C30.7233 0.0672811 22.4008 0.284262 21.3375 0.555772C20.8629 0.672239 20.4316 0.922172 20.0946 1.27601C19.4232 1.944 19.0222 2.9028 18.8621 4.22968C18.4951 7.25833 18.4872 10.9163 18.8405 14.0552C18.9927 15.4048 19.3062 16.2818 19.8947 17.0043C20.2616 17.4553 20.8955 17.8381 21.4613 17.9529C21.8589 18.0335 23.8469 18.1449 26.7438 18.2482C27.1755 18.2642 28.3172 18.2903 29.2828 18.3073C31.2936 18.3425 34.9914 18.3221 37.1055 18.263C38.5278 18.2233 41.1202 18.1176 41.6053 18.0801C41.7416 18.0699 42.0574 18.0494 42.3074 18.0358C43.1469 17.9881 43.6808 17.8132 44.1818 17.419C44.8305 16.9089 45.3326 15.9671 45.545 14.8618C45.7461 13.8166 45.8802 11.9547 45.9074 9.84052C45.9302 8.074 45.8995 7.12201 45.7722 5.59064V5.59291ZM25.6146 4.89312L24.674 4.90448L24.6331 14.9356L23.8174 14.9458C23.1869 14.9549 22.9949 14.9447 22.9801 14.9049C22.9688 14.8765 22.9563 12.6147 22.9506 9.87914L22.9404 4.90448L21.1034 4.88176V3.31404L26.5325 3.33563L26.5552 4.88063L25.6146 4.89199V4.89312ZM31.3822 10.6426V14.956H29.8963V14.5016C29.8963 14.1597 29.8838 14.0472 29.8429 14.0472C29.8133 14.0472 29.6793 14.1597 29.5441 14.2971C29.2499 14.5959 28.9023 14.8356 28.6046 14.947C27.9889 15.1776 27.405 15.0424 27.1562 14.6141C26.9278 14.2222 26.9244 14.1336 26.9244 10.0643V6.32679H28.4092L28.4206 9.8462C28.4319 13.3043 28.4331 13.3679 28.516 13.5087C28.6262 13.6951 28.7932 13.7462 29.059 13.6723C29.2158 13.6292 29.3226 13.5531 29.5759 13.3009L29.8963 12.9828V6.32679H31.3822V10.6403V10.6426ZM37.1782 14.3403C37.0476 14.6323 36.7556 14.9174 36.5159 14.9879C35.8922 15.1719 35.3912 15.0219 34.813 14.4778C34.6335 14.3085 34.4665 14.1722 34.4415 14.1722C34.4108 14.1722 34.3949 14.304 34.3949 14.5641V14.956H32.909V3.31404H34.3949V5.21348C34.3949 6.25749 34.4086 7.11292 34.4256 7.11292C34.4427 7.11292 34.5994 6.97432 34.7744 6.80619C35.1765 6.41881 35.5117 6.2484 35.9377 6.21659C36.6977 6.15866 37.1509 6.55058 37.3577 7.4435C37.4225 7.72183 37.4281 8.03992 37.4281 10.6221C37.4281 13.7666 37.4281 13.7803 37.1771 14.3403H37.1782ZM43.4661 12.6136C43.4584 12.8907 43.4292 13.1668 43.3786 13.4394C43.1719 14.2051 42.622 14.7482 41.8268 14.9708C40.7567 15.2707 39.5775 14.78 39.1072 13.8382C38.8436 13.3099 38.8334 13.2043 38.8334 10.6221C38.8334 8.51705 38.8414 8.25803 38.9084 7.97062C39.0992 7.15836 39.5718 6.63238 40.3727 6.34042C40.6045 6.25635 40.8464 6.21205 41.0884 6.2075C41.9529 6.18933 42.8095 6.65396 43.1696 7.41056C43.4116 7.92063 43.4423 8.13989 43.4661 9.5781L43.4877 10.8686L40.3193 10.8902L40.308 11.757C40.2909 12.9805 40.3738 13.3565 40.7044 13.578C40.9816 13.7655 41.4088 13.7507 41.6405 13.5474C41.8586 13.3565 41.92 13.1509 41.9416 12.5511L41.9609 12.0251H43.4911L43.4661 12.6136Z" fill="white"/>
</g>
</svg>
