<svg width="166" height="80" viewBox="0 0 166 80" fill="none" xmlns="http://www.w3.org/2000/svg">
    <path d="M116.618 45.6099C117.146 45.6247 117.672 45.5342 118.166 45.3438C118.658 45.1533 119.108 44.8668 119.49 44.5006L120.914 46.0503C119.974 47.0182 118.669 47.738 116.643 47.738C113.168 47.738 110.924 45.4322 110.924 42.3084C110.91 41.5927 111.041 40.8817 111.307 40.2176C111.574 39.5534 111.971 38.9496 112.476 38.4419C112.979 37.9342 113.58 37.5329 114.242 37.2619C114.904 36.991 115.613 36.8557 116.329 36.8643C119.779 36.8643 121.736 39.4932 121.565 43.1371H113.406C113.696 44.6494 114.756 45.6172 116.615 45.6172L116.618 45.6099ZM119.101 41.3999C118.879 39.9844 118.038 38.9439 116.349 38.9439C114.781 38.9439 113.688 39.8319 113.406 41.3999H119.101ZM63.0562 45.4974L69.3351 39.1133H63.2073V37.0977H72.2479V39.1544L65.9691 45.5362H72.3313V47.5408H63.0586L63.0562 45.4974ZM79.3789 45.6112C79.9072 45.6259 80.4331 45.5354 80.9261 45.345C81.419 45.1545 81.8693 44.8679 82.2507 44.5018L83.6769 46.0503C82.7365 47.0182 81.4324 47.738 79.4056 47.738C75.9307 47.738 73.6862 45.4322 73.6862 42.3084C73.6733 41.5927 73.8039 40.8817 74.0705 40.2176C74.3372 39.5534 74.7342 38.9496 75.2383 38.4419C75.7423 37.9342 76.3431 37.5329 77.005 37.2619C77.6668 36.991 78.3762 36.8557 79.0913 36.8643C82.542 36.8643 84.4988 39.4932 84.3271 43.1371H76.1688C76.4589 44.6494 77.5188 45.6172 79.3778 45.6172L79.3789 45.6112ZM81.8639 41.3999C81.6427 39.9844 80.8003 38.9439 79.1118 38.9439C77.5442 38.9439 76.4504 39.8319 76.1688 41.3999H81.8639ZM97.8809 42.2951C97.8809 38.9657 100.371 36.8691 103.115 36.8691C103.773 36.8603 104.425 36.9958 105.025 37.2662C105.625 37.5367 106.16 37.9355 106.589 38.4345V32.2826H108.807V47.5263H106.589V46.0745C106.167 46.5939 105.634 47.0118 105.029 47.297C104.424 47.5822 103.763 47.7276 103.094 47.7223C100.432 47.7223 97.8821 45.6172 97.8821 42.2987L97.8809 42.2951ZM106.713 42.2794C106.636 39.3517 103.088 37.9604 101.033 40.0581C98.9783 42.156 100.477 45.6813 103.406 45.6802C105.31 45.6802 106.712 44.1558 106.712 42.2927L106.713 42.2794ZM123.009 45.3172L125.017 44.2743C125.559 45.2422 126.588 45.8265 127.697 45.7988C128.953 45.7988 129.602 45.1527 129.602 44.4219C129.602 43.5751 128.388 43.3984 127.069 43.1275C125.295 42.7645 123.449 42.1656 123.449 40.0182C123.449 38.3692 125.016 36.8461 127.486 36.8679C129.419 36.8679 130.877 37.6421 131.699 38.8906L129.838 39.9141C129.58 39.5327 129.229 39.2233 128.819 39.015C128.409 38.8066 127.952 38.7064 127.493 38.7238C126.3 38.7238 125.68 39.3081 125.68 39.9759C125.68 40.7259 126.642 40.9353 128.15 41.2703C129.866 41.6333 131.812 42.2092 131.812 44.3796C131.812 45.8314 130.556 47.7586 127.585 47.738C125.41 47.738 123.883 46.8609 123.002 45.3184L123.009 45.3172ZM137.833 42.8988L136.076 44.8188V47.5287H133.857V32.2851H136.076V42.2588L140.784 37.0844H143.486L139.403 41.5607L143.589 47.5276H141.079L137.833 42.8988ZM91.1657 36.886C88.5284 36.886 86.3311 38.5979 86.3311 41.435V47.5287H88.5912V41.6951C88.5912 39.9832 89.5739 38.9609 91.2527 38.9609C92.9314 38.9609 93.7666 39.9844 93.7666 41.6951V47.507H96.0147V41.4131C96.0147 38.5761 93.7969 36.8643 91.1801 36.8643L91.1657 36.886ZM37.7762 33.7102V53.3334H21.5381L37.7762 33.7102ZM37.7762 26.6667C37.7765 28.8225 36.9215 30.8901 35.399 32.415C33.8765 33.9398 31.8114 34.7969 29.6578 34.7979C27.504 34.7969 25.4389 33.9398 23.9164 32.415C22.3941 30.8901 21.539 28.8225 21.5393 26.6667H37.7762ZM40.4509 53.331C40.4519 51.1761 41.3075 49.1096 42.8299 47.5859C44.3521 46.0621 46.4165 45.2056 48.5694 45.2047C50.7223 45.2056 52.7867 46.0621 54.309 47.5859C55.8312 49.1096 56.6869 51.1761 56.6878 53.331H40.4509ZM40.4509 46.2875V26.6692H56.6891L40.4509 46.2875Z" fill="#03363D"/>
    </svg>
