<svg width="36" height="36" viewBox="0 0 36 36" fill="none" xmlns="http://www.w3.org/2000/svg">
<rect width="35.9589" height="35.9589" rx="17.9795" transform="matrix(1 0 0 -1 0 36)" fill="#FFDD65"/>
<path d="M20 33C18.2396 33 16.5553 32.6572 14.9473 31.9717C13.3392 31.2861 11.9554 30.3636 10.7959 29.2041C9.63639 28.0446 8.71387 26.6608 8.02832 25.0527C7.34277 23.4447 7 21.7604 7 20C7 18.2396 7.34277 16.5553 8.02832 14.9473C8.71387 13.3392 9.63639 11.9554 10.7959 10.7959C11.9554 9.63639 13.3392 8.71387 14.9473 8.02832C16.5553 7.34277 18.2396 7 20 7C21.7604 7 23.4447 7.34277 25.0527 8.02832C26.6608 8.71387 28.0446 9.63639 29.2041 10.7959C30.3636 11.9554 31.2861 13.3392 31.9717 14.9473C32.6572 16.5553 33 18.2396 33 20C33 21.7604 32.6572 23.4447 31.9717 25.0527C31.2861 26.6608 30.3636 28.0446 29.2041 29.2041C28.0446 30.3636 26.6608 31.2861 25.0527 31.9717C23.4447 32.6572 21.7604 33 20 33ZM20 10.25C18.2396 10.25 16.6104 10.6859 15.1123 11.5576C13.6143 12.4294 12.4294 13.6143 11.5576 15.1123C10.6859 16.6104 10.25 18.2396 10.25 20C10.25 21.7604 10.6859 23.3896 11.5576 24.8877C12.4294 26.3857 13.6143 27.5706 15.1123 28.4424C16.6104 29.3141 18.2396 29.75 20 29.75C21.7604 29.75 23.3896 29.3141 24.8877 28.4424C26.3857 27.5706 27.5706 26.3857 28.4424 24.8877C29.3141 23.3896 29.75 21.7604 29.75 20C29.75 18.2396 29.3141 16.6104 28.4424 15.1123C27.5706 13.6143 26.3857 12.4294 24.8877 11.5576C23.3896 10.6859 21.7604 10.25 20 10.25ZM20 28.125C18.5273 28.125 17.1689 27.7611 15.9248 27.0332C14.6807 26.3053 13.6947 25.3193 12.9668 24.0752C12.2389 22.8311 11.875 21.4727 11.875 20C11.875 18.5273 12.2389 17.1689 12.9668 15.9248C13.6947 14.6807 14.6807 13.6947 15.9248 12.9668C17.1689 12.2389 18.5273 11.875 20 11.875C21.4727 11.875 22.8311 12.2389 24.0752 12.9668C25.3193 13.6947 26.3053 14.6807 27.0332 15.9248C27.7611 17.1689 28.125 18.5273 28.125 20C28.125 21.4727 27.7611 22.8311 27.0332 24.0752C26.3053 25.3193 25.3193 26.3053 24.0752 27.0332C22.8311 27.7611 21.4727 28.125 20 28.125ZM19.9873 15.125C18.6416 15.125 17.4948 15.599 16.5469 16.5469C15.599 17.4948 15.125 18.6458 15.125 20C15.125 21.3542 15.599 22.5052 16.5469 23.4531C17.4948 24.401 18.6458 24.875 20 24.875C21.3542 24.875 22.5052 24.401 23.4531 23.4531C24.401 22.5052 24.875 21.3542 24.875 20C24.875 18.6458 24.3968 17.4948 23.4404 16.5469C22.484 15.599 21.333 15.125 19.9873 15.125ZM20 23.25C19.1029 23.25 18.3369 22.9326 17.7021 22.2979C17.0674 21.6631 16.75 20.8971 16.75 20C16.75 19.1029 17.0674 18.3369 17.7021 17.7021C18.3369 17.0674 19.1029 16.75 20 16.75C20.8971 16.75 21.6631 17.0674 22.2979 17.7021C22.9326 18.3369 23.25 19.1029 23.25 20C23.25 20.8971 22.9326 21.6631 22.2979 22.2979C21.6631 22.9326 20.8971 23.25 20 23.25Z" fill="black"/>
</svg>
