<svg width="668" height="446" viewBox="0 0 668 446" fill="none" xmlns="http://www.w3.org/2000/svg">
<path d="M396.09 71.553C354.52 70.1078 314.929 56.6903 277.117 42.0074C239.305 27.3245 201.866 11.0552 161.292 3.27697C135.195 -1.72651 105.354 -2.43304 84.3256 11.5562C64.0933 25.0444 57.5547 48.2634 54.0349 69.8252C51.3951 86.0561 49.8343 103.128 57.0858 118.319C62.115 128.865 71.0493 137.729 77.2282 147.832C98.7194 182.978 83.5291 226.321 60.2331 260.638C49.314 276.734 36.6351 292.111 28.2018 309.235C19.7684 326.358 15.8697 346.006 23.2433 363.489C30.559 380.831 47.9845 393.831 66.8551 402.984C105.194 421.572 150.354 426.897 194.428 429.909C291.941 436.583 389.981 433.692 487.752 430.802C523.938 429.729 560.28 428.644 595.876 423.049C615.645 419.941 636.058 415.008 650.406 403.138C668.622 388.025 673.137 362.43 660.934 343.482C640.457 311.695 583.858 303.794 569.529 269.682C561.648 250.908 569.741 229.988 581.186 212.575C605.748 175.213 646.912 142.443 649.083 99.737C650.573 70.4097 630.784 41.0375 600.185 27.1575C568.109 12.6095 523.637 14.4401 499.987 38.5197C475.606 63.2867 432.79 72.8248 396.09 71.553Z" fill="#FAFAFA"/>
<path d="M289.14 418.451C288.498 416.125 287.856 413.775 286.571 411.751C285.38 410.036 283.965 408.487 282.364 407.146C277.707 402.92 271.991 398.629 265.819 399.696C263.91 400.118 262.065 400.792 260.333 401.699C259.434 402.117 258.528 402.534 257.604 402.888C255 403.976 252.122 404.228 249.369 403.607C247.956 403.228 246.64 402.547 245.246 402.123C244.584 401.925 243.907 401.779 243.223 401.687C244.569 401.084 245.876 400.395 247.134 399.625C254.058 395.386 259.582 387.723 258.811 379.527C258.548 376.772 257.604 374.132 256.666 371.531L254.199 364.71C253.133 361.755 252.028 358.743 250.082 356.289C247.918 353.553 244.835 351.697 241.649 350.316C234.809 347.342 227.332 346.295 219.952 345.28L219.438 345.21V265.481C219.438 264.119 218.897 262.812 217.933 261.848C216.97 260.884 215.663 260.343 214.3 260.343H204.601C204.173 257.722 203.745 255.106 203.317 252.494C202.096 245.037 200.831 237.445 197.395 230.733C195.147 226.34 191.569 222.146 186.746 221.285C185.798 221.199 184.866 220.983 183.977 220.643C182.564 219.949 181.793 218.408 180.708 217.271C177.908 214.335 173.354 214.29 169.603 212.775C166.288 211.458 163.578 208.979 160.559 207.071C157.54 205.163 153.789 203.808 150.449 205.048C150.449 205.292 150.404 205.536 150.379 205.774L148.233 204.784C145.921 203.712 143.564 202.613 141.708 200.854C139.325 198.606 138.053 195.625 137.064 192.459C136.961 192.131 136.865 191.816 136.762 191.463C140.868 187.275 143.647 181.969 144.752 176.209L145.272 177.898C145.39 178.277 145.527 178.651 145.684 179.016C145.949 179.721 146.391 180.347 146.968 180.833C147.133 180.962 147.314 181.068 147.508 181.148C147.685 181.218 147.871 181.266 148.06 181.289C148.327 181.322 148.597 181.303 148.856 181.231C149.291 181.097 149.689 180.867 150.023 180.558C150.356 180.249 150.616 179.869 150.783 179.446C150.886 179.193 150.961 178.931 151.008 178.662C151.033 178.501 151.048 178.338 151.053 178.174C151.053 178.123 151.053 178.071 151.053 178.02C151.053 177.969 151.053 177.795 151.053 177.686C151.053 177.577 151.053 177.57 151.053 177.506C151.053 177.442 151.053 177.294 151.021 177.185V177.018C151.021 176.89 150.982 176.761 150.957 176.639C150.931 176.517 150.957 176.568 150.957 176.536C150.925 176.376 150.886 176.209 150.854 176.048C150.854 176.01 150.854 175.965 150.854 175.926C150.854 175.888 150.796 175.663 150.764 175.528C150.732 175.393 150.719 175.354 150.7 175.265V175.226C150.636 174.969 150.578 174.719 150.52 174.462C150.053 172.233 149.934 169.945 150.167 167.679C150.551 164.354 151.165 161.06 152.004 157.82L152.139 157.235C152.19 157.01 152.241 156.786 152.286 156.554C152.389 156.092 152.492 155.63 152.588 155.161L152.819 153.979L152.993 152.925V152.791C153.353 150.404 153.429 147.982 153.218 145.578C152.922 142.218 151.882 139.039 149.602 136.508C147.989 134.716 145.863 133.393 144.367 131.511C142.967 129.751 142.177 127.58 140.725 125.853C136.717 121.068 126.427 117.381 120.114 116.739C112.881 116.006 101.198 117.856 95.3661 122.127C93.208 123.701 91.7307 125.981 90.2277 128.139C87.4658 132.154 84.3314 136.162 79.906 138.416C78.236 139.264 76.322 139.906 75.2108 141.383C74.5498 142.385 74.1218 143.522 73.9584 144.711C73.1074 148.893 72.6643 153.147 72.6352 157.415C72.6352 157.948 72.6352 158.481 72.6352 159.021C72.6484 160.621 72.9894 162.201 73.6372 163.665C73.74 163.883 73.8556 164.095 73.9776 164.307L74.0547 164.442C74.8316 165.552 75.5189 166.723 76.1101 167.942C76.2573 168.284 76.363 168.642 76.4248 169.009C76.5348 169.949 76.4739 170.903 76.2449 171.822C76.2449 171.963 76.1871 172.104 76.1614 172.246L76.1036 172.522C76.1036 172.618 76.1036 172.715 76.0522 172.805C76.0009 173.081 75.9559 173.357 75.9174 173.627C75.82 174.37 75.868 175.124 76.0587 175.849C76.1466 176.253 76.3192 176.633 76.565 176.965C76.8108 177.298 77.1242 177.574 77.4846 177.776C77.8504 177.951 78.2399 178.073 78.6407 178.136C79.0453 178.206 79.4564 178.251 79.8546 178.341C80.3667 178.458 80.8613 178.641 81.3255 178.887C81.7703 179.1 82.1867 179.367 82.5651 179.684C82.7524 179.854 82.9303 180.034 83.0982 180.223C83.4374 180.611 83.7426 181.028 84.0103 181.469C84.1473 181.696 84.2758 181.927 84.3957 182.163C84.8559 183.092 85.2238 184.065 85.494 185.066C85.661 185.663 85.8023 186.267 85.9243 186.871C85.9821 187.141 86.0335 187.41 86.0785 187.674C86.1234 187.937 86.1684 188.207 86.2069 188.47C86.3822 188.46 86.5552 188.426 86.7208 188.367C87.665 188.027 88.1916 186.929 88.4871 185.862C88.5385 185.683 88.5834 185.509 88.622 185.336C88.7697 184.693 88.9239 183.987 89.0716 183.312C91.6034 188.689 95.6857 193.185 100.793 196.223C100.973 196.756 101.147 197.282 101.301 197.822C102.142 200.732 102.547 203.776 101.089 206.32C100.048 208.124 98.3014 209.236 96.3488 210.006C96.0673 209.631 95.7051 209.324 95.289 209.107C93.5998 208.259 91.5701 209.287 90.1506 210.552C87.5815 212.877 85.4876 216.211 82.1091 216.975C80.8887 217.258 79.5399 217.2 78.5251 217.945C77.8539 218.576 77.2918 219.314 76.8615 220.129C76.1284 221.182 75.1426 222.033 73.9945 222.606C72.8463 223.178 71.5728 223.453 70.2909 223.405C69.1154 223.347 67.7217 223.077 66.9188 223.938C66.3215 224.58 66.2765 225.595 65.6342 226.205C64.7735 227.053 63.3605 226.642 62.1594 226.59C59.8728 226.494 57.7468 227.971 56.443 229.866C55.1391 231.761 54.5161 234.028 53.8738 236.289V236.328C53.709 236.448 53.5523 236.579 53.4049 236.719C52.7822 237.383 52.2994 238.165 51.9854 239.019C46.7911 250.845 43.7253 263.495 42.929 276.388C42.9417 277.016 42.8006 277.638 42.518 278.199C42.2306 278.566 41.9149 278.909 41.5738 279.227C41.2686 279.6 41.0415 280.031 40.9061 280.494C40.7706 280.957 40.7295 281.443 40.7852 281.922C40.841 282.401 40.9923 282.864 41.2304 283.284C41.4685 283.704 41.7884 284.071 42.1711 284.365C42.356 284.03 42.5873 283.723 42.8584 283.453C42.7877 283.748 42.7235 284.037 42.6786 284.301C42.4206 286.174 42.3969 288.073 42.6079 289.953C43.2159 298.877 43.8304 307.794 44.4513 316.704C44.6247 319.229 44.7981 321.747 45.0294 324.264C45.479 329.137 46.1213 333.991 46.9562 338.825C46.9948 339.044 47.0397 339.268 47.0976 339.467C41.8628 341.131 37.2062 344.137 35.2472 349.153C34.5664 350.887 34.2581 352.776 33.4231 354.439C32.5046 356.263 30.9952 357.721 29.9932 359.507C28.2654 362.577 28.1884 366.341 28.8178 369.784C30.0318 376.496 33.6607 382.495 38.4523 387.376C38.2403 387.376 38.0219 387.376 37.81 387.376C36.2445 387.55 34.7418 388.089 33.4231 388.95C23.2877 394.872 17.4941 407.576 19.6073 419.176C20.0248 421.444 20.7506 423.743 22.2664 425.471C23.5264 426.844 25.1464 427.837 26.9423 428.335C28.0655 428.673 29.2219 428.889 30.3914 428.978C38.2917 429.62 45.9414 425.959 53.8609 425.651C56.4844 425.609 59.108 425.731 61.7162 426.017C65.5314 426.334 69.3531 426.535 73.1812 426.621C79.405 426.768 82.9055 425.111 86.8749 420.461C87.8506 419.304 88.6651 418.021 89.2964 416.646C92.6749 416.453 96.4066 416.158 99.1042 415.939L99.1428 416.312C99.2905 417.596 99.5153 419.074 100.543 419.883C101.121 420.282 101.778 420.551 102.47 420.673C108.957 422.266 115.521 423.884 122.201 423.884C125.336 423.821 128.465 423.581 131.572 423.165L143.307 421.81C146.727 422.243 150.101 422.978 153.391 424.006C156.782 425.156 159.949 426.865 163.263 428.22C170.971 431.341 179.256 432.459 187.465 433.551C188.865 433.737 190.471 433.866 191.505 432.909C192.841 431.624 192.398 429.479 192.019 427.68C191.865 426.942 191.749 426.203 191.659 425.458C197.198 426.918 202.618 428.799 207.871 431.085L208.789 431.489C209.059 432.889 210.35 434.007 211.59 435.516C211.997 436.153 212.473 436.744 213.009 437.276C213.622 437.674 214.319 437.925 215.045 438.008C223.71 439.623 232.559 440.023 241.334 439.197C243.13 438.952 244.947 438.89 246.755 439.01C248.084 439.191 249.395 439.486 250.673 439.89L258.105 442.023C263.583 443.59 269.191 445.176 274.875 444.823C276.027 444.751 277.172 444.585 278.298 444.329C282.794 443.288 286.982 440.777 289.14 436.737C292.191 431.245 290.785 424.488 289.14 418.451Z" fill="url(#paint0_linear)"/>
<path d="M81.2232 417.198C79.868 414.115 78.5834 410.57 79.9386 407.486C80.8233 405.671 82.3429 404.243 84.2099 403.472C86.0574 402.719 88.0047 402.238 89.9906 402.046C96.2237 401.229 102.531 401.142 108.784 401.789C109.24 405.399 108.277 409.06 107.448 412.548C106.697 415.759 106.266 416.235 102.952 416.402C100.807 416.517 81.7306 418.335 81.2232 417.198Z" fill="#FBBEBE"/>
<path d="M138.42 396.401C189.146 396.401 230.268 384.898 230.268 370.709C230.268 356.519 189.146 345.017 138.42 345.017C87.6932 345.017 46.5713 356.519 46.5713 370.709C46.5713 384.898 87.6932 396.401 138.42 396.401Z" fill="#464353"/>
<path opacity="0.1" d="M138.42 396.401C189.146 396.401 230.268 384.898 230.268 370.709C230.268 356.519 189.146 345.017 138.42 345.017C87.6932 345.017 46.5713 356.519 46.5713 370.709C46.5713 384.898 87.6932 396.401 138.42 396.401Z" fill="black"/>
<path d="M154.888 235.082C151.74 241.165 146.511 245.915 140.154 248.467C136.401 249.835 132.451 250.585 128.458 250.689C124.097 250.888 119.645 250.606 115.548 249.116C110.05 247.125 105.483 243.052 102.059 238.306C98.636 233.559 96.2788 228.138 94.2298 222.672C93.1508 219.827 92.1231 216.795 92.6305 213.789C95.9383 213.038 99.5609 211.933 101.269 208.998C102.727 206.48 102.323 203.461 101.481 200.584C101.244 199.768 100.968 198.959 100.691 198.182C100.049 196.319 97.8331 192.78 99.4067 191.187C100.389 190.179 104.507 189.665 105.926 189.01C110.3 186.993 114.334 184.077 119.138 183.12C123.294 182.291 127.584 183.068 131.733 183.929C132.284 184.009 132.812 184.199 133.288 184.488C133.83 184.945 134.231 185.546 134.444 186.222C135.626 189.1 136.319 192.279 137.27 195.279C138.259 198.419 139.531 201.367 141.914 203.596C143.77 205.337 146.134 206.429 148.446 207.489L154.137 210.096C155.149 210.475 156.067 211.069 156.828 211.837C157.572 212.86 158.017 214.07 158.113 215.331C159.132 222.09 158.004 228.998 154.888 235.082Z" fill="#FBBEBE"/>
<path opacity="0.1" d="M137.245 195.279C132.713 199.997 126.744 203.077 120.273 204.037C113.802 204.998 107.195 203.783 101.489 200.584C101.251 199.768 100.975 198.959 100.698 198.182C100.056 196.319 97.8403 192.78 99.4139 191.187C100.397 190.179 104.514 189.665 105.933 189.01C110.307 186.993 114.341 184.077 119.145 183.12C123.301 182.291 127.591 183.068 131.741 183.929C132.291 184.009 132.82 184.199 133.295 184.488C133.837 184.945 134.238 185.546 134.451 186.222C135.601 189.1 136.295 192.279 137.245 195.279Z" fill="black"/>
<path d="M115.939 203.069C132.257 203.069 145.485 189.841 145.485 173.524C145.485 157.206 132.257 143.978 115.939 143.978C99.6216 143.978 86.3936 157.206 86.3936 173.524C86.3936 189.841 99.6216 203.069 115.939 203.069Z" fill="#FBBEBE"/>
<path d="M205.956 269.412L203.528 254.704C202.301 247.324 201.036 239.802 197.606 233.155C195.352 228.8 191.774 224.651 186.95 223.79C186 223.705 185.066 223.489 184.176 223.148C182.763 222.467 181.992 220.938 180.906 219.808C178.106 216.905 173.546 216.86 169.795 215.382C166.48 214.098 163.77 211.625 160.751 209.737C157.732 207.848 153.975 206.525 150.635 207.733C150.096 213.481 149.524 219.358 147.083 224.593C145.495 228.001 143.164 231.01 140.263 233.402C137.362 235.793 133.962 237.506 130.314 238.415C126.665 239.323 122.86 239.405 119.176 238.654C115.492 237.903 112.022 236.338 109.021 234.073C103.298 229.763 99.6303 223.116 97.9218 216.16C97.5043 214.464 97.029 212.518 95.4683 211.741C93.779 210.893 91.7494 211.92 90.3299 213.166C87.7607 215.472 85.6604 218.774 82.2819 219.551C81.0616 219.833 79.7127 219.776 78.6979 220.514C78.0235 221.137 77.4589 221.868 77.028 222.679C76.2886 223.723 75.3008 224.568 74.1537 225.135C73.0066 225.702 71.7362 225.975 70.4573 225.929C69.2819 225.871 67.8881 225.601 67.0852 226.456C66.4879 227.098 66.4429 228.1 65.8006 228.697C64.9335 229.539 63.5269 229.127 62.3194 229.083C60.0328 228.986 57.9068 230.451 56.5965 232.294C55.2862 234.137 54.6696 236.418 54.0273 238.627C61.0476 254.26 67.4706 269.913 74.4909 285.547C74.8198 286.136 74.9943 286.799 74.9983 287.474C74.8575 288.174 74.5588 288.833 74.1248 289.4C70.6821 294.931 70.7913 301.887 71.1702 308.387C71.5492 314.887 72.0116 321.753 69.1084 327.579C68.3184 329.178 67.2907 330.642 66.5393 332.242C64.7794 335.864 64.1435 347.451 65.1712 351.343H210.381C207.613 343.732 208.666 328.459 209.245 320.378C209.649 314.726 208.602 309.08 208.153 303.428C207.17 291.886 207.864 280.935 205.956 269.412Z" fill="#F8DE2B"/>
<path d="M42.9046 286.24C42.6477 288.099 42.6218 289.982 42.8276 291.848L44.671 318.355C44.8444 320.854 45.0178 323.346 45.249 325.838C45.6922 330.674 46.3538 335.472 47.1759 340.264C47.1944 340.944 47.4821 341.589 47.9758 342.058C48.4695 342.526 49.129 342.78 49.8093 342.762C57.9344 344.484 66.3292 344.413 74.6212 343.944C87.2744 343.238 99.9084 341.625 112.581 341.902C115.844 341.972 119.646 341.902 121.624 339.332C123.603 336.763 122.453 332.608 119.871 330.533C117.289 328.458 113.782 327.964 110.468 327.964C106.081 327.919 101.694 328.542 97.3199 328.285C93.3056 328.047 89.3812 327.077 85.4888 326.108L74.5698 323.391C74.9873 320.083 76.2462 316.968 77.4409 313.827C79.5862 308.258 81.5901 302.503 81.6286 296.536C81.6672 290.569 79.4192 284.294 74.5313 280.877C70.5105 278.07 65.3336 277.55 60.4329 277.666C56.8681 277.768 50.7085 276.914 47.4521 278.308C44.8765 279.438 43.3864 283.716 42.9046 286.24Z" fill="#FBBEBE"/>
<path d="M213.39 346.847C215.528 346.032 217.886 346.327 220.179 346.635C227.559 347.644 235.048 348.678 241.888 351.626C245.1 353.001 248.157 354.838 250.328 357.542C252.255 359.976 253.379 362.956 254.445 365.891L256.912 372.648C257.849 375.218 258.8 377.838 259.063 380.568C259.834 388.654 254.304 396.278 247.348 400.479C240.392 404.68 232.202 406.176 224.225 407.743C216.248 409.311 208.238 411.045 200.293 412.882C196.587 413.844 192.828 414.583 189.034 415.098C180.53 416.061 171.64 414.642 163.56 417.455C160.349 418.579 157.195 420.249 153.862 421.026C151.647 421.492 149.409 421.833 147.156 422.047L131.863 423.794C128.753 424.21 125.622 424.451 122.486 424.514C115.806 424.514 109.235 422.934 102.748 421.354C102.058 421.233 101.402 420.968 100.821 420.577C99.7932 419.767 99.5684 418.335 99.4207 417.037C98.7656 411.295 98.1918 405.547 97.6993 399.792C97.5452 397.923 97.4296 395.9 98.4508 394.326C99.7354 392.399 102.24 391.795 104.527 391.423C114.223 389.837 124.045 389.155 133.867 389.387C137.599 385.655 143.752 385.636 148.64 383.606C150.438 382.78 152.178 381.834 153.849 380.773C162.592 375.672 172.363 372.585 182.45 371.736C184.426 371.676 186.388 371.396 188.302 370.901C192.085 369.726 195.534 366.527 199.42 367.311C199.901 365.981 200.235 364.202 201.347 363.29C201.899 362.821 202.58 362.507 203.087 362.006C204.16 360.92 204.256 359.212 204.096 357.696C203.935 356.18 203.575 354.626 203.967 353.148C204.13 352.589 204.37 352.055 204.68 351.562C206.607 348.235 209.517 346.526 213.39 346.847Z" fill="#464353"/>
<path opacity="0.05" d="M213.39 346.847C215.528 346.032 217.886 346.327 220.179 346.635C227.559 347.644 235.048 348.678 241.888 351.626C245.1 353.001 248.157 354.838 250.328 357.542C252.255 359.976 253.379 362.956 254.445 365.891L256.912 372.648C257.849 375.218 258.8 377.838 259.063 380.568C259.834 388.654 254.304 396.278 247.348 400.479C240.392 404.68 232.202 406.176 224.225 407.743C216.248 409.311 208.238 411.045 200.293 412.882C196.587 413.844 192.828 414.583 189.034 415.098C180.53 416.061 171.64 414.642 163.56 417.455C160.349 418.579 157.195 420.249 153.862 421.026C151.647 421.492 149.409 421.833 147.156 422.047L131.863 423.794C128.753 424.21 125.622 424.451 122.486 424.514C115.806 424.514 109.235 422.934 102.748 421.354C102.058 421.233 101.402 420.968 100.821 420.577C99.7932 419.767 99.5684 418.335 99.4207 417.037C98.7656 411.295 98.1918 405.547 97.6993 399.792C97.5452 397.923 97.4296 395.9 98.4508 394.326C99.7354 392.399 102.24 391.795 104.527 391.423C114.223 389.837 124.045 389.155 133.867 389.387C137.599 385.655 143.752 385.636 148.64 383.606C150.438 382.78 152.178 381.834 153.849 380.773C162.592 375.672 172.363 372.585 182.45 371.736C184.426 371.676 186.388 371.396 188.302 370.901C192.085 369.726 195.534 366.527 199.42 367.311C199.901 365.981 200.235 364.202 201.347 363.29C201.899 362.821 202.58 362.507 203.087 362.006C204.16 360.92 204.256 359.212 204.096 357.696C203.935 356.18 203.575 354.626 203.967 353.148C204.13 352.589 204.37 352.055 204.68 351.562C206.607 348.235 209.517 346.526 213.39 346.847Z" fill="black"/>
<path d="M87.1322 421.168C83.1564 425.773 79.6559 427.417 73.432 427.269C69.6039 427.179 65.7801 426.98 61.9606 426.672C59.35 426.39 56.7245 426.267 54.0989 426.306C46.173 426.614 38.5233 430.243 30.6166 429.607C29.4475 429.515 28.2913 429.3 27.1675 428.965C25.3738 428.471 23.7527 427.488 22.4851 426.126C20.9693 424.411 20.2435 422.137 19.826 419.889C17.7129 408.367 23.5064 395.816 33.6482 389.952C34.9715 389.097 36.4757 388.563 38.0415 388.391C39.577 388.385 41.0948 388.718 42.4862 389.368L42.5826 389.406C46.703 391.101 50.4452 393.599 53.5915 396.754C54.0689 397.301 54.6384 397.759 55.2743 398.109C55.9089 398.349 56.5807 398.475 57.259 398.482L65.6988 399.015C67.1287 399.057 68.5499 399.253 69.9379 399.599C71.4682 400.134 72.9579 400.777 74.3955 401.526C78.9365 403.556 83.9721 404.095 88.8792 404.879C89.3521 404.905 89.8034 405.086 90.1638 405.393C90.3597 405.636 90.496 405.922 90.5621 406.228C91.2517 408.809 91.2997 411.52 90.7019 414.123C90.1041 416.727 88.8786 419.146 87.1322 421.168Z" fill="#3F3D56"/>
<path opacity="0.1" d="M42.5826 389.412C39.3081 392.539 36.4675 396.09 34.1364 399.972C30.3957 406.377 28.0453 413.498 27.2381 420.872C26.932 423.562 26.9083 426.277 27.1675 428.971C25.3738 428.477 23.7527 427.494 22.4851 426.132C20.9693 424.417 20.2435 422.144 19.826 419.896C17.7129 408.373 23.5064 395.822 33.6482 389.958C34.9715 389.104 36.4757 388.569 38.0415 388.398C39.577 388.391 41.0948 388.725 42.4862 389.374L42.5826 389.412Z" fill="black"/>
<path d="M206.041 405.393C210.762 405.264 216.061 405.026 219.529 408.206C222.837 411.212 223.274 416.17 223.492 420.634L223.742 425.818C223.819 427.398 223.884 429.029 223.248 430.494C222.117 433.063 219.015 434.302 216.183 434.155C213.35 434.007 210.749 432.767 208.16 431.65C201.133 428.622 193.816 426.317 186.322 424.771C186.566 421.187 186.973 417.62 187.543 414.07C187.934 411.61 187.999 407.493 189.643 405.45C191.384 403.292 193.651 404.461 196.015 404.859C199.331 405.366 202.689 405.544 206.041 405.393Z" fill="#FBBEBE"/>
<path d="M81.2815 353.309C81.2815 353.951 80.2731 353.309 80.1832 352.622C79.4767 347.425 75.3531 343.141 70.5488 341.06C65.7444 338.979 60.272 338.87 55.0694 339.365C47.2013 340.11 38.3698 343.122 35.4923 350.476C34.8114 352.198 34.5031 354.06 33.6681 355.711C32.7432 357.522 31.2338 358.967 30.2319 360.727C28.5041 363.772 28.4334 367.504 29.0565 370.946C30.7329 380.131 37.0145 387.986 44.6257 393.427C52.2369 398.867 61.1327 402.117 70.0028 405.046C93.4573 412.781 117.521 418.529 141.94 422.227C145.896 422.824 149.892 423.377 153.681 424.649C157.072 425.785 160.245 427.488 163.56 428.824C171.267 431.919 179.559 433.024 187.774 434.11C189.174 434.289 190.78 434.418 191.814 433.467C193.15 432.228 192.707 430.07 192.328 428.29C190.934 421.526 192.103 414.484 195.61 408.533C196.985 406.221 198.77 403.851 198.513 401.173C198.205 398.051 195.096 395.842 192 395.341C188.905 394.84 185.757 395.578 182.649 395.983C181.576 396.124 180.407 396.214 179.469 395.668C179.007 395.356 178.588 394.985 178.223 394.564C176.082 392.498 173.341 391.163 170.394 390.751C167.447 390.339 164.445 390.871 161.819 392.271C160.669 392.913 158.929 391.48 157.734 390.941L144.227 384.826C128.709 377.806 113.114 370.754 96.6966 366.309C95.3867 366.051 94.1418 365.534 93.0355 364.787C92.2198 364.144 91.6353 363.271 90.8839 362.558C89.246 361.01 86.9658 360.393 85.0004 359.295C83.035 358.197 80.8319 355.512 81.2815 353.309Z" fill="#464353"/>
<path d="M289.521 437.25C287.363 441.252 283.175 443.744 278.679 444.772C277.551 445.026 276.404 445.19 275.249 445.26C269.565 445.613 263.951 444.039 258.473 442.485L251.035 440.391C249.756 439.989 248.445 439.697 247.117 439.518C245.308 439.397 243.492 439.459 241.696 439.704C232.905 440.522 224.044 440.124 215.362 438.522C214.635 438.444 213.938 438.195 213.326 437.796C212.789 437.271 212.313 436.687 211.906 436.056C209.883 433.621 207.706 432.202 210.101 428.99C211.482 427.128 214.045 426.197 215.118 424.058C216.19 421.919 215.503 418.881 214.867 416.671C214 413.62 211.148 412.304 210.127 409.503C209.363 407.39 210.647 404.937 212.581 403.787C214.514 402.637 216.903 402.547 219.132 402.843C221.361 403.138 223.545 403.768 225.786 403.941C232.376 404.468 239.114 401.07 245.44 402.984C246.834 403.408 248.151 404.082 249.564 404.455C252.319 405.071 255.197 404.822 257.805 403.742C258.729 403.395 259.635 402.978 260.534 402.566C262.268 401.664 264.115 400.996 266.026 400.582C272.198 399.522 277.921 403.793 282.578 407.962C284.176 409.288 285.591 410.822 286.785 412.522C288.07 414.526 288.75 416.858 289.354 419.157C291.056 425.098 292.463 431.791 289.521 437.25Z" fill="#3F3D56"/>
<path opacity="0.1" d="M289.521 437.25C287.363 441.252 283.175 443.744 278.679 444.772C280.428 441.374 281.216 437.563 280.959 433.75C280.574 427.642 277.889 421.887 274.465 416.813C272.359 413.689 269.964 410.771 267.31 408.097C265.268 406.041 262.756 404.41 260.56 402.528C262.294 401.625 264.141 400.958 266.051 400.543C272.224 399.484 277.947 403.755 282.603 407.923C284.202 409.25 285.616 410.784 286.81 412.484C288.095 414.488 288.776 416.819 289.379 419.118C291.056 425.098 292.462 431.791 289.521 437.25Z" fill="black"/>
<path d="M53.6619 239.102C53.0363 239.757 52.551 240.533 52.2361 241.382C47.0441 253.083 43.9775 265.615 43.1797 278.392C43.1936 279.014 43.05 279.631 42.7622 280.184C42.4783 280.551 42.1624 280.893 41.818 281.205C41.5053 281.575 41.272 282.006 41.1324 282.471C40.9929 282.935 40.9501 283.423 41.0066 283.905C41.0632 284.386 41.218 284.851 41.4614 285.271C41.7048 285.69 42.0317 286.055 42.4218 286.343C43.4816 284.346 46.0186 283.697 48.2731 283.523C59.0701 282.669 69.6166 287.692 80.4457 287.313C79.6813 284.673 78.583 282.136 77.96 279.464C75.2045 267.601 82.0771 254.684 77.8636 243.258C77.0222 240.971 75.6156 238.723 73.3997 237.721C72.4822 237.351 71.522 237.096 70.5415 236.963C67.8053 236.469 62.3586 234.356 59.7124 235.204C58.7361 235.518 58.3507 236.437 57.5414 236.989C56.3146 237.779 54.6832 238.068 53.6619 239.102Z" fill="#F8DE2B"/>
<path d="M214.55 262.482H81.5566C78.7294 262.482 76.4375 264.774 76.4375 267.601V348.569C76.4375 351.396 78.7294 353.688 81.5566 353.688H214.55C217.378 353.688 219.669 351.396 219.669 348.569V267.601C219.669 264.774 217.378 262.482 214.55 262.482Z" fill="#3F3D56"/>
<path d="M147.734 311.939C149.862 311.939 151.587 310.213 151.587 308.085C151.587 305.956 149.862 304.231 147.734 304.231C145.605 304.231 143.88 305.956 143.88 308.085C143.88 310.213 145.605 311.939 147.734 311.939Z" fill="white"/>
<path d="M95.5279 125.57C93.3698 127.131 91.8925 129.372 90.3895 131.524C87.6212 135.5 84.4868 139.469 80.0614 141.685C78.385 142.527 76.471 143.163 75.3598 144.627C74.7003 145.617 74.2722 146.744 74.1073 147.922C73.2596 152.066 72.8164 156.282 72.7842 160.511C72.7842 162.618 72.8741 164.789 73.8054 166.703C74.6854 168.501 76.2718 170.023 76.5994 171.982C76.8499 173.511 76.2847 175.033 76.0856 176.568C75.8865 178.103 76.2333 179.921 77.6528 180.653C78.4176 180.941 79.2164 181.129 80.0293 181.212C84.3005 182.163 85.7329 187.173 86.3816 191.315C87.8332 191.232 88.4883 189.568 88.7902 188.213L93.2413 168.424C93.723 166.279 94.5259 163.793 96.6647 163.042C98.0971 162.547 99.6643 163.009 101.161 163.138C107.038 163.62 112.009 159.079 117.758 157.826C119.598 157.455 121.479 157.33 123.352 157.454C127.887 157.678 133.16 159.541 134.123 163.774C134.284 164.461 134.38 165.283 135.023 165.624C135.665 165.964 136.339 165.675 137.014 165.624C139.891 165.335 141.587 168.572 142.415 171.218L145.434 180.852C145.884 182.31 146.642 184.025 148.222 184.212C149.68 184.392 150.919 183.011 151.138 181.642C151.356 180.274 150.881 178.855 150.566 177.48C149.147 171.154 151.318 164.679 152.641 158.34C153.964 152.001 154.202 144.717 149.763 139.835C148.151 138.069 146.032 136.752 144.529 134.89C143.128 133.143 142.338 130.997 140.887 129.283C136.872 124.549 126.576 120.894 120.263 120.29C113.05 119.507 101.36 121.337 95.5279 125.57Z" fill="#3F3D56"/>
<g opacity="0.1">
<path opacity="0.1" d="M148.248 179.716C146.668 179.523 145.91 177.789 145.461 176.356C144.454 173.141 143.448 169.929 142.442 166.722C141.613 164.069 139.918 160.832 137.04 161.128C136.366 161.198 135.64 161.462 135.049 161.128C134.458 160.794 134.31 159.965 134.15 159.278C133.186 155.039 127.913 153.182 123.378 152.958C121.506 152.835 119.625 152.958 117.784 153.324C112.035 154.608 107.064 159.104 101.187 158.635C99.6713 158.513 98.1041 158.051 96.6911 158.546C94.5265 159.291 93.7493 161.757 93.2676 163.928L88.8165 183.711C88.5146 185.072 87.8595 186.736 86.4079 186.813C85.7656 182.677 84.3269 177.667 80.0556 176.716C79.2437 176.627 78.4457 176.439 77.6791 176.157C77.1203 175.852 76.6828 175.365 76.4395 174.776C76.3239 175.374 76.189 175.971 76.1119 176.568C75.9192 178.097 76.2596 179.921 77.6791 180.653C78.4439 180.941 79.2427 181.129 80.0556 181.212C84.3269 182.163 85.7592 187.173 86.4079 191.315C87.8595 191.232 88.5146 189.568 88.8165 188.213L93.2676 168.424C93.7493 166.279 94.5522 163.793 96.6911 163.042C98.1234 162.547 99.6906 163.01 101.187 163.138C107.064 163.62 112.035 159.079 117.784 157.826C119.624 157.455 121.505 157.33 123.378 157.454C127.913 157.678 133.186 159.541 134.15 163.774C134.31 164.461 134.407 165.283 135.049 165.624C135.691 165.964 136.366 165.675 137.04 165.624C139.918 165.335 141.613 168.572 142.442 171.218C143.444 174.434 144.45 177.645 145.461 180.853C145.91 182.311 146.668 184.025 148.248 184.212C149.706 184.392 150.946 183.011 151.164 181.643C151.263 180.491 151.132 179.332 150.779 178.232C150.55 178.701 150.187 179.092 149.737 179.355C149.287 179.619 148.769 179.745 148.248 179.716Z" fill="black"/>
<path opacity="0.1" d="M76.6053 167.486C76.2777 165.527 74.6784 164.005 73.8113 162.207C73.2538 160.994 72.9313 159.686 72.8607 158.353C72.8607 159.072 72.7965 159.792 72.79 160.517C72.79 162.624 72.88 164.795 73.8113 166.709C74.5242 168.167 75.6996 169.452 76.2905 170.935C76.6021 169.814 76.7087 168.646 76.6053 167.486Z" fill="black"/>
<path opacity="0.1" d="M152.665 153.818C151.496 159.419 149.672 165.123 150.237 170.736C150.603 166.594 151.81 162.425 152.665 158.314C153.377 155.193 153.628 151.983 153.41 148.789C153.27 150.48 153.021 152.16 152.665 153.818Z" fill="black"/>
</g>
<g opacity="0.8">
<path opacity="0.8" d="M212.909 186.582H614.383" stroke="#3F3D56" stroke-width="3" stroke-miterlimit="10"/>
<path opacity="0.8" d="M248.574 186.575C248.574 186.575 267.772 189.241 257.83 168.642C247.887 148.044 284.806 151.943 284.806 151.943" stroke="#3F3D56" stroke-width="3" stroke-miterlimit="10"/>
<path opacity="0.8" d="M376.437 186.575C376.437 186.575 395.635 183.916 385.692 204.515C375.749 225.113 412.668 221.214 412.668 221.214" stroke="#3F3D56" stroke-width="3" stroke-miterlimit="10"/>
<path opacity="0.8" d="M560.54 186.575C560.54 186.575 541.335 183.916 551.284 204.515C561.233 225.113 524.308 221.214 524.308 221.214" stroke="#3F3D56" stroke-width="3" stroke-miterlimit="10"/>
<path opacity="0.8" d="M524.308 221.208H418.374" stroke="#3F3D56" stroke-width="3" stroke-miterlimit="10"/>
<path opacity="0.8" d="M212.909 198.304C219.383 198.304 224.631 193.056 224.631 186.582C224.631 180.108 219.383 174.86 212.909 174.86C206.436 174.86 201.188 180.108 201.188 186.582C201.188 193.056 206.436 198.304 212.909 198.304Z" fill="#F8DE2B"/>
<path opacity="0.8" d="M285.006 163.498C291.48 163.498 296.728 158.25 296.728 151.776C296.728 145.302 291.48 140.054 285.006 140.054C278.532 140.054 273.284 145.302 273.284 151.776C273.284 158.25 278.532 163.498 285.006 163.498Z" fill="#3ACC6C"/>
<path opacity="0.8" d="M285.006 198.304C291.48 198.304 296.728 193.056 296.728 186.582C296.728 180.108 291.48 174.86 285.006 174.86C278.532 174.86 273.284 180.108 273.284 186.582C273.284 193.056 278.532 198.304 285.006 198.304Z" fill="#F8DE2B"/>
<path opacity="0.8" d="M331.533 198.304C338.007 198.304 343.255 193.056 343.255 186.582C343.255 180.108 338.007 174.86 331.533 174.86C325.06 174.86 319.812 180.108 319.812 186.582C319.812 193.056 325.06 198.304 331.533 198.304Z" fill="#F8DE2B"/>
<path opacity="0.8" d="M412.863 232.756C419.336 232.756 424.584 227.508 424.584 221.035C424.584 214.561 419.336 209.313 412.863 209.313C406.389 209.313 401.141 214.561 401.141 221.035C401.141 227.508 406.389 232.756 412.863 232.756Z" fill="#FF6584"/>
<path opacity="0.8" d="M474.317 232.756C480.79 232.756 486.039 227.508 486.039 221.035C486.039 214.561 480.79 209.313 474.317 209.313C467.843 209.313 462.595 214.561 462.595 221.035C462.595 227.508 467.843 232.756 474.317 232.756Z" fill="#FF6584"/>
<path opacity="0.8" d="M471.113 198.304C477.586 198.304 482.834 193.056 482.834 186.582C482.834 180.108 477.586 174.86 471.113 174.86C464.639 174.86 459.391 180.108 459.391 186.582C459.391 193.056 464.639 198.304 471.113 198.304Z" fill="#F8DE2B"/>
<path opacity="0.8" d="M611.415 198.304C617.889 198.304 623.137 193.056 623.137 186.582C623.137 180.108 617.889 174.86 611.415 174.86C604.941 174.86 599.693 180.108 599.693 186.582C599.693 193.056 604.941 198.304 611.415 198.304Z" fill="#F8DE2B"/>
<path opacity="0.8" d="M554.02 198.304C560.494 198.304 565.742 193.056 565.742 186.582C565.742 180.108 560.494 174.86 554.02 174.86C547.546 174.86 542.298 180.108 542.298 186.582C542.298 193.056 547.546 198.304 554.02 198.304Z" fill="#F8DE2B"/>
<path opacity="0.8" d="M232.543 78.7853H193.215V105.89H232.543V78.7853Z" fill="#F8DE2B"/>
<path opacity="0.8" d="M304.815 78.7853H265.487V105.89H304.815V78.7853Z" fill="#3ACC6C"/>
<path opacity="0.8" d="M432.362 78.7853H393.034V105.89H432.362V78.7853Z" fill="#FF6584"/>
</g>
<g opacity="0.1">
<path opacity="0.1" d="M56.3852 192.279C56.3852 192.279 8.36076 172.085 2.06626 208.522C2.06626 208.522 -1.21587 214.2 3.35086 218.889C3.35086 218.889 4.33357 216.371 8.97094 218.973C10.6273 219.889 12.3867 220.605 14.2121 221.105C16.6773 221.785 19.2967 221.645 21.6756 220.707C21.6756 220.707 37.4696 219.853 50.7523 199.19C50.7523 199.19 56.4494 195.67 56.7321 194.347L47.2132 194.989C47.2132 194.989 47.9454 201.958 44.0018 206.14C44.0018 206.14 47.4958 195.323 45.8194 195.021C45.479 194.957 40.7903 195.574 40.7903 195.574C40.7903 195.574 42.0042 207.694 35.6519 213.963C35.6519 213.963 41.5482 201.637 38.9854 195.792L31.9587 197.147C31.9587 197.147 33.8856 209.897 26.936 217.309C26.936 217.309 32.6524 204.206 30.4429 197.552L23.7181 199.813C23.7181 199.813 25.3366 212.28 19.5239 218.44C19.5239 218.44 24.598 202.633 22.2087 200.455C22.2087 200.455 16.1582 202.909 14.8672 204.309C14.8672 204.309 15.8242 213.301 12.131 216.545C12.131 216.545 14.3983 205.626 13.2743 205.176C13.2743 205.176 6.24761 210.469 4.10234 215.035C4.10234 215.035 6.77429 208.06 12.3944 204.116C12.3944 204.116 7.67351 203.32 4.04454 205.292C4.04454 205.292 6.47242 200.661 14.0965 202.857C14.0965 202.857 19.7422 198.946 20.8727 199.004C20.8727 199.004 13.6597 195.792 8.45069 196.19C8.45069 196.19 14.0387 192.979 22.6326 198.342L29.3446 195.921C29.3446 195.921 20.0313 191.148 15.3682 191.168C15.3682 191.168 21.5728 188.765 31.0852 195.445L37.9578 194.045C37.9578 194.045 30.2502 189.324 25.054 188.226C25.054 188.226 31.2843 187.237 39.9424 193.718L44.6376 193.326C44.6376 193.326 38.9533 189.973 37.232 189.157C35.5106 188.342 35.5877 187.815 35.5877 187.815C39.6726 188.515 43.4834 190.333 46.5966 193.069C46.5966 193.069 56.3467 192.876 56.3852 192.279Z" fill="#F8DE2B"/>
</g>
<g opacity="0.1">
<path opacity="0.1" d="M54.613 156.079C54.613 156.079 37.6051 116.726 13.1015 134.774C13.1015 134.774 7.92457 136.277 7.9631 141.647C7.9631 141.647 9.97992 140.709 11.2581 144.903C11.7268 146.391 12.3738 147.816 13.185 149.149C14.2571 150.96 15.8926 152.369 17.8416 153.163C17.8416 153.163 27.7137 161.654 47.3872 156.946C47.3872 156.946 52.7825 158.096 53.701 157.479L47.6891 152.424C47.6891 152.424 44.15 156.985 39.4099 157.203C39.4099 157.203 47.6506 152.771 46.8284 151.634C46.6614 151.403 43.5206 149.104 43.5206 149.104C43.5206 149.104 37.3417 156.991 30.0324 157.113C30.0324 157.113 40.5596 153.144 42.3645 148.217L37.4188 145.006C37.4188 145.006 31.1821 153.683 22.8323 154.133C22.8323 154.133 33.6935 149.605 36.1727 144.389L30.8866 141.904C30.8866 141.904 24.7463 150.253 17.8031 150.568C17.8031 150.568 29.8269 144.068 29.6406 141.415C29.6406 141.415 24.65 139.424 23.0635 139.54C23.0635 139.54 18.5225 145.417 14.4696 145.25C14.4696 145.25 22.0422 140.054 21.6312 139.148C21.6312 139.148 14.4374 138.288 10.5644 139.79C10.5644 139.79 16.1267 137.17 21.7082 138.031C21.7082 138.031 19.3574 134.864 16.0881 133.984C16.0881 133.984 20.1731 132.616 23.4489 138.255C23.4489 138.255 29.024 139.155 29.6791 139.823C29.6791 139.823 27.232 133.791 23.8985 131.075C23.8985 131.075 29.0368 132.359 31.0922 140.433L36.4618 142.816C36.4618 142.816 33.6485 134.671 30.8609 132.032C30.8609 132.032 35.9158 134.138 37.7656 143.529L42.6471 146.605C42.6471 146.605 40.7587 139.412 38.2987 135.795C38.2987 135.795 42.5636 138.763 44.0087 147.543L47.0275 149.984C47.0275 149.984 45.5567 144.755 44.9979 143.291C44.4391 141.827 44.7859 141.557 44.7859 141.557C46.8149 144.311 48.036 147.576 48.3121 150.986C48.3121 150.986 54.2469 156.407 54.613 156.079Z" fill="#F8DE2B"/>
</g>
<defs>
<linearGradient id="paint0_linear" x1="155.119" y1="444.894" x2="155.119" y2="116.552" gradientUnits="userSpaceOnUse">
<stop stop-color="#808080" stop-opacity="0.25"/>
<stop offset="0.54" stop-color="#808080" stop-opacity="0.12"/>
<stop offset="1" stop-color="#808080" stop-opacity="0.1"/>
</linearGradient>
</defs>
</svg>
