<svg width="69" height="69" viewBox="0 0 69 69" fill="none" xmlns="http://www.w3.org/2000/svg">
<rect width="68.9378" height="68.9378" rx="34.4689" transform="matrix(1 0 0 -1 0 68.938)" fill="#FFDD65"/>
<path d="M38.3426 63.1866C34.9676 63.1866 31.7387 62.5295 28.6558 61.2152C25.573 59.9009 22.9201 58.1323 20.6971 55.9094C18.4742 53.6865 16.7056 51.0336 15.3913 47.9507C14.0771 44.8678 13.4199 41.6389 13.4199 38.264C13.4199 34.889 14.0771 31.6601 15.3913 28.5772C16.7056 25.4943 18.4742 22.8414 20.6971 20.6185C22.9201 18.3956 25.573 16.627 28.6558 15.3127C31.7387 13.9984 34.9676 13.3413 38.3426 13.3413C41.7175 13.3413 44.9464 13.9984 48.0293 15.3127C51.1122 16.627 53.7651 18.3956 55.988 20.6185C58.2109 22.8414 59.9795 25.4943 61.2938 28.5772C62.6081 31.6601 63.2652 34.889 63.2652 38.264C63.2652 41.6389 62.6081 44.8678 61.2938 47.9507C59.9795 51.0336 58.2109 53.6865 55.988 55.9094C53.7651 58.1323 51.1122 59.9009 48.0293 61.2152C44.9464 62.5295 41.7175 63.1866 38.3426 63.1866ZM38.3426 19.572C34.9676 19.572 31.8442 20.4076 28.9722 22.0788C26.1003 23.7501 23.8287 26.0217 22.1575 28.8936C20.4862 31.7656 19.6506 34.889 19.6506 38.264C19.6506 41.6389 20.4862 44.7623 22.1575 47.6343C23.8287 50.5062 26.1003 52.7778 28.9722 54.4491C31.8442 56.1203 34.9676 56.9559 38.3426 56.9559C41.7175 56.9559 44.841 56.1203 47.7129 54.4491C50.5849 52.7778 52.8564 50.5062 54.5277 47.6343C56.1989 44.7623 57.0346 41.6389 57.0346 38.264C57.0346 34.889 56.1989 31.7656 54.5277 28.8936C52.8564 26.0217 50.5849 23.7501 47.7129 22.0788C44.841 20.4076 41.7175 19.572 38.3426 19.572ZM38.3426 53.8406C35.5193 53.8406 32.9151 53.1429 30.5299 51.7475C28.1447 50.3521 26.2544 48.4618 24.859 46.0766C23.4636 43.6915 22.7659 41.0872 22.7659 38.264C22.7659 35.4407 23.4636 32.8365 24.859 30.4513C26.2544 28.0661 28.1447 26.1758 30.5299 24.7804C32.9151 23.385 35.5193 22.6873 38.3426 22.6873C41.1658 22.6873 43.7701 23.385 46.1552 24.7804C48.5404 26.1758 50.4307 28.0661 51.8261 30.4513C53.2215 32.8365 53.9192 35.4407 53.9192 38.264C53.9192 41.0872 53.2215 43.6915 51.8261 46.0766C50.4307 48.4618 48.5404 50.3521 46.1552 51.7475C43.7701 53.1429 41.1658 53.8406 38.3426 53.8406ZM38.3182 28.918C35.7383 28.918 33.5398 29.8266 31.7225 31.6439C29.9052 33.4612 28.9966 35.6679 28.9966 38.264C28.9966 40.8601 29.9052 43.0668 31.7225 44.884C33.5398 46.7013 35.7465 47.61 38.3426 47.61C40.9387 47.61 43.1454 46.7013 44.9627 44.884C46.7799 43.0668 47.6886 40.8601 47.6886 38.264C47.6886 35.6679 46.7718 33.4612 44.9383 31.6439C43.1048 29.8266 40.8981 28.918 38.3182 28.918ZM38.3426 44.4946C36.6227 44.4946 35.1542 43.8862 33.9373 42.6692C32.7204 41.4523 32.1119 39.9839 32.1119 38.264C32.1119 36.544 32.7204 35.0756 33.9373 33.8587C35.1542 32.6418 36.6227 32.0333 38.3426 32.0333C40.0625 32.0333 41.5309 32.6418 42.7478 33.8587C43.9648 35.0756 44.5732 36.544 44.5732 38.264C44.5732 39.9839 43.9648 41.4523 42.7478 42.6692C41.5309 43.8862 40.0625 44.4946 38.3426 44.4946Z" fill="black"/>
</svg>
