<svg width="443" height="375" viewBox="0 0 443 375" fill="none" xmlns="http://www.w3.org/2000/svg">
<ellipse opacity="0.3" cx="221.5" cy="352.5" rx="221.5" ry="15.5" fill="url(#paint0_radial)"/>
<path d="M269.962 22.1553H214.29" stroke="black" stroke-width="2"/>
<path d="M266.62 58.3419H210.948" stroke="black" stroke-width="2"/>
<path d="M263.28 95.0848H207.609" stroke="black" stroke-width="2"/>
<path d="M259.94 128.488H204.269" stroke="black" stroke-width="2"/>
<path d="M256.6 168.571H200.928" stroke="black" stroke-width="2"/>
<path d="M253.26 205.315H197.588" stroke="black" stroke-width="2"/>
<path d="M249.92 242.058H194.248" stroke="black" stroke-width="2"/>
<path d="M246.579 278.802H190.907" stroke="black" stroke-width="2"/>
<path d="M242.125 315.545H186.453" stroke="black" stroke-width="2"/>
<path d="M239.898 351.174H184.227" stroke="black" stroke-width="2"/>
<path d="M237.114 374L271.631 1" stroke="black" stroke-width="2"/>
<path d="M182 374L216.517 1" stroke="black" stroke-width="2"/>
<path d="M285.874 113.457C284.441 115.683 285.277 118.838 285.874 120.137L288.262 123.477C289.655 123.849 293.158 123.589 296.024 119.58C298.89 115.572 296.024 112.343 294.233 111.23C294.034 111.786 293.158 112.9 291.248 112.9C289.337 112.9 289.257 111.044 289.456 110.116C288.859 110.302 287.307 111.23 285.874 113.457Z" fill="#D3DBE6"/>
<path d="M246.465 96.1982C246.942 97.5343 241.091 102.693 238.105 105.106L232.731 106.776C233.13 104.92 234.045 99.6498 234.523 93.4145C235.12 85.6205 240.494 85.6205 243.479 86.1772C245.868 86.6226 244.474 93.4146 243.479 96.7549C244.275 96.0126 245.987 94.8621 246.465 96.1982Z" fill="#D3DBE6"/>
<path d="M222.602 90.0747C224.513 89.6293 224.777 76.5279 223.583 69.4761L218.806 64.4657L210.447 77.8269L209.252 101.209C211.442 101.58 216.059 101.543 217.015 98.4254C217.97 95.3078 217.811 90.0747 217.612 87.8478C219.204 89.1468 220.691 90.52 222.602 90.0747Z" fill="#BEC3CA"/>
<path d="M229.171 315.545H261.414L238.724 304.41C245.412 241.612 240.914 191.397 238.127 174.139H195.733L185.582 304.41L182 314.432H198.719C199.913 313.319 196.33 311.648 193.942 309.421C191.553 307.194 193.345 299.957 193.942 297.73C194.419 295.949 208.471 229.439 215.437 196.407C218.303 194.18 228.574 267.481 233.35 304.41L229.171 315.545Z" fill="#75559E"/>
<path d="M220.811 86.734C221.766 83.6164 222.005 73.5584 222.005 68.9191L209.466 69.4758L208.272 88.9609L207.077 97.8683L215.437 101.209L216.631 90.0743C217.626 90.2599 219.855 89.8516 220.811 86.734Z" fill="#D3DBE6"/>
<path d="M238.128 174.139H195.734C197.127 167.272 199.555 149.532 198.122 133.498C196.331 113.456 196.928 104.549 198.719 101.765C200.51 98.9818 207.676 93.9714 210.064 96.7549C212.452 99.5385 214.244 97.8684 216.632 98.4251C219.02 98.9818 219.02 96.1982 222.603 96.1982C225.469 96.1982 232.953 101.394 236.336 103.992H239.919V110.116L254.249 127.931L285.299 118.467L291.27 124.034L287.09 123.477L250.667 142.962L238.128 132.385C234.784 137.729 236.734 162.447 238.128 174.139Z" fill="#262A31"/>
<path d="M229.139 66.692C229.617 69.3643 224.562 69.6612 221.974 69.4756C219.586 69.9207 218.192 76.7131 217.795 80.0536C217.595 79.868 217.078 79.2742 216.6 78.3834C216.003 77.27 214.809 77.8267 213.018 80.0536C211.226 82.2804 214.212 82.2804 215.406 83.3939C216.361 84.2846 215.008 87.1053 214.212 88.4043H211.226C203.464 88.4043 208.838 88.961 205.255 83.3939C201.673 77.8267 199.882 70.0327 200.479 66.692C201.076 63.3514 207.644 60.0114 214.212 59.4547C220.78 58.898 228.542 63.3517 229.139 66.692Z" fill="#262A31"/>
<defs>
<radialGradient id="paint0_radial" cx="0" cy="0" r="1" gradientUnits="userSpaceOnUse" gradientTransform="translate(221.5 352.5) rotate(90) scale(15.5 221.5)">
<stop stop-color="#C4C4C4"/>
<stop offset="1" stop-color="#C4C4C4" stop-opacity="0"/>
</radialGradient>
</defs>
</svg>
