<svg width="678" height="589" viewBox="0 0 678 589" fill="none" xmlns="http://www.w3.org/2000/svg">
<path d="M660.551 359.27C659.756 360.799 658.926 362.302 658.07 363.796C625.237 420.995 548.861 456.518 420.056 437.717C346.922 426.534 315.776 467.552 285.617 509.567C285.101 510.292 284.586 511.017 284.061 511.742C252.478 555.802 221.21 599.983 143.026 585.297C60.1406 572.192 8.98755 504.893 1.07208 433.042C0.975666 432.169 0.888636 431.286 0.809716 430.413C-3.63711 383.829 10.1057 335.594 45.1658 299.179C66.3437 277.189 96.4328 265.508 127.491 265.875C136.843 266.049 146.19 265.356 155.414 263.804C157.45 263.446 159.424 263.053 161.346 262.608C200.914 253.565 219.148 226.682 230.331 193.876C230.593 193.099 230.855 192.321 231.108 191.535C256.786 113.298 244.912 3.4866 384.507 19.6407C509.424 28.8491 601.098 98.1135 646.065 178.028C646.511 178.832 646.957 179.635 647.393 180.439C659.753 202.613 668.572 226.581 673.533 251.477C673.813 252.875 674.067 254.273 674.303 255.671C680.663 292.784 676.495 328.858 660.551 359.27Z" fill="#F2F2F2"/>
<path d="M647.393 180.439C638.43 191.09 628.332 200.732 617.278 209.192C574.214 242.216 519.671 260.126 465.862 263.883C438.209 265.827 410.42 263.94 383.283 258.274C355.675 252.49 329.343 242.304 303.841 230.404C279.037 218.828 254.968 205.775 230.33 193.876C230.592 193.099 230.854 192.321 231.108 191.535C257.973 204.465 284.288 218.714 311.468 231.033C337.075 242.644 363.582 252.115 391.303 257.182C418.962 262.203 447.19 263.309 475.158 260.467C528.819 255.068 583.405 235.27 624.66 199.852C632.406 193.203 639.567 185.901 646.065 178.028C646.51 178.832 646.956 179.635 647.393 180.439Z" fill="white"/>
<path d="M460.951 0.82132C460.889 0.82132 460.826 0.823316 460.764 0.827316C394.547 4.97579 342.678 60.2465 342.678 126.657C342.678 193.068 394.547 248.339 460.764 252.486C461.159 252.513 461.556 252.458 461.929 252.324C462.302 252.19 462.644 251.98 462.932 251.708C463.219 251.44 463.448 251.116 463.604 250.755C463.76 250.395 463.84 250.006 463.839 249.613V3.70111C463.837 2.93663 463.532 2.20405 462.991 1.66415C462.449 1.12426 461.716 0.821128 460.951 0.821289L460.951 0.82132Z" fill="#CCCCCC"/>
<path d="M562.193 210.686C561.212 210.685 560.27 210.295 559.575 209.602L473.958 123.985C473.614 123.643 473.341 123.235 473.155 122.787C472.969 122.338 472.874 121.857 472.875 121.371V3.70117C472.873 3.19624 472.976 2.69637 473.176 2.233C473.377 1.76962 473.671 1.35277 474.041 1.00866C474.411 0.660289 474.849 0.391681 475.328 0.219478C475.806 0.047275 476.315 -0.0248504 476.823 0.00754858C543.471 4.18283 595.679 59.8141 595.679 126.657C595.681 157.02 584.796 186.377 564.999 209.398C564.666 209.784 564.258 210.097 563.798 210.318C563.339 210.539 562.84 210.664 562.331 210.683C562.285 210.685 562.239 210.686 562.193 210.686Z" fill="#CCCCCC"/>
<path d="M476.587 253.314C475.642 253.314 474.732 252.954 474.042 252.308C473.672 251.963 473.377 251.546 473.177 251.082C472.976 250.618 472.873 250.118 472.875 249.612V143.443C472.875 142.712 473.092 141.997 473.498 141.39C473.904 140.782 474.482 140.308 475.157 140.028C475.832 139.749 476.575 139.675 477.292 139.818C478.009 139.96 478.668 140.312 479.185 140.829L553.896 215.541C554.251 215.896 554.53 216.32 554.716 216.786C554.902 217.253 554.992 217.752 554.979 218.254C554.966 218.756 554.851 219.25 554.641 219.707C554.431 220.163 554.13 220.572 553.758 220.908C532.487 240.058 505.378 251.473 476.816 253.307C476.74 253.312 476.663 253.314 476.587 253.314Z" fill="#F8DE2B"/>
<path d="M674.303 255.671C662.316 276.927 645.393 295.676 626.015 310.537C582.952 343.562 528.409 361.472 474.6 365.229C446.947 367.173 419.157 365.285 392.021 359.62C364.413 353.836 338.08 343.649 312.578 331.75C286.613 319.632 261.443 305.889 235.591 293.544C209.765 281.208 183.223 270.689 155.414 263.804C157.45 263.446 159.424 263.053 161.346 262.608C163.164 263.079 164.975 263.569 166.781 264.075C221.158 279.277 269.148 309.235 320.205 332.379C345.813 343.99 372.319 353.46 400.041 358.527C427.7 363.549 455.928 364.655 483.895 361.812C537.556 356.413 592.143 336.616 633.397 301.197C649.726 287.24 663.334 270.383 673.534 251.477C673.814 252.875 674.067 254.273 674.303 255.671Z" fill="white"/>
<path d="M134.454 442.303C188.027 457.278 235.397 486.581 285.616 509.567C285.1 510.292 284.585 511.017 284.06 511.743C282.785 511.157 281.518 510.572 280.251 509.978C254.286 497.86 229.116 484.117 203.263 471.772C176.887 459.174 149.769 448.472 121.314 441.596C81.9805 432.122 41.3491 429.231 1.07095 433.043C0.974543 432.169 0.887514 431.287 0.808594 430.413C45.7093 426.174 91.0065 430.205 134.454 442.303Z" fill="white"/>
<path d="M122.899 391.696C136.464 391.696 147.46 380.7 147.46 367.135C147.46 353.57 136.464 342.574 122.899 342.574C109.334 342.574 98.3379 353.57 98.3379 367.135C98.3379 380.7 109.334 391.696 122.899 391.696Z" fill="#A0616A"/>
<path d="M214.798 540.442L215.371 552.689L168.408 560.729L167.562 542.655L214.798 540.442Z" fill="#A0616A"/>
<path d="M226.524 536.762L227.827 564.603L227.328 564.626C223.47 564.88 219.626 563.951 216.311 561.961C213.313 560.051 211.586 557.404 211.45 554.51V554.51L210.654 537.506L226.524 536.762Z" fill="#2F2E41"/>
<path d="M213.484 560.594L225.744 560.593L231.576 513.305L213.482 513.306L213.484 560.594Z" fill="#A0616A"/>
<path d="M210.357 556.591L234.501 556.59H234.502C236.523 556.59 238.524 556.987 240.39 557.761C242.257 558.534 243.953 559.667 245.382 561.096C246.811 562.525 247.944 564.221 248.718 566.088C249.491 567.954 249.889 569.955 249.889 571.976V572.476L210.358 572.477L210.357 556.591Z" fill="#2F2E41"/>
<path d="M97.7424 549.138C99.0856 548.324 100.234 547.226 101.107 545.92C101.98 544.615 102.556 543.134 102.794 541.581C103.032 540.029 102.928 538.443 102.487 536.936C102.046 535.428 101.28 534.036 100.243 532.857L110.029 435.502L86.7234 437.131L84.4329 532.315C82.5671 534.189 81.4534 536.682 81.3027 539.321C81.1521 541.961 81.975 544.565 83.6155 546.638C85.2561 548.712 87.6003 550.112 90.204 550.572C92.8076 551.033 95.4899 550.523 97.7424 549.138V549.138Z" fill="#A0616A"/>
<path d="M109.915 452.378L85.7654 449.435C85.0783 449.351 84.4173 449.12 83.8274 448.758C83.2376 448.396 82.7327 447.911 82.3472 447.336C81.9618 446.761 81.7048 446.109 81.5937 445.426C81.4826 444.743 81.5201 444.044 81.7036 443.376L88.1342 419.99C88.5824 416.477 90.4055 413.285 93.2037 411.114C96.0019 408.943 99.5468 407.971 103.061 408.409C106.575 408.848 109.772 410.662 111.951 413.455C114.13 416.247 115.112 419.789 114.683 423.305L115.312 447.472C115.33 448.164 115.199 448.852 114.927 449.488C114.655 450.125 114.249 450.695 113.737 451.161C113.224 451.626 112.618 451.976 111.958 452.186C111.299 452.396 110.602 452.461 109.915 452.378Z" fill="#F8DE2B"/>
<path d="M106.537 562.928C103.61 562.728 100.789 561.759 98.3568 560.119C95.925 558.479 93.9693 556.226 92.6873 553.587C91.4054 550.949 90.8426 548.019 91.0558 545.094C91.2691 542.168 92.2509 539.351 93.9019 536.926L109.676 520.55L167.176 469.05L197.917 443.542C199.71 442.053 201.853 441.045 204.143 440.61C206.433 440.176 208.795 440.331 211.009 441.059C213.223 441.788 215.216 443.067 216.801 444.776C218.385 446.485 219.51 448.569 220.069 450.832L236.129 515.8C236.399 516.881 236.257 518.024 235.732 519.006C235.206 519.988 234.334 520.74 233.285 521.115L215.777 527.418C215.19 527.629 214.567 527.716 213.945 527.673C213.323 527.631 212.717 527.46 212.165 527.171C211.613 526.882 211.127 526.481 210.738 525.994C210.349 525.508 210.065 524.946 209.904 524.343L203.244 499.368L166.186 534.795L177.748 539.05C178.809 539.445 179.682 540.224 180.197 541.232C180.711 542.24 180.828 543.404 180.525 544.495L176.789 557.732C176.531 558.655 175.984 559.472 175.228 560.061C174.472 560.651 173.547 560.982 172.589 561.007L106.537 562.928Z" fill="#2F2E41"/>
<path d="M104.965 526.003L103.444 470.449L93.85 446.083C91.891 441.112 91.0423 435.772 91.363 430.439C91.6837 425.105 93.1663 419.906 95.7068 415.206C98.2474 410.505 101.785 406.417 106.071 403.227C110.357 400.036 115.289 397.822 120.521 396.737C121.31 396.573 122.098 396.413 122.883 396.257C127.902 395.261 133.074 395.326 138.066 396.449C143.058 397.572 147.76 399.727 151.868 402.776C155.977 405.826 159.403 409.701 161.924 414.154C164.445 418.606 166.006 423.537 166.506 428.63L171.015 470.452L170.996 470.532C163.807 502.509 143.004 520.108 105.526 525.916L104.965 526.003Z" fill="#F8DE2B"/>
<path d="M127.655 487.414C128.202 487.329 128.755 487.288 129.308 487.291L157.067 446.195L151.81 435.354L167.134 425.282L178.305 443.568C179.208 445.046 179.607 446.776 179.442 448.499C179.278 450.222 178.559 451.846 177.393 453.126L139.401 494.839C139.997 496.885 139.957 499.065 139.285 501.088C138.612 503.111 137.34 504.881 135.637 506.163C133.934 507.445 131.881 508.179 129.752 508.266C127.622 508.353 125.516 507.789 123.714 506.65C121.912 505.511 120.5 503.85 119.665 501.889C118.83 499.928 118.612 497.759 119.04 495.67C119.468 493.582 120.521 491.674 122.06 490.199C123.599 488.724 125.551 487.752 127.655 487.414Z" fill="#A0616A"/>
<path d="M154.639 445.43C154.016 445.257 153.438 444.95 152.944 444.533C152.45 444.115 152.053 443.596 151.778 443.011L142.177 422.567C140.347 419.812 139.684 416.443 140.333 413.199C140.982 409.955 142.891 407.101 145.642 405.263C148.392 403.424 151.759 402.751 155.004 403.391C158.25 404.031 161.11 405.931 162.956 408.676L178.125 425.509C178.558 425.989 178.882 426.557 179.075 427.174C179.269 427.791 179.327 428.443 179.246 429.084C179.165 429.726 178.947 430.342 178.606 430.892C178.265 431.442 177.81 431.911 177.272 432.269L158.34 444.845C157.802 445.203 157.192 445.441 156.554 445.542C155.915 445.643 155.262 445.605 154.639 445.43Z" fill="#F8DE2B"/>
<path d="M448.662 386.187H367.592C366.423 386.187 365.302 385.723 364.476 384.896C363.65 384.07 363.186 382.949 363.186 381.781C363.186 380.612 363.65 379.492 364.476 378.665C365.302 377.839 366.423 377.375 367.592 377.375H448.662C449.83 377.375 450.951 377.839 451.777 378.665C452.603 379.492 453.068 380.612 453.068 381.781C453.068 382.949 452.603 384.07 451.777 384.896C450.951 385.723 449.83 386.187 448.662 386.187Z" fill="#CCCCCC"/>
<path d="M343.36 390.593C341.53 390.593 339.741 390.05 338.219 389.033C336.698 388.017 335.512 386.572 334.812 384.881C334.111 383.19 333.928 381.33 334.285 379.535C334.642 377.74 335.523 376.092 336.817 374.798C338.111 373.504 339.76 372.622 341.555 372.265C343.35 371.908 345.21 372.092 346.901 372.792C348.591 373.492 350.036 374.678 351.053 376.2C352.07 377.721 352.612 379.51 352.612 381.34C352.61 383.793 351.634 386.145 349.899 387.88C348.165 389.614 345.813 390.59 343.36 390.593Z" fill="#3F3D56"/>
<path d="M448.662 412.623H367.592C366.423 412.623 365.302 412.158 364.476 411.332C363.65 410.506 363.186 409.385 363.186 408.217C363.186 407.048 363.65 405.927 364.476 405.101C365.302 404.275 366.423 403.811 367.592 403.811H448.662C449.83 403.811 450.951 404.275 451.777 405.101C452.603 405.927 453.068 407.048 453.068 408.217C453.068 409.385 452.603 410.506 451.777 411.332C450.951 412.158 449.83 412.623 448.662 412.623Z" fill="#CCCCCC"/>
<path d="M343.36 417.029C341.53 417.029 339.741 416.486 338.22 415.469C336.698 414.453 335.512 413.008 334.812 411.317C334.111 409.626 333.928 407.766 334.285 405.971C334.642 404.176 335.523 402.528 336.817 401.234C338.111 399.94 339.76 399.058 341.555 398.701C343.35 398.344 345.21 398.528 346.901 399.228C348.591 399.928 350.037 401.114 351.053 402.636C352.07 404.157 352.613 405.946 352.613 407.776C352.61 410.229 351.634 412.581 349.899 414.316C348.165 416.05 345.813 417.026 343.36 417.029Z" fill="#3F3D56"/>
<path d="M448.662 439.059H367.592C366.423 439.059 365.302 438.594 364.476 437.768C363.65 436.942 363.186 435.821 363.186 434.653C363.186 433.484 363.65 432.363 364.476 431.537C365.302 430.711 366.423 430.247 367.592 430.247H448.662C449.83 430.247 450.951 430.711 451.777 431.537C452.603 432.363 453.068 433.484 453.068 434.653C453.068 435.821 452.603 436.942 451.777 437.768C450.951 438.594 449.83 439.059 448.662 439.059Z" fill="#CCCCCC"/>
<path d="M343.36 443.464C341.53 443.464 339.741 442.922 338.219 441.905C336.698 440.888 335.512 439.443 334.812 437.753C334.111 436.062 333.928 434.202 334.285 432.407C334.642 430.612 335.523 428.963 336.817 427.669C338.111 426.375 339.76 425.494 341.555 425.137C343.35 424.78 345.21 424.963 346.901 425.664C348.591 426.364 350.036 427.55 351.053 429.071C352.07 430.593 352.612 432.382 352.612 434.212C352.61 436.665 351.634 439.017 349.899 440.751C348.165 442.486 345.813 443.462 343.36 443.464Z" fill="#3F3D56"/>
<path d="M471.954 408.098H505.44C505.674 408.098 505.898 408.005 506.063 407.84C506.228 407.675 506.321 407.45 506.321 407.217V200.206C506.321 199.972 506.228 199.748 506.063 199.583C505.898 199.417 505.674 199.324 505.44 199.324C505.206 199.324 504.982 199.417 504.817 199.583C504.652 199.748 504.559 199.972 504.559 200.206V406.336H471.954C471.838 406.335 471.724 406.358 471.616 406.402C471.509 406.446 471.412 406.511 471.329 406.593C471.247 406.674 471.182 406.772 471.138 406.879C471.093 406.986 471.07 407.101 471.07 407.217C471.07 407.333 471.093 407.448 471.138 407.555C471.182 407.662 471.247 407.759 471.329 407.841C471.412 407.923 471.509 407.988 471.616 408.032C471.724 408.076 471.838 408.098 471.954 408.098Z" fill="#3F3D56"/>
<path d="M615.442 64.9054C613.203 65.0857 610.96 64.5981 608.998 63.5041C607.036 62.4101 605.443 60.7589 604.419 58.7593C603.396 56.7597 602.988 54.5015 603.248 52.2702C603.508 50.039 604.424 47.9349 605.88 46.2241C607.335 44.5133 609.266 43.2725 611.426 42.6588C613.587 42.0451 615.882 42.0859 618.019 42.7761C620.157 43.4663 622.042 44.7749 623.436 46.5364C624.83 48.298 625.67 50.4333 625.851 52.6724C626.092 55.6749 625.132 58.6505 623.18 60.9446C621.227 63.2388 618.444 64.6635 615.442 64.9054ZM615.301 63.1637C617.196 63.011 619.003 62.3 620.493 61.1205C621.984 59.941 623.091 58.3461 623.675 56.5373C624.259 54.7285 624.294 52.7871 623.774 50.9587C623.255 49.1302 622.205 47.4969 620.758 46.2651C619.31 45.0333 617.53 44.2585 615.642 44.0386C613.754 43.8186 611.843 44.1635 610.151 45.0295C608.459 45.8956 607.062 47.2439 606.136 48.904C605.21 50.5641 604.798 52.4614 604.95 54.356C605.052 55.614 605.4 56.8397 605.975 57.9631C606.55 59.0866 607.34 60.0858 608.302 60.9036C609.263 61.7215 610.376 62.342 611.577 62.7298C612.778 63.1176 614.043 63.265 615.301 63.1637V63.1637Z" fill="#CCCCCC"/>
<path d="M654.55 35.7626C658.41 35.7626 661.539 32.6334 661.539 28.7733C661.539 24.9132 658.41 21.7839 654.55 21.7839C650.69 21.7839 647.561 24.9132 647.561 28.7733C647.561 32.6334 650.69 35.7626 654.55 35.7626Z" fill="#CCCCCC"/>
<path d="M562.074 288.46C560.835 290.334 559.069 291.799 556.998 292.669C554.927 293.539 552.645 293.776 550.44 293.349C548.234 292.922 546.205 291.851 544.608 290.271C543.012 288.69 541.92 286.672 541.47 284.471C541.02 282.27 541.234 279.986 542.083 277.906C542.931 275.826 544.378 274.045 546.239 272.787C548.101 271.53 550.293 270.852 552.539 270.841C554.786 270.829 556.985 271.484 558.859 272.722C561.37 274.385 563.118 276.976 563.721 279.926C564.323 282.877 563.731 285.945 562.074 288.46ZM544.58 276.9C543.532 278.486 542.978 280.347 542.988 282.248C542.997 284.148 543.571 286.004 544.635 287.579C545.699 289.154 547.206 290.378 548.966 291.096C550.726 291.814 552.659 291.995 554.521 291.614C556.384 291.234 558.091 290.31 559.428 288.959C560.765 287.608 561.672 285.891 562.033 284.025C562.394 282.158 562.194 280.227 561.458 278.475C560.721 276.723 559.482 275.228 557.896 274.18C555.769 272.778 553.172 272.277 550.675 272.787C548.179 273.297 545.987 274.776 544.58 276.9Z" fill="#CCCCCC"/>
<path d="M575.681 330.23C579.541 330.23 582.67 327.101 582.67 323.241C582.67 319.381 579.541 316.251 575.681 316.251C571.821 316.251 568.691 319.381 568.691 323.241C568.691 327.101 571.821 330.23 575.681 330.23Z" fill="#CCCCCC"/>
<path d="M595.177 362.722C597.205 362.722 598.849 361.078 598.849 359.051C598.849 357.023 597.205 355.379 595.177 355.379C593.15 355.379 591.506 357.023 591.506 359.051C591.506 361.078 593.15 362.722 595.177 362.722Z" fill="#CCCCCC"/>
<path d="M280.058 97.7059C279.058 95.6942 278.677 93.4313 278.964 91.2033C279.25 88.9753 280.191 86.8823 281.667 85.1889C283.143 83.4955 285.088 82.2778 287.256 81.6898C289.424 81.1018 291.717 81.1699 293.847 81.8855C295.976 82.6011 297.845 83.932 299.218 85.71C300.591 87.4879 301.406 89.6331 301.56 91.8741C301.714 94.1152 301.199 96.3515 300.082 98.3003C298.965 100.249 297.295 101.823 295.283 102.823C292.585 104.16 289.467 104.372 286.612 103.413C283.758 102.453 281.401 100.401 280.058 97.7059ZM298.835 88.3747C297.989 86.6725 296.658 85.2594 295.009 84.3141C293.36 83.3687 291.467 82.9336 289.571 83.0637C287.675 83.1937 285.86 83.8832 284.355 85.0449C282.851 86.2066 281.725 87.7883 281.119 89.59C280.514 91.3918 280.456 93.3326 280.953 95.1671C281.451 97.0015 282.481 98.6473 283.914 99.8962C285.347 101.145 287.118 101.941 289.003 102.183C290.889 102.426 292.803 102.104 294.506 101.258C296.786 100.121 298.523 98.1266 299.334 95.7114C300.146 93.2962 299.966 90.6577 298.835 88.3747Z" fill="#CCCCCC"/>
<path d="M243.144 99.0105C247.004 99.0105 250.133 95.8813 250.133 92.0212C250.133 88.1611 247.004 85.0319 243.144 85.0319C239.284 85.0319 236.154 88.1611 236.154 92.0212C236.154 95.8813 239.284 99.0105 243.144 99.0105Z" fill="#CCCCCC"/>
<path d="M202.386 94.586C204.414 94.586 206.058 92.9423 206.058 90.9146C206.058 88.8869 204.414 87.2432 202.386 87.2432C200.359 87.2432 198.715 88.8869 198.715 90.9146C198.715 92.9423 200.359 94.586 202.386 94.586Z" fill="#CCCCCC"/>
<path d="M148.854 369.284L147.83 366.675C145.005 359.476 138.252 353.943 131.024 352.906C127.418 352.434 123.752 352.996 120.452 354.525C117.153 356.055 114.356 358.49 112.386 361.547C110.714 364.448 109.394 367.537 108.454 370.75C108.132 371.706 107.807 372.399 107.183 372.608C106.481 372.861 105.782 372.428 104.624 371.71C104.366 371.55 104.067 371.467 103.763 371.47C103.46 371.474 103.163 371.563 102.908 371.729C102.653 371.894 102.451 372.129 102.324 372.405C102.198 372.681 102.152 372.987 102.194 373.288L103.408 381.958L102.392 381.054C95.7792 375.168 94.4206 364.092 99.1975 357.065L88.3262 359.299L88.816 358.364C93.331 349.65 101.113 343.078 110.46 340.085L100.047 337.792L101.1 337.143C110.425 331.398 122.727 331.56 132.439 337.546C137.317 340.671 141.357 344.941 144.208 349.984C147.059 355.027 148.633 360.69 148.795 366.481L148.854 369.284Z" fill="#2F2E41"/>
</svg>
