<svg width="444" height="380" viewBox="0 0 444 380" fill="none" xmlns="http://www.w3.org/2000/svg">
<path opacity="0.1" d="M302.438 379.425C335.32 379.425 361.976 375.427 361.976 370.496C361.976 365.564 335.32 361.567 302.438 361.567C269.556 361.567 242.9 365.564 242.9 370.496C242.9 375.427 269.556 379.425 302.438 379.425Z" fill="#F8DE2B"/>
<path d="M280.332 354.387L165.701 352.921L166.042 349.981L171.581 301.482H272.252L279.657 349.981L280.223 353.654L280.332 354.387Z" fill="#D0D2D5"/>
<path opacity="0.1" d="M280.223 353.654H223.02L165.701 352.921L166.042 349.981H279.657L280.223 353.654Z" fill="black"/>
<path d="M298.708 350.714H146.598V354.387H298.708V350.714Z" fill="#D0D2D5"/>
<path d="M443.83 10.1924C443.837 8.93561 443.596 7.68984 443.121 6.52623C442.646 5.36262 441.947 4.30399 441.063 3.41084C440.178 2.51769 439.127 1.80753 437.968 1.32093C436.809 0.834338 435.566 0.580849 434.309 0.574951H9.52105C6.9834 0.588566 4.555 1.60926 2.76966 3.4127C0.98431 5.21614 -0.0118679 7.65472 0.000106719 10.1924V267.682H443.83V10.1924Z" fill="#444053"/>
<path d="M0 265.109V295.268C0 297.793 1.0031 300.214 2.78862 302C4.57414 303.785 6.99583 304.789 9.52094 304.789H434.309C435.56 304.789 436.798 304.544 437.954 304.066C439.109 303.587 440.159 302.886 441.044 302.002C441.928 301.118 442.629 300.068 443.107 298.912C443.585 297.757 443.831 296.518 443.83 295.268V265.109H0Z" fill="#D0D2D5"/>
<path d="M427.665 16.7412H18.374V248.209H427.665V16.7412Z" fill="white"/>
<path d="M224.12 293.35C225.623 293.35 227.106 293.01 228.457 292.353C229.809 291.697 230.994 290.742 231.923 289.561C232.207 289.2 232.465 288.82 232.695 288.422L227.279 287.522L233.165 287.567C233.729 286.338 234.037 285.007 234.069 283.656C234.101 282.304 233.857 280.96 233.351 279.706L225.458 283.804L232.74 278.451C232.051 277.287 231.13 276.276 230.035 275.481C228.94 274.686 227.695 274.123 226.374 273.828C225.054 273.532 223.687 273.51 222.358 273.762C221.028 274.014 219.764 274.535 218.644 275.294C217.524 276.052 216.57 277.032 215.843 278.173C215.115 279.314 214.628 280.591 214.413 281.927C214.197 283.263 214.257 284.629 214.589 285.94C214.921 287.252 215.518 288.482 216.342 289.555C217.268 290.733 218.449 291.687 219.796 292.345C221.143 293.002 222.621 293.346 224.12 293.35Z" fill="#F8DE2B"/>
<path opacity="0.1" d="M234.041 304.788L279.774 350.714L272.755 304.788H234.041Z" fill="black"/>
<path opacity="0.1" d="M427.786 16.7671H18.0508V30.2894H427.786V16.7671Z" fill="#444053"/>
<path opacity="0.1" d="M316.756 81.8567H129.162C122.664 81.8567 117.396 86.7716 117.396 92.8315V196.095C117.396 202.155 122.664 207.07 129.162 207.07H316.756C323.254 207.07 328.522 202.155 328.522 196.095V92.8315C328.522 86.7716 323.254 81.8567 316.756 81.8567Z" fill="black"/>
<path d="M309.462 75.9771H136.58C129.947 75.9771 124.569 81.3543 124.569 87.9876V189.18C124.569 195.813 129.947 201.19 136.58 201.19H309.462C316.095 201.19 321.473 195.813 321.473 189.18V87.9876C321.473 81.3543 316.095 75.9771 309.462 75.9771Z" fill="#454B69"/>
<path opacity="0.3" d="M173.469 146.406H148.342C146.636 146.406 145.254 147.789 145.254 149.494V153.939C145.254 155.645 146.636 157.027 148.342 157.027H173.469C175.175 157.027 176.557 155.645 176.557 153.939V149.494C176.557 147.789 175.175 146.406 173.469 146.406Z" fill="#F8DE2B"/>
<path opacity="0.3" d="M215.393 146.406H190.266C188.56 146.406 187.178 147.789 187.178 149.494V153.939C187.178 155.645 188.56 157.027 190.266 157.027H215.393C217.099 157.027 218.481 155.645 218.481 153.939V149.494C218.481 147.789 217.099 146.406 215.393 146.406Z" fill="#F8DE2B"/>
<path opacity="0.3" d="M228.807 168.208H207.591C205.885 168.208 204.503 169.59 204.503 171.296V172.942C204.503 174.648 205.885 176.03 207.591 176.03H228.807C230.512 176.03 231.895 174.648 231.895 172.942V171.296C231.895 169.59 230.512 168.208 228.807 168.208Z" fill="#F8DE2B"/>
<path opacity="0.3" d="M257.317 146.406H232.189C230.484 146.406 229.102 147.789 229.102 149.494V153.939C229.102 155.645 230.484 157.027 232.189 157.027H257.317C259.022 157.027 260.405 155.645 260.405 153.939V149.494C260.405 147.789 259.022 146.406 257.317 146.406Z" fill="#F8DE2B"/>
<path opacity="0.3" d="M299.242 146.406H274.114C272.409 146.406 271.026 147.789 271.026 149.494V153.939C271.026 155.645 272.409 157.027 274.114 157.027H299.242C300.947 157.027 302.33 155.645 302.33 153.939V149.494C302.33 147.789 300.947 146.406 299.242 146.406Z" fill="#F8DE2B"/>
<path d="M167.391 121.253H149.945C148.897 121.253 148.047 122.102 148.047 123.15V140.597C148.047 141.645 148.897 142.495 149.945 142.495H167.391C168.439 142.495 169.289 141.645 169.289 140.597V123.15C169.289 122.102 168.439 121.253 167.391 121.253Z" fill="#F8DE2B"/>
<path d="M162.159 135.367H155.456V128.664H162.159V135.367ZM155.726 135.09H161.876V128.94H155.726V135.09Z" fill="#454B69"/>
<path d="M158.941 121.253H158.664V128.799H158.941V121.253Z" fill="#454B69"/>
<path d="M158.941 135.226H158.664V142.495H158.941V135.226Z" fill="#454B69"/>
<path d="M155.593 131.732H148.047V132.009H155.593V131.732Z" fill="#454B69"/>
<path d="M169.294 131.732H162.024V132.009H169.294V131.732Z" fill="#454B69"/>
<path d="M155.496 128.902L153.303 126.721H148.047V126.438H153.418L155.696 128.702L155.496 128.902Z" fill="#454B69"/>
<path d="M162.113 128.902L161.927 128.696L164.481 126.438H169.286V126.721H164.59L162.113 128.902Z" fill="#454B69"/>
<path d="M153.425 137.947H148.047V137.664H153.296L155.49 135.135L155.702 135.322L153.425 137.947Z" fill="#454B69"/>
<path d="M169.288 137.947H164.476L161.922 135.328L162.121 135.129L164.598 137.664H169.288V137.947Z" fill="#454B69"/>
<path d="M202.007 85.6201H147.751C146.294 85.6201 145.113 86.801 145.113 88.2577V93.6036C145.113 95.0602 146.294 96.2411 147.751 96.2411H202.007C203.464 96.2411 204.645 95.0602 204.645 93.6036V88.2577C204.645 86.801 203.464 85.6201 202.007 85.6201Z" fill="#F8DE2B"/>
<path d="M331.361 251.014C331.323 249.908 331.188 248.801 331.052 247.701C330.557 243.571 330.049 239.441 329.245 235.369C329.103 234.574 328.887 233.795 328.601 233.04C328.312 232.326 327.913 231.67 327.611 230.962C327.614 230.937 327.614 230.911 327.611 230.885C327.984 230.705 328.351 230.525 328.711 230.332C328.971 230.2 329.221 230.047 329.457 229.875C329.695 229.704 329.894 229.485 330.042 229.232C330.686 228.1 329.965 226.659 329.637 225.372C329.29 223.989 329.367 222.329 328.351 221.403C324.722 218.186 326.524 211.624 324.709 207.018C324.388 206.214 324.021 205.423 323.744 204.6C323.532 203.956 323.384 203.313 323.23 202.67C321.943 197.309 320.588 191.971 319.164 186.658C317.665 181.151 317.826 175.413 315.948 170.035C315.593 168.92 315.13 167.842 314.564 166.818C313.935 165.751 313.084 164.832 312.068 164.123C309.328 162.231 306.568 160.617 303.352 159.928C300.135 159.24 296.661 159.349 293.38 159.362C292.205 157.732 290.589 156.471 288.723 155.728L288.665 155.56C288.402 154.909 288.2 154.235 288.06 153.547C287.955 152.866 287.901 152.177 287.899 151.488C287.899 150.748 287.867 150.002 287.848 149.262L288.028 149.089C288.459 148.634 288.854 148.148 289.212 147.635C289.556 147.15 289.858 146.635 290.112 146.097C290.401 145.487 290.646 144.857 290.846 144.212C291.237 142.909 291.502 141.571 291.637 140.217C291.811 138.628 291.862 137.001 291.907 135.412C291.907 135.09 291.907 134.769 291.907 134.44V134.202C291.907 133.945 291.907 133.694 291.907 133.443V133.36C291.961 131.717 291.546 130.092 290.711 128.676C289.546 126.94 287.552 126.103 285.629 125.408C281.769 124.07 277.529 123.189 273.715 124.624C270.685 125.769 268.266 128.265 265.274 129.532C265.343 129.647 265.405 129.765 265.461 129.886C265.462 129.903 265.462 129.92 265.461 129.937C265.512 130.053 265.557 130.163 265.596 130.278C265.693 130.539 265.764 130.808 265.808 131.082C265.895 131.602 265.895 132.132 265.808 132.652C264.905 133.057 263.908 133.204 262.926 133.077C263.297 134.288 263.914 135.41 264.74 136.37C265.004 136.705 265.281 137.014 265.545 137.368L265.95 137.869C266.639 138.678 267.201 139.587 267.616 140.565C267.768 140.952 267.874 141.356 267.931 141.768C268.053 142.585 268.021 143.524 268.131 144.341C268.172 144.692 268.261 145.036 268.394 145.364C268.64 147.059 269.287 148.671 270.281 150.066C271.274 151.461 272.586 152.599 274.107 153.386C274.525 155.929 274.525 158.524 274.107 161.067C274.107 161.208 274.055 161.35 274.023 161.492C272.273 163.698 270.594 166.027 268.439 167.751C267.459 168.519 266.41 169.195 265.306 169.771C264.658 170.145 263.964 170.432 263.241 170.626C262.431 170.813 261.582 170.787 260.778 170.987C259.224 171.48 257.916 172.545 257.117 173.965C256.71 174.716 256.259 175.442 255.766 176.14C255.316 176.699 254.75 177.156 254.274 177.69C252.55 179.62 252.08 182.412 251.701 185.024C250.36 186.505 248.889 187.863 247.307 189.083C246.812 189.477 246.261 189.795 245.673 190.029C244.155 190.537 242.488 189.887 241.17 188.909C239.851 187.931 238.822 186.645 237.548 185.641L237.213 186.137C237.118 186.043 237.03 185.942 236.95 185.834C236.427 185.099 236.066 184.261 235.888 183.377C235.425 181.003 236.3 178.462 235.618 176.153C235.367 175.316 234.762 174.454 233.926 174.473C233.09 174.493 232.569 175.329 231.848 175.722C230.69 176.365 229.275 175.779 228.13 175.143C226.985 174.506 225.679 173.792 224.424 174.171C224.4 174.585 224.475 175 224.641 175.38C224.808 175.76 225.062 176.095 225.383 176.358C226.029 176.87 226.56 177.512 226.94 178.243C227.128 179.041 227.199 179.863 227.152 180.681C227.281 182.56 228.439 184.175 229.558 185.641C230.947 187.421 232.401 189.149 233.92 190.826C233.737 191.146 233.451 191.393 233.109 191.528C233.022 191.832 233.022 192.155 233.109 192.46C233.173 192.671 233.254 192.875 233.353 193.071C233.501 193.374 233.682 193.67 233.836 193.946L236.094 197.916L236.461 198.559C236.615 198.829 236.769 199.086 236.93 199.35C237.462 200.274 238.095 201.137 238.815 201.923C239.174 202.301 239.571 202.642 239.999 202.94C240.277 203.14 240.572 203.316 240.88 203.467C241.31 203.687 241.77 203.845 242.244 203.937C242.477 203.987 242.714 204.017 242.952 204.027C243.198 204.046 243.445 204.046 243.691 204.027C244.433 203.923 245.16 203.736 245.859 203.467C250.163 201.956 254.113 199.543 258.204 197.491C258.767 197.176 259.371 196.942 259.999 196.796C260.211 196.756 260.427 196.738 260.643 196.745C260.861 196.751 261.077 196.788 261.286 196.854C261.491 196.923 261.686 197.021 261.865 197.144C262.226 197.386 262.477 197.76 262.566 198.186C262.688 198.829 262.804 199.427 262.92 200.045C263.036 200.663 263.164 201.28 263.293 201.898C263.55 203.126 263.827 204.355 264.149 205.571C264.322 206.214 264.489 206.896 264.657 207.565C265.068 209.199 265.474 210.846 265.847 212.493C265.963 213.008 266.072 213.529 266.175 214.043C266.367 214.959 266.504 215.884 266.587 216.816C266.589 216.837 266.589 216.859 266.587 216.88C266.651 217.691 266.657 218.495 266.664 219.306V221.847L266.728 229.348C266.728 230.428 266.149 231.104 265.692 232.075C265.602 232.275 265.519 232.48 265.448 232.686C265.362 232.948 265.291 233.214 265.236 233.484C265.236 233.568 265.197 233.658 265.184 233.741C265.171 233.825 265.184 233.941 265.146 234.037C265.107 234.134 265.146 234.23 265.114 234.32C265.081 234.41 265.114 234.513 265.114 234.603C265.114 234.693 265.114 234.809 265.114 234.912C265.114 235.015 265.114 235.092 265.114 235.176C265.114 235.26 265.114 235.401 265.114 235.51C265.114 235.62 265.114 235.671 265.114 235.748C265.114 235.826 265.159 235.999 265.178 236.128L265.216 236.321C265.261 236.508 265.307 236.694 265.371 236.881C265.5 237.267 265.66 237.646 265.828 238.019C265.995 238.392 266.162 238.772 266.304 239.158C266.393 239.403 266.471 239.652 266.535 239.904C266.551 239.961 266.564 240.019 266.574 240.078C266.625 240.277 266.67 240.477 266.709 240.683V240.824C266.747 241.043 266.78 241.268 266.805 241.467C266.809 241.493 266.809 241.519 266.805 241.545C266.805 241.796 266.857 242.046 266.87 242.297C266.928 243.211 266.915 244.144 266.87 245.064L266.793 249.644V249.785C266.785 249.928 266.817 250.07 266.883 250.197C266.929 250.269 266.993 250.328 267.068 250.369C267.143 250.41 267.228 250.43 267.314 250.429C267.64 250.405 267.951 250.284 268.208 250.081L270.254 248.595H270.382C268.767 251.239 267.474 254.153 267.224 257.261C267.126 259.312 267.258 261.369 267.616 263.391C269.501 276.901 273.94 290.532 273.007 304.171C272.64 309.542 274.866 314.779 274.853 320.157C274.853 322.247 274.499 324.319 274.409 326.403C274.017 335.358 278.584 344.416 276.725 353.165C277.368 355.339 279.807 356.497 280.495 358.659C281.074 360.492 280.238 362.441 279.562 364.236C279.319 364.862 279.132 365.507 279.003 366.166C277.13 366.166 275.053 366.205 273.805 366.726C273.459 366.839 273.121 366.977 272.795 367.137C271.643 367.826 271.566 369.711 272.293 370.849C273.02 371.988 277.105 375.623 278.301 376.221L280.92 377.508C282.324 378.302 283.843 378.874 285.423 379.206C286.752 379.354 288.095 379.328 289.418 379.129C290.441 379.019 291.573 378.852 292.235 378.016C293.168 376.832 292.692 374.909 292.055 373.197C292.291 373.01 292.472 372.763 292.583 372.483C292.696 372.035 292.754 371.575 292.756 371.113C292.945 370.219 293.252 369.353 293.67 368.54C294.744 365.922 294.699 362.975 294.635 360.125C294.647 355.492 294.328 350.863 293.683 346.275C293.361 344.345 292.924 342.415 292.551 340.485C291.178 333.496 290.589 326.376 290.794 319.256C290.818 317.527 290.577 315.805 290.08 314.148C289.869 313.192 289.813 312.208 289.913 311.234L290.685 299.455C290.905 297.06 290.941 294.651 290.794 292.25C290.685 290.963 290.473 289.677 290.344 288.39C290.149 285.938 290.108 283.476 290.222 281.018C290.293 278.374 290.415 275.537 291.927 273.414C292.004 273.278 292.107 273.158 292.231 273.062C292.354 272.966 292.496 272.895 292.647 272.854C292.956 272.809 293.046 273.228 292.93 273.498C293.091 273.987 293.258 274.469 293.425 274.958C293.477 275.1 293.522 275.235 293.573 275.37C293.657 275.621 293.747 275.871 293.837 276.122C293.927 276.373 293.966 276.47 294.024 276.643L294.275 277.287C294.345 277.48 294.423 277.666 294.493 277.853C294.564 278.039 294.654 278.258 294.738 278.458C294.821 278.657 294.905 278.856 294.995 279.056C295.085 279.255 295.15 279.423 295.233 279.609L295.542 280.252C295.619 280.413 295.696 280.581 295.78 280.741C295.864 280.902 296.031 281.211 296.159 281.443C296.23 281.578 296.301 281.713 296.378 281.841C296.584 282.202 296.796 282.549 297.022 282.896C297.459 283.54 297.929 284.183 298.308 284.871C298.442 285.098 298.562 285.332 298.668 285.573C299.025 286.461 299.306 287.378 299.511 288.313C299.736 289.162 300 289.992 300.29 290.809C300.579 291.626 300.933 292.443 301.248 293.241C301.422 293.64 301.602 294.038 301.782 294.431C302.322 295.621 302.908 296.792 303.5 297.95C303.603 298.155 303.685 298.371 303.744 298.593C303.774 298.701 303.797 298.811 303.815 298.921C303.838 299.135 303.838 299.351 303.815 299.564C303.808 299.699 303.79 299.832 303.763 299.963C303.725 300.162 303.667 300.356 303.59 300.542C302.798 302.35 303.435 304.132 303.783 305.908C304.086 307.779 304.233 309.673 304.22 311.569C304.22 312.212 304.22 312.855 304.278 313.453C304.278 314.238 304.278 315.017 304.323 315.802C304.368 316.586 304.323 317.487 304.368 318.33C304.382 319.174 304.348 320.018 304.265 320.858C304.265 321.154 304.188 321.443 304.143 321.733C304.001 322.601 303.802 323.463 303.628 324.306C302.986 327.698 302.688 331.147 302.741 334.599C302.741 335.984 302.786 337.372 302.876 338.761C302.953 340.157 303.062 341.547 303.184 342.943C303.249 343.708 303.326 344.474 303.403 345.239C303.532 346.564 303.673 347.89 303.815 349.215C303.956 350.54 304.111 352 304.246 353.384C304.381 354.767 304.503 356.15 304.6 357.526C304.66 358.209 304.517 358.894 304.188 359.495C304.058 359.733 303.95 359.983 303.866 360.241C303.806 360.42 303.759 360.603 303.725 360.788C303.687 361.001 303.661 361.216 303.648 361.431C303.632 361.883 303.657 362.335 303.725 362.782C303.759 363.005 303.798 363.22 303.841 363.426C303.937 363.869 304.053 364.313 304.169 364.751C304.434 365.963 304.867 367.132 305.455 368.225C305.581 368.449 305.722 368.664 305.88 368.868C305.925 368.932 305.976 368.99 306.028 369.055C306.161 369.209 306.283 369.373 306.394 369.543C306.447 369.623 306.492 369.707 306.53 369.794C306.662 370.15 306.689 370.537 306.607 370.907C306.536 371.293 306.401 371.679 306.298 372.046L306.633 372.091C306.163 373.577 305.944 375.102 306.735 376.099C307.379 376.935 308.53 377.102 309.553 377.212C310.875 377.416 312.219 377.444 313.548 377.295C315.127 376.964 316.646 376.391 318.051 375.597L320.669 374.31C321.866 373.712 325.945 370.103 326.672 368.932C327.398 367.761 327.315 365.915 326.176 365.227C325.85 365.062 325.513 364.923 325.166 364.809C324.008 364.326 322.136 364.281 320.386 364.255C320.296 363.612 320.245 362.911 320.219 362.248C320.102 359.786 320.149 357.319 320.361 354.863C320.509 353.12 320.734 351.383 320.715 349.64C320.715 347.311 320.232 345.008 319.981 342.692C319.73 340.376 319.705 338.111 319.666 335.821C319.608 332.45 320.599 329.24 321.03 325.908L321.782 320.047C321.909 319.336 321.926 318.609 321.834 317.892C321.718 317.249 321.422 316.606 321.3 315.962C321.036 314.502 321.699 313.055 321.905 311.581C322.143 309.89 321.776 308.172 321.538 306.474C321.226 303.792 321.078 301.094 321.094 298.394C320.862 281.796 320.393 264.826 314.783 249.297C314.558 248.653 314.314 248.01 314.063 247.412C314.176 247.381 314.288 247.344 314.397 247.302C314.572 247.237 314.739 247.151 314.893 247.045C314.961 247.004 315.026 246.956 315.086 246.903C315.265 246.725 315.395 246.503 315.465 246.26C315.54 246.025 315.58 245.78 315.581 245.533C315.573 245.098 315.51 244.666 315.394 244.247L315.317 243.983C315.188 243.545 315.047 243.114 314.899 242.696C314.757 242.278 314.603 241.873 314.442 241.461C314.107 240.698 313.836 239.908 313.632 239.1C313.239 237.273 313.632 235.163 312.532 233.677C310.1 230.345 311.818 225.224 310.801 221.165C310.467 219.878 309.978 218.591 309.669 217.305C309.476 216.481 309.354 215.639 309.231 214.796C308.91 212.974 308.75 211.127 308.755 209.276C308.755 208.35 308.897 207.424 309.006 206.504L309.778 200.122C310.641 201.773 311.256 203.542 311.605 205.371C311.663 205.635 311.715 205.893 311.773 206.156C312.468 209.304 313.327 212.413 314.346 215.471C314.931 217.318 315.51 219.158 316.141 220.985C316.327 221.506 316.507 222.033 316.675 222.567C316.839 223.101 316.968 223.644 317.061 224.195C317.131 224.632 317.163 225.082 317.196 225.526C317.228 225.97 317.254 226.427 317.299 226.871C317.509 228.771 318.147 230.598 319.164 232.217C319.196 232.258 319.226 232.301 319.254 232.345C319.427 232.658 319.705 232.899 320.039 233.027C320.27 233.075 320.509 233.075 320.74 233.027H320.779C321.12 232.956 321.461 232.879 321.795 232.796C321.845 232.786 321.895 232.773 321.943 232.757C322.098 234.751 322.689 236.739 322.741 238.753C322.805 241.68 321.731 244.485 321.049 247.322C320.475 249.911 320.09 252.538 319.897 255.183C319.809 255.706 319.842 256.243 319.994 256.752C320.067 256.999 320.224 257.213 320.438 257.358C320.651 257.502 320.908 257.568 321.165 257.544C321.346 257.483 321.513 257.386 321.655 257.259C321.798 257.132 321.913 256.977 321.995 256.804C322.76 255.532 323.015 254.017 322.709 252.564C323.32 252.693 323.635 253.394 323.783 254.031C324.174 255.682 324.08 257.411 323.513 259.01C323.133 260.078 322.548 261.063 322.226 262.163C322.111 262.505 322.111 262.875 322.226 263.218C322.548 263.957 323.564 263.906 324.298 263.636C326.695 262.659 328.642 260.824 329.759 258.489C330.898 256.167 331.448 253.6 331.361 251.014Z" fill="url(#paint0_linear)"/>
<path d="M293.831 378.074C293.143 378.904 291.966 379.071 290.898 379.181C289.519 379.38 288.121 379.406 286.736 379.258C285.103 378.928 283.527 378.361 282.059 377.572L279.331 376.286C278.09 375.687 273.844 372.098 273.085 370.933C272.326 369.769 272.403 367.936 273.599 367.247C273.941 367.086 274.294 366.949 274.654 366.836C276.662 366.038 280.727 366.443 282.863 366.134C283.922 366.085 284.974 366.332 285.899 366.848C288.009 367.781 291.728 368.521 292.648 370.895C293.362 372.722 295.317 376.266 293.831 378.074Z" fill="#2F2E41"/>
<path d="M308.981 376.311C309.67 377.141 310.847 377.308 311.915 377.418C314.957 377.986 318.103 377.411 320.747 375.803L323.475 374.516C324.723 373.918 328.969 370.328 329.728 369.164C330.487 368 330.41 366.16 329.207 365.478C328.869 365.313 328.518 365.175 328.158 365.066C326.151 364.268 322.085 364.674 319.95 364.365C318.889 364.313 317.834 364.56 316.907 365.079C314.803 366.012 311.117 366.752 310.165 369.125C309.432 370.959 307.47 374.503 308.981 376.311Z" fill="#2F2E41"/>
<path d="M315.613 246.235C316.271 247.499 316.845 248.806 317.331 250.146C323.172 265.585 323.661 282.479 323.906 298.992C323.884 301.678 324.036 304.362 324.362 307.027C324.607 308.719 325.006 310.424 324.742 312.116C324.53 313.576 323.841 315.017 324.099 316.464C324.221 317.108 324.53 317.751 324.652 318.394C324.748 319.107 324.729 319.83 324.594 320.537L323.816 326.365C323.365 329.684 322.336 332.875 322.394 336.227C322.432 338.511 322.471 340.794 322.722 343.065C323.095 345.354 323.351 347.66 323.488 349.974C323.488 351.711 323.269 353.442 323.114 355.172C322.898 357.615 322.848 360.069 322.966 362.519C323.057 364.404 323.275 366.379 324.253 367.968C323.127 369.576 322.021 371.017 320.226 371.827C316.578 373.423 312.39 372.882 308.447 372.31C308.666 371.583 309 370.76 308.685 370.065C308.502 369.729 308.275 369.42 308.01 369.145C307.151 367.92 306.554 366.532 306.253 365.066C305.777 363.323 305.301 361.451 306.253 359.785C306.588 359.2 306.738 358.527 306.684 357.855C305.867 346.919 303.429 335.571 305.674 324.821C305.912 323.676 306.195 322.531 306.318 321.366C306.439 319.692 306.46 318.012 306.382 316.336L306.408 313.936C306.292 311.447 306.408 308.893 305.893 306.429C305.539 304.666 304.87 302.891 305.694 301.089C305.871 300.68 305.952 300.235 305.931 299.789C305.91 299.343 305.787 298.907 305.571 298.516C303.838 295.481 302.445 292.265 301.416 288.924C301.203 287.992 300.91 287.079 300.541 286.197C300.04 285.266 299.463 284.377 298.817 283.54C296.887 280.703 295.69 277.416 294.545 274.173C294.667 273.871 294.545 273.459 294.256 273.53C294.099 273.569 293.952 273.638 293.823 273.734C293.694 273.83 293.585 273.951 293.503 274.09C291.933 276.2 291.798 279.018 291.727 281.655C291.609 284.1 291.652 286.55 291.856 288.989C291.985 290.275 292.21 291.562 292.326 292.849C292.477 295.237 292.438 297.633 292.21 300.015L291.419 311.685C291.306 312.654 291.362 313.636 291.586 314.586C292.102 316.228 292.354 317.941 292.332 319.662C292.13 326.739 292.751 333.816 294.185 340.749C294.571 342.679 295.028 344.571 295.362 346.494C296.03 351.057 296.361 355.662 296.353 360.274C296.424 363.111 296.469 366.063 295.349 368.637C294.91 369.444 294.589 370.311 294.397 371.21C294.396 371.67 294.336 372.129 294.217 372.574C293.889 373.416 292.93 373.777 292.023 373.97C290.362 374.33 288.657 374.452 286.961 374.33C286.563 374.326 286.171 374.238 285.809 374.073C285.166 373.744 284.844 373.05 284.362 372.529C283.326 371.396 281.602 371.049 280.656 369.84C279.472 368.321 279.968 366.128 280.656 364.339C281.344 362.551 282.226 360.615 281.621 358.788C280.907 356.645 278.405 355.487 277.697 353.326C279.627 344.616 274.879 335.609 275.285 326.699C275.381 324.622 275.741 322.563 275.748 320.485C275.748 315.133 273.451 309.922 273.818 304.583C274.789 291.015 270.164 277.467 268.208 264.003C267.834 261.995 267.696 259.95 267.796 257.911C268.086 254.54 269.649 251.407 271.528 248.596C272.879 246.582 274.5 244.607 276.732 243.668C278.572 242.889 280.63 242.896 282.625 242.909C287.604 242.947 292.583 242.986 297.562 243.076C300.951 243.027 304.336 243.329 307.662 243.977C310.358 244.588 312.879 245.842 315.613 246.235Z" fill="#2F2E41"/>
<g opacity="0.1">
<path opacity="0.1" d="M295.072 274.051C295.24 273.772 295.51 273.571 295.825 273.491C296.147 273.446 296.243 273.858 296.121 274.135C297.266 277.351 298.437 280.664 300.386 283.501C301.037 284.337 301.616 285.225 302.117 286.158C302.483 287.042 302.776 287.954 302.992 288.886C304.021 292.225 305.412 295.441 307.141 298.477C307.358 298.868 307.481 299.304 307.503 299.75C307.524 300.196 307.442 300.641 307.263 301.051C306.44 302.852 307.109 304.628 307.469 306.39C307.964 308.854 307.868 311.408 307.984 313.898C307.984 314.676 307.984 315.454 308.029 316.233C308.112 317.909 308.093 319.589 307.971 321.263C307.836 322.428 307.553 323.573 307.327 324.718C305.089 335.468 307.52 346.796 308.337 357.752C308.394 358.423 308.246 359.096 307.913 359.682C306.935 361.348 307.411 363.22 307.913 364.963C308.208 366.43 308.806 367.819 309.669 369.042C309.92 369.322 310.135 369.631 310.312 369.962C310.628 370.657 310.312 371.48 310.068 372.207C311.811 372.487 313.567 372.674 315.33 372.767C313.043 372.785 310.758 372.598 308.505 372.207C308.723 371.48 309.058 370.657 308.743 369.962C308.56 369.626 308.333 369.317 308.067 369.042C307.209 367.817 306.611 366.429 306.311 364.963C305.835 363.22 305.359 361.348 306.311 359.682C306.646 359.097 306.796 358.424 306.742 357.752C305.925 346.816 303.487 335.468 305.732 324.718C305.97 323.573 306.253 322.428 306.375 321.263C306.497 319.589 306.518 317.909 306.44 316.233C306.44 315.454 306.408 314.676 306.388 313.898C306.272 311.408 306.388 308.854 305.874 306.39C305.52 304.628 304.851 302.852 305.674 301.051C305.851 300.641 305.933 300.196 305.911 299.75C305.89 299.304 305.767 298.869 305.552 298.477C303.819 295.442 302.425 292.226 301.396 288.886C301.181 287.954 300.888 287.042 300.521 286.158C300.02 285.227 299.444 284.338 298.797 283.501C296.932 280.793 295.78 277.679 294.687 274.579C294.828 274.418 294.944 274.231 295.072 274.051Z" fill="black"/>
</g>
<path d="M235.168 184.381C234.686 182.02 235.599 179.491 234.885 177.195C234.628 176.365 233.998 175.503 233.129 175.522C232.261 175.542 231.714 176.371 230.968 176.764C229.765 177.407 228.298 176.822 227.108 176.191C225.918 175.561 224.534 174.84 223.248 175.22C223.093 176.043 223.647 176.822 224.251 177.394C224.915 177.901 225.465 178.541 225.866 179.273C226.168 180.032 226.027 180.881 226.091 181.698C226.226 183.564 227.378 185.178 228.594 186.632C230.5 188.975 232.524 191.219 234.66 193.355C234.66 193.355 237.877 189.34 237.832 188.639C237.787 187.938 236.687 187.353 236.288 186.825C235.739 186.103 235.357 185.268 235.168 184.381Z" fill="#A1616A"/>
<path d="M331.702 233.787C331.99 234.536 332.205 235.312 332.345 236.102C333.181 240.155 333.709 244.266 334.23 248.37C334.365 249.464 334.506 250.564 334.545 251.664C334.695 254.285 334.156 256.9 332.982 259.249C331.796 261.612 329.77 263.448 327.301 264.395C326.542 264.665 325.481 264.717 325.146 263.983C325.027 263.644 325.027 263.274 325.146 262.935C325.449 261.841 326.06 260.857 326.433 259.795C327.02 258.21 327.119 256.484 326.716 254.842C326.562 254.199 326.233 253.51 325.597 253.382C325.914 254.832 325.646 256.349 324.85 257.602C324.763 257.775 324.641 257.929 324.493 258.055C324.345 258.181 324.174 258.276 323.988 258.335C323.726 258.362 323.462 258.299 323.24 258.157C323.018 258.014 322.851 257.8 322.766 257.55C322.611 257.044 322.578 256.509 322.67 255.987C322.871 253.353 323.271 250.738 323.866 248.164C324.574 245.34 325.699 242.555 325.622 239.641C325.558 237.003 324.509 234.411 324.805 231.792C324.8 231.647 324.845 231.504 324.931 231.388C325.018 231.271 325.141 231.187 325.281 231.149C326.02 230.846 326.779 230.595 327.552 230.396C328.009 230.281 329.566 229.753 330.003 229.985C330.441 230.216 330.466 231.355 330.647 231.754C330.987 232.416 331.406 233.072 331.702 233.787Z" fill="#A1616A"/>
<path d="M279.641 155.625C285.592 155.625 290.416 150.8 290.416 144.849C290.416 138.898 285.592 134.074 279.641 134.074C273.69 134.074 268.865 138.898 268.865 144.849C268.865 150.8 273.69 155.625 279.641 155.625Z" fill="#A1616A"/>
<path d="M289.296 152.646C289.292 153.334 289.346 154.02 289.457 154.698C289.607 155.384 289.822 156.054 290.1 156.699C290.459 157.752 290.965 158.749 291.606 159.658C292.255 160.576 293.231 161.212 294.333 161.434C286.966 164.889 279.101 167.162 271.026 168.169C272.298 167.324 273.355 166.194 274.114 164.869C274.52 164.021 274.796 163.117 274.931 162.186C275.622 158.29 275.274 154.281 273.921 150.562C273.786 150.202 273.657 149.751 273.921 149.449C274.031 149.341 274.163 149.258 274.307 149.205C277.505 147.847 280.96 147.201 284.433 147.313C285.321 147.313 286.208 147.358 287.096 147.423C287.572 147.461 288.621 147.358 289.026 147.706C289.431 148.053 289.251 149.417 289.264 149.976L289.296 152.646Z" fill="#A1616A"/>
<path d="M294.996 160.507C293.41 158.478 291.191 157.037 288.692 156.414C286.192 155.792 283.556 156.023 281.204 157.072C276.057 159.523 273.548 165.435 269.039 168.857C268.012 169.626 266.919 170.3 265.771 170.871C265.093 171.244 264.371 171.529 263.622 171.72C262.779 171.907 261.905 171.881 261.049 172.08C259.45 172.55 258.087 173.607 257.234 175.04C256.814 175.789 256.345 176.511 255.832 177.201C255.362 177.761 254.777 178.218 254.281 178.751C252.486 180.681 251.998 183.448 251.592 186.047C250.187 187.524 248.655 188.873 247.012 190.08C246.497 190.477 245.924 190.794 245.314 191.019C243.738 191.534 241.994 190.884 240.65 189.913C239.305 188.941 238.212 187.661 236.886 186.696C235.67 188.433 234.397 190.183 233.097 191.843C232.903 192.166 232.603 192.411 232.248 192.538C232.004 193.361 232.589 194.21 233.026 194.944L235.375 198.893C236.154 200.329 237.107 201.665 238.212 202.869C239.351 204.054 240.888 204.776 242.528 204.895C243.565 204.886 244.592 204.688 245.558 204.31C250.061 202.805 254.146 200.405 258.424 198.359C259.196 197.92 260.059 197.667 260.946 197.62C261.389 197.61 261.824 197.744 262.183 198.003C262.543 198.262 262.809 198.631 262.94 199.054C263.429 201.525 263.912 203.982 264.581 206.401C265.22 208.691 265.809 210.988 266.35 213.291C266.712 214.704 266.97 216.143 267.122 217.594C267.193 218.418 267.199 219.241 267.212 220.071L267.302 230.055C267.302 231.136 266.697 231.805 266.221 232.77C265.504 234.27 265.395 235.99 265.919 237.569C266.183 238.347 266.601 239.068 266.897 239.84C267.604 241.699 267.578 243.745 267.54 245.733L267.456 250.287C267.432 250.477 267.466 250.67 267.553 250.84C267.829 251.271 268.498 251.021 268.923 250.725L271.027 249.284C273.878 249.677 276.758 249.817 279.634 249.702C287.81 249.586 295.993 249.908 304.15 250.48C306.878 250.673 309.689 250.879 312.263 249.972C313.549 249.509 314.771 248.769 316.122 248.402C316.674 248.312 317.197 248.091 317.647 247.759C318.393 247.071 318.194 245.829 317.892 244.89C317.621 244.041 317.319 243.198 316.978 242.375C316.631 241.616 316.347 240.831 316.129 240.026C315.724 238.212 316.129 236.109 314.99 234.629C312.456 231.316 314.25 226.215 313.183 222.181C312.842 220.894 312.333 219.608 312.012 218.321C311.806 217.498 311.677 216.662 311.555 215.825C311.217 214.014 311.051 212.174 311.06 210.331C311.06 209.411 311.208 208.492 311.323 207.578L312.127 201.222C313.13 203.103 313.829 205.131 314.199 207.231C314.93 210.368 315.832 213.462 316.901 216.501C317.506 218.334 318.11 220.161 318.766 221.982C319.186 223.021 319.507 224.098 319.725 225.198C319.866 226.08 319.873 226.98 319.976 227.862C320.191 229.762 320.853 231.585 321.906 233.182C322.103 233.553 322.427 233.84 322.819 233.992C323.08 234.05 323.35 234.05 323.611 233.992C326.455 233.43 329.209 232.478 331.793 231.162C332.343 230.931 332.82 230.558 333.176 230.081C333.871 228.949 333.093 227.54 332.752 226.253C332.411 224.967 332.475 223.223 331.395 222.303C327.618 219.087 329.465 212.57 327.605 207.99C327.271 207.186 326.885 206.407 326.602 205.584C326.383 204.94 326.222 204.297 326.062 203.654C324.745 198.323 323.334 193.011 321.829 187.719C320.272 182.238 320.439 176.532 318.477 171.18C318.108 170.062 317.628 168.984 317.042 167.963C316.386 166.896 315.508 165.981 314.469 165.281C311.619 163.396 308.75 161.794 305.398 161.112C302.047 160.43 298.406 160.469 294.996 160.507Z" fill="#3F3D56"/>
<path d="M269.847 147.487C268.4 146.708 268.779 144.586 268.561 142.984C268.052 139.632 264.276 137.651 263.414 134.383C264.433 134.51 265.468 134.363 266.412 133.958C266.593 132.873 266.378 131.759 265.807 130.819C268.914 129.532 271.436 127.081 274.588 125.943C278.564 124.508 282.951 125.389 286.991 126.721C288.992 127.364 291.07 128.246 292.279 129.97C293.604 131.867 293.566 134.357 293.514 136.673C293.405 140.301 293.257 144.058 291.642 147.307C289.59 151.443 283.768 155.271 278.956 154.152C276.962 153.688 276.383 152.427 275.528 150.691C275 149.61 274.807 148.355 273.598 147.789C272.388 147.223 271.024 148.117 269.847 147.487Z" fill="#3F3D56"/>
<g opacity="0.1">
<path opacity="0.1" d="M267.509 246.498C267.507 246.518 267.507 246.537 267.509 246.556C267.786 246.987 268.455 246.736 268.879 246.441L271.015 244.967C273.867 245.359 276.747 245.497 279.623 245.379C287.799 245.263 295.982 245.585 304.139 246.157C306.867 246.35 309.678 246.556 312.251 245.649C313.538 245.186 314.76 244.453 316.111 244.08C316.578 243.993 317.027 243.832 317.443 243.604C317.597 244.028 317.745 244.453 317.88 244.89C318.183 245.862 318.382 247.071 317.636 247.759C317.186 248.092 316.663 248.312 316.111 248.403C314.773 248.769 313.538 249.509 312.251 249.972C309.678 250.879 306.867 250.673 304.139 250.48C295.982 249.908 287.799 249.586 279.623 249.702C276.751 249.817 273.875 249.677 271.028 249.284L268.892 250.764C268.468 251.059 267.799 251.31 267.522 250.879C267.435 250.709 267.401 250.516 267.426 250.326C267.456 249.052 267.484 247.776 267.509 246.498Z" fill="black"/>
<path opacity="0.1" d="M314.201 207.218C313.831 205.119 313.132 203.091 312.129 201.21L311.325 207.565C311.274 207.964 311.222 208.363 311.177 208.762C311.074 207.848 311.036 206.928 311.061 206.009C311.061 205.089 311.209 204.169 311.325 203.255L312.129 196.899C313.132 198.781 313.831 200.808 314.201 202.908C314.931 206.045 315.833 209.14 316.903 212.178C317.507 214.011 318.112 215.845 318.768 217.659C319.187 218.699 319.508 219.776 319.727 220.875C319.868 221.757 319.875 222.657 319.978 223.539C320.19 225.44 320.851 227.264 321.908 228.859C322.1 229.231 322.423 229.519 322.815 229.669C323.078 229.717 323.348 229.706 323.606 229.637C326.451 229.075 329.205 228.123 331.789 226.807C332.13 226.639 332.451 226.434 332.747 226.196C333.088 227.482 333.867 228.891 333.172 230.023C332.815 230.5 332.338 230.874 331.789 231.104C329.205 232.42 326.451 233.372 323.606 233.935C323.345 233.992 323.075 233.992 322.815 233.935C322.423 233.785 322.1 233.496 321.908 233.124C320.852 231.528 320.191 229.705 319.978 227.804C319.875 226.923 319.868 226.022 319.727 225.141C319.509 224.041 319.188 222.964 318.768 221.924C318.125 220.103 317.482 218.277 316.903 216.443C315.835 213.419 314.933 210.34 314.201 207.218Z" fill="black"/>
<path opacity="0.1" d="M313.536 224.735C313.536 225.018 313.536 225.308 313.536 225.597C313.549 225.308 313.543 225.025 313.536 224.735Z" fill="black"/>
<path opacity="0.1" d="M266.878 235.556C267.586 237.415 267.56 239.46 267.521 241.448C267.521 241.969 267.521 242.484 267.521 243.005C267.467 241.932 267.25 240.874 266.878 239.866C266.582 239.094 266.164 238.373 265.9 237.595C265.45 236.232 265.468 234.758 265.952 233.407C266.216 234.14 266.595 234.829 266.878 235.556Z" fill="black"/>
<path opacity="0.1" d="M233.109 191.804L233.475 191.328L235.405 194.545C236.184 195.982 237.136 197.317 238.242 198.521C239.368 199.727 240.902 200.472 242.546 200.611C243.582 200.601 244.609 200.405 245.576 200.032C250.079 198.521 254.164 196.121 258.442 194.075C259.201 193.635 260.05 193.376 260.925 193.316C261.369 193.308 261.804 193.443 262.163 193.703C262.523 193.963 262.788 194.333 262.92 194.757C263.408 197.221 263.891 199.679 264.56 202.097C265.199 204.388 265.789 206.684 266.329 208.987C266.692 210.401 266.95 211.839 267.101 213.291C267.172 214.114 267.178 214.944 267.185 215.768L267.281 225.758C267.282 225.905 267.269 226.051 267.243 226.196L267.185 220.078C267.185 219.248 267.185 218.424 267.101 217.601C266.95 216.149 266.692 214.711 266.329 213.297C265.78 210.994 265.19 208.698 264.56 206.407C263.917 203.989 263.408 201.531 262.92 199.061C262.788 198.638 262.522 198.269 262.163 198.01C261.803 197.751 261.368 197.616 260.925 197.626C260.039 197.674 259.175 197.927 258.404 198.366C254.145 200.412 250.041 202.811 245.537 204.317C244.571 204.694 243.545 204.893 242.507 204.902C240.863 204.763 239.33 204.018 238.204 202.811C237.099 201.607 236.147 200.272 235.367 198.836C234.588 197.517 233.803 196.205 233.019 194.886C232.581 194.153 231.996 193.303 232.24 192.48C232.599 192.362 232.906 192.124 233.109 191.804Z" fill="black"/>
</g>
<g opacity="0.1">
<path opacity="0.1" d="M266.358 132.376C266.262 131.818 266.061 131.283 265.767 130.8C265.947 130.727 266.127 130.65 266.307 130.568C266.446 131.161 266.464 131.776 266.358 132.376Z" fill="black"/>
<path opacity="0.1" d="M268.534 141.395C268.779 143.022 268.399 145.139 269.821 145.898C270.992 146.541 272.394 145.634 273.545 146.188C274.697 146.741 274.922 148.008 275.475 149.089C276.318 150.826 276.91 152.08 278.904 152.55C283.716 153.669 289.538 149.835 291.59 145.699C293.205 142.45 293.353 138.693 293.462 135.065C293.462 134.885 293.462 134.711 293.462 134.531C293.462 135.232 293.462 135.94 293.462 136.634C293.353 140.263 293.205 144.02 291.59 147.268C289.538 151.405 283.716 155.232 278.904 154.113C276.91 153.65 276.331 152.389 275.475 150.652C274.948 149.571 274.755 148.317 273.545 147.751C272.336 147.185 270.972 148.098 269.821 147.468C268.373 146.689 268.753 144.566 268.534 142.965C268.026 139.613 264.25 137.632 263.388 134.364C263.62 134.395 263.854 134.41 264.089 134.409C265.472 136.795 268.116 138.635 268.534 141.395Z" fill="black"/>
</g>
<path d="M362.035 359.997C373.507 359.997 382.807 358.208 382.807 356.002C382.807 353.795 373.507 352.007 362.035 352.007C350.563 352.007 341.263 353.795 341.263 356.002C341.263 358.208 350.563 359.997 362.035 359.997Z" fill="#F8DE2B"/>
<path d="M361.686 357.469C363.022 357.469 364.105 356.052 364.105 354.304C364.105 352.556 363.022 351.139 361.686 351.139C360.351 351.139 359.268 352.556 359.268 354.304C359.268 356.052 360.351 357.469 361.686 357.469Z" fill="#3F3D56"/>
<path d="M361.686 353.602C363.022 353.602 364.105 352.185 364.105 350.437C364.105 348.689 363.022 347.272 361.686 347.272C360.351 347.272 359.268 348.689 359.268 350.437C359.268 352.185 360.351 353.602 361.686 353.602Z" fill="#3F3D56"/>
<path d="M361.686 349.73C363.022 349.73 364.105 348.313 364.105 346.565C364.105 344.816 363.022 343.399 361.686 343.399C360.351 343.399 359.268 344.816 359.268 346.565C359.268 348.313 360.351 349.73 361.686 349.73Z" fill="#3F3D56"/>
<path d="M361.686 345.863C363.022 345.863 364.105 344.446 364.105 342.698C364.105 340.95 363.022 339.533 361.686 339.533C360.351 339.533 359.268 340.95 359.268 342.698C359.268 344.446 360.351 345.863 361.686 345.863Z" fill="#3F3D56"/>
<path d="M361.686 341.991C363.022 341.991 364.105 340.574 364.105 338.826C364.105 337.078 363.022 335.661 361.686 335.661C360.351 335.661 359.268 337.078 359.268 338.826C359.268 340.574 360.351 341.991 361.686 341.991Z" fill="#3F3D56"/>
<path d="M361.686 338.125C363.022 338.125 364.105 336.708 364.105 334.959C364.105 333.211 363.022 331.794 361.686 331.794C360.351 331.794 359.268 333.211 359.268 334.959C359.268 336.708 360.351 338.125 361.686 338.125Z" fill="#3F3D56"/>
<path d="M361.686 334.252C363.022 334.252 364.105 332.835 364.105 331.087C364.105 329.339 363.022 327.922 361.686 327.922C360.351 327.922 359.268 329.339 359.268 331.087C359.268 332.835 360.351 334.252 361.686 334.252Z" fill="#3F3D56"/>
<path d="M370.738 304.608C371.068 304.187 371.369 303.745 371.638 303.283L365.282 302.241L372.153 302.292C372.812 300.858 373.172 299.304 373.211 297.725C373.25 296.147 372.966 294.577 372.378 293.112L363.153 297.898L371.657 291.645C370.859 290.273 369.787 289.08 368.508 288.139C367.229 287.199 365.77 286.532 364.222 286.179C362.674 285.826 361.07 285.795 359.51 286.089C357.95 286.382 356.466 286.993 355.152 287.884C353.838 288.774 352.721 289.926 351.871 291.266C351.02 292.607 350.455 294.108 350.209 295.677C349.963 297.245 350.043 298.847 350.442 300.384C350.842 301.92 351.553 303.358 352.532 304.608C352.017 305.265 351.572 305.974 351.207 306.725L359.46 311.009L350.66 308.056C350.256 309.254 350.05 310.51 350.049 311.775C350.044 314.373 350.919 316.897 352.532 318.935C351.19 320.643 350.356 322.694 350.124 324.854C349.893 327.015 350.274 329.196 351.224 331.15C352.173 333.104 353.654 334.751 355.495 335.904C357.337 337.056 359.466 337.667 361.638 337.667C363.81 337.667 365.939 337.056 367.781 335.904C369.622 334.751 371.102 333.104 372.052 331.15C373.002 329.196 373.383 327.015 373.152 324.854C372.92 322.694 372.086 320.643 370.744 318.935C372.351 316.892 373.223 314.369 373.222 311.77C373.221 309.172 372.346 306.649 370.738 304.608Z" fill="#F8DE2B"/>
<path opacity="0.1" d="M350.049 311.768C350.044 314.367 350.919 316.891 352.532 318.928C351.19 320.637 350.356 322.688 350.124 324.848C349.893 327.008 350.274 329.19 351.224 331.144C352.173 333.098 353.654 334.745 355.495 335.897C357.337 337.05 359.466 337.661 361.638 337.661C363.81 337.661 365.939 337.05 367.781 335.897C369.622 334.745 371.102 333.098 372.052 331.144C373.002 329.19 373.383 327.008 373.152 324.848C372.92 322.688 372.086 320.637 370.744 318.928C372.294 316.96 350.049 310.469 350.049 311.768Z" fill="black"/>
<defs>
<linearGradient id="paint0_linear" x1="277.883" y1="379.36" x2="277.883" y2="123.884" gradientUnits="userSpaceOnUse">
<stop stop-color="#808080" stop-opacity="0.25"/>
<stop offset="0.54" stop-color="#808080" stop-opacity="0.12"/>
<stop offset="1" stop-color="#808080" stop-opacity="0.1"/>
</linearGradient>
</defs>
</svg>
