<svg width="779" height="415" viewBox="0 0 779 415" fill="none" xmlns="http://www.w3.org/2000/svg">
<g clip-path="url(#clip0)">
<path d="M719.272 328.162C718.404 330.035 717.539 331.882 716.676 333.704C715.33 336.535 714.001 339.311 712.689 342.032C712.106 343.237 711.522 344.42 710.953 345.604C704.52 358.761 698.513 370.399 693.411 379.969C688.781 388.641 681.907 395.907 673.509 401.006C665.111 406.104 655.497 408.849 645.675 408.95L532.228 410.186H531.031L521.305 410.291L512.987 410.381L487.477 410.658H486.445L473.458 410.8H473.061L393.016 411.669L321.566 412.418L313.254 412.507L261.636 413.069H261.577L228.1 413.429H227.74L121.886 414.574L90.2193 414.919C87.5229 414.95 84.8272 414.815 82.1474 414.514C81.2347 414.41 80.3221 414.29 79.4169 414.147C64.6481 411.865 51.1063 404.587 41.0474 393.524C27.4247 378.524 17.5125 361.023 10.8545 342.032C9.89199 339.291 8.99429 336.515 8.16142 333.704C-14.8872 255.71 13.211 155.084 63.7818 87.746C65.9014 84.9303 68.0559 82.1844 70.2453 79.5085L70.2977 79.4486C85.8504 60.3375 103.288 44.3716 121.863 33.0188C154.779 12.8667 191.249 7.19033 227.12 24.1073C257.47 38.4256 285.807 45.1579 313.277 46.9851C316.052 47.1649 318.828 47.2997 321.588 47.382C384.6 49.3665 443.654 26.6384 513.002 11.9681C515.762 11.384 518.53 10.8074 521.32 10.2607C570.792 0.405588 625.671 -4.79155 690.935 6.13443C697.715 7.24325 704.406 8.84507 710.953 10.9272C713.831 11.8558 716.604 12.8543 719.272 13.9226C750.423 26.6085 767.412 50.048 774.631 79.4186C775.314 82.1445 775.905 84.9178 776.404 87.7385C789.204 158.387 751.717 258.6 719.272 328.162Z" fill="#F6F6F6"/>
<path opacity="0.1" d="M371.815 333.703C371.514 336.504 371.047 339.285 370.416 342.03H440.512V333.703H371.815ZM313.277 380.739L321.589 380.672V360.101C318.738 359.973 315.963 359.846 313.277 359.711V380.739ZM139.032 333.703V342.03H287.528V333.703H139.032ZM774.669 79.4474H719.31V13.929C716.642 12.8456 713.869 11.8471 710.991 10.9335V79.4474H521.321V10.2371C518.531 10.7837 515.763 11.3604 513.002 11.9445V79.4474H321.589V47.3584C318.828 47.2761 316.053 47.1413 313.277 46.9615V79.4474H121.864V33.0176C103.289 44.3704 85.8508 60.3363 70.2981 79.4474H70.2457V79.5073C68.0513 82.2032 65.8968 84.9491 63.7822 87.7449H70.2457V333.703H8.1543C8.98218 336.514 9.87989 339.29 10.8474 342.03H70.2382V412.139C73.2264 413.054 76.2765 413.752 79.3649 414.229C80.2701 414.371 81.1828 414.491 82.0954 414.596C84.7752 414.896 87.4709 415.031 90.1673 415L121.834 414.656V342.015H313.277V412.566L321.589 412.476V342.03H513.002V410.447L521.321 410.357V342.03H710.954V345.602C711.523 344.419 712.106 343.236 712.69 342.03C714.001 339.309 715.33 336.534 716.677 333.703C717.54 331.886 718.405 330.038 719.273 328.161V87.7748H776.442C775.938 84.9341 775.347 82.1583 774.669 79.4474ZM121.864 333.703V87.7449H313.277V333.703H121.864ZM321.604 333.703V87.7449H513.002V333.703H321.604ZM710.969 333.703H521.321V87.7449H710.954L710.969 333.703Z" fill="black"/>
<path d="M645.669 399.633V409.368L532.019 410.416L530.807 410.439L487.612 410.836L486.58 410.851L473.451 410.963H473.062L393.031 411.704L261.66 412.925H261.547L228.145 413.24L227.786 413.247L79.3652 414.61V403.377L114.264 382.409L184.285 381.825L185.781 381.817L186.275 381.81L187.771 381.787L221.39 381.51L222.894 381.503L223.372 381.495L224.869 381.488L235.648 381.398L235.933 381.39L262.527 381.166H262.744L470.264 379.413L475.344 379.376H475.852L479.727 379.338L507.893 379.106L509.389 379.084L510.773 379.069H511.491L520.251 379.001L521.987 378.979L524.314 378.964L531.607 378.897L543.18 378.799L544.677 378.784L547.28 378.769H547.766L603.656 378.29L645.669 399.633Z" fill="#65617D"/>
<path opacity="0.2" d="M645.669 399.633V409.368L532.019 410.416L530.807 410.439L487.612 410.836L486.58 410.851L473.451 410.963H473.062L393.031 411.704L261.66 412.925H261.547L228.145 413.24L227.786 413.247L79.3652 414.61V403.377L114.264 382.409L184.285 381.825L185.781 381.817L186.275 381.81L187.771 381.787L221.39 381.51L222.894 381.503L223.372 381.495L224.869 381.488L235.648 381.398L235.933 381.39L262.527 381.166H262.744L470.264 379.413L475.344 379.376H475.852L479.727 379.338L507.893 379.106L509.389 379.084L510.773 379.069H511.491L520.251 379.001L521.987 378.979L524.314 378.964L531.607 378.897L543.18 378.799L544.677 378.784L547.28 378.769H547.766L603.656 378.29L645.669 399.633Z" fill="black"/>
<path d="M221.509 362.197V380.537C221.509 381.406 221.264 382.257 220.8 382.991C220.337 383.725 219.675 384.313 218.891 384.686C218.307 384.969 217.669 385.122 217.021 385.135L190.912 385.689C190.215 385.706 189.523 385.56 188.892 385.262C188.095 384.896 187.419 384.309 186.945 383.569C186.472 382.83 186.221 381.97 186.222 381.091V362.197H221.509Z" fill="#3F3D56"/>
<path opacity="0.1" d="M221.509 362.197V380.537C221.509 381.406 221.264 382.257 220.8 382.991C220.337 383.725 219.675 384.313 218.891 384.686C218.307 384.969 217.669 385.122 217.021 385.135L190.912 385.689C190.215 385.706 189.523 385.56 188.892 385.262C188.095 384.896 187.419 384.309 186.945 383.569C186.472 382.83 186.221 381.97 186.222 381.091V362.197H221.509Z" fill="black"/>
<path d="M223.006 362.197V380.537C223.007 381.406 222.761 382.257 222.297 382.991C221.834 383.725 221.172 384.313 220.388 384.686C219.804 384.969 219.166 385.122 218.518 385.135L192.409 385.689C191.712 385.706 191.02 385.56 190.389 385.262C189.592 384.896 188.916 384.309 188.443 383.569C187.969 382.83 187.718 381.97 187.719 381.091V362.197H223.006Z" fill="#3F3D56"/>
<path d="M544.676 362.189H509.389V385.779H544.676V362.189Z" fill="#3F3D56"/>
<path opacity="0.1" d="M544.676 362.189H509.389V385.779H544.676V362.189Z" fill="black"/>
<path d="M543.18 362.189H507.893V385.779H543.18V362.189Z" fill="#3F3D56"/>
<path opacity="0.1" d="M222.997 362.189V365.911L187.71 366.855V362.189H222.997Z" fill="black"/>
<path d="M285.285 233.916V359.876C285.276 360.645 284.972 361.381 284.435 361.931C283.899 362.482 283.172 362.805 282.405 362.834L139.033 366.653H138.996C138.215 366.643 137.469 366.329 136.917 365.776C136.365 365.223 136.051 364.477 136.041 363.695V233.916C136.051 233.135 136.365 232.388 136.917 231.835C137.469 231.283 138.215 230.968 138.996 230.958H282.33C283.111 230.968 283.857 231.283 284.409 231.835C284.961 232.388 285.275 233.135 285.285 233.916Z" fill="#65617D"/>
<path opacity="0.1" d="M139.033 230.958V366.653H138.996C138.215 366.643 137.469 366.329 136.917 365.776C136.365 365.223 136.051 364.477 136.041 363.695V233.916C136.051 233.135 136.365 232.388 136.917 231.835C137.469 231.283 138.215 230.968 138.996 230.958H139.033Z" fill="black"/>
<path d="M145.571 239.001H278.357V350.021L145.571 353.016V239.001Z" fill="white"/>
<path opacity="0.1" d="M543.18 362.189V366.99L507.893 366.046V362.189H543.18Z" fill="black"/>
<path d="M589.756 233.916V363.695C589.746 364.483 589.427 365.235 588.867 365.789C588.306 366.343 587.551 366.653 586.764 366.653L443.363 362.834C442.595 362.805 441.868 362.482 441.332 361.931C440.796 361.381 440.491 360.645 440.482 359.876V233.916C440.492 233.135 440.807 232.388 441.359 231.835C441.911 231.283 442.657 230.968 443.437 230.958H586.771C587.557 230.96 588.311 231.271 588.869 231.825C589.428 232.378 589.746 233.13 589.756 233.916Z" fill="#65617D"/>
<path opacity="0.1" d="M589.757 233.916V363.695C589.747 364.483 589.428 365.235 588.867 365.789C588.307 366.343 587.552 366.653 586.765 366.653V230.958C587.552 230.958 588.307 231.269 588.867 231.822C589.428 232.376 589.747 233.128 589.757 233.916Z" fill="black"/>
<path d="M580.211 239.001H447.425V350.021L580.211 353.016V239.001Z" fill="white"/>
<path d="M436.772 233.916V359.876C436.763 360.645 436.459 361.381 435.923 361.931C435.387 362.482 434.66 362.805 433.892 362.834L290.521 366.653C289.733 366.653 288.978 366.343 288.418 365.789C287.858 365.235 287.538 364.483 287.528 363.695V233.916C287.538 233.135 287.852 232.388 288.405 231.835C288.957 231.283 289.703 230.968 290.483 230.958H433.817C434.598 230.968 435.344 231.283 435.896 231.835C436.448 232.388 436.762 233.135 436.772 233.916Z" fill="#65617D"/>
<path d="M297.059 239.001H429.844V350.021L297.059 353.016V239.001Z" fill="white"/>
<path opacity="0.1" d="M645.669 399.633V409.368L532.019 410.417L530.807 410.439L487.612 410.836L486.58 410.851L473.451 410.963H473.062L393.031 411.705L261.66 412.925H261.547L228.145 413.24L227.786 413.247L79.3652 414.61V403.377L230.861 402.381H231.22L261.884 402.171H262.026L473.795 400.771H474.012L474.139 400.764H474.491L478.074 400.741H479.166L534.892 400.367L538.183 400.352L538.916 400.344L645.669 399.633Z" fill="black"/>
<path d="M364.514 261.714C385.721 261.714 402.913 244.504 402.913 223.275C402.913 202.045 385.721 184.835 364.514 184.835C343.306 184.835 326.114 202.045 326.114 223.275C326.114 244.504 343.306 261.714 364.514 261.714Z" fill="#FBBEBE"/>
<path d="M402.921 282.443C402.921 282.443 328.486 291.429 335.593 282.443C338.166 279.193 338.877 269.562 338.735 258.591C338.69 255.259 338.57 251.807 338.398 248.369C337.575 231.894 335.593 215.794 335.593 215.794C335.593 215.794 400.676 185.09 393.195 209.428C390.203 219.261 391.183 233.07 393.457 246.033C394.123 249.815 394.894 253.522 395.702 257.041C397.673 265.626 400.083 274.105 402.921 282.443Z" fill="#FBBEBE"/>
<path d="M378.63 279.395C387.241 277.8 396.36 274.902 404.462 278.242C406.594 279.118 408.554 280.399 410.738 281.133C412.923 281.866 415.317 282.046 417.591 282.563C425.581 284.375 432.059 290.463 436.218 297.54C440.378 304.617 442.532 312.622 444.642 320.546L449.804 339.889C454.292 356.701 458.781 373.655 459.821 391.036C397.33 394.617 334.697 394.974 272.17 392.107C276.24 384.364 280.399 376.149 280.055 367.395C279.711 358.64 274.676 350.006 276.494 341.379C277.653 335.882 281.409 331.352 283.705 326.237C290.251 311.619 285.157 291.946 296.662 280.818C301.839 275.816 309.38 273.921 316.584 274.161C325.77 274.468 335.174 277.336 344.263 278.736C355.904 280.504 366.9 281.552 378.63 279.395Z" fill="#F8DE2B"/>
<path opacity="0.1" d="M476.554 362.647L476.48 363.717V363.792L476.352 365.515L475.358 379.376L474.153 396.076L473.809 400.779L473.061 410.844V410.971L393.015 411.72L261.658 413.143V413.772H261.554V413.143V412.933L261.89 402.179L262.534 381.166L263.087 363.35L263.14 361.576C263.172 360.504 263.423 359.451 263.876 358.48C264.329 357.509 264.975 356.641 265.774 355.928C266.574 355.215 267.51 354.673 268.526 354.335C269.542 353.996 270.616 353.869 271.683 353.96C275.214 354.259 279.8 354.626 285.283 355.016L287.527 355.18C319.194 357.382 377.717 360.228 436.771 356.678C438.013 356.611 439.262 356.536 440.512 356.446C449.668 355.869 458.817 355.128 467.877 354.199C469.022 354.079 470.179 354.212 471.268 354.588C472.356 354.964 473.349 355.575 474.177 356.376C475.004 357.178 475.646 358.152 476.056 359.229C476.467 360.305 476.637 361.459 476.554 362.609V362.647Z" fill="black"/>
<path d="M261.637 413.772V413.143L393.016 411.712L473.062 410.964H473.286V410.836L474.034 400.772L474.356 396.278L475.583 379.346L476.548 365.942V365.612C476.592 364.994 476.565 364.374 476.465 363.762C476.47 363.738 476.47 363.712 476.465 363.688C476.26 362.424 475.746 361.23 474.969 360.213C474.145 359.155 473.066 358.326 471.833 357.801C470.6 357.277 469.254 357.076 467.922 357.217C458.863 358.146 449.714 358.887 440.557 359.464C439.308 359.554 438.059 359.629 436.817 359.696C377.763 363.208 319.24 360.363 287.573 358.198L285.329 358.034C279.845 357.644 275.259 357.285 271.728 356.978C269.786 356.814 267.852 357.376 266.299 358.555C264.746 359.735 263.685 361.449 263.32 363.366C263.244 363.771 263.199 364.182 263.185 364.594L262.677 381.189L261.981 402.209L261.652 412.963V413.173V413.802L261.637 413.772Z" fill="#3F3D56"/>
<path opacity="0.1" d="M476.78 367.896L475.86 379.376L474.491 396.488L474.146 400.771L473.398 410.364L473.353 410.844V410.971L473.241 412.079L473.324 410.971H473.107L393.061 411.72L261.659 413.143V412.933L262.026 402.179L262.774 381.166L263.253 367.2C263.276 366.405 263.498 365.629 263.898 364.942C264.298 364.256 264.863 363.68 265.542 363.268C266.389 362.748 267.379 362.512 268.37 362.594C269.941 362.721 271.871 362.871 274.122 363.036C277.781 363.305 282.291 363.62 287.543 363.949C297.268 364.564 309.47 365.223 323.451 365.762C362.352 367.259 414.868 367.761 464.75 363.388C466.995 363.193 469.314 362.976 471.58 362.759C472.478 362.669 473.382 362.841 474.184 363.253C474.411 363.366 474.627 363.502 474.827 363.657C475.478 364.13 475.994 364.765 476.323 365.5C476.4 365.646 476.462 365.799 476.51 365.956C476.735 366.577 476.827 367.238 476.78 367.896Z" fill="black"/>
<path opacity="0.1" d="M223.006 378.148V380.537C223.007 381.406 222.761 382.257 222.297 382.991C221.834 383.726 221.172 384.313 220.388 384.686L190.389 385.263C189.592 384.897 188.916 384.309 188.443 383.569C187.969 382.83 187.718 381.97 187.719 381.091V378.845L223.006 378.148Z" fill="black"/>
<path d="M223.372 386.093L184.284 386.842V380.349L223.372 379.601V386.093Z" fill="#3F3D56"/>
<path opacity="0.1" d="M223.372 386.093L184.284 386.842V380.349L223.372 379.601V386.093Z" fill="black"/>
<path d="M224.868 386.093L185.78 386.842V380.349L224.868 379.601V386.093Z" fill="#3F3D56"/>
<path opacity="0.1" d="M508.116 379.646V382.035C508.116 382.904 508.362 383.754 508.825 384.489C509.289 385.223 509.951 385.811 510.735 386.184L540.733 386.76C541.53 386.394 542.206 385.807 542.68 385.067C543.153 384.328 543.404 383.467 543.404 382.589V380.342L508.116 379.646Z" fill="black"/>
<path opacity="0.1" d="M507.742 387.591L546.83 388.34V381.847L507.742 381.099V387.591Z" fill="black"/>
<path d="M506.246 387.591L545.334 388.34V381.847L506.246 381.099V387.591Z" fill="#3F3D56"/>
<path d="M340.224 235.054C340.284 240.297 337.86 245.239 335.802 250.084C328.312 267.734 325.068 286.898 326.332 306.032C326.878 314.27 328.262 322.507 326.878 330.67C325.494 338.832 320.571 346.973 312.664 349.317C325.778 357.142 343.53 356.319 355.874 347.325C362.449 342.532 367.349 335.844 372.145 329.269C371.575 341.081 368.159 352.578 362.188 362.781C372.981 361.825 383.454 358.609 392.927 353.343C402.4 348.077 410.663 340.878 417.18 332.213C420.404 327.862 423.209 323.084 424.451 317.812C426.763 308.077 423.538 297.959 421.077 288.232C419.02 280.099 417.479 271.845 416.461 263.519C416.14 260.853 415.878 258.112 416.536 255.506C417.284 252.458 419.282 249.882 420.756 247.104C424.945 239.211 425.042 229.655 422.895 220.983C420.748 212.311 416.544 204.313 412.377 196.413C409.04 190.077 405.42 183.45 399.315 179.728C395.5 177.407 391.086 176.441 386.687 175.504L367.708 171.438C363.557 170.547 359.285 169.656 355.088 170.307C348.004 171.416 343.014 176.538 338.63 181.795C335.197 185.884 326.803 193.56 326.212 198.914C325.673 203.849 330.027 212.117 330.768 217.321C331.74 224.061 332.429 221.814 336.229 225.948C338.63 228.509 340.179 231.467 340.224 235.054Z" fill="#7C5C5C"/>
<path d="M224.621 249.815H150.111C150.012 249.815 149.917 249.775 149.847 249.705C149.777 249.635 149.737 249.54 149.737 249.44C149.737 249.341 149.777 249.246 149.847 249.176C149.917 249.105 150.012 249.066 150.111 249.066H224.621C224.72 249.066 224.815 249.105 224.885 249.176C224.956 249.246 224.995 249.341 224.995 249.44C224.995 249.54 224.956 249.635 224.885 249.705C224.815 249.775 224.72 249.815 224.621 249.815Z" fill="#F2F2F2"/>
<path d="M224.621 256.555H150.111C150.012 256.555 149.917 256.515 149.847 256.445C149.777 256.375 149.737 256.28 149.737 256.18C149.737 256.081 149.777 255.986 149.847 255.916C149.917 255.845 150.012 255.806 150.111 255.806H224.621C224.72 255.806 224.815 255.845 224.885 255.916C224.956 255.986 224.995 256.081 224.995 256.18C224.995 256.28 224.956 256.375 224.885 256.445C224.815 256.515 224.72 256.555 224.621 256.555Z" fill="#F2F2F2"/>
<path d="M224.621 263.295H150.111C150.012 263.295 149.917 263.255 149.847 263.185C149.777 263.115 149.737 263.019 149.737 262.92C149.737 262.821 149.777 262.726 149.847 262.655C149.917 262.585 150.012 262.546 150.111 262.546H224.621C224.72 262.546 224.815 262.585 224.885 262.655C224.956 262.726 224.995 262.821 224.995 262.92C224.995 263.019 224.956 263.115 224.885 263.185C224.815 263.255 224.72 263.295 224.621 263.295Z" fill="#F2F2F2"/>
</g>
<defs>
<clipPath id="clip0">
<rect width="779" height="415" fill="white"/>
</clipPath>
</defs>
</svg>
